<?xml version="1.0" encoding="utf-8"?>
<!-- Generator: Adobe Illustrator 25.0.1, SVG Export Plug-In . SVG Version: 6.00 Build 0)  -->
<svg version="1.1"
	 id="图层_1" inkscape:version="0.92.3 (2405546, 2018-03-11)" xmlns:cc="http://creativecommons.org/ns#" xmlns:dc="http://purl.org/dc/elements/1.1/" xmlns:inkscape="http://www.inkscape.org/namespaces/inkscape" xmlns:rdf="http://www.w3.org/1999/02/22-rdf-syntax-ns#" xmlns:sodipodi="http://sodipodi.sourceforge.net/DTD/sodipodi-0.dtd" xmlns:svg="http://www.w3.org/2000/svg"
	 xmlns="http://www.w3.org/2000/svg" xmlns:xlink="http://www.w3.org/1999/xlink" x="0px" y="0px" viewBox="0 0 139.8 200"
	 style="enable-background:new 0 0 139.8 200;" xml:space="preserve">
<style type="text/css">
	.st0{fill:#FFFFFF;}
	.st1{fill:#870000;}
</style>
<path class="st0" d="M111.9,200h-84C12.5,200,0,187.5,0,172.1V27.9C0,12.5,12.5,0,27.9,0h84c15.4,0,27.9,12.5,27.9,27.9v144.2
	C139.8,187.5,127.3,200,111.9,200z"/>
<sodipodi:namedview  bordercolor="#666666" borderopacity="1" gridtolerance="10" guidetolerance="10" id="namedview617" inkscape:current-layer="图层_1" inkscape:cx="44.33986" inkscape:cy="112.60966" inkscape:pageopacity="0" inkscape:pageshadow="2" inkscape:window-height="705" inkscape:window-maximized="1" inkscape:window-width="1366" inkscape:window-x="-8" inkscape:window-y="-8" inkscape:zoom="1" objecttolerance="10" pagecolor="#ffffff" showgrid="false">
	</sodipodi:namedview>
<g id="g1432" transform="matrix(4.0332338,0,0,4.0332338,-220.96878,-33.177379)">
	<path id="path8" inkscape:connector-curvature="0" d="M89.4,11.8v42.4c0,1-0.3,1.8-1,2.5c-0.7,0.7-1.5,1-2.5,1H58.4
		c-1,0-1.8-0.3-2.5-1c-0.7-0.7-1-1.5-1-2.5V11.8c0-1,0.3-1.8,1-2.5s1.5-1,2.5-1h27.5c1,0,1.8,0.3,2.5,1C89.1,10,89.4,10.8,89.4,11.8
		z M85.9,10H58.4c-0.5,0-0.9,0.2-1.3,0.5c-0.3,0.3-0.5,0.8-0.5,1.3v42.4c0,0.5,0.2,0.9,0.5,1.3c0.3,0.3,0.8,0.5,1.3,0.5h27.5
		c0.5,0,0.9-0.2,1.3-0.5c0.3-0.3,0.5-0.8,0.5-1.3V11.8c0-0.5-0.2-0.9-0.5-1.3C86.8,10.2,86.4,10,85.9,10L85.9,10z"/>
	<path id="path10" inkscape:connector-curvature="0" d="M64.6,25.7c1.2,0,3.4-0.6,6.6-1.8c3.2-1.2,5.3-1.8,6.2-1.8
		c1.4,0,2.8,0.3,4.1,0.8c1.3,0.5,2,1.1,2,1.8c0,0.4-0.2,0.7-0.6,1c-0.4,0.3-0.8,0.5-1.3,0.5c-0.2,0-0.9-0.3-2.3-0.8
		c-1.4-0.5-2.6-0.8-3.7-0.8c-1.4,0-3.6,0.5-6.5,1.4c-2.9,0.9-4.7,1.4-5.5,1.4c-1.4,0-2.4-0.3-3-1c0.1-0.4,0.7-0.7,1.9-1.1
		c0.2,0,0.5,0,1,0.1C63.9,25.6,64.3,25.7,64.6,25.7L64.6,25.7z"/>
	<path id="path12" inkscape:connector-curvature="0" d="M65.1,20.6c0-0.3,1.1-0.8,3.2-1.4c0.2,0,0.4-0.1,0.8-0.2
		c0.7-0.2,1.3-0.4,1.7-0.5c0.6-0.2,1.4-0.4,2.4-0.7s1.7-0.5,2.3-0.7c0.6-0.2,1-0.3,1.2-0.3c0.4,0,0.5,0.1,0.5,0.2
		c0,0.2-0.1,0.5-0.1,0.7c-0.1,0.2-0.2,0.5-0.4,0.7c-0.2,0.2-0.3,0.4-0.3,0.4c-6.1,1.6-9.5,2.4-10.2,2.4
		C65.5,21.3,65.1,21.1,65.1,20.6L65.1,20.6z"/>
	<path id="path14" inkscape:connector-curvature="0" class="st1" d="M69.8,44.1c-0.2,0-0.5,0.1-1,0.3l-0.2,0.5
		c-0.2,0.3-0.4,0.6-0.5,0.7c-0.6-0.4-0.9-1.5-0.9-3.5c0-1.5,0.1-2.6,0.2-3.3c1.5-0.2,3.1-0.6,4.9-1.1c1.8-0.5,2.9-0.7,3.3-0.7
		c0.8,0,1.3,0.3,1.3,0.8l-0.4,1.6c-0.3,1-0.4,2.1-0.4,3.2c0,0.6,0,1.3,0.1,2c0.8,0,1.6,0.2,2.4,0.4c0.9,0.2,1.8,0.6,2.7,1.2
		c0.9,0.6,1.4,1.3,1.4,2.1c0,0.7-0.3,1.2-0.8,1.6c-0.5,0.4-1.2,0.5-2,0.5c-0.2,0-0.6,0.1-1.3,0.4c-0.7,0.3-1.2,0.4-1.6,0.4
		c-0.5,0-1.5-0.3-2.8-0.8c-1.4-0.5-2.3-1-2.9-1.3c-0.2,0.1-0.4,0.2-0.6,0.4c-0.2,0.2-0.4,0.3-0.5,0.3c-0.2,0-0.8-0.2-1.9-0.5
		c0,0,0,0.2,0,0.4c0,0.2,0,0.3-0.1,0.4c0,0.1,0,0.2-0.1,0.4c0,0.1-0.1,0.2-0.1,0.3c-0.1,0.1-0.2,0.1-0.3,0.1s-0.2-0.1-0.4-0.2
		c-0.1-0.2-0.3-0.4-0.4-0.6c-0.1-0.3-0.2-0.5-0.3-0.7c-0.1-0.2-0.2-0.5-0.3-0.8c-0.1-0.3-0.1-0.5-0.2-0.5h-0.7
		c-0.8,0-1.5-0.1-2.1-0.4c-0.6-0.2-1-0.6-1-1c0,0,0-0.1,0-0.2c0-0.1,0-0.2,0-0.2c0.4,0,0.9,0,1.5,0.1c0.6,0.1,1.1,0.1,1.5,0.1h0.2
		c0-0.3-0.1-0.8-0.2-1.3c-0.1-0.6-0.2-1.1-0.3-1.4c-0.1-0.4-0.1-0.7-0.1-0.9c0-0.1,0.1-0.2,0.2-0.4c0.5,0.1,0.8,0.3,1,0.7
		c0.2,0.4,0.4,0.9,0.6,1.6c0.2,0.7,0.4,1.2,0.6,1.7c0.6,0,1.3-0.2,2.3-0.5c0-0.1,0-0.4,0-0.8C69.8,44.6,69.8,44.3,69.8,44.1
		L69.8,44.1z M77.3,35.9c-1.2,0-3,0.3-5.3,1c-2.4,0.7-3.9,1-4.7,1c-2.4,0-3.9-0.4-4.7-1.3c0.7-0.4,1.3-0.7,1.6-0.7
		c0.4,0,1,0.1,1.8,0.3c0.8,0.2,1.5,0.3,2.1,0.3c0.8,0,1.3-0.1,1.6-0.2c0.3-0.2,0.4-0.5,0.4-1.1c0-0.1-0.1-0.2-0.3-0.3
		s-0.4-0.1-0.4-0.3c0-0.2,0-0.3,0.1-0.4c0.1-0.1,0.2-0.2,0.3-0.3c0.1-0.1,0.2-0.3,0.3-0.4c0.1-0.1,0.2-0.4,0.4-0.7
		c0.2-0.4,0.4-0.6,0.5-0.8c0.1-0.1,0.3-0.2,0.5-0.2c0.3,0,0.4,0.2,0.4,0.6c0,0.3,0,0.6-0.1,1c-0.1,0.3-0.2,0.7-0.3,1.1
		c-0.1,0.4-0.2,0.7-0.3,1c0.1,0.2,0.2,0.3,0.4,0.3c0.2,0,0.6-0.5,1-1.4c0.5-0.9,0.7-1.6,0.7-2c0-0.2-0.1-0.5-0.4-0.7
		c-0.3-0.2-0.4-0.4-0.5-0.5c0.3-0.7,1-1.3,2.1-1.7c0.8,0.3,1.2,1,1.2,2.2c0,0.4-0.2,0.9-0.5,1.4c-0.3,0.6-0.5,1.1-0.6,1.6
		c0.3,0,0.8-0.1,1.3-0.2c0.6-0.1,1.1-0.2,1.7-0.3c0.6-0.1,1.2-0.1,1.8-0.1c1.3,0,2,0.1,2.2,0.4c-0.3,0.6-0.7,1-1.3,1.3
		C80,36,78.9,35.9,77.3,35.9L77.3,35.9z M67.8,47.6c0.2,0.4,0.3,0.7,0.4,1c0.6-0.1,1.2-0.3,1.9-0.7c-0.2-0.2-0.3-0.6-0.3-1
		L67.8,47.6z M68.6,39.7v1.1h0.1l0.1,0.1l1.1-0.2c0-0.3,0-0.7,0.1-1.2L68.6,39.7z M69.8,41.7c-0.2,0-0.5,0.1-0.8,0.1
		c-0.2,0-0.4,0-0.4,0.1c0,0,0,0.1,0,0.2c0,0.1,0,0.2,0,0.2c0,0.1,0,0.2,0,0.4c0,0.2,0,0.3,0,0.4c0.2,0,0.6,0,1.1-0.1V41.7z
		 M71.3,39.2c0,0.2,0,0.4-0.1,0.7c-0.1,0.2-0.1,0.4-0.1,0.6c0.4-0.1,0.9-0.2,1.4-0.3c0.5-0.1,0.9-0.2,1.1-0.2c0-0.2,0-0.4,0-0.7
		c0-0.3,0-0.5,0-0.7c-0.4,0.1-0.8,0.2-1.3,0.3C72,39,71.6,39.1,71.3,39.2L71.3,39.2z M71.2,41.4v1.3c0.6,0,1.4-0.2,2.4-0.5
		c0-0.6,0-1.1,0.1-1.4C72.7,41.1,71.9,41.3,71.2,41.4z M71.3,43.8v1.6c0.9-0.2,1.7-0.4,2.3-0.7c0-0.7,0-1.2-0.1-1.6
		c-0.2,0.1-0.5,0.2-1,0.3C72,43.7,71.6,43.8,71.3,43.8L71.3,43.8z M71.3,46.5c0,0.6,0.1,1,0.3,1c0.2,0,0.3,0,0.5-0.1
		c0.2-0.1,0.4-0.1,0.7-0.3c0.3-0.1,0.6-0.2,0.9-0.3c-0.1-0.4-0.1-0.8-0.1-1C73.4,45.9,72.7,46.1,71.3,46.5L71.3,46.5z M76.4,45.8
		c0,0.1,0,0.3,0.1,0.5c0.1,0.3,0.1,0.5,0.1,0.7c0,0.2-0.1,0.4-0.2,0.7c-0.8,0.5-1.5,0.8-2.2,0.8c0,0-0.1-0.2-0.2-0.4
		c-0.1-0.2-0.1-0.3-0.2-0.4c-0.2,0.1-0.5,0.2-0.8,0.4c-0.3,0.2-0.5,0.3-0.7,0.4c0.2,0.2,0.6,0.5,1.2,0.7c0.6,0.3,1.1,0.4,1.5,0.4
		c0.2,0,0.5,0,0.7-0.1c0.2-0.1,0.5-0.2,0.7-0.4c0.3-0.2,0.5-0.3,0.6-0.4c0.2-0.1,0.6-0.1,1.2-0.2c0.6,0,1-0.1,1.3-0.3
		c0.3-0.2,0.4-0.5,0.4-0.9c0-0.3-0.4-0.6-1.3-0.9S77,45.8,76.4,45.8L76.4,45.8z"/>
</g>
</svg>
