<?xml version="1.0" encoding="utf-8"?>
<!-- Generator: Adobe Illustrator 25.0.1, SVG Export Plug-In . SVG Version: 6.00 Build 0)  -->
<svg version="1.1"
	 id="图层_1" inkscape:version="0.92.3 (2405546, 2018-03-11)" xmlns:cc="http://creativecommons.org/ns#" xmlns:dc="http://purl.org/dc/elements/1.1/" xmlns:inkscape="http://www.inkscape.org/namespaces/inkscape" xmlns:rdf="http://www.w3.org/1999/02/22-rdf-syntax-ns#" xmlns:sodipodi="http://sodipodi.sourceforge.net/DTD/sodipodi-0.dtd" xmlns:svg="http://www.w3.org/2000/svg"
	 xmlns="http://www.w3.org/2000/svg" xmlns:xlink="http://www.w3.org/1999/xlink" x="0px" y="0px" viewBox="0 0 139.8 200"
	 style="enable-background:new 0 0 139.8 200;" xml:space="preserve">
<style type="text/css">
	.st0{fill:#FFFFFF;}
	.st1{fill:#870000;}
</style>
<path class="st0" d="M112,200.5H28c-15.4,0-27.9-12.5-27.9-27.9V28.4C0.1,13,12.6,0.5,28,0.5h84c15.4,0,27.9,12.5,27.9,27.9v144.2
	C139.9,188,127.4,200.5,112,200.5z"/>
<sodipodi:namedview  bordercolor="#666666" borderopacity="1" gridtolerance="10" guidetolerance="10" id="namedview617" inkscape:current-layer="图层_1" inkscape:cx="66.83986" inkscape:cy="152.60966" inkscape:pageopacity="0" inkscape:pageshadow="2" inkscape:window-height="705" inkscape:window-maximized="1" inkscape:window-width="1366" inkscape:window-x="-8" inkscape:window-y="-8" inkscape:zoom="1" objecttolerance="10" pagecolor="#ffffff" showgrid="false">
	</sodipodi:namedview>
<g id="g1540" transform="matrix(4.0332338,0,0,4.0332338,-992.06258,-33.177379)">
	<path id="path48" inkscape:connector-curvature="0" d="M280.6,11.8v42.4c0,1-0.3,1.8-1,2.5c-0.7,0.7-1.5,1-2.5,1h-27.5
		c-1,0-1.8-0.3-2.5-1c-0.7-0.7-1-1.5-1-2.5V11.8c0-1,0.3-1.8,1-2.5c0.7-0.7,1.5-1,2.5-1H277c1,0,1.8,0.3,2.5,1
		C280.3,10,280.6,10.8,280.6,11.8z M277,10h-27.5c-0.5,0-0.9,0.2-1.3,0.5c-0.3,0.3-0.5,0.8-0.5,1.3v42.4c0,0.5,0.2,0.9,0.5,1.3
		c0.3,0.3,0.8,0.5,1.3,0.5H277c0.5,0,0.9-0.2,1.3-0.5c0.3-0.3,0.5-0.8,0.5-1.3V11.8c0-0.5-0.2-0.9-0.5-1.3C278,10.2,277.6,10,277,10
		z"/>
	<path id="path50" inkscape:connector-curvature="0" d="M260.2,24.7c0-0.5-0.1-1.2-0.3-2.1c-0.2-0.9-0.3-1.6-0.3-2
		c0-0.5-0.3-1-0.7-1.6c-0.4-0.6-0.7-1.2-0.7-1.8c0-1,0.2-1.7,0.5-2.1c0.7,0,1.5,0.3,2.4,1c0.9,0.7,1.3,1.4,1.3,2.1
		c0,0.3-0.1,0.8-0.4,1.4c-0.3,0.7-0.4,1.3-0.4,1.7c0,0.8,0.2,1.5,0.6,2.1c0.5-0.4,1.5-1.2,3-2.4c1.5-1.3,2.5-2.1,3-2.3
		c1.2-0.6,2.7-0.9,4.5-0.9c0.5,0,0.7,0.2,0.7,0.7c0,0.4-0.1,0.8-0.3,1c-0.2,0.3-0.4,0.4-0.6,0.5c-0.2,0.1-0.5,0.1-1,0.2
		c-2.3,0.4-3.8,0.8-4.5,1.1c-1,0.5-2.4,1.7-4.1,3.6c0.1,0.2,0.5,0.3,1.2,0.6c0.7,0.2,1.2,0.3,1.6,0.3c0.2,0,0.5,0,0.8-0.1
		c0.3-0.1,0.6-0.1,0.7-0.1c0.3,0,0.6,0.1,1,0.3c0.4,0.2,0.6,0.4,0.6,0.8c0,0.6-0.2,1.1-0.7,1.6c-0.5,0.5-1,0.7-1.5,0.7
		c-0.5,0-1-0.1-1.7-0.2c-0.6-0.1-1.1-0.2-1.3-0.2c-1.8-0.2-2.9-0.7-3.3-1.5c-0.2,0-0.9,0.2-2.2,0.6c-1.3,0.4-3,0.7-5.1,0.9
		c0.4-0.8,1.6-1.5,3.3-2.1S259.5,25.3,260.2,24.7L260.2,24.7z"/>
	<path id="path52" inkscape:connector-curvature="0" class="st1" d="M261,44.1c-0.2,0-0.5,0.1-1,0.3l-0.2,0.5
		c-0.2,0.3-0.4,0.6-0.5,0.7c-0.6-0.4-0.9-1.5-0.9-3.5c0-1.5,0.1-2.6,0.2-3.3c1.5-0.2,3.1-0.6,4.9-1.1c1.8-0.5,2.9-0.7,3.3-0.7
		c0.8,0,1.3,0.3,1.3,0.8l-0.4,1.6c-0.3,1-0.4,2.1-0.4,3.2c0,0.6,0,1.3,0.1,2c0.8,0,1.6,0.2,2.5,0.4c0.9,0.2,1.8,0.6,2.7,1.2
		c0.9,0.6,1.4,1.3,1.4,2.1c0,0.7-0.3,1.2-0.8,1.6c-0.5,0.4-1.2,0.5-2,0.5c-0.2,0-0.6,0.1-1.3,0.4c-0.7,0.3-1.2,0.4-1.6,0.4
		c-0.5,0-1.5-0.3-2.8-0.8c-1.4-0.5-2.3-1-2.9-1.3c-0.2,0.1-0.4,0.2-0.6,0.4c-0.2,0.2-0.4,0.3-0.5,0.3c-0.2,0-0.8-0.2-1.9-0.5
		c0,0,0,0.2,0,0.4c0,0.2,0,0.3-0.1,0.4c0,0.1,0,0.2-0.1,0.4c0,0.1-0.1,0.2-0.1,0.3c-0.1,0.1-0.2,0.1-0.3,0.1c-0.1,0-0.2-0.1-0.4-0.2
		c-0.1-0.2-0.3-0.4-0.4-0.6c-0.1-0.3-0.2-0.5-0.3-0.7c-0.1-0.2-0.2-0.5-0.3-0.8c-0.1-0.3-0.1-0.5-0.2-0.5h-0.7
		c-0.8,0-1.5-0.1-2.1-0.4c-0.6-0.2-1-0.6-1-1c0,0,0-0.1,0-0.2c0-0.1,0-0.2,0-0.2c0.4,0,0.9,0,1.5,0.1c0.6,0.1,1.1,0.1,1.5,0.1h0.2
		c0-0.3-0.1-0.8-0.2-1.3c-0.1-0.6-0.2-1.1-0.3-1.4c-0.1-0.4-0.1-0.7-0.1-0.9c0-0.1,0.1-0.2,0.2-0.4c0.5,0.1,0.8,0.3,1,0.7
		c0.2,0.4,0.4,0.9,0.6,1.6c0.2,0.7,0.4,1.2,0.6,1.7c0.6,0,1.3-0.2,2.3-0.5c0-0.1,0-0.4,0-0.8C261,44.6,261,44.3,261,44.1L261,44.1z
		 M268.5,35.9c-1.2,0-3,0.3-5.3,1c-2.4,0.7-3.9,1-4.7,1c-2.4,0-3.9-0.4-4.7-1.3c0.7-0.4,1.3-0.7,1.6-0.7c0.4,0,1,0.1,1.8,0.3
		c0.8,0.2,1.5,0.3,2.1,0.3c0.8,0,1.3-0.1,1.6-0.2c0.3-0.2,0.4-0.5,0.4-1.1c0-0.1-0.1-0.2-0.3-0.3c-0.2-0.1-0.4-0.1-0.4-0.3
		c0-0.2,0-0.3,0.1-0.4c0.1-0.1,0.2-0.2,0.3-0.3c0.1-0.1,0.2-0.3,0.3-0.4c0.1-0.1,0.2-0.4,0.4-0.7c0.2-0.4,0.4-0.6,0.5-0.8
		c0.1-0.1,0.3-0.2,0.5-0.2c0.3,0,0.4,0.2,0.4,0.6c0,0.3,0,0.6-0.1,1c-0.1,0.3-0.2,0.7-0.3,1.1c-0.1,0.4-0.2,0.7-0.3,1
		c0.1,0.2,0.2,0.3,0.4,0.3c0.2,0,0.6-0.5,1-1.4c0.5-0.9,0.7-1.6,0.7-2c0-0.2-0.1-0.5-0.4-0.7c-0.3-0.2-0.4-0.4-0.5-0.5
		c0.3-0.7,1-1.3,2.1-1.7c0.8,0.3,1.2,1,1.2,2.2c0,0.4-0.2,0.9-0.5,1.4c-0.3,0.6-0.5,1.1-0.6,1.6c0.3,0,0.8-0.1,1.3-0.2
		c0.6-0.1,1.1-0.2,1.7-0.3c0.6-0.1,1.2-0.1,1.8-0.1c1.3,0,2,0.1,2.2,0.4c-0.3,0.6-0.7,1-1.3,1.3C271.2,36,270.1,35.9,268.5,35.9
		L268.5,35.9z M258.9,47.6c0.2,0.4,0.3,0.7,0.4,1c0.6-0.1,1.2-0.3,1.9-0.7c-0.2-0.2-0.3-0.6-0.3-1L258.9,47.6z M259.8,39.7v1.1h0.1
		l0.1,0.1l1.1-0.2c0-0.3,0-0.7,0.1-1.2L259.8,39.7z M261,41.7c-0.2,0-0.5,0.1-0.8,0.1c-0.2,0-0.4,0-0.4,0.1c0,0,0,0.1,0,0.2
		c0,0.1,0,0.2,0,0.2c0,0.1,0,0.2,0,0.4c0,0.2,0,0.3,0,0.4c0.2,0,0.6,0,1.1-0.1V41.7z M262.5,39.2c0,0.2,0,0.4-0.1,0.7
		c-0.1,0.2-0.1,0.4-0.1,0.6c0.4-0.1,0.9-0.2,1.4-0.3c0.5-0.1,0.9-0.2,1.1-0.2c0-0.2,0-0.4,0-0.7c0-0.3,0-0.5,0-0.7
		c-0.4,0.1-0.8,0.2-1.3,0.3C263.2,39,262.8,39.1,262.5,39.2L262.5,39.2z M262.3,41.4v1.3c0.6,0,1.4-0.2,2.4-0.5c0-0.6,0-1.1,0.1-1.4
		C263.9,41.1,263.1,41.3,262.3,41.4z M262.5,43.8v1.6c0.9-0.2,1.7-0.4,2.3-0.7c0-0.7,0-1.2-0.1-1.6c-0.2,0.1-0.5,0.2-1,0.3
		C263.2,43.7,262.8,43.8,262.5,43.8L262.5,43.8z M262.5,46.5c0,0.6,0.1,1,0.3,1c0.2,0,0.3,0,0.5-0.1c0.2-0.1,0.4-0.1,0.7-0.3
		c0.3-0.1,0.6-0.2,0.9-0.3c-0.1-0.4-0.1-0.8-0.1-1C264.6,45.9,263.8,46.1,262.5,46.5L262.5,46.5z M267.5,45.8c0,0.1,0,0.3,0.1,0.5
		c0.1,0.3,0.1,0.5,0.1,0.7c0,0.2-0.1,0.4-0.2,0.7c-0.8,0.5-1.5,0.8-2.2,0.8c0,0-0.1-0.2-0.2-0.4c-0.1-0.2-0.1-0.3-0.2-0.4
		c-0.2,0.1-0.5,0.2-0.8,0.4c-0.3,0.2-0.5,0.3-0.7,0.4c0.2,0.2,0.6,0.5,1.2,0.7c0.6,0.3,1.1,0.4,1.5,0.4c0.2,0,0.5,0,0.7-0.1
		c0.2-0.1,0.5-0.2,0.7-0.4c0.3-0.2,0.5-0.3,0.6-0.4c0.2-0.1,0.6-0.1,1.2-0.2c0.6,0,1-0.1,1.3-0.3c0.3-0.2,0.4-0.5,0.4-0.9
		c0-0.3-0.4-0.6-1.3-0.9S268.2,45.8,267.5,45.8L267.5,45.8z"/>
</g>
</svg>
