<?xml version="1.0" encoding="utf-8"?>
<!-- Generator: Adobe Illustrator 25.0.1, SVG Export Plug-In . SVG Version: 6.00 Build 0)  -->
<svg version="1.1"
	 id="图层_1" inkscape:version="0.92.3 (2405546, 2018-03-11)" xmlns:cc="http://creativecommons.org/ns#" xmlns:dc="http://purl.org/dc/elements/1.1/" xmlns:inkscape="http://www.inkscape.org/namespaces/inkscape" xmlns:rdf="http://www.w3.org/1999/02/22-rdf-syntax-ns#" xmlns:sodipodi="http://sodipodi.sourceforge.net/DTD/sodipodi-0.dtd" xmlns:svg="http://www.w3.org/2000/svg"
	 xmlns="http://www.w3.org/2000/svg" xmlns:xlink="http://www.w3.org/1999/xlink" x="0px" y="0px" viewBox="0 0 139.8 200"
	 style="enable-background:new 0 0 139.8 200;" xml:space="preserve">
<style type="text/css">
	.st0{fill:#FFFFFF;}
	.st1{fill:#870000;}
</style>
<path class="st0" d="M112,200.5H28c-15.4,0-27.9-12.5-27.9-27.9V28.4C0.1,13,12.6,0.5,28,0.5h84c15.4,0,27.9,12.5,27.9,27.9v144.2
	C139.9,188,127.4,200.5,112,200.5z"/>
<sodipodi:namedview  bordercolor="#666666" borderopacity="1" gridtolerance="10" guidetolerance="10" id="namedview617" inkscape:current-layer="图层_1" inkscape:cx="-36.16014" inkscape:cy="152.60966" inkscape:pageopacity="0" inkscape:pageshadow="2" inkscape:window-height="705" inkscape:window-maximized="1" inkscape:window-width="1366" inkscape:window-x="-8" inkscape:window-y="-8" inkscape:zoom="1" objecttolerance="10" pagecolor="#ffffff" showgrid="false">
	</sodipodi:namedview>
<g id="g1576" transform="matrix(4.0332338,0,0,4.0332338,-1300.5041,-33.177379)">
	<path id="path62" inkscape:connector-curvature="0" d="M357.1,11.8v42.4c0,1-0.3,1.8-1,2.5c-0.7,0.7-1.5,1-2.5,1H326
		c-1,0-1.8-0.3-2.5-1c-0.7-0.7-1-1.5-1-2.5V11.8c0-1,0.3-1.8,1-2.5c0.7-0.7,1.5-1,2.5-1h27.5c1,0,1.8,0.3,2.5,1
		C356.8,10,357.1,10.8,357.1,11.8z M353.5,10H326c-0.5,0-0.9,0.2-1.3,0.5c-0.3,0.3-0.5,0.8-0.5,1.3v42.4c0,0.5,0.2,0.9,0.5,1.3
		c0.3,0.3,0.8,0.5,1.3,0.5h27.5c0.5,0,0.9-0.2,1.3-0.5c0.3-0.3,0.5-0.8,0.5-1.3V11.8c0-0.5-0.2-0.9-0.5-1.3
		C354.5,10.2,354,10,353.5,10z"/>
	<path id="path64" inkscape:connector-curvature="0" d="M340.4,23.2c0,0.9,0.1,1.5,0.2,1.6c0.3,0.4,0.8,0.8,1.5,1.2
		c0.7,0.4,1.4,0.6,1.9,0.6c0.6,0,1.1-0.1,1.5-0.4c0-0.2,0.1-0.6,0.1-1.1c0-0.4,0-1-0.1-1.7c-0.1-0.7-0.1-1.3-0.1-1.7
		c0.3,0,0.7,0.6,1.2,1.8c0.5,1.2,0.7,1.8,0.8,1.8c0.6,0.2,1.1,0.4,1.6,0.8c0.5,0.4,0.8,0.8,0.8,1.2c0,0.6-0.5,1.2-1.6,1.6
		c-1,0.5-2.1,0.7-3,0.7c-1.8,0-3.3-0.4-4.4-1.3c-1.2-0.9-1.7-1.9-1.7-3c0-1.7,0.1-3,0.3-3.9c0.2-0.9,0.3-1.4,0.3-1.5
		c0-0.1,0-0.3-0.1-0.6c-0.3,0-0.5,0.1-0.5,0.2c-0.1,0.1-0.2,0.6-0.2,1.3c-0.1,1.3-1.3,2.7-3.6,4.2c-2.3,1.6-3.9,2.3-4.8,2.3
		c-0.2,0-0.4-0.1-0.5-0.2c0.1-0.1,0.5-0.4,1.3-0.7c0.8-0.4,1.7-0.9,2.7-1.7c1.1-0.8,1.9-1.7,2.7-2.8c-0.1-0.2-0.3-0.4-0.7-0.7
		s-0.6-0.6-0.6-0.8c0-0.2,0.2-0.3,0.6-0.6c0.4-0.2,0.7-0.5,0.8-0.7c0-0.3,0-0.6-0.1-1.1c-0.1-0.5-0.1-0.8-0.1-1
		c0-0.5,0.1-0.9,0.4-1.1c1.4,0,2.3,0.5,2.7,1.4c0,0,0.1,0,0.2,0c0.1,0,0.2,0,0.3,0c0.3-0.6,0.5-0.8,0.5-0.8c0.1,0,0.2,0,0.4,0.1
		c0.1,0,0.3,0.1,0.4,0.1c0.4,0,1.1-0.3,1.9-0.8c0.9-0.5,1.4-0.8,1.7-0.8c0.5,0,0.8,0.5,0.8,1.4c0,0.3-0.4,0.8-1.1,1.4
		c0,0.1-0.2,0.1-0.4,0s-0.4-0.1-0.5-0.1c-0.9,0-1.7,0.1-2.4,0.4C340.6,20.2,340.4,21.8,340.4,23.2L340.4,23.2z"/>
	<path id="path66" inkscape:connector-curvature="0" class="st1" d="M337.5,44.1c-0.2,0-0.5,0.1-1,0.3l-0.2,0.5
		c-0.2,0.3-0.4,0.6-0.5,0.7c-0.6-0.4-0.9-1.5-0.9-3.5c0-1.5,0.1-2.6,0.2-3.3c1.5-0.2,3.1-0.6,4.9-1.1c1.8-0.5,2.9-0.7,3.3-0.7
		c0.8,0,1.3,0.3,1.3,0.8l-0.4,1.6c-0.3,1-0.4,2.1-0.4,3.2c0,0.6,0,1.3,0.1,2c0.8,0,1.6,0.2,2.5,0.4c0.9,0.2,1.8,0.6,2.7,1.2
		c0.9,0.6,1.4,1.3,1.4,2.1c0,0.7-0.3,1.2-0.8,1.6c-0.5,0.4-1.2,0.5-2,0.5c-0.2,0-0.6,0.1-1.3,0.4c-0.7,0.3-1.2,0.4-1.6,0.4
		c-0.5,0-1.5-0.3-2.8-0.8c-1.4-0.5-2.3-1-2.9-1.3c-0.2,0.1-0.4,0.2-0.6,0.4c-0.2,0.2-0.4,0.3-0.5,0.3c-0.2,0-0.8-0.2-1.9-0.5
		c0,0,0,0.2,0,0.4c0,0.2,0,0.3-0.1,0.4c0,0.1,0,0.2-0.1,0.4c0,0.1-0.1,0.2-0.1,0.3c-0.1,0.1-0.2,0.1-0.3,0.1c-0.1,0-0.2-0.1-0.4-0.2
		c-0.1-0.2-0.3-0.4-0.4-0.6c-0.1-0.3-0.2-0.5-0.3-0.7c-0.1-0.2-0.2-0.5-0.3-0.8c-0.1-0.3-0.1-0.5-0.2-0.5h-0.7
		c-0.8,0-1.5-0.1-2.1-0.4c-0.6-0.2-1-0.6-1-1c0,0,0-0.1,0-0.2c0-0.1,0-0.2,0-0.2c0.4,0,0.9,0,1.5,0.1c0.6,0.1,1.1,0.1,1.5,0.1h0.2
		c0-0.3-0.1-0.8-0.2-1.3c-0.1-0.6-0.2-1.1-0.3-1.4c-0.1-0.4-0.1-0.7-0.1-0.9c0-0.1,0.1-0.2,0.2-0.4c0.5,0.1,0.8,0.3,1,0.7
		c0.2,0.4,0.4,0.9,0.6,1.6c0.2,0.7,0.4,1.2,0.6,1.7c0.6,0,1.3-0.2,2.3-0.5c0-0.1,0-0.4,0-0.8S337.5,44.3,337.5,44.1L337.5,44.1z
		 M345,35.9c-1.2,0-3,0.3-5.3,1c-2.4,0.7-3.9,1-4.7,1c-2.4,0-3.9-0.4-4.7-1.3c0.7-0.4,1.3-0.7,1.6-0.7c0.4,0,1,0.1,1.8,0.3
		c0.8,0.2,1.5,0.3,2.1,0.3c0.8,0,1.3-0.1,1.6-0.2c0.3-0.2,0.4-0.5,0.4-1.1c0-0.1-0.1-0.2-0.3-0.3c-0.2-0.1-0.4-0.1-0.4-0.3
		c0-0.2,0-0.3,0.1-0.4c0.1-0.1,0.2-0.2,0.3-0.3c0.1-0.1,0.2-0.3,0.3-0.4c0.1-0.1,0.2-0.4,0.4-0.7c0.2-0.4,0.4-0.6,0.5-0.8
		c0.1-0.1,0.3-0.2,0.5-0.2c0.3,0,0.4,0.2,0.4,0.6c0,0.3,0,0.6-0.1,1c-0.1,0.3-0.2,0.7-0.3,1.1c-0.1,0.4-0.2,0.7-0.3,1
		c0.1,0.2,0.2,0.3,0.4,0.3c0.2,0,0.6-0.5,1-1.4c0.5-0.9,0.7-1.6,0.7-2c0-0.2-0.1-0.5-0.4-0.7c-0.3-0.2-0.4-0.4-0.5-0.5
		c0.3-0.7,1-1.3,2.1-1.7c0.8,0.3,1.2,1,1.2,2.2c0,0.4-0.2,0.9-0.5,1.4c-0.3,0.6-0.5,1.1-0.6,1.6c0.3,0,0.8-0.1,1.3-0.2
		c0.6-0.1,1.1-0.2,1.7-0.3c0.6-0.1,1.2-0.1,1.8-0.1c1.3,0,2,0.1,2.2,0.4c-0.3,0.6-0.7,1-1.3,1.3C347.7,36,346.6,35.9,345,35.9
		L345,35.9z M335.4,47.6c0.2,0.4,0.3,0.7,0.4,1c0.6-0.1,1.2-0.3,1.9-0.7c-0.2-0.2-0.3-0.6-0.3-1L335.4,47.6z M336.3,39.7v1.1h0.1
		l0.1,0.1l1.1-0.2c0-0.3,0-0.7,0.1-1.2L336.3,39.7z M337.5,41.7c-0.2,0-0.5,0.1-0.8,0.1c-0.2,0-0.4,0-0.4,0.1c0,0,0,0.1,0,0.2
		c0,0.1,0,0.2,0,0.2c0,0.1,0,0.2,0,0.4c0,0.2,0,0.3,0,0.4c0.2,0,0.6,0,1.1-0.1V41.7z M339,39.2c0,0.2,0,0.4-0.1,0.7
		c-0.1,0.2-0.1,0.4-0.1,0.6c0.4-0.1,0.9-0.2,1.4-0.3c0.5-0.1,0.9-0.2,1.1-0.2c0-0.2,0-0.4,0-0.7c0-0.3,0-0.5,0-0.7
		c-0.4,0.1-0.8,0.2-1.3,0.3C339.7,39,339.3,39.1,339,39.2L339,39.2z M338.8,41.4v1.3c0.6,0,1.4-0.2,2.4-0.5c0-0.6,0-1.1,0.1-1.4
		C340.4,41.1,339.6,41.3,338.8,41.4z M338.9,43.8v1.6c0.9-0.2,1.7-0.4,2.3-0.7c0-0.7,0-1.2-0.1-1.6c-0.2,0.1-0.5,0.2-1,0.3
		C339.7,43.7,339.3,43.8,338.9,43.8L338.9,43.8z M339,46.5c0,0.6,0.1,1,0.3,1c0.2,0,0.3,0,0.5-0.1c0.2-0.1,0.4-0.1,0.7-0.3
		c0.3-0.1,0.6-0.2,0.9-0.3c-0.1-0.4-0.1-0.8-0.1-1C341.1,45.9,340.3,46.1,339,46.5L339,46.5z M344,45.8c0,0.1,0,0.3,0.1,0.5
		c0.1,0.3,0.1,0.5,0.1,0.7c0,0.2-0.1,0.4-0.2,0.7c-0.8,0.5-1.5,0.8-2.2,0.8c0,0-0.1-0.2-0.2-0.4c-0.1-0.2-0.1-0.3-0.2-0.4
		c-0.2,0.1-0.5,0.2-0.8,0.4c-0.3,0.2-0.5,0.3-0.7,0.4c0.2,0.2,0.6,0.5,1.2,0.7c0.6,0.3,1.1,0.4,1.5,0.4c0.2,0,0.5,0,0.7-0.1
		c0.2-0.1,0.5-0.2,0.7-0.4c0.3-0.2,0.5-0.3,0.6-0.4c0.2-0.1,0.6-0.1,1.2-0.2c0.6,0,1-0.1,1.3-0.3c0.3-0.2,0.4-0.5,0.4-0.9
		c0-0.3-0.4-0.6-1.3-0.9S344.7,45.8,344,45.8L344,45.8z"/>
</g>
</svg>
