<?xml version="1.0" encoding="utf-8"?>
<!-- Generator: Adobe Illustrator 25.0.1, SVG Export Plug-In . SVG Version: 6.00 Build 0)  -->
<svg version="1.1"
	 id="图层_1" inkscape:version="0.92.3 (2405546, 2018-03-11)" xmlns:cc="http://creativecommons.org/ns#" xmlns:dc="http://purl.org/dc/elements/1.1/" xmlns:inkscape="http://www.inkscape.org/namespaces/inkscape" xmlns:rdf="http://www.w3.org/1999/02/22-rdf-syntax-ns#" xmlns:sodipodi="http://sodipodi.sourceforge.net/DTD/sodipodi-0.dtd" xmlns:svg="http://www.w3.org/2000/svg"
	 xmlns="http://www.w3.org/2000/svg" xmlns:xlink="http://www.w3.org/1999/xlink" x="0px" y="0px" viewBox="0 0 139.8 200"
	 style="enable-background:new 0 0 139.8 200;" xml:space="preserve">
<style type="text/css">
	.st0{fill:#FFFFFF;}
	.st1{fill:#870000;}
	.st2{fill:#00082D;}
</style>
<path class="st0" d="M112,200.5H28c-15.4,0-27.9-12.5-27.9-27.9V28.4C0.1,13,12.6,0.5,28,0.5h84c15.4,0,27.9,12.5,27.9,27.9v144.2
	C139.9,188,127.4,200.5,112,200.5z"/>
<sodipodi:namedview  bordercolor="#666666" borderopacity="1" gridtolerance="10" guidetolerance="10" id="namedview617" inkscape:current-layer="图层_1" inkscape:cx="-127.16014" inkscape:cy="112.60966" inkscape:pageopacity="0" inkscape:pageshadow="2" inkscape:window-height="705" inkscape:window-maximized="1" inkscape:window-width="1366" inkscape:window-x="-8" inkscape:window-y="-8" inkscape:zoom="1" objecttolerance="10" pagecolor="#ffffff" showgrid="false">
	</sodipodi:namedview>
<g id="g1616" transform="matrix(4.0332338,0,0,4.0332338,-66.745986,-611.50277)">
	<path id="path120" inkscape:connector-curvature="0" d="M51.2,155.2v42.4c0,1-0.3,1.8-1,2.5c-0.7,0.7-1.5,1-2.5,1H20.1
		c-1,0-1.8-0.3-2.5-1c-0.7-0.7-1-1.5-1-2.5v-42.4c0-1,0.3-1.8,1-2.5s1.5-1,2.5-1h27.5c1,0,1.8,0.3,2.5,1
		C50.9,153.4,51.2,154.2,51.2,155.2L51.2,155.2z M47.6,153.4H20.1c-0.5,0-0.9,0.2-1.3,0.5c-0.3,0.3-0.5,0.8-0.5,1.3v42.4
		c0,0.5,0.2,0.9,0.5,1.3c0.3,0.3,0.8,0.5,1.3,0.5h27.5c0.5,0,0.9-0.2,1.3-0.5c0.3-0.3,0.5-0.8,0.5-1.3v-42.4c0-0.5-0.2-0.9-0.5-1.3
		C48.6,153.6,48.1,153.4,47.6,153.4z"/>
	<path id="path122" inkscape:connector-curvature="0" class="st1" d="M27.9,182.4c-1.7-1.7-2.5-3.7-2.5-6c0-2.4,0.8-4.4,2.5-6
		c1.7-1.7,3.7-2.5,6-2.5s4.4,0.8,6,2.5c1.7,1.7,2.5,3.7,2.5,6c0,2.4-0.8,4.4-2.5,6c-1.7,1.7-3.7,2.5-6,2.5
		C31.5,184.9,29.5,184.1,27.9,182.4z M26.6,176.3h3.6c0-0.2,0-0.4,0.1-0.5l-2.2-0.4l0.1-0.3l2.2,0.5c0-0.1,0-0.2,0.1-0.5l-3.3-1.4
		l-1.5,1L26.6,176.3z M27.1,179.1l3.3-1.4c-0.1-0.2-0.1-0.4-0.1-0.5l-2.2,0.5l-0.1-0.3l2.2-0.4c0-0.1-0.1-0.2-0.1-0.5h-3.6l-1,1.6
		L27.1,179.1z M27.2,173.5l3.3,1.3c0.1-0.2,0.2-0.3,0.2-0.4l-2-1.3L29,173l1.9,1.3c0.1-0.1,0.2-0.2,0.2-0.4l-2.5-2.6l-1.8,0.4
		L27.2,173.5z M28.6,181.5l2.5-2.6c-0.1-0.2-0.2-0.3-0.2-0.4l-1.9,1.3l-0.2-0.2l2-1.3c-0.1-0.1-0.2-0.2-0.2-0.4l-3.3,1.3l-0.4,1.9
		L28.6,181.5z M28.8,171.2l2.6,2.5c0.2-0.1,0.3-0.2,0.4-0.2l-1.3-1.9l0.2-0.2l1.3,2c0.1-0.1,0.2-0.2,0.4-0.2l-1.3-3.3l-1.9-0.4
		L28.8,171.2z M31,183.1l1.3-3.3c-0.2-0.1-0.3-0.2-0.4-0.2l-1.3,2l-0.2-0.2l1.3-1.9c-0.1-0.1-0.2-0.2-0.4-0.2l-2.6,2.5l0.4,1.8
		L31,183.1z M31.5,174c-0.7,0.7-1,1.5-1,2.4c0,0.9,0.3,1.7,1,2.4c0.7,0.7,1.5,1,2.4,1c0.9,0,1.7-0.3,2.4-1c0.7-0.7,1-1.5,1-2.4
		c0-0.9-0.3-1.7-1-2.4c-0.7-0.7-1.5-1-2.4-1C33,173,32.2,173.3,31.5,174z M31.5,176.9l-0.5-0.2v-0.3c0-0.7,0.3-1.3,0.8-1.9l0.4,0.1
		l1,1.3c-0.1,0.2-0.2,0.4-0.2,0.5L31.5,176.9z M31.2,169.6l1.4,3.3c0.2-0.1,0.4-0.1,0.5-0.1l-0.5-2.2l0.3-0.1l0.4,2.2
		c0.1,0,0.2-0.1,0.5-0.1v-3.6l-1.6-1L31.2,169.6z M33.8,183.7v-3.6c-0.2,0-0.4,0-0.5-0.1l-0.4,2.2l-0.3-0.1L33,180
		c-0.1,0-0.2,0-0.5-0.1l-1.4,3.3l1,1.5L33.8,183.7z M33.6,178.9l-0.3,0.4c-0.8-0.2-1.4-0.6-1.9-1.4l0.2-0.4l1.6-0.5
		c0.1,0.1,0.2,0.2,0.4,0.2L33.6,178.9L33.6,178.9z M32.7,173.8c0.3-0.2,0.7-0.2,1.1-0.2c0.4,0,0.8,0.1,1.1,0.2l0.1,0.5l-1,1.4
		c0,0-0.1-0.1-0.2-0.1s-0.2,0-0.2,0.1l-1-1.4L32.7,173.8z M33.9,176.7c-0.2,0-0.3-0.1-0.3-0.3s0.1-0.3,0.3-0.3
		c0.2,0,0.3,0.1,0.3,0.3C34.2,176.6,34.1,176.7,33.9,176.7z M34,169.1v3.6c0.2,0,0.4,0,0.5,0.1l0.4-2.2l0.3,0.1l-0.5,2.2
		c0.1,0,0.2,0,0.5,0.1l1.4-3.3l-1-1.5L34,169.1z M36.6,183.2l-1.4-3.3c-0.2,0.1-0.4,0.1-0.5,0.1l0.5,2.2l-0.3,0.1l-0.4-2.2
		c-0.1,0-0.2,0.1-0.5,0.1v3.6l1.6,1L36.6,183.2z M34.2,178.9v-1.7c0.1,0,0.2-0.1,0.4-0.2l1.6,0.5l0.2,0.4c-0.5,0.8-1.1,1.2-1.9,1.4
		L34.2,178.9z M36.7,176.7l-0.5,0.2l-1.6-0.5c0-0.2-0.1-0.3-0.2-0.5l1-1.3l0.4-0.1c0.5,0.5,0.8,1.1,0.8,1.9L36.7,176.7L36.7,176.7z
		 M36.7,169.7l-1.3,3.3c0.2,0.1,0.3,0.2,0.4,0.2l1.3-2l0.2,0.2l-1.3,1.9c0.1,0.1,0.2,0.2,0.4,0.2l2.6-2.5l-0.4-1.8L36.7,169.7z
		 M39,181.7l-2.6-2.5c-0.2,0.1-0.3,0.2-0.4,0.2l1.3,1.9l-0.2,0.2l-1.3-2c-0.1,0.1-0.2,0.2-0.4,0.2l1.3,3.3l1.9,0.4L39,181.7z
		 M39.1,171.3l-2.5,2.6c0.1,0.2,0.2,0.3,0.2,0.4l1.9-1.3l0.2,0.2l-2,1.3c0.1,0.1,0.2,0.2,0.2,0.4l3.3-1.3l0.4-1.9L39.1,171.3z
		 M40.6,179.3l-3.3-1.3c-0.1,0.2-0.2,0.3-0.2,0.4l2,1.3l-0.2,0.2l-1.9-1.3c-0.1,0.1-0.2,0.2-0.2,0.4l2.5,2.6l1.8-0.4L40.6,179.3z
		 M40.7,173.7l-3.3,1.4c0.1,0.2,0.1,0.4,0.1,0.5l2.2-0.5l0.1,0.3l-2.2,0.4c0,0.1,0.1,0.2,0.1,0.5h3.6l1-1.6L40.7,173.7z M41.2,176.5
		h-3.6c0,0.2,0,0.4-0.1,0.5l2.2,0.4l-0.1,0.3l-2.2-0.5c0,0.1,0,0.2-0.1,0.5l3.3,1.4l1.5-1L41.2,176.5z"/>
	<path id="path124" inkscape:connector-curvature="0" class="st2" d="M24.2,186.1c-2.7-2.7-4-5.9-4-9.6s1.3-7,4-9.6
		c2.7-2.7,5.9-4,9.6-4c3.7,0,7,1.3,9.6,4c2.7,2.7,4,5.9,4,9.6s-1.3,7-4,9.6c-2.7,2.7-5.9,4-9.6,4C30.1,190.1,26.9,188.7,24.2,186.1z
		 M24.9,167.4c-2.5,2.5-3.8,5.5-3.8,9c0,3.5,1.3,6.5,3.8,9s5.5,3.8,9,3.8c3.5,0,6.5-1.3,9-3.8c2.5-2.5,3.8-5.5,3.8-9s-1.3-6.5-3.8-9
		c-2.5-2.5-5.5-3.8-9-3.8S27.4,164.9,24.9,167.4z M25.2,185c-2.4-2.4-3.6-5.2-3.6-8.6s1.2-6.3,3.6-8.6c2.4-2.4,5.2-3.6,8.6-3.6
		s6.3,1.2,8.6,3.6c2.4,2.4,3.6,5.2,3.6,8.6c0,3.4-1.2,6.3-3.6,8.6c-2.4,2.4-5.2,3.6-8.6,3.6C30.5,188.6,27.6,187.4,25.2,185z
		 M22.4,173.2l-0.4,1.6l1.6-0.5l-0.9,1.9h1.4l0.4-0.4c0.1-1,0.3-1.8,0.6-2.6l-1.2-0.5L22.4,173.2z M24,180.2l1.2-0.5
		c-0.3-0.8-0.5-1.7-0.6-2.6l-0.4-0.4h-1.4l0.9,1.9L22,178l0.4,1.6L24,180.2z M26.5,169.4l-1-1l-0.7,0.2c-0.5,0.6-1,1.3-1.4,2.1
		l0.5,1.3l1.3,0.5l0.3-0.2c0.2-0.4,0.5-0.9,0.8-1.4l-1.5-0.4L26.5,169.4z M26.2,181.9c-0.2-0.2-0.3-0.5-0.4-0.7
		c-0.1-0.2-0.2-0.3-0.2-0.4c0-0.1,0-0.1-0.1-0.2c0-0.1-0.1-0.1-0.1-0.1c0,0-0.1-0.1-0.2-0.1l-1.3,0.5l-0.5,1.3
		c0.4,0.7,0.9,1.4,1.6,2.2l0.5,0.1l1-1l-1.8-1.1L26.2,181.9z M27.5,170c-1.8,1.8-2.7,3.9-2.7,6.4c0,2.5,0.9,4.6,2.7,6.4
		c1.8,1.8,3.9,2.7,6.4,2.7c2.5,0,4.7-0.9,6.4-2.7c1.8-1.8,2.7-3.9,2.7-6.4c0-2.5-0.9-4.6-2.7-6.4c-1.8-1.8-3.9-2.7-6.4-2.7
		C31.4,167.3,29.2,168.2,27.5,170z M28.4,168.8c0.2-0.2,0.5-0.3,0.7-0.4c0.2-0.1,0.3-0.2,0.4-0.2c0.1,0,0.1,0,0.2-0.1
		c0.1,0,0.1-0.1,0.1-0.1c0,0,0.1-0.1,0.1-0.2l-0.5-1.3l-1.3-0.5c-0.7,0.4-1.4,0.9-2.2,1.6l-0.1,0.5l1,1l1.1-1.8L28.4,168.8z
		 M26.9,183.8l-1,1l0.2,0.7c0.6,0.5,1.3,1,2.1,1.4l1.3-0.5l0.5-1.3l-0.2-0.3c-0.4-0.2-0.9-0.5-1.4-0.8l-0.4,1.5L26.9,183.8z
		 M33.2,167.1l0.4-0.4v-1.4l-1.9,0.9l0.5-1.6l-1.6,0.4l-0.6,1.6l0.5,1.2C31.3,167.4,32.2,167.2,33.2,167.1L33.2,167.1z M30.6,187.9
		l1.6,0.4l-0.5-1.6l1.9,0.9v-1.4l-0.4-0.4c-1-0.1-1.8-0.3-2.6-0.6l-0.5,1.2L30.6,187.9z M34.2,166.7l0.4,0.4c1,0.1,1.8,0.3,2.6,0.6
		l0.5-1.2l-0.6-1.6l-1.6-0.4l0.5,1.6l-1.9-0.9L34.2,166.7z M37.7,186.3l-0.5-1.2c-0.8,0.3-1.7,0.5-2.6,0.6l-0.4,0.4v1.4l1.9-0.9
		l-0.5,1.6l1.6-0.4L37.7,186.3z M39.4,168.8l0.4-1.5l1.1,1.8l1-1l-0.2-0.7c-0.6-0.5-1.3-1-2.1-1.4l-1.3,0.5l-0.5,1.3L38,168
		C38.4,168.2,38.9,168.4,39.4,168.8L39.4,168.8z M39.4,184.1c-0.2,0.2-0.5,0.3-0.7,0.4s-0.3,0.2-0.4,0.2c-0.1,0-0.1,0.1-0.2,0.1
		c-0.1,0-0.1,0.1-0.1,0.1c0,0-0.1,0.1-0.1,0.2l0.5,1.3l1.3,0.5c0.7-0.4,1.4-0.9,2.2-1.6l0.1-0.5l-1-1l-1.1,1.8L39.4,184.1z
		 M41.5,170.9c0.2,0.2,0.3,0.5,0.4,0.7c0.1,0.2,0.2,0.3,0.2,0.4c0,0.1,0,0.1,0.1,0.2c0,0.1,0.1,0.1,0.1,0.1c0,0,0.1,0.1,0.2,0.1
		l1.3-0.5l0.5-1.3c-0.4-0.7-0.9-1.4-1.6-2.2l-0.5-0.1l-1,1l1.8,1.1L41.5,170.9z M41.2,183.4l1,1l0.7-0.2c0.5-0.6,1-1.3,1.4-2.1
		l-0.5-1.3l-1.3-0.5l-0.3,0.2c-0.2,0.4-0.5,0.9-0.8,1.4l1.5,0.4L41.2,183.4z M43.8,172.6l-1.2,0.5c0.3,0.8,0.5,1.7,0.6,2.6l0.4,0.4
		H45l-0.9-1.9l1.6,0.5l-0.4-1.6L43.8,172.6z M45.3,179.6l0.4-1.6l-1.6,0.5l0.9-1.9h-1.4l-0.4,0.4c-0.1,1-0.3,1.8-0.6,2.6l1.2,0.5
		L45.3,179.6z"/>
</g>
</svg>
