<?xml version="1.0" encoding="utf-8"?>
<!-- Generator: Adobe Illustrator 25.0.1, SVG Export Plug-In . SVG Version: 6.00 Build 0)  -->
<svg version="1.1"
	 id="图层_1" inkscape:version="0.92.3 (2405546, 2018-03-11)" xmlns:cc="http://creativecommons.org/ns#" xmlns:dc="http://purl.org/dc/elements/1.1/" xmlns:inkscape="http://www.inkscape.org/namespaces/inkscape" xmlns:rdf="http://www.w3.org/1999/02/22-rdf-syntax-ns#" xmlns:sodipodi="http://sodipodi.sourceforge.net/DTD/sodipodi-0.dtd" xmlns:svg="http://www.w3.org/2000/svg"
	 xmlns="http://www.w3.org/2000/svg" xmlns:xlink="http://www.w3.org/1999/xlink" x="0px" y="0px" viewBox="0 0 139.8 200"
	 style="enable-background:new 0 0 139.8 200;" xml:space="preserve">
<style type="text/css">
	.st0{fill:#FFFFFF;}
	.st1{fill:#00082D;}
</style>
<path class="st0" d="M112,200.5H28c-15.4,0-27.9-12.5-27.9-27.9V28.4C0.1,13,12.6,0.5,28,0.5h84c15.4,0,27.9,12.5,27.9,27.9v144.2
	C139.9,188,127.4,200.5,112,200.5z"/>
<sodipodi:namedview  bordercolor="#666666" borderopacity="1" gridtolerance="10" guidetolerance="10" id="namedview617" inkscape:current-layer="图层_1" inkscape:cx="-58.66014" inkscape:cy="112.60966" inkscape:pageopacity="0" inkscape:pageshadow="2" inkscape:window-height="705" inkscape:window-maximized="1" inkscape:window-width="1366" inkscape:window-x="-8" inkscape:window-y="-8" inkscape:zoom="1" objecttolerance="10" pagecolor="#ffffff" showgrid="false">
	</sodipodi:namedview>
<g id="g1632" transform="matrix(4.0332338,0,0,4.0332338,-220.96878,-611.50277)">
	<path id="path126" inkscape:connector-curvature="0" d="M54.8,197.6v-42.4c0-1,0.3-1.8,1-2.5s1.5-1,2.5-1h27.5c1,0,1.8,0.3,2.5,1
		c0.7,0.7,1,1.5,1,2.5v42.4c0,1-0.3,1.8-1,2.5c-0.7,0.7-1.5,1-2.5,1H58.4c-1,0-1.8-0.3-2.5-1C55.1,199.5,54.8,198.6,54.8,197.6
		L54.8,197.6z M58.4,199.4h27.5c0.5,0,0.9-0.2,1.3-0.5c0.3-0.3,0.5-0.8,0.5-1.3v-42.4c0-0.5-0.2-0.9-0.5-1.3
		c-0.3-0.3-0.8-0.5-1.3-0.5H58.4c-0.5,0-0.9,0.2-1.3,0.5c-0.3,0.3-0.5,0.8-0.5,1.3v42.4c0,0.5,0.2,0.9,0.5,1.3
		C57.4,199.2,57.9,199.4,58.4,199.4L58.4,199.4z"/>
	<path id="path128" inkscape:connector-curvature="0" class="st1" d="M77.4,161.5c1.5,1.5,2.2,3.2,2.2,5.3c0,2.1-0.7,3.8-2.2,5.3
		c-1.5,1.5-3.2,2.2-5.3,2.2c-2.1,0-3.8-0.7-5.3-2.2c-1.5-1.5-2.2-3.2-2.2-5.3c0-2.1,0.7-3.8,2.2-5.3c1.5-1.5,3.2-2.2,5.3-2.2
		S76,160.1,77.4,161.5z M77.4,180.7c1.5,1.5,2.2,3.2,2.2,5.3c0,2.1-0.7,3.8-2.2,5.3c-1.5,1.5-3.2,2.2-5.3,2.2
		c-2.1,0-3.8-0.7-5.3-2.2c-1.5-1.5-2.2-3.2-2.2-5.3c0-2.1,0.7-3.8,2.2-5.3c1.5-1.5,3.2-2.2,5.3-2.2C74.2,178.4,76,179.2,77.4,180.7z
		 M76.7,171.4c1.3-1.3,1.9-2.8,1.9-4.6s-0.6-3.3-1.9-4.6c-1.3-1.3-2.8-1.9-4.6-1.9s-3.3,0.6-4.6,1.9c-1.3,1.3-1.9,2.8-1.9,4.6
		s0.6,3.3,1.9,4.6c1.3,1.3,2.8,1.9,4.6,1.9S75.4,172.7,76.7,171.4z M76.7,190.5c1.3-1.3,1.9-2.8,1.9-4.6s-0.6-3.3-1.9-4.6
		c-1.3-1.3-2.8-1.9-4.6-1.9s-3.3,0.6-4.6,1.9c-1.3,1.3-1.9,2.8-1.9,4.6s0.6,3.3,1.9,4.6c1.3,1.3,2.8,1.9,4.6,1.9
		S75.4,191.8,76.7,190.5z M76.2,162.8c1.1,1.1,1.7,2.5,1.7,4.1s-0.6,2.9-1.7,4.1c-1.1,1.1-2.5,1.7-4.1,1.7s-2.9-0.6-4.1-1.7
		c-1.1-1.1-1.7-2.5-1.7-4.1c0-1.6,0.6-2.9,1.7-4.1c1.1-1.1,2.5-1.7,4.1-1.7C73.7,161.1,75.1,161.7,76.2,162.8z M76.2,181.9
		c1.1,1.1,1.7,2.5,1.7,4.1c0,1.6-0.6,2.9-1.7,4.1c-1.1,1.1-2.5,1.7-4.1,1.7s-2.9-0.6-4.1-1.7c-1.1-1.1-1.7-2.5-1.7-4.1
		c0-1.6,0.6-2.9,1.7-4.1c1.1-1.1,2.5-1.7,4.1-1.7C73.7,180.2,75.1,180.8,76.2,181.9z M70,166.6c0-0.1,0-0.2,0.1-0.3
		c0-0.1,0.1-0.2,0.1-0.3l-2-1.1l-1.3,0.6c-0.1,0.5-0.2,1-0.2,1.4c0,0.5,0.1,1,0.2,1.4l1.3,0.6l2-1.1c0-0.1-0.1-0.2-0.1-0.3
		c0-0.1-0.1-0.2-0.1-0.3H68v-0.5L70,166.6L70,166.6z M70,185.7c0-0.1,0-0.2,0.1-0.3c0-0.1,0.1-0.2,0.1-0.3l-2-1.1l-1.3,0.6
		c-0.1,0.5-0.2,1-0.2,1.4c0,0.5,0.1,1,0.2,1.4l1.3,0.6l2-1.1c0-0.1-0.1-0.2-0.1-0.3c0-0.1-0.1-0.2-0.1-0.3H68v-0.5L70,185.7
		L70,185.7z M71.9,164.7v-2.3l-1.1-0.8c-1,0.2-1.8,0.7-2.4,1.4l0.1,1.4l2,1.1c0.1-0.2,0.3-0.4,0.5-0.5l-1-1.7l0.4-0.2l1,1.7
		c0.1,0,0.2-0.1,0.3-0.1C71.7,164.7,71.8,164.7,71.9,164.7z M71.9,169c-0.1,0-0.2,0-0.3-0.1c-0.1,0-0.2-0.1-0.3-0.1l-1,1.7l-0.4-0.2
		l1-1.7c-0.2-0.1-0.4-0.3-0.5-0.5l-2,1.1l-0.1,1.4c0.6,0.7,1.5,1.2,2.4,1.4l1.1-0.8L71.9,169L71.9,169z M71.9,183.8v-2.3l-1.1-0.8
		c-1,0.2-1.8,0.7-2.4,1.4l0.1,1.4l2,1.1c0.1-0.2,0.3-0.4,0.5-0.5l-1-1.7l0.4-0.2l1,1.7c0.1,0,0.2-0.1,0.3-0.1
		C71.7,183.8,71.8,183.8,71.9,183.8z M71.9,188.1c-0.1,0-0.2,0-0.3-0.1c-0.1,0-0.2-0.1-0.3-0.1l-1,1.7l-0.4-0.2l1-1.7
		c-0.2-0.1-0.4-0.3-0.5-0.5l-2,1.1l-0.1,1.4c0.6,0.7,1.5,1.2,2.4,1.4l1.1-0.8L71.9,188.1L71.9,188.1z M70.8,165.6
		c-0.3,0.3-0.5,0.8-0.5,1.3c0,0.5,0.2,0.9,0.5,1.3c0.3,0.3,0.8,0.5,1.3,0.5c0.5,0,0.9-0.2,1.3-0.5c0.3-0.3,0.5-0.8,0.5-1.3
		c0-0.5-0.2-0.9-0.5-1.3c-0.3-0.3-0.8-0.5-1.3-0.5C71.6,165.1,71.2,165.2,70.8,165.6z M70.8,184.7c-0.3,0.3-0.5,0.8-0.5,1.3
		c0,0.5,0.2,0.9,0.5,1.3c0.3,0.3,0.8,0.5,1.3,0.5c0.5,0,0.9-0.2,1.3-0.5c0.3-0.3,0.5-0.8,0.5-1.3c0-0.5-0.2-0.9-0.5-1.3
		c-0.3-0.3-0.8-0.5-1.3-0.5C71.6,184.2,71.2,184.3,70.8,184.7z M72.1,167.7c-0.6,0-0.8-0.3-0.8-0.8c0-0.6,0.3-0.8,0.8-0.8
		s0.8,0.3,0.8,0.8C72.9,167.4,72.7,167.7,72.1,167.7z M72.1,186.8c-0.6,0-0.8-0.3-0.8-0.8c0-0.6,0.3-0.8,0.8-0.8s0.8,0.3,0.8,0.8
		C72.9,186.5,72.7,186.8,72.1,186.8z M74,163.2l0.4,0.2l-1,1.7c0.2,0.1,0.4,0.3,0.5,0.5l2-1.1l0.1-1.4c-0.6-0.7-1.5-1.2-2.4-1.4
		l-1.1,0.8v2.3c0.1,0,0.2,0,0.3,0.1c0.1,0,0.2,0.1,0.3,0.1L74,163.2z M74.3,170.3l-0.4,0.2l-1-1.7c-0.1,0-0.2,0.1-0.3,0.1
		c-0.1,0-0.2,0.1-0.3,0.1v2.3l1.1,0.8c1-0.2,1.8-0.7,2.4-1.4l-0.1-1.4l-2-1.1c-0.1,0.2-0.3,0.4-0.5,0.5L74.3,170.3z M74,182.3
		l0.4,0.2l-1,1.7c0.2,0.1,0.4,0.3,0.5,0.5l2-1.1l0.1-1.4c-0.6-0.7-1.5-1.2-2.4-1.4l-1.1,0.8v2.3c0.1,0,0.2,0,0.3,0.1
		c0.1,0,0.2,0.1,0.3,0.1L74,182.3z M74.3,189.4l-0.4,0.2l-1-1.7c-0.1,0-0.2,0.1-0.3,0.1c-0.1,0-0.2,0.1-0.3,0.1v2.3l1.1,0.8
		c1-0.2,1.8-0.7,2.4-1.4l-0.1-1.4l-2-1.1c-0.1,0.2-0.3,0.4-0.5,0.5L74.3,189.4z M76.2,166.6v0.5h-1.9c0,0.1,0,0.2-0.1,0.3
		c0,0.1-0.1,0.2-0.1,0.3l2,1.1l1.3-0.6c0.1-0.5,0.2-1,0.2-1.4c0-0.5-0.1-1-0.2-1.4l-1.3-0.6l-2,1.1c0,0.1,0.1,0.2,0.1,0.3
		c0,0.1,0.1,0.2,0.1,0.3L76.2,166.6L76.2,166.6z M76.2,185.7v0.5h-1.9c0,0.1,0,0.2-0.1,0.3c0,0.1-0.1,0.2-0.1,0.3l2,1.1l1.3-0.6
		c0.1-0.5,0.2-1,0.2-1.4c0-0.5-0.1-1-0.2-1.4l-1.3-0.6l-2,1.1c0,0.1,0.1,0.2,0.1,0.3c0,0.1,0.1,0.2,0.1,0.3L76.2,185.7L76.2,185.7z"
		/>
</g>
</svg>
