<?xml version="1.0" encoding="utf-8"?>
<!-- Generator: Adobe Illustrator 25.0.1, SVG Export Plug-In . SVG Version: 6.00 Build 0)  -->
<svg version="1.1"
	 id="图层_1" inkscape:version="0.92.3 (2405546, 2018-03-11)" xmlns:cc="http://creativecommons.org/ns#" xmlns:dc="http://purl.org/dc/elements/1.1/" xmlns:inkscape="http://www.inkscape.org/namespaces/inkscape" xmlns:rdf="http://www.w3.org/1999/02/22-rdf-syntax-ns#" xmlns:sodipodi="http://sodipodi.sourceforge.net/DTD/sodipodi-0.dtd" xmlns:svg="http://www.w3.org/2000/svg"
	 xmlns="http://www.w3.org/2000/svg" xmlns:xlink="http://www.w3.org/1999/xlink" x="0px" y="0px" viewBox="0 0 139.8 200"
	 style="enable-background:new 0 0 139.8 200;" xml:space="preserve">
<style type="text/css">
	.st0{fill:#FFFFFF;}
	.st1{fill:#00082D;}
	.st2{fill:#870000;}
</style>
<path class="st0" d="M112,200.5H28c-15.4,0-27.9-12.5-27.9-27.9V28.4C0.1,13,12.6,0.5,28,0.5h84c15.4,0,27.9,12.5,27.9,27.9v144.2
	C139.9,188,127.4,200.5,112,200.5z"/>
<sodipodi:namedview  bordercolor="#666666" borderopacity="1" gridtolerance="10" guidetolerance="10" id="namedview617" inkscape:current-layer="图层_1" inkscape:cx="-230.16014" inkscape:cy="152.60966" inkscape:pageopacity="0" inkscape:pageshadow="2" inkscape:window-height="705" inkscape:window-maximized="1" inkscape:window-width="1366" inkscape:window-x="-8" inkscape:window-y="-8" inkscape:zoom="1" objecttolerance="10" pagecolor="#ffffff" showgrid="false">
	</sodipodi:namedview>
<g id="g1649" transform="matrix(4.0332338,0,0,4.0332338,-375.18754,-611.50277)">
	<path id="path130" inkscape:connector-curvature="0" d="M127.7,155.2v42.4c0,1-0.3,1.8-1,2.5c-0.7,0.7-1.5,1-2.5,1H96.6
		c-1,0-1.8-0.3-2.5-1s-1-1.5-1-2.5v-42.4c0-1,0.3-1.8,1-2.5s1.5-1,2.5-1h27.5c1,0,1.8,0.3,2.5,1
		C127.3,153.4,127.7,154.2,127.7,155.2z M124.1,153.4H96.6c-0.5,0-0.9,0.2-1.3,0.5c-0.3,0.3-0.5,0.8-0.5,1.3v42.4
		c0,0.5,0.2,0.9,0.5,1.3c0.3,0.3,0.8,0.5,1.3,0.5h27.5c0.5,0,0.9-0.2,1.3-0.5c0.3-0.3,0.5-0.8,0.5-1.3v-42.4c0-0.5-0.2-0.9-0.5-1.3
		C125,153.6,124.6,153.4,124.1,153.4z"/>
	<path id="path132" inkscape:connector-curvature="0" class="st1" d="M114.4,172.4c1.1,1.1,1.7,2.4,1.7,4c0,1.6-0.6,2.9-1.7,4
		c-1.1,1.1-2.4,1.7-4,1.7s-2.9-0.6-4-1.7c-1.1-1.1-1.7-2.4-1.7-4c0-1.6,0.6-2.9,1.7-4c1.1-1.1,2.4-1.7,4-1.7
		S113.2,171.3,114.4,172.4z M113.7,179.8c0.9-0.9,1.4-2.1,1.4-3.4c0-1.3-0.5-2.4-1.4-3.4c-0.9-0.9-2.1-1.4-3.4-1.4s-2.4,0.5-3.4,1.4
		c-0.9,0.9-1.4,2.1-1.4,3.4c0,1.3,0.5,2.4,1.4,3.4c0.9,0.9,2.1,1.4,3.4,1.4S112.8,180.7,113.7,179.8z"/>
	<path id="path134" inkscape:connector-curvature="0" class="st2" d="M113.3,173.5c0.8,0.8,1.2,1.8,1.2,3s-0.4,2.1-1.2,3
		c-0.8,0.8-1.8,1.2-3,1.2c-1.2,0-2.1-0.4-3-1.2c-0.8-0.8-1.2-1.8-1.2-3s0.4-2.1,1.2-3c0.8-0.8,1.8-1.2,3-1.2
		C111.5,172.2,112.5,172.6,113.3,173.5z M108.6,176.5c0-0.2,0-0.4,0.1-0.6c0-0.2,0.1-0.3,0.2-0.5c0.1-0.2,0.1-0.3,0.2-0.4l-0.7-1
		h-0.7c-0.6,0.7-0.8,1.5-0.8,2.3v0.2l0.5,0.4l1.1-0.4L108.6,176.5z M109.5,179.9l0.5-0.4v-1.2l-0.2-0.2c-0.4-0.1-0.8-0.4-1-0.7
		l-0.2-0.1l-1.1,0.4l-0.2,0.7C107.8,179.1,108.5,179.6,109.5,179.9L109.5,179.9z M109,173.1l-0.2,0.7l0.7,1h0.2
		c0.2,0,0.4-0.1,0.7-0.1c0.3,0,0.5,0,0.7,0.1h0.2l0.7-1l-0.2-0.7c-0.5-0.2-0.9-0.2-1.3-0.2C110,172.8,109.5,172.9,109,173.1
		L109,173.1z M111.2,177.2c0.2-0.2,0.4-0.5,0.4-0.8c0-0.3-0.1-0.6-0.4-0.8c-0.2-0.2-0.5-0.4-0.8-0.4c-0.3,0-0.6,0.1-0.8,0.4
		s-0.4,0.5-0.4,0.8c0,0.3,0.1,0.6,0.4,0.8c0.2,0.2,0.5,0.4,0.8,0.4C110.7,177.6,110.9,177.5,111.2,177.2z M110.3,175.8
		c0.4,0,0.6,0.2,0.6,0.6c0,0.4-0.2,0.6-0.6,0.6c-0.4,0-0.6-0.2-0.6-0.6C109.8,176,110,175.8,110.3,175.8z M112.1,177.3
		c-0.6,0.5-1.1,0.9-1.4,1v1.2l0.5,0.4c1-0.2,1.7-0.8,2.2-1.6l-0.2-0.7L112.1,177.3z M112.1,176.5l0.1,0.2l1.1,0.4l0.5-0.4v-0.2
		c0-0.9-0.3-1.7-0.8-2.3h-0.7l-0.7,1c0,0.1,0.1,0.2,0.2,0.4s0.1,0.3,0.2,0.5C112.1,176,112.1,176.2,112.1,176.5L112.1,176.5z"/>
	<path id="path136" inkscape:connector-curvature="0" class="st1" d="M107.2,159c1.1,1.1,1.7,2.4,1.7,4c0,1.6-0.6,2.9-1.7,4
		c-1.1,1.1-2.4,1.7-4,1.7c-1.6,0-2.9-0.6-4-1.7c-1.1-1.1-1.7-2.4-1.7-4c0-1.6,0.6-2.9,1.7-4c1.1-1.1,2.4-1.7,4-1.7
		C104.7,157.3,106.1,157.8,107.2,159z M106.6,166.3c0.9-0.9,1.4-2.1,1.4-3.4c0-1.3-0.5-2.4-1.4-3.4c-0.9-0.9-2.1-1.4-3.4-1.4
		s-2.4,0.5-3.4,1.4c-0.9,0.9-1.4,2.1-1.4,3.4s0.5,2.4,1.4,3.4c0.9,0.9,2.1,1.4,3.4,1.4S105.6,167.3,106.6,166.3z M106.1,160
		c0.8,0.8,1.2,1.8,1.2,3s-0.4,2.1-1.2,3c-0.8,0.8-1.8,1.2-3,1.2c-1.2,0-2.1-0.4-3-1.2c-0.8-0.8-1.2-1.8-1.2-3c0-1.2,0.4-2.1,1.2-3
		c0.8-0.8,1.8-1.2,3-1.2C104.3,158.8,105.3,159.2,106.1,160z M101.4,163c0-0.2,0-0.4,0.1-0.6c0-0.2,0.1-0.3,0.2-0.5
		c0.1-0.2,0.1-0.3,0.2-0.4l-0.7-1h-0.7c-0.6,0.7-0.8,1.5-0.8,2.3v0.2l0.5,0.4l1.1-0.4L101.4,163z M102.3,166.4l0.5-0.4v-1.2
		l-0.2-0.2c-0.4-0.1-0.8-0.4-1-0.7l-0.2-0.1l-1.1,0.4l-0.2,0.7C100.6,165.7,101.3,166.2,102.3,166.4L102.3,166.4z M101.9,159.6
		l-0.2,0.7l0.7,1h0.2c0.2,0,0.4-0.1,0.7-0.1c0.3,0,0.5,0,0.7,0.1h0.2l0.7-1l-0.2-0.7c-0.5-0.2-0.9-0.2-1.3-0.2
		C102.8,159.4,102.3,159.5,101.9,159.6L101.9,159.6z M104,163.8c0.2-0.2,0.4-0.5,0.4-0.8c0-0.3-0.1-0.6-0.4-0.8
		c-0.2-0.2-0.5-0.4-0.8-0.4c-0.3,0-0.6,0.1-0.8,0.4c-0.2,0.2-0.4,0.5-0.4,0.8c0,0.3,0.1,0.6,0.4,0.8s0.5,0.4,0.8,0.4
		C103.5,164.2,103.8,164,104,163.8z M103.2,162.4c0.4,0,0.6,0.2,0.6,0.6c0,0.4-0.2,0.6-0.6,0.6s-0.6-0.2-0.6-0.6
		C102.6,162.6,102.8,162.4,103.2,162.4z M104.9,163.9c-0.6,0.5-1.1,0.9-1.4,1v1.2l0.5,0.4c1-0.2,1.7-0.8,2.2-1.6l-0.2-0.7
		L104.9,163.9z M105,163l0.1,0.2l1.1,0.4l0.5-0.4V163c0-0.9-0.3-1.7-0.8-2.3h-0.7l-0.7,1c0,0.1,0.1,0.2,0.2,0.4s0.1,0.3,0.2,0.5
		C105,162.6,105,162.8,105,163L105,163z M121.5,185.8c1.1,1.1,1.7,2.4,1.7,4c0,1.6-0.6,2.9-1.7,4c-1.1,1.1-2.4,1.7-4,1.7
		c-1.6,0-2.9-0.6-4-1.7c-1.1-1.1-1.7-2.4-1.7-4c0-1.6,0.6-2.9,1.7-4c1.1-1.1,2.4-1.7,4-1.7C119.1,184.2,120.4,184.7,121.5,185.8z
		 M120.9,193.2c0.9-0.9,1.4-2.1,1.4-3.4c0-1.3-0.5-2.4-1.4-3.4c-0.9-0.9-2.1-1.4-3.4-1.4s-2.4,0.5-3.4,1.4c-0.9,0.9-1.4,2.1-1.4,3.4
		c0,1.3,0.5,2.4,1.4,3.4c0.9,0.9,2.1,1.4,3.4,1.4S120,194.2,120.9,193.2z M120.5,186.9c0.8,0.8,1.2,1.8,1.2,3s-0.4,2.1-1.2,3
		c-0.8,0.8-1.8,1.2-3,1.2c-1.2,0-2.1-0.4-3-1.2c-0.8-0.8-1.2-1.8-1.2-3s0.4-2.1,1.2-3c0.8-0.8,1.8-1.2,3-1.2
		C118.7,185.7,119.7,186.1,120.5,186.9z M115.7,189.9c0-0.2,0-0.4,0.1-0.6c0-0.2,0.1-0.3,0.2-0.5c0.1-0.2,0.1-0.3,0.2-0.4l-0.7-1
		h-0.7c-0.6,0.7-0.8,1.5-0.8,2.3v0.2l0.5,0.4l1.1-0.4L115.7,189.9z M116.7,193.3l0.5-0.4v-1.2l-0.2-0.2c-0.4-0.1-0.8-0.4-1-0.7
		l-0.2-0.1l-1.1,0.4l-0.2,0.7C115,192.6,115.7,193.1,116.7,193.3L116.7,193.3z M116.2,186.5l-0.2,0.7l0.7,1h0.2
		c0.2,0,0.4-0.1,0.7-0.1c0.3,0,0.5,0,0.7,0.1h0.2l0.7-1l-0.2-0.7c-0.5-0.2-0.9-0.2-1.3-0.2C117.1,186.3,116.7,186.3,116.2,186.5
		L116.2,186.5z M118.4,190.7c0.2-0.2,0.4-0.5,0.4-0.8c0-0.3-0.1-0.6-0.4-0.8c-0.2-0.2-0.5-0.4-0.8-0.4c-0.3,0-0.6,0.1-0.8,0.4
		s-0.4,0.5-0.4,0.8c0,0.3,0.1,0.6,0.4,0.8c0.2,0.2,0.5,0.4,0.8,0.4C117.8,191,118.1,190.9,118.4,190.7z M117.5,189.3
		c0.4,0,0.6,0.2,0.6,0.6c0,0.4-0.2,0.6-0.6,0.6s-0.6-0.2-0.6-0.6S117.1,189.3,117.5,189.3z M119.3,190.7c-0.6,0.5-1.1,0.9-1.4,1v1.2
		l0.5,0.4c1-0.2,1.7-0.8,2.2-1.6l-0.2-0.7L119.3,190.7z M119.3,189.9l0.1,0.2l1.1,0.4l0.5-0.4v-0.2c0-0.9-0.3-1.7-0.8-2.3h-0.7
		l-0.7,1c0,0.1,0.1,0.2,0.2,0.4c0.1,0.2,0.1,0.3,0.2,0.5C119.3,189.5,119.3,189.7,119.3,189.9L119.3,189.9z"/>
</g>
</svg>
