<?xml version="1.0" encoding="utf-8"?>
<!-- Generator: Adobe Illustrator 25.0.1, SVG Export Plug-In . SVG Version: 6.00 Build 0)  -->
<svg version="1.1"
	 id="图层_1" inkscape:version="0.92.3 (2405546, 2018-03-11)" xmlns:cc="http://creativecommons.org/ns#" xmlns:dc="http://purl.org/dc/elements/1.1/" xmlns:inkscape="http://www.inkscape.org/namespaces/inkscape" xmlns:rdf="http://www.w3.org/1999/02/22-rdf-syntax-ns#" xmlns:sodipodi="http://sodipodi.sourceforge.net/DTD/sodipodi-0.dtd" xmlns:svg="http://www.w3.org/2000/svg"
	 xmlns="http://www.w3.org/2000/svg" xmlns:xlink="http://www.w3.org/1999/xlink" x="0px" y="0px" viewBox="0 0 139.8 200"
	 style="enable-background:new 0 0 139.8 200;" xml:space="preserve">
<style type="text/css">
	.st0{fill:#FFFFFF;}
	.st1{fill:#00082D;}
</style>
<path class="st0" d="M112,200.5H28c-15.4,0-27.9-12.5-27.9-27.9V28.4C0.1,13,12.6,0.5,28,0.5h84c15.4,0,27.9,12.5,27.9,27.9v144.2
	C139.9,188,127.4,200.5,112,200.5z"/>
<sodipodi:namedview  bordercolor="#666666" borderopacity="1" gridtolerance="10" guidetolerance="10" id="namedview617" inkscape:current-layer="图层_1" inkscape:cx="-1.66014" inkscape:cy="152.60966" inkscape:pageopacity="0" inkscape:pageshadow="2" inkscape:window-height="705" inkscape:window-maximized="1" inkscape:window-width="1366" inkscape:window-x="-8" inkscape:window-y="-8" inkscape:zoom="1" objecttolerance="10" pagecolor="#ffffff" showgrid="false">
	</sodipodi:namedview>
<g id="g1666" transform="matrix(4.0332338,0,0,4.0332338,-529.41034,-611.50277)">
	<path id="path138" inkscape:connector-curvature="0" d="M165.9,155.2v42.4c0,1-0.3,1.8-1,2.5c-0.7,0.7-1.5,1-2.5,1h-27.5
		c-1,0-1.8-0.3-2.5-1s-1-1.5-1-2.5v-42.4c0-1,0.3-1.8,1-2.5c0.7-0.7,1.5-1,2.5-1h27.5c1,0,1.8,0.3,2.5,1
		C165.6,153.4,165.9,154.2,165.9,155.2z M162.3,153.4h-27.5c-0.5,0-0.9,0.2-1.3,0.5c-0.3,0.3-0.5,0.8-0.5,1.3v42.4
		c0,0.5,0.2,0.9,0.5,1.3c0.3,0.3,0.8,0.5,1.3,0.5h27.5c0.5,0,0.9-0.2,1.3-0.5c0.3-0.3,0.5-0.8,0.5-1.3v-42.4c0-0.5-0.2-0.9-0.5-1.3
		C163.3,153.6,162.8,153.4,162.3,153.4z"/>
	<path id="path140" inkscape:connector-curvature="0" class="st1" d="M145.4,159c1.1,1.1,1.7,2.4,1.7,4c0,1.6-0.6,2.9-1.7,4
		c-1.1,1.1-2.4,1.7-4,1.7c-1.6,0-2.9-0.6-4-1.7c-1.1-1.1-1.7-2.4-1.7-4c0-1.6,0.6-2.9,1.7-4c1.1-1.1,2.4-1.7,4-1.7
		C143,157.3,144.3,157.8,145.4,159z M145.4,185.8c1.1,1.1,1.7,2.4,1.7,4c0,1.6-0.6,2.9-1.7,4c-1.1,1.1-2.4,1.7-4,1.7
		c-1.6,0-2.9-0.6-4-1.7c-1.1-1.1-1.7-2.4-1.7-4c0-1.6,0.6-2.9,1.7-4c1.1-1.1,2.4-1.7,4-1.7C143,184.2,144.3,184.7,145.4,185.8z
		 M144.8,166.3c0.9-0.9,1.4-2.1,1.4-3.4c0-1.3-0.5-2.4-1.4-3.4s-2.1-1.4-3.4-1.4s-2.4,0.5-3.4,1.4c-0.9,0.9-1.4,2.1-1.4,3.4
		s0.5,2.4,1.4,3.4c0.9,0.9,2.1,1.4,3.4,1.4S143.9,167.3,144.8,166.3z M144.8,193.2c0.9-0.9,1.4-2.1,1.4-3.4c0-1.3-0.5-2.4-1.4-3.4
		c-0.9-0.9-2.1-1.4-3.4-1.4s-2.4,0.5-3.4,1.4c-0.9,0.9-1.4,2.1-1.4,3.4c0,1.3,0.5,2.4,1.4,3.4c0.9,0.9,2.1,1.4,3.4,1.4
		S143.9,194.2,144.8,193.2z M144.4,160c0.8,0.8,1.2,1.8,1.2,3s-0.4,2.1-1.2,3c-0.8,0.8-1.8,1.2-3,1.2c-1.2,0-2.1-0.4-3-1.2
		c-0.8-0.8-1.2-1.8-1.2-3c0-1.2,0.4-2.1,1.2-3c0.8-0.8,1.8-1.2,3-1.2C142.6,158.8,143.6,159.2,144.4,160z M144.4,186.9
		c0.8,0.8,1.2,1.8,1.2,3s-0.4,2.1-1.2,3c-0.8,0.8-1.8,1.2-3,1.2c-1.2,0-2.1-0.4-3-1.2c-0.8-0.8-1.2-1.8-1.2-3s0.4-2.1,1.2-3
		c0.8-0.8,1.8-1.2,3-1.2C142.6,185.7,143.6,186.1,144.4,186.9z M139.6,163c0-0.2,0-0.4,0.1-0.6c0-0.2,0.1-0.3,0.2-0.5
		c0.1-0.2,0.1-0.3,0.2-0.4l-0.7-1h-0.7c-0.6,0.7-0.8,1.5-0.8,2.3v0.2l0.5,0.4l1.1-0.4L139.6,163z M139.6,189.9c0-0.2,0-0.4,0.1-0.6
		c0-0.2,0.1-0.3,0.2-0.5c0.1-0.2,0.1-0.3,0.2-0.4l-0.7-1h-0.7c-0.6,0.7-0.8,1.5-0.8,2.3v0.2l0.5,0.4l1.1-0.4L139.6,189.9z
		 M140.6,166.4l0.5-0.4v-1.2l-0.2-0.2c-0.4-0.1-0.8-0.4-1-0.7l-0.2-0.1l-1.1,0.4l-0.2,0.7C138.8,165.7,139.6,166.2,140.6,166.4
		L140.6,166.4z M140.6,193.3l0.5-0.4v-1.2l-0.2-0.2c-0.4-0.1-0.8-0.4-1-0.7l-0.2-0.1l-1.1,0.4l-0.2,0.7
		C138.8,192.6,139.6,193.1,140.6,193.3L140.6,193.3z M140.1,159.6l-0.2,0.7l0.7,1h0.2c0.2,0,0.4-0.1,0.7-0.1c0.3,0,0.5,0,0.7,0.1
		h0.2l0.7-1l-0.2-0.7c-0.5-0.2-0.9-0.2-1.3-0.2C141,159.4,140.6,159.5,140.1,159.6z M140.1,186.5l-0.2,0.7l0.7,1h0.2
		c0.2,0,0.4-0.1,0.7-0.1c0.3,0,0.5,0,0.7,0.1h0.2l0.7-1l-0.2-0.7c-0.5-0.2-0.9-0.2-1.3-0.2C141,186.3,140.6,186.3,140.1,186.5z
		 M142.3,163.8c0.2-0.2,0.4-0.5,0.4-0.8c0-0.3-0.1-0.6-0.4-0.8c-0.2-0.2-0.5-0.4-0.8-0.4c-0.3,0-0.6,0.1-0.8,0.4
		c-0.2,0.2-0.4,0.5-0.4,0.8c0,0.3,0.1,0.6,0.4,0.8s0.5,0.4,0.8,0.4C141.7,164.2,142,164,142.3,163.8z M142.3,190.7
		c0.2-0.2,0.4-0.5,0.4-0.8c0-0.3-0.1-0.6-0.4-0.8c-0.2-0.2-0.5-0.4-0.8-0.4c-0.3,0-0.6,0.1-0.8,0.4c-0.2,0.2-0.4,0.5-0.4,0.8
		c0,0.3,0.1,0.6,0.4,0.8s0.5,0.4,0.8,0.4C141.7,191,142,190.9,142.3,190.7z M141.4,162.4c0.4,0,0.6,0.2,0.6,0.6
		c0,0.4-0.2,0.6-0.6,0.6s-0.6-0.2-0.6-0.6C140.8,162.6,141,162.4,141.4,162.4z M141.4,189.3c0.4,0,0.6,0.2,0.6,0.6
		c0,0.4-0.2,0.6-0.6,0.6s-0.6-0.2-0.6-0.6S141,189.3,141.4,189.3z M143.1,163.9c-0.6,0.5-1.1,0.9-1.4,1v1.2l0.5,0.4
		c1-0.2,1.7-0.8,2.2-1.6l-0.2-0.7L143.1,163.9z M143.1,190.7c-0.6,0.5-1.1,0.9-1.4,1v1.2l0.5,0.4c1-0.2,1.7-0.8,2.2-1.6l-0.2-0.7
		L143.1,190.7z M143.2,163l0.1,0.2l1.1,0.4l0.5-0.4V163c0-0.9-0.3-1.7-0.8-2.3h-0.7l-0.7,1c0,0.1,0.1,0.2,0.2,0.4s0.1,0.3,0.2,0.5
		C143.2,162.6,143.2,162.8,143.2,163z M143.2,189.9l0.1,0.2l1.1,0.4l0.5-0.4v-0.2c0-0.9-0.3-1.7-0.8-2.3h-0.7l-0.7,1
		c0,0.1,0.1,0.2,0.2,0.4s0.1,0.3,0.2,0.5C143.2,189.5,143.2,189.7,143.2,189.9z M159.8,159c1.1,1.1,1.7,2.4,1.7,4
		c0,1.6-0.6,2.9-1.7,4c-1.1,1.1-2.4,1.7-4,1.7c-1.6,0-2.9-0.6-4-1.7c-1.1-1.1-1.7-2.4-1.7-4c0-1.6,0.6-2.9,1.7-4
		c1.1-1.1,2.4-1.7,4-1.7C157.3,157.3,158.6,157.8,159.8,159z M159.8,185.8c1.1,1.1,1.7,2.4,1.7,4c0,1.6-0.6,2.9-1.7,4
		c-1.1,1.1-2.4,1.7-4,1.7c-1.6,0-2.9-0.6-4-1.7c-1.1-1.1-1.7-2.4-1.7-4c0-1.6,0.6-2.9,1.7-4c1.1-1.1,2.4-1.7,4-1.7
		C157.3,184.2,158.6,184.7,159.8,185.8z M159.1,166.3c0.9-0.9,1.4-2.1,1.4-3.4c0-1.3-0.5-2.4-1.4-3.4c-0.9-0.9-2.1-1.4-3.4-1.4
		s-2.4,0.5-3.4,1.4c-0.9,0.9-1.4,2.1-1.4,3.4s0.5,2.4,1.4,3.4c0.9,0.9,2.1,1.4,3.4,1.4S158.2,167.3,159.1,166.3z M159.1,193.2
		c0.9-0.9,1.4-2.1,1.4-3.4c0-1.3-0.5-2.4-1.4-3.4c-0.9-0.9-2.1-1.4-3.4-1.4s-2.4,0.5-3.4,1.4c-0.9,0.9-1.4,2.1-1.4,3.4
		c0,1.3,0.5,2.4,1.4,3.4c0.9,0.9,2.1,1.4,3.4,1.4S158.2,194.2,159.1,193.2z M158.7,160c0.8,0.8,1.2,1.8,1.2,3s-0.4,2.1-1.2,3
		c-0.8,0.8-1.8,1.2-3,1.2c-1.2,0-2.1-0.4-3-1.2c-0.8-0.8-1.2-1.8-1.2-3c0-1.2,0.4-2.1,1.2-3c0.8-0.8,1.8-1.2,3-1.2
		C156.9,158.8,157.9,159.2,158.7,160z M158.7,186.9c0.8,0.8,1.2,1.8,1.2,3s-0.4,2.1-1.2,3c-0.8,0.8-1.8,1.2-3,1.2
		c-1.2,0-2.1-0.4-3-1.2c-0.8-0.8-1.2-1.8-1.2-3s0.4-2.1,1.2-3c0.8-0.8,1.8-1.2,3-1.2C156.9,185.7,157.9,186.1,158.7,186.9z M154,163
		c0-0.2,0-0.4,0.1-0.6c0-0.2,0.1-0.3,0.2-0.5c0.1-0.2,0.1-0.3,0.2-0.4l-0.7-1H153c-0.6,0.7-0.8,1.5-0.8,2.3v0.2l0.5,0.4l1.1-0.4
		L154,163z M154,189.9c0-0.2,0-0.4,0.1-0.6c0-0.2,0.1-0.3,0.2-0.5c0.1-0.2,0.1-0.3,0.2-0.4l-0.7-1H153c-0.6,0.7-0.8,1.5-0.8,2.3v0.2
		l0.5,0.4l1.1-0.4L154,189.9z M154.9,166.4l0.5-0.4v-1.2l-0.2-0.2c-0.4-0.1-0.8-0.4-1-0.7l-0.2-0.1l-1.1,0.4l-0.2,0.7
		C153.2,165.7,153.9,166.2,154.9,166.4z M154.9,193.3l0.5-0.4v-1.2l-0.2-0.2c-0.4-0.1-0.8-0.4-1-0.7l-0.2-0.1l-1.1,0.4l-0.2,0.7
		C153.2,192.6,153.9,193.1,154.9,193.3z M154.4,159.6l-0.2,0.7l0.7,1h0.2c0.2,0,0.4-0.1,0.7-0.1c0.3,0,0.5,0,0.7,0.1h0.2l0.7-1
		l-0.2-0.7c-0.5-0.2-0.9-0.2-1.3-0.2C155.4,159.4,154.9,159.5,154.4,159.6z M154.4,186.5l-0.2,0.7l0.7,1h0.2c0.2,0,0.4-0.1,0.7-0.1
		c0.3,0,0.5,0,0.7,0.1h0.2l0.7-1l-0.2-0.7c-0.5-0.2-0.9-0.2-1.3-0.2C155.4,186.3,154.9,186.3,154.4,186.5z M156.6,163.8
		c0.2-0.2,0.4-0.5,0.4-0.8c0-0.3-0.1-0.6-0.4-0.8c-0.2-0.2-0.5-0.4-0.8-0.4c-0.3,0-0.6,0.1-0.8,0.4c-0.2,0.2-0.4,0.5-0.4,0.8
		c0,0.3,0.1,0.6,0.4,0.8c0.2,0.2,0.5,0.4,0.8,0.4C156.1,164.2,156.4,164,156.6,163.8z M156.6,190.7c0.2-0.2,0.4-0.5,0.4-0.8
		c0-0.3-0.1-0.6-0.4-0.8c-0.2-0.2-0.5-0.4-0.8-0.4c-0.3,0-0.6,0.1-0.8,0.4s-0.4,0.5-0.4,0.8c0,0.3,0.1,0.6,0.4,0.8
		c0.2,0.2,0.5,0.4,0.8,0.4C156.1,191,156.4,190.9,156.6,190.7z M155.8,162.4c0.4,0,0.6,0.2,0.6,0.6c0,0.4-0.2,0.6-0.6,0.6
		c-0.4,0-0.6-0.2-0.6-0.6C155.2,162.6,155.4,162.4,155.8,162.4z M155.8,189.3c0.4,0,0.6,0.2,0.6,0.6c0,0.4-0.2,0.6-0.6,0.6
		c-0.4,0-0.6-0.2-0.6-0.6S155.4,189.3,155.8,189.3z M157.5,163.9c-0.6,0.5-1.1,0.9-1.4,1v1.2l0.5,0.4c1-0.2,1.7-0.8,2.2-1.6
		l-0.2-0.7L157.5,163.9z M157.5,190.7c-0.6,0.5-1.1,0.9-1.4,1v1.2l0.5,0.4c1-0.2,1.7-0.8,2.2-1.6l-0.2-0.7L157.5,190.7z M157.5,163
		l0.1,0.2l1.1,0.4l0.5-0.4V163c0-0.9-0.3-1.7-0.8-2.3h-0.7l-0.7,1c0,0.1,0.1,0.2,0.2,0.4c0.1,0.2,0.1,0.3,0.2,0.5
		C157.5,162.6,157.5,162.8,157.5,163z M157.5,189.9l0.1,0.2l1.1,0.4l0.5-0.4v-0.2c0-0.9-0.3-1.7-0.8-2.3h-0.7l-0.7,1
		c0,0.1,0.1,0.2,0.2,0.4c0.1,0.2,0.1,0.3,0.2,0.5C157.5,189.5,157.5,189.7,157.5,189.9z"/>
</g>
</svg>
