<?xml version="1.0" encoding="utf-8"?>
<!-- Generator: Adobe Illustrator 25.0.1, SVG Export Plug-In . SVG Version: 6.00 Build 0)  -->
<svg version="1.1"
	 id="图层_1" inkscape:version="0.92.3 (2405546, 2018-03-11)" xmlns:cc="http://creativecommons.org/ns#" xmlns:dc="http://purl.org/dc/elements/1.1/" xmlns:inkscape="http://www.inkscape.org/namespaces/inkscape" xmlns:rdf="http://www.w3.org/1999/02/22-rdf-syntax-ns#" xmlns:sodipodi="http://sodipodi.sourceforge.net/DTD/sodipodi-0.dtd" xmlns:svg="http://www.w3.org/2000/svg"
	 xmlns="http://www.w3.org/2000/svg" xmlns:xlink="http://www.w3.org/1999/xlink" x="0px" y="0px" viewBox="0 0 139.8 200"
	 style="enable-background:new 0 0 139.8 200;" xml:space="preserve">
<style type="text/css">
	.st0{fill:#FFFFFF;}
	.st1{fill:#00082D;}
	.st2{fill:#870000;}
</style>
<path class="st0" d="M112,200.5H28c-15.4,0-27.9-12.5-27.9-27.9V28.4C0.1,13,12.6,0.5,28,0.5h84c15.4,0,27.9,12.5,27.9,27.9v144.2
	C139.9,188,127.4,200.5,112,200.5z"/>
<sodipodi:namedview  bordercolor="#666666" borderopacity="1" gridtolerance="10" guidetolerance="10" id="namedview617" inkscape:current-layer="图层_1" inkscape:cx="-13.16014" inkscape:cy="152.60966" inkscape:pageopacity="0" inkscape:pageshadow="2" inkscape:window-height="705" inkscape:window-maximized="1" inkscape:window-width="1366" inkscape:window-x="-8" inkscape:window-y="-8" inkscape:zoom="1" objecttolerance="10" pagecolor="#ffffff" showgrid="false">
	</sodipodi:namedview>
<g id="g1683" transform="matrix(4.0332338,0,0,4.0332338,-683.6291,-611.50277)">
	<path id="path142" inkscape:connector-curvature="0" d="M204.2,155.2v42.4c0,1-0.3,1.8-1,2.5c-0.7,0.7-1.5,1-2.5,1h-27.5
		c-1,0-1.8-0.3-2.5-1s-1-1.5-1-2.5v-42.4c0-1,0.3-1.8,1-2.5c0.7-0.7,1.5-1,2.5-1h27.5c1,0,1.8,0.3,2.5,1
		C203.8,153.4,204.2,154.2,204.2,155.2z M200.6,153.4h-27.5c-0.5,0-0.9,0.2-1.3,0.5c-0.3,0.3-0.5,0.8-0.5,1.3v42.4
		c0,0.5,0.2,0.9,0.5,1.3c0.3,0.3,0.8,0.5,1.3,0.5h27.5c0.5,0,0.9-0.2,1.3-0.5c0.3-0.3,0.5-0.8,0.5-1.3v-42.4c0-0.5-0.2-0.9-0.5-1.3
		C201.5,153.6,201.1,153.4,200.6,153.4z"/>
	<path id="path144" inkscape:connector-curvature="0" class="st1" d="M190.8,172.4c1.1,1.1,1.7,2.4,1.7,4c0,1.6-0.6,2.9-1.7,4
		c-1.1,1.1-2.4,1.7-4,1.7c-1.6,0-2.9-0.6-4-1.7c-1.1-1.1-1.7-2.4-1.7-4c0-1.6,0.6-2.9,1.7-4c1.1-1.1,2.4-1.7,4-1.7
		C188.4,170.7,189.7,171.3,190.8,172.4z M190.2,179.8c0.9-0.9,1.4-2.1,1.4-3.4c0-1.3-0.5-2.4-1.4-3.4c-0.9-0.9-2.1-1.4-3.4-1.4
		s-2.4,0.5-3.4,1.4c-0.9,0.9-1.4,2.1-1.4,3.4c0,1.3,0.5,2.4,1.4,3.4c0.9,0.9,2.1,1.4,3.4,1.4C188.1,181.2,189.3,180.7,190.2,179.8z"
		/>
	<path id="path146" inkscape:connector-curvature="0" class="st2" d="M189.8,173.5c0.8,0.8,1.2,1.8,1.2,3s-0.4,2.1-1.2,3
		c-0.8,0.8-1.8,1.2-3,1.2c-1.2,0-2.1-0.4-3-1.2c-0.8-0.8-1.2-1.8-1.2-3s0.4-2.1,1.2-3c0.8-0.8,1.8-1.2,3-1.2
		C188,172.2,189,172.6,189.8,173.5z M185,176.5c0-0.2,0-0.4,0.1-0.6c0-0.2,0.1-0.3,0.2-0.5c0.1-0.2,0.1-0.3,0.2-0.4l-0.7-1h-0.7
		c-0.6,0.7-0.8,1.5-0.8,2.3v0.2l0.5,0.4l1.1-0.4L185,176.5z M186,179.9l0.5-0.4v-1.2l-0.2-0.2c-0.4-0.1-0.8-0.4-1-0.7l-0.2-0.1
		l-1.1,0.4l-0.2,0.7C184.3,179.1,185,179.6,186,179.9L186,179.9z M185.5,173.1l-0.2,0.7l0.7,1h0.2c0.2,0,0.4-0.1,0.7-0.1
		c0.3,0,0.5,0,0.7,0.1h0.2l0.7-1l-0.2-0.7c-0.5-0.2-0.9-0.2-1.3-0.2C186.4,172.8,186,172.9,185.5,173.1z M187.7,177.2
		c0.2-0.2,0.4-0.5,0.4-0.8c0-0.3-0.1-0.6-0.4-0.8c-0.2-0.2-0.5-0.4-0.8-0.4c-0.3,0-0.6,0.1-0.8,0.4c-0.2,0.2-0.4,0.5-0.4,0.8
		c0,0.3,0.1,0.6,0.4,0.8c0.2,0.2,0.5,0.4,0.8,0.4C187.1,177.6,187.4,177.5,187.7,177.2z M186.8,175.8c0.4,0,0.6,0.2,0.6,0.6
		c0,0.4-0.2,0.6-0.6,0.6c-0.4,0-0.6-0.2-0.6-0.6C186.2,176,186.4,175.8,186.8,175.8z M188.6,177.3c-0.6,0.5-1.1,0.9-1.4,1v1.2
		l0.5,0.4c1-0.2,1.7-0.8,2.2-1.6l-0.2-0.7L188.6,177.3z M188.6,176.5l0.1,0.2l1.1,0.4l0.5-0.4v-0.2c0-0.9-0.3-1.7-0.8-2.3h-0.7
		l-0.7,1c0,0.1,0.1,0.2,0.2,0.4s0.1,0.3,0.2,0.5C188.6,176,188.6,176.2,188.6,176.5L188.6,176.5z"/>
	<path id="path148" inkscape:connector-curvature="0" class="st1" d="M183.7,159c1.1,1.1,1.7,2.4,1.7,4c0,1.6-0.6,2.9-1.7,4
		c-1.1,1.1-2.4,1.7-4,1.7c-1.6,0-2.9-0.6-4-1.7c-1.1-1.1-1.7-2.4-1.7-4c0-1.6,0.6-2.9,1.7-4c1.1-1.1,2.4-1.7,4-1.7
		C181.2,157.3,182.5,157.8,183.7,159z M183.7,185.8c1.1,1.1,1.7,2.4,1.7,4c0,1.6-0.6,2.9-1.7,4c-1.1,1.1-2.4,1.7-4,1.7
		c-1.6,0-2.9-0.6-4-1.7c-1.1-1.1-1.7-2.4-1.7-4c0-1.6,0.6-2.9,1.7-4c1.1-1.1,2.4-1.7,4-1.7C181.2,184.2,182.5,184.7,183.7,185.8z
		 M183,166.3c0.9-0.9,1.4-2.1,1.4-3.4c0-1.3-0.5-2.4-1.4-3.4s-2.1-1.4-3.4-1.4s-2.4,0.5-3.4,1.4c-0.9,0.9-1.4,2.1-1.4,3.4
		s0.5,2.4,1.4,3.4c0.9,0.9,2.1,1.4,3.4,1.4S182.1,167.3,183,166.3z M183,193.2c0.9-0.9,1.4-2.1,1.4-3.4c0-1.3-0.5-2.4-1.4-3.4
		c-0.9-0.9-2.1-1.4-3.4-1.4s-2.4,0.5-3.4,1.4c-0.9,0.9-1.4,2.1-1.4,3.4c0,1.3,0.5,2.4,1.4,3.4c0.9,0.9,2.1,1.4,3.4,1.4
		S182.1,194.2,183,193.2z M182.6,160c0.8,0.8,1.2,1.8,1.2,3s-0.4,2.1-1.2,3c-0.8,0.8-1.8,1.2-3,1.2c-1.2,0-2.1-0.4-3-1.2
		c-0.8-0.8-1.2-1.8-1.2-3c0-1.2,0.4-2.1,1.2-3c0.8-0.8,1.8-1.2,3-1.2C180.8,158.8,181.8,159.2,182.6,160z M182.6,186.9
		c0.8,0.8,1.2,1.8,1.2,3s-0.4,2.1-1.2,3c-0.8,0.8-1.8,1.2-3,1.2c-1.2,0-2.1-0.4-3-1.2c-0.8-0.8-1.2-1.8-1.2-3s0.4-2.1,1.2-3
		c0.8-0.8,1.8-1.2,3-1.2C180.8,185.7,181.8,186.1,182.6,186.9z M177.9,163c0-0.2,0-0.4,0.1-0.6c0-0.2,0.1-0.3,0.2-0.5
		c0.1-0.2,0.1-0.3,0.2-0.4l-0.7-1h-0.7c-0.6,0.7-0.8,1.5-0.8,2.3v0.2l0.5,0.4l1.1-0.4L177.9,163z M177.9,189.9c0-0.2,0-0.4,0.1-0.6
		c0-0.2,0.1-0.3,0.2-0.5c0.1-0.2,0.1-0.3,0.2-0.4l-0.7-1h-0.7c-0.6,0.7-0.8,1.5-0.8,2.3v0.2l0.5,0.4l1.1-0.4L177.9,189.9z
		 M178.8,166.4l0.5-0.4v-1.2l-0.2-0.2c-0.4-0.1-0.8-0.4-1-0.7l-0.2-0.1l-1.1,0.4l-0.2,0.7C177.1,165.7,177.8,166.2,178.8,166.4
		L178.8,166.4z M178.8,193.3l0.5-0.4v-1.2l-0.2-0.2c-0.4-0.1-0.8-0.4-1-0.7l-0.2-0.1l-1.1,0.4l-0.2,0.7
		C177.1,192.6,177.8,193.1,178.8,193.3L178.8,193.3z M178.3,159.6l-0.2,0.7l0.7,1h0.2c0.2,0,0.4-0.1,0.7-0.1c0.3,0,0.5,0,0.7,0.1
		h0.2l0.7-1l-0.2-0.7c-0.5-0.2-0.9-0.2-1.3-0.2C179.3,159.4,178.8,159.5,178.3,159.6z M178.3,186.5l-0.2,0.7l0.7,1h0.2
		c0.2,0,0.4-0.1,0.7-0.1c0.3,0,0.5,0,0.7,0.1h0.2l0.7-1l-0.2-0.7c-0.5-0.2-0.9-0.2-1.3-0.2C179.3,186.3,178.8,186.3,178.3,186.5z
		 M180.5,163.8c0.2-0.2,0.4-0.5,0.4-0.8c0-0.3-0.1-0.6-0.4-0.8c-0.2-0.2-0.5-0.4-0.8-0.4c-0.3,0-0.6,0.1-0.8,0.4
		c-0.2,0.2-0.4,0.5-0.4,0.8c0,0.3,0.1,0.6,0.4,0.8s0.5,0.4,0.8,0.4C180,164.2,180.3,164,180.5,163.8z M180.5,190.7
		c0.2-0.2,0.4-0.5,0.4-0.8c0-0.3-0.1-0.6-0.4-0.8c-0.2-0.2-0.5-0.4-0.8-0.4c-0.3,0-0.6,0.1-0.8,0.4c-0.2,0.2-0.4,0.5-0.4,0.8
		c0,0.3,0.1,0.6,0.4,0.8s0.5,0.4,0.8,0.4C180,191,180.3,190.9,180.5,190.7z M179.7,162.4c0.4,0,0.6,0.2,0.6,0.6
		c0,0.4-0.2,0.6-0.6,0.6s-0.6-0.2-0.6-0.6C179.1,162.6,179.3,162.4,179.7,162.4z M179.7,189.3c0.4,0,0.6,0.2,0.6,0.6
		c0,0.4-0.2,0.6-0.6,0.6s-0.6-0.2-0.6-0.6S179.3,189.3,179.7,189.3z M181.4,163.9c-0.6,0.5-1.1,0.9-1.4,1v1.2l0.5,0.4
		c1-0.2,1.7-0.8,2.2-1.6l-0.2-0.7L181.4,163.9z M181.4,190.7c-0.6,0.5-1.1,0.9-1.4,1v1.2l0.5,0.4c1-0.2,1.7-0.8,2.2-1.6l-0.2-0.7
		L181.4,190.7z M181.4,163l0.1,0.2l1.1,0.4l0.5-0.4V163c0-0.9-0.3-1.7-0.8-2.3h-0.7l-0.7,1c0,0.1,0.1,0.2,0.2,0.4s0.1,0.3,0.2,0.5
		C181.4,162.6,181.4,162.8,181.4,163z M181.4,189.9l0.1,0.2l1.1,0.4l0.5-0.4v-0.2c0-0.9-0.3-1.7-0.8-2.3h-0.7l-0.7,1
		c0,0.1,0.1,0.2,0.2,0.4s0.1,0.3,0.2,0.5C181.4,189.5,181.4,189.7,181.4,189.9z M198,159c1.1,1.1,1.7,2.4,1.7,4c0,1.6-0.6,2.9-1.7,4
		c-1.1,1.1-2.4,1.7-4,1.7c-1.6,0-2.9-0.6-4-1.7c-1.1-1.1-1.7-2.4-1.7-4c0-1.6,0.6-2.9,1.7-4c1.1-1.1,2.4-1.7,4-1.7
		C195.5,157.3,196.9,157.8,198,159z M198,185.8c1.1,1.1,1.7,2.4,1.7,4c0,1.6-0.6,2.9-1.7,4c-1.1,1.1-2.4,1.7-4,1.7
		c-1.6,0-2.9-0.6-4-1.7c-1.1-1.1-1.7-2.4-1.7-4c0-1.6,0.6-2.9,1.7-4c1.1-1.1,2.4-1.7,4-1.7C195.5,184.2,196.9,184.7,198,185.8z
		 M197.4,166.3c0.9-0.9,1.4-2.1,1.4-3.4c0-1.3-0.5-2.4-1.4-3.4c-0.9-0.9-2.1-1.4-3.4-1.4s-2.4,0.5-3.4,1.4c-0.9,0.9-1.4,2.1-1.4,3.4
		s0.5,2.4,1.4,3.4c0.9,0.9,2.1,1.4,3.4,1.4S196.4,167.3,197.4,166.3z M197.4,193.2c0.9-0.9,1.4-2.1,1.4-3.4c0-1.3-0.5-2.4-1.4-3.4
		c-0.9-0.9-2.1-1.4-3.4-1.4s-2.4,0.5-3.4,1.4c-0.9,0.9-1.4,2.1-1.4,3.4c0,1.3,0.5,2.4,1.4,3.4c0.9,0.9,2.1,1.4,3.4,1.4
		S196.4,194.2,197.4,193.2z M197,160c0.8,0.8,1.2,1.8,1.2,3s-0.4,2.1-1.2,3c-0.8,0.8-1.8,1.2-3,1.2c-1.2,0-2.1-0.4-3-1.2
		c-0.8-0.8-1.2-1.8-1.2-3c0-1.2,0.4-2.1,1.2-3c0.8-0.8,1.8-1.2,3-1.2C195.1,158.8,196.1,159.2,197,160z M197,186.9
		c0.8,0.8,1.2,1.8,1.2,3s-0.4,2.1-1.2,3c-0.8,0.8-1.8,1.2-3,1.2c-1.2,0-2.1-0.4-3-1.2c-0.8-0.8-1.2-1.8-1.2-3s0.4-2.1,1.2-3
		c0.8-0.8,1.8-1.2,3-1.2C195.1,185.7,196.1,186.1,197,186.9z M192.2,163c0-0.2,0-0.4,0.1-0.6c0-0.2,0.1-0.3,0.2-0.5
		c0.1-0.2,0.1-0.3,0.2-0.4l-0.7-1h-0.7c-0.6,0.7-0.8,1.5-0.8,2.3v0.2l0.5,0.4l1.1-0.4L192.2,163z M192.2,189.9c0-0.2,0-0.4,0.1-0.6
		c0-0.2,0.1-0.3,0.2-0.5c0.1-0.2,0.1-0.3,0.2-0.4l-0.7-1h-0.7c-0.6,0.7-0.8,1.5-0.8,2.3v0.2l0.5,0.4l1.1-0.4L192.2,189.9z
		 M193.2,166.4l0.5-0.4v-1.2l-0.2-0.2c-0.4-0.1-0.8-0.4-1-0.7l-0.2-0.1l-1.1,0.4l-0.2,0.7C191.4,165.7,192.2,166.2,193.2,166.4z
		 M193.2,193.3l0.5-0.4v-1.2l-0.2-0.2c-0.4-0.1-0.8-0.4-1-0.7l-0.2-0.1l-1.1,0.4l-0.2,0.7C191.4,192.6,192.2,193.1,193.2,193.3z
		 M192.7,159.6l-0.2,0.7l0.7,1h0.2c0.2,0,0.4-0.1,0.7-0.1c0.3,0,0.5,0,0.7,0.1h0.2l0.7-1l-0.2-0.7c-0.5-0.2-0.9-0.2-1.3-0.2
		C193.6,159.4,193.2,159.5,192.7,159.6z M192.7,186.5l-0.2,0.7l0.7,1h0.2c0.2,0,0.4-0.1,0.7-0.1c0.3,0,0.5,0,0.7,0.1h0.2l0.7-1
		l-0.2-0.7c-0.5-0.2-0.9-0.2-1.3-0.2C193.6,186.3,193.2,186.3,192.7,186.5z M194.8,163.8c0.2-0.2,0.4-0.5,0.4-0.8
		c0-0.3-0.1-0.6-0.4-0.8c-0.2-0.2-0.5-0.4-0.8-0.4c-0.3,0-0.6,0.1-0.8,0.4c-0.2,0.2-0.4,0.5-0.4,0.8c0,0.3,0.1,0.6,0.4,0.8
		c0.2,0.2,0.5,0.4,0.8,0.4C194.3,164.2,194.6,164,194.8,163.8z M194.8,190.7c0.2-0.2,0.4-0.5,0.4-0.8c0-0.3-0.1-0.6-0.4-0.8
		c-0.2-0.2-0.5-0.4-0.8-0.4c-0.3,0-0.6,0.1-0.8,0.4s-0.4,0.5-0.4,0.8c0,0.3,0.1,0.6,0.4,0.8c0.2,0.2,0.5,0.4,0.8,0.4
		C194.3,191,194.6,190.9,194.8,190.7z M194,162.4c0.4,0,0.6,0.2,0.6,0.6c0,0.4-0.2,0.6-0.6,0.6c-0.4,0-0.6-0.2-0.6-0.6
		C193.4,162.6,193.6,162.4,194,162.4z M194,189.3c0.4,0,0.6,0.2,0.6,0.6c0,0.4-0.2,0.6-0.6,0.6c-0.4,0-0.6-0.2-0.6-0.6
		S193.6,189.3,194,189.3z M195.7,163.9c-0.6,0.5-1.1,0.9-1.4,1v1.2l0.5,0.4c1-0.2,1.7-0.8,2.2-1.6l-0.2-0.7L195.7,163.9z
		 M195.7,190.7c-0.6,0.5-1.1,0.9-1.4,1v1.2l0.5,0.4c1-0.2,1.7-0.8,2.2-1.6l-0.2-0.7L195.7,190.7z M195.8,163l0.1,0.2l1.1,0.4
		l0.5-0.4V163c0-0.9-0.3-1.7-0.8-2.3H196l-0.7,1c0,0.1,0.1,0.2,0.2,0.4c0.1,0.2,0.1,0.3,0.2,0.5C195.8,162.6,195.8,162.8,195.8,163z
		 M195.8,189.9l0.1,0.2l1.1,0.4l0.5-0.4v-0.2c0-0.9-0.3-1.7-0.8-2.3H196l-0.7,1c0,0.1,0.1,0.2,0.2,0.4c0.1,0.2,0.1,0.3,0.2,0.5
		C195.8,189.5,195.8,189.7,195.8,189.9z"/>
</g>
</svg>
