<?xml version="1.0" encoding="utf-8"?>
<!-- Generator: Adobe Illustrator 25.0.1, SVG Export Plug-In . SVG Version: 6.00 Build 0)  -->
<svg version="1.1"
	 id="图层_1" inkscape:version="0.92.3 (2405546, 2018-03-11)" xmlns:cc="http://creativecommons.org/ns#" xmlns:dc="http://purl.org/dc/elements/1.1/" xmlns:inkscape="http://www.inkscape.org/namespaces/inkscape" xmlns:rdf="http://www.w3.org/1999/02/22-rdf-syntax-ns#" xmlns:sodipodi="http://sodipodi.sourceforge.net/DTD/sodipodi-0.dtd" xmlns:svg="http://www.w3.org/2000/svg"
	 xmlns="http://www.w3.org/2000/svg" xmlns:xlink="http://www.w3.org/1999/xlink" x="0px" y="0px" viewBox="0 0 139.8 200"
	 style="enable-background:new 0 0 139.8 200;" xml:space="preserve">
<style type="text/css">
	.st0{fill:#FFFFFF;}
	.st1{fill:#00082D;}
	.st2{fill:#870000;}
</style>
<path class="st0" d="M112,200.5H28c-15.4,0-27.9-12.5-27.9-27.9V28.4C0.1,13,12.6,0.5,28,0.5h84c15.4,0,27.9,12.5,27.9,27.9v144.2
	C139.9,188,127.4,200.5,112,200.5z"/>
<sodipodi:namedview  bordercolor="#666666" borderopacity="1" gridtolerance="10" guidetolerance="10" id="namedview617" inkscape:current-layer="图层_1" inkscape:cx="-24.66014" inkscape:cy="152.60966" inkscape:pageopacity="0" inkscape:pageshadow="2" inkscape:window-height="705" inkscape:window-maximized="1" inkscape:window-width="1366" inkscape:window-x="-8" inkscape:window-y="-8" inkscape:zoom="1" objecttolerance="10" pagecolor="#ffffff" showgrid="false">
	</sodipodi:namedview>
<g id="g1702" transform="matrix(4.0332338,0,0,4.0332338,-837.84786,-611.50277)">
	<path id="path150" inkscape:connector-curvature="0" d="M242.4,155.2v42.4c0,1-0.4,1.8-1,2.5c-0.7,0.7-1.5,1-2.5,1h-27.5
		c-1,0-1.8-0.3-2.5-1s-1-1.5-1-2.5v-42.4c0-1,0.3-1.8,1-2.5c0.7-0.7,1.5-1,2.5-1h27.5c1,0,1.8,0.3,2.5,1
		C242,153.4,242.4,154.2,242.4,155.2z M238.8,153.4h-27.5c-0.5,0-0.9,0.2-1.3,0.5c-0.3,0.3-0.5,0.8-0.5,1.3v42.4
		c0,0.5,0.2,0.9,0.5,1.3c0.3,0.3,0.8,0.5,1.3,0.5h27.5c0.5,0,0.9-0.2,1.3-0.5c0.3-0.3,0.5-0.8,0.5-1.3v-42.4c0-0.5-0.2-0.9-0.5-1.3
		C239.7,153.6,239.3,153.4,238.8,153.4z"/>
	<path id="path152" inkscape:connector-curvature="0" class="st1" d="M215.2,181.2c0-1.4,0.5-2.6,1.5-3.6c1-1,2.2-1.5,3.6-1.5
		c1.1,0,2.1,0.3,2.9,0.9c0.9,0.6,1.5,1.4,1.9,2.4c0.4-1,1-1.8,1.9-2.4s1.9-0.9,2.9-0.9c1.4,0,2.6,0.5,3.6,1.5c1,1,1.5,2.2,1.5,3.6
		c0,1.1-0.3,2.1-0.9,2.9c-0.6,0.9-1.4,1.5-2.4,1.9c1,0.4,1.8,1,2.4,1.9c0.6,0.9,0.9,1.9,0.9,2.9c0,1.4-0.5,2.6-1.5,3.6
		c-1,1-2.2,1.5-3.6,1.5c-1.1,0-2.1-0.3-2.9-0.9c-0.9-0.6-1.5-1.4-1.9-2.4c-0.4,1-1,1.8-1.9,2.4c-0.9,0.6-1.9,0.9-2.9,0.9
		c-1.4,0-2.6-0.5-3.6-1.5c-1-1-1.5-2.2-1.5-3.6c0-1.1,0.3-2.1,0.9-2.9c0.6-0.9,1.4-1.5,2.4-1.9c-1-0.4-1.8-1-2.4-1.9
		C215.5,183.2,215.2,182.3,215.2,181.2z M217.3,178.2c-0.8,0.8-1.2,1.8-1.2,3c0,1.2,0.4,2.1,1.2,3c0.8,0.8,1.8,1.2,3,1.2
		c1.2,0,2.1-0.4,3-1.2c0.8-0.8,1.2-1.8,1.2-3c0-1.2-0.4-2.1-1.2-3c-0.8-0.8-1.8-1.2-3-1.2C219.1,177,218.1,177.4,217.3,178.2z
		 M217.3,187.8c-0.8,0.8-1.2,1.8-1.2,3s0.4,2.1,1.2,3c0.8,0.8,1.8,1.2,3,1.2c1.2,0,2.1-0.4,3-1.2c0.8-0.8,1.2-1.8,1.2-3
		c0-1.2-0.4-2.1-1.2-3c-0.8-0.8-1.8-1.2-3-1.2C219.1,186.6,218.1,187,217.3,187.8z M222,186c1.5,0.6,2.5,1.6,3,3
		c0.6-1.5,1.6-2.5,3-3c-1.5-0.6-2.5-1.6-3-3C224.5,184.4,223.5,185.4,222,186z M226.9,178.2c-0.8,0.8-1.2,1.8-1.2,3
		c0,1.2,0.4,2.1,1.2,3c0.8,0.8,1.8,1.2,3,1.2c1.2,0,2.1-0.4,3-1.2c0.8-0.8,1.2-1.8,1.2-3c0-1.2-0.4-2.1-1.2-3
		c-0.8-0.8-1.8-1.2-3-1.2C228.7,177,227.7,177.4,226.9,178.2z M226.9,187.8c-0.8,0.8-1.2,1.8-1.2,3s0.4,2.1,1.2,3
		c0.8,0.8,1.8,1.2,3,1.2c1.2,0,2.1-0.4,3-1.2c0.8-0.8,1.2-1.8,1.2-3c0-1.2-0.4-2.1-1.2-3c-0.8-0.8-1.8-1.2-3-1.2
		C228.7,186.6,227.7,187,226.9,187.8z"/>
	<path id="path154" inkscape:connector-curvature="0" class="st1" d="M216.7,165.7c-1-1-1.5-2.2-1.5-3.6s0.5-2.6,1.5-3.6
		c1-1,2.2-1.5,3.6-1.5c1.1,0,2.1,0.3,2.9,0.9c0.9,0.6,1.5,1.4,1.9,2.4c0.4-1,1-1.8,1.9-2.4c0.9-0.6,1.9-0.9,2.9-0.9
		c1.4,0,2.6,0.5,3.6,1.5c1,1,1.5,2.2,1.5,3.6c0,1.4-0.5,2.6-1.5,3.6c-1,1-2.2,1.5-3.6,1.5c-1.1,0-2.1-0.3-2.9-0.9
		c-0.9-0.6-1.5-1.4-1.9-2.4c-0.4,1-1,1.8-1.9,2.4c-0.9,0.6-1.9,0.9-2.9,0.9C218.9,167.1,217.7,166.7,216.7,165.7z M217.3,159.1
		c-0.8,0.8-1.2,1.8-1.2,3c0,1.2,0.4,2.1,1.2,3c0.8,0.8,1.8,1.2,3,1.2c1.2,0,2.1-0.4,3-1.2c0.8-0.8,1.2-1.8,1.2-3
		c0-1.2-0.4-2.1-1.2-3c-0.8-0.8-1.8-1.2-3-1.2C219.1,157.9,218.1,158.3,217.3,159.1z M218,164.4c-0.7-0.7-1-1.4-1-2.3s0.3-1.6,1-2.3
		c0.7-0.7,1.4-1,2.3-1s1.6,0.3,2.3,1c0.7,0.7,1,1.4,1,2.3c0,0.9-0.3,1.6-1,2.3s-1.4,1-2.3,1S218.6,165,218,164.4z M218,162.7
		c0.4-0.1,0.7-0.3,0.8-0.6c0-0.2,0-0.5,0.1-0.7c0.1-0.2,0.2-0.4,0.2-0.7l-0.4-0.5h-0.5c-0.4,0.5-0.7,1.1-0.7,1.8v0.2L218,162.7z
		 M219.9,163.5c-0.3-0.1-0.6-0.3-0.8-0.6l-0.4-0.2l-0.5,0.2l-0.2,0.5c0.5,0.7,1.1,1.1,1.7,1.3l0.5-0.3v-0.6L219.9,163.5z
		 M220.8,160.6l0.4-0.1l0.4-0.5l-0.2-0.5c-0.3-0.2-0.7-0.2-1.1-0.2c-0.4,0-0.8,0.1-1.1,0.2l-0.2,0.5l0.4,0.5l0.4,0.1
		c0.1,0,0.2-0.1,0.5-0.1S220.7,160.6,220.8,160.6L220.8,160.6z M219.7,161.4c-0.2,0.2-0.3,0.4-0.3,0.6s0.1,0.4,0.3,0.6
		s0.4,0.3,0.6,0.3c0.2,0,0.4-0.1,0.6-0.3s0.3-0.4,0.3-0.6s-0.1-0.4-0.3-0.6s-0.4-0.3-0.6-0.3S219.8,161.3,219.7,161.4z M220.3,162.4
		c-0.2,0-0.3-0.1-0.3-0.3s0.1-0.3,0.3-0.3c0.2,0,0.3,0.1,0.3,0.3C220.6,162.3,220.5,162.4,220.3,162.4z M221.9,162.7
		c-0.5,0.2-1,0.6-1.5,1.1v0.6l0.5,0.3c0.7-0.2,1.3-0.6,1.7-1.3l-0.2-0.5L221.9,162.7z M221.4,160.8c0,0.2,0.1,0.5,0.2,0.7
		c0.1,0.2,0.1,0.4,0.1,0.7l0.2,0.4l0.5,0.2l0.4-0.4v-0.2c0-0.7-0.2-1.3-0.7-1.8h-0.5L221.4,160.8z M226.9,159.1
		c-0.8,0.8-1.2,1.8-1.2,3c0,1.2,0.4,2.1,1.2,3c0.8,0.8,1.8,1.2,3,1.2c1.2,0,2.1-0.4,3-1.2c0.8-0.8,1.2-1.8,1.2-3
		c0-1.2-0.4-2.1-1.2-3c-0.8-0.8-1.8-1.2-3-1.2C228.7,157.9,227.7,158.3,226.9,159.1z M227.5,164.4c-0.7-0.7-1-1.4-1-2.3
		s0.3-1.6,1-2.3c0.7-0.7,1.4-1,2.3-1c0.9,0,1.6,0.3,2.3,1c0.7,0.7,1,1.4,1,2.3c0,0.9-0.3,1.6-1,2.3s-1.4,1-2.3,1
		C229,165.4,228.2,165,227.5,164.4z M227.6,162.7c0.4-0.1,0.7-0.3,0.8-0.6c0-0.2,0-0.5,0.1-0.7c0.1-0.2,0.2-0.4,0.2-0.7l-0.4-0.5
		h-0.5c-0.4,0.5-0.7,1.1-0.7,1.8v0.2L227.6,162.7z M229.4,163.5c-0.3-0.1-0.6-0.3-0.8-0.6l-0.4-0.2l-0.5,0.2l-0.2,0.5
		c0.5,0.7,1.1,1.1,1.7,1.3l0.5-0.3v-0.6L229.4,163.5z M230.3,160.6l0.4-0.1l0.4-0.5l-0.2-0.5c-0.3-0.2-0.7-0.2-1.1-0.2
		c-0.4,0-0.8,0.1-1.1,0.2l-0.2,0.5l0.4,0.5l0.4,0.1c0.1,0,0.2-0.1,0.5-0.1C230.1,160.6,230.2,160.6,230.3,160.6z M229.2,161.4
		c-0.2,0.2-0.3,0.4-0.3,0.6s0.1,0.4,0.3,0.6s0.4,0.3,0.6,0.3s0.4-0.1,0.6-0.3c0.2-0.2,0.3-0.4,0.3-0.6s-0.1-0.4-0.3-0.6
		c-0.2-0.2-0.4-0.3-0.6-0.3C229.6,161.2,229.4,161.3,229.2,161.4z M229.8,162.4c-0.2,0-0.3-0.1-0.3-0.3s0.1-0.3,0.3-0.3
		c0.2,0,0.3,0.1,0.3,0.3C230.1,162.3,230,162.4,229.8,162.4z M231.5,162.7c-0.5,0.2-1,0.6-1.5,1.1v0.6l0.5,0.3
		c0.7-0.2,1.3-0.6,1.7-1.3l-0.2-0.5L231.5,162.7z M231,160.8c0,0.2,0.1,0.5,0.2,0.7c0.1,0.2,0.1,0.4,0.1,0.7l0.2,0.4l0.5,0.2
		l0.4-0.4v-0.2c0-0.7-0.2-1.3-0.7-1.8h-0.5L231,160.8z"/>
	<path id="path156" inkscape:connector-curvature="0" class="st2" d="M218,183.5c-0.7-0.7-1-1.4-1-2.3c0-0.9,0.3-1.6,1-2.3
		c0.7-0.7,1.4-1,2.3-1s1.6,0.3,2.3,1s1,1.4,1,2.3s-0.3,1.6-1,2.3c-0.7,0.7-1.4,1-2.3,1S218.6,184.1,218,183.5z M218,193
		c-0.7-0.7-1-1.4-1-2.3c0-0.9,0.3-1.6,1-2.3c0.7-0.7,1.4-1,2.3-1s1.6,0.3,2.3,1s1,1.4,1,2.3s-0.3,1.6-1,2.3c-0.7,0.7-1.4,1-2.3,1
		S218.6,193.7,218,193z M218,181.8c0.4-0.1,0.7-0.3,0.8-0.6c0-0.2,0-0.5,0.1-0.7c0.1-0.2,0.2-0.4,0.2-0.7l-0.4-0.5h-0.5
		c-0.4,0.5-0.7,1.1-0.7,1.8v0.2L218,181.8z M218,191.3c0.4-0.1,0.7-0.3,0.8-0.6c0-0.2,0-0.5,0.1-0.7c0.1-0.2,0.2-0.4,0.2-0.7
		l-0.4-0.5h-0.5c-0.4,0.5-0.7,1.1-0.7,1.8v0.2L218,191.3z M219.9,182.6c-0.3-0.1-0.6-0.3-0.8-0.6l-0.4-0.2l-0.5,0.2l-0.2,0.5
		c0.5,0.7,1.1,1.1,1.7,1.3l0.5-0.3v-0.6L219.9,182.6z M219.9,192.2c-0.3-0.1-0.6-0.3-0.8-0.6l-0.4-0.2l-0.5,0.2l-0.2,0.5
		c0.5,0.7,1.1,1.1,1.7,1.3l0.5-0.3v-0.6L219.9,192.2z M220.8,179.8l0.4-0.1l0.4-0.5l-0.2-0.5c-0.3-0.2-0.7-0.2-1.1-0.2
		c-0.4,0-0.8,0.1-1.1,0.2l-0.2,0.5l0.4,0.5l0.4,0.1c0.1,0,0.2-0.1,0.5-0.1S220.7,179.7,220.8,179.8L220.8,179.8z M220.8,189.3
		l0.4-0.1l0.4-0.5l-0.2-0.5c-0.3-0.2-0.7-0.2-1.1-0.2c-0.4,0-0.8,0.1-1.1,0.2l-0.2,0.5l0.4,0.5l0.4,0.1c0.1,0,0.2-0.1,0.5-0.1
		S220.7,189.3,220.8,189.3L220.8,189.3z M219.7,180.6c-0.2,0.2-0.3,0.4-0.3,0.6c0,0.2,0.1,0.4,0.3,0.6c0.2,0.2,0.4,0.3,0.6,0.3
		c0.2,0,0.4-0.1,0.6-0.3c0.2-0.2,0.3-0.4,0.3-0.6s-0.1-0.4-0.3-0.6s-0.4-0.3-0.6-0.3S219.8,180.4,219.7,180.6z M219.7,190.1
		c-0.2,0.2-0.3,0.4-0.3,0.6s0.1,0.4,0.3,0.6s0.4,0.3,0.6,0.3c0.2,0,0.4-0.1,0.6-0.3s0.3-0.4,0.3-0.6s-0.1-0.4-0.3-0.6
		c-0.2-0.2-0.4-0.3-0.6-0.3S219.8,189.9,219.7,190.1z M220.3,181.5c-0.2,0-0.3-0.1-0.3-0.3c0-0.2,0.1-0.3,0.3-0.3
		c0.2,0,0.3,0.1,0.3,0.3C220.6,181.4,220.5,181.5,220.3,181.5z M220.3,191c-0.2,0-0.3-0.1-0.3-0.3c0-0.2,0.1-0.3,0.3-0.3
		c0.2,0,0.3,0.1,0.3,0.3C220.6,190.9,220.5,191,220.3,191z M221.9,181.8c-0.5,0.2-1,0.6-1.5,1.1v0.6l0.5,0.3
		c0.7-0.2,1.3-0.6,1.7-1.3l-0.2-0.5L221.9,181.8z M221.9,191.4c-0.5,0.2-1,0.6-1.5,1.1v0.6l0.5,0.3c0.7-0.2,1.3-0.6,1.7-1.3
		l-0.2-0.5L221.9,191.4z M221.4,179.9c0,0.2,0.1,0.5,0.2,0.7c0.1,0.2,0.1,0.4,0.1,0.7l0.2,0.4l0.5,0.2l0.4-0.4v-0.2
		c0-0.7-0.2-1.3-0.7-1.8h-0.5L221.4,179.9z M221.4,189.4c0,0.2,0.1,0.5,0.2,0.7c0.1,0.2,0.1,0.4,0.1,0.7l0.2,0.4l0.5,0.2l0.4-0.4
		v-0.2c0-0.7-0.2-1.3-0.7-1.8h-0.5L221.4,189.4z M227.5,183.5c-0.7-0.7-1-1.4-1-2.3c0-0.9,0.3-1.6,1-2.3s1.4-1,2.3-1
		c0.9,0,1.6,0.3,2.3,1c0.7,0.7,1,1.4,1,2.3s-0.3,1.6-1,2.3c-0.7,0.7-1.4,1-2.3,1C229,184.5,228.2,184.1,227.5,183.5z M227.5,193
		c-0.7-0.7-1-1.4-1-2.3c0-0.9,0.3-1.6,1-2.3s1.4-1,2.3-1c0.9,0,1.6,0.3,2.3,1c0.7,0.7,1,1.4,1,2.3s-0.3,1.6-1,2.3
		c-0.7,0.7-1.4,1-2.3,1C229,194,228.2,193.7,227.5,193z M227.6,181.8c0.4-0.1,0.7-0.3,0.8-0.6c0-0.2,0-0.5,0.1-0.7
		c0.1-0.2,0.2-0.4,0.2-0.7l-0.4-0.5h-0.5c-0.4,0.5-0.7,1.1-0.7,1.8v0.2L227.6,181.8z M227.6,191.3c0.4-0.1,0.7-0.3,0.8-0.6
		c0-0.2,0-0.5,0.1-0.7c0.1-0.2,0.2-0.4,0.2-0.7l-0.4-0.5h-0.5c-0.4,0.5-0.7,1.1-0.7,1.8v0.2L227.6,191.3z M229.4,182.6
		c-0.3-0.1-0.6-0.3-0.8-0.6l-0.4-0.2l-0.5,0.2l-0.2,0.5c0.5,0.7,1.1,1.1,1.7,1.3l0.5-0.3v-0.6L229.4,182.6z M229.4,192.2
		c-0.3-0.1-0.6-0.3-0.8-0.6l-0.4-0.2l-0.5,0.2l-0.2,0.5c0.5,0.7,1.1,1.1,1.7,1.3l0.5-0.3v-0.6L229.4,192.2z M230.3,179.8l0.4-0.1
		l0.4-0.5l-0.2-0.5c-0.3-0.2-0.7-0.2-1.1-0.2c-0.4,0-0.8,0.1-1.1,0.2l-0.2,0.5l0.4,0.5l0.4,0.1c0.1,0,0.2-0.1,0.5-0.1
		C230.1,179.7,230.2,179.7,230.3,179.8z M230.3,189.3l0.4-0.1l0.4-0.5l-0.2-0.5c-0.3-0.2-0.7-0.2-1.1-0.2c-0.4,0-0.8,0.1-1.1,0.2
		l-0.2,0.5l0.4,0.5l0.4,0.1c0.1,0,0.2-0.1,0.5-0.1C230.1,189.3,230.2,189.3,230.3,189.3z M229.2,180.6c-0.2,0.2-0.3,0.4-0.3,0.6
		c0,0.2,0.1,0.4,0.3,0.6c0.2,0.2,0.4,0.3,0.6,0.3s0.4-0.1,0.6-0.3c0.2-0.2,0.3-0.4,0.3-0.6s-0.1-0.4-0.3-0.6
		c-0.2-0.2-0.4-0.3-0.6-0.3C229.6,180.3,229.4,180.4,229.2,180.6z M229.2,190.1c-0.2,0.2-0.3,0.4-0.3,0.6s0.1,0.4,0.3,0.6
		s0.4,0.3,0.6,0.3s0.4-0.1,0.6-0.3c0.2-0.2,0.3-0.4,0.3-0.6s-0.1-0.4-0.3-0.6c-0.2-0.2-0.4-0.3-0.6-0.3
		C229.6,189.9,229.4,189.9,229.2,190.1z M229.8,181.5c-0.2,0-0.3-0.1-0.3-0.3c0-0.2,0.1-0.3,0.3-0.3c0.2,0,0.3,0.1,0.3,0.3
		C230.1,181.4,230,181.5,229.8,181.5z M229.8,191c-0.2,0-0.3-0.1-0.3-0.3c0-0.2,0.1-0.3,0.3-0.3c0.2,0,0.3,0.1,0.3,0.3
		C230.1,190.9,230,191,229.8,191z M231.5,181.8c-0.5,0.2-1,0.6-1.5,1.1v0.6l0.5,0.3c0.7-0.2,1.3-0.6,1.7-1.3L232,182L231.5,181.8z
		 M231.5,191.4c-0.5,0.2-1,0.6-1.5,1.1v0.6l0.5,0.3c0.7-0.2,1.3-0.6,1.7-1.3l-0.2-0.5L231.5,191.4z M231,179.9
		c0,0.2,0.1,0.5,0.2,0.7c0.1,0.2,0.1,0.4,0.1,0.7l0.2,0.4l0.5,0.2l0.4-0.4v-0.2c0-0.7-0.2-1.3-0.7-1.8h-0.5L231,179.9z M231,189.4
		c0,0.2,0.1,0.5,0.2,0.7c0.1,0.2,0.1,0.4,0.1,0.7l0.2,0.4l0.5,0.2l0.4-0.4v-0.2c0-0.7-0.2-1.3-0.7-1.8h-0.5L231,189.4z"/>
</g>
</svg>
