<?xml version="1.0" encoding="utf-8"?>
<!-- Generator: Adobe Illustrator 25.0.1, SVG Export Plug-In . SVG Version: 6.00 Build 0)  -->
<svg version="1.1"
	 id="图层_1" inkscape:version="0.92.3 (2405546, 2018-03-11)" xmlns:cc="http://creativecommons.org/ns#" xmlns:dc="http://purl.org/dc/elements/1.1/" xmlns:inkscape="http://www.inkscape.org/namespaces/inkscape" xmlns:rdf="http://www.w3.org/1999/02/22-rdf-syntax-ns#" xmlns:sodipodi="http://sodipodi.sourceforge.net/DTD/sodipodi-0.dtd" xmlns:svg="http://www.w3.org/2000/svg"
	 xmlns="http://www.w3.org/2000/svg" xmlns:xlink="http://www.w3.org/1999/xlink" x="0px" y="0px" viewBox="0 0 139.8 200"
	 style="enable-background:new 0 0 139.8 200;" xml:space="preserve">
<style type="text/css">
	.st0{fill:#FFFFFF;}
	.st1{fill:#870000;}
	.st2{fill:#00082D;}
</style>
<path class="st0" d="M112,200.5H28c-15.4,0-27.9-12.5-27.9-27.9V28.4C0.1,13,12.6,0.5,28,0.5h84c15.4,0,27.9,12.5,27.9,27.9v144.2
	C139.9,188,127.4,200.5,112,200.5z"/>
<sodipodi:namedview  bordercolor="#666666" borderopacity="1" gridtolerance="10" guidetolerance="10" id="namedview617" inkscape:current-layer="图层_1" inkscape:cx="-196.16014" inkscape:cy="152.60966" inkscape:pageopacity="0" inkscape:pageshadow="2" inkscape:window-height="705" inkscape:window-maximized="1" inkscape:window-width="1366" inkscape:window-x="-8" inkscape:window-y="-8" inkscape:zoom="1" objecttolerance="10" pagecolor="#ffffff" showgrid="false">
	</sodipodi:namedview>
<g id="g1720" transform="matrix(4.0332338,0,0,4.0332338,-992.06258,-611.50277)">
	<path id="path158" inkscape:connector-curvature="0" d="M280.6,155.2v42.4c0,1-0.3,1.8-1,2.5c-0.7,0.7-1.5,1-2.5,1h-27.5
		c-1,0-1.8-0.3-2.5-1c-0.7-0.7-1-1.5-1-2.5v-42.4c0-1,0.3-1.8,1-2.5c0.7-0.7,1.5-1,2.5-1H277c1,0,1.8,0.3,2.5,1
		C280.3,153.4,280.6,154.2,280.6,155.2z M277,153.4h-27.5c-0.5,0-0.9,0.2-1.3,0.5c-0.3,0.3-0.5,0.8-0.5,1.3v42.4
		c0,0.5,0.2,0.9,0.5,1.3c0.3,0.3,0.8,0.5,1.3,0.5H277c0.5,0,0.9-0.2,1.3-0.5c0.3-0.3,0.5-0.8,0.5-1.3v-42.4c0-0.5-0.2-0.9-0.5-1.3
		C278,153.6,277.6,153.4,277,153.4z"/>
	<path id="path160" inkscape:connector-curvature="0" class="st1" d="M256.2,183.5c-0.7-0.7-1-1.4-1-2.3c0-0.9,0.3-1.6,1-2.3
		c0.7-0.7,1.4-1,2.3-1c0.9,0,1.6,0.3,2.3,1c0.7,0.7,1,1.4,1,2.3s-0.3,1.6-1,2.3c-0.7,0.7-1.4,1-2.3,1
		C257.6,184.5,256.9,184.1,256.2,183.5z M256.2,193c-0.7-0.7-1-1.4-1-2.3c0-0.9,0.3-1.6,1-2.3c0.7-0.7,1.4-1,2.3-1
		c0.9,0,1.6,0.3,2.3,1c0.7,0.7,1,1.4,1,2.3s-0.3,1.6-1,2.3c-0.7,0.7-1.4,1-2.3,1C257.6,194,256.9,193.7,256.2,193z M256.2,181.8
		c0.4-0.1,0.7-0.3,0.8-0.6c0-0.2,0-0.5,0.1-0.7c0.1-0.2,0.2-0.4,0.2-0.7l-0.4-0.5h-0.5c-0.4,0.5-0.7,1.1-0.7,1.8v0.2L256.2,181.8z
		 M256.2,191.3c0.4-0.1,0.7-0.3,0.8-0.6c0-0.2,0-0.5,0.1-0.7c0.1-0.2,0.2-0.4,0.2-0.7L257,189h-0.5c-0.4,0.5-0.7,1.1-0.7,1.8v0.2
		L256.2,191.3z M258.1,182.6c-0.3-0.1-0.6-0.3-0.8-0.6l-0.4-0.2l-0.5,0.2l-0.2,0.5c0.5,0.7,1.1,1.1,1.7,1.3l0.5-0.3v-0.6
		L258.1,182.6z M258.1,192.2c-0.3-0.1-0.6-0.3-0.8-0.6l-0.4-0.2l-0.5,0.2l-0.2,0.5c0.5,0.7,1.1,1.1,1.7,1.3l0.5-0.3v-0.6
		L258.1,192.2z M259,179.8l0.4-0.1l0.4-0.5l-0.2-0.5c-0.3-0.2-0.7-0.2-1.1-0.2c-0.4,0-0.8,0.1-1.1,0.2l-0.2,0.5l0.4,0.5l0.4,0.1
		c0.1,0,0.2-0.1,0.5-0.1S258.9,179.7,259,179.8z M259,189.3l0.4-0.1l0.4-0.5l-0.2-0.5c-0.3-0.2-0.7-0.2-1.1-0.2
		c-0.4,0-0.8,0.1-1.1,0.2l-0.2,0.5l0.4,0.5l0.4,0.1c0.1,0,0.2-0.1,0.5-0.1S258.9,189.3,259,189.3z M257.9,180.6
		c-0.2,0.2-0.3,0.4-0.3,0.6c0,0.2,0.1,0.4,0.3,0.6c0.2,0.2,0.4,0.3,0.6,0.3s0.4-0.1,0.6-0.3c0.2-0.2,0.3-0.4,0.3-0.6
		s-0.1-0.4-0.3-0.6c-0.2-0.2-0.4-0.3-0.6-0.3S258.1,180.4,257.9,180.6z M257.9,190.1c-0.2,0.2-0.3,0.4-0.3,0.6s0.1,0.4,0.3,0.6
		c0.2,0.2,0.4,0.3,0.6,0.3s0.4-0.1,0.6-0.3c0.2-0.2,0.3-0.4,0.3-0.6s-0.1-0.4-0.3-0.6c-0.2-0.2-0.4-0.3-0.6-0.3
		S258.1,189.9,257.9,190.1z M258.5,181.5c-0.2,0-0.3-0.1-0.3-0.3c0-0.2,0.1-0.3,0.3-0.3c0.2,0,0.3,0.1,0.3,0.3
		C258.8,181.4,258.7,181.5,258.5,181.5z M258.5,191c-0.2,0-0.3-0.1-0.3-0.3c0-0.2,0.1-0.3,0.3-0.3c0.2,0,0.3,0.1,0.3,0.3
		C258.8,190.9,258.7,191,258.5,191z M260.1,181.8c-0.5,0.2-1,0.6-1.5,1.1v0.6l0.5,0.3c0.7-0.2,1.3-0.6,1.7-1.3l-0.2-0.5L260.1,181.8
		z M260.1,191.4c-0.5,0.2-1,0.6-1.5,1.1v0.6l0.5,0.3c0.7-0.2,1.3-0.6,1.7-1.3l-0.2-0.5L260.1,191.4z M259.7,179.9
		c0,0.2,0.1,0.5,0.2,0.7c0.1,0.2,0.1,0.4,0.1,0.7l0.2,0.4l0.5,0.2l0.4-0.4v-0.2c0-0.7-0.2-1.3-0.7-1.8H260L259.7,179.9z
		 M259.7,189.4c0,0.2,0.1,0.5,0.2,0.7c0.1,0.2,0.1,0.4,0.1,0.7l0.2,0.4l0.5,0.2l0.4-0.4v-0.2c0-0.7-0.2-1.3-0.7-1.8H260L259.7,189.4
		z M265.8,183.5c-0.7-0.7-1-1.4-1-2.3c0-0.9,0.3-1.6,1-2.3c0.7-0.7,1.4-1,2.3-1c0.9,0,1.6,0.3,2.3,1c0.7,0.7,1,1.4,1,2.3
		s-0.3,1.6-1,2.3c-0.7,0.7-1.4,1-2.3,1C267.2,184.5,266.4,184.1,265.8,183.5z M265.8,193c-0.7-0.7-1-1.4-1-2.3c0-0.9,0.3-1.6,1-2.3
		c0.7-0.7,1.4-1,2.3-1c0.9,0,1.6,0.3,2.3,1c0.7,0.7,1,1.4,1,2.3s-0.3,1.6-1,2.3c-0.7,0.7-1.4,1-2.3,1
		C267.2,194,266.4,193.7,265.8,193z M265.8,181.8c0.4-0.1,0.7-0.3,0.8-0.6c0-0.2,0-0.5,0.1-0.7c0.1-0.2,0.2-0.4,0.2-0.7l-0.4-0.5
		H266c-0.4,0.5-0.7,1.1-0.7,1.8v0.2L265.8,181.8z M265.8,191.3c0.4-0.1,0.7-0.3,0.8-0.6c0-0.2,0-0.5,0.1-0.7
		c0.1-0.2,0.2-0.4,0.2-0.7l-0.4-0.5H266c-0.4,0.5-0.7,1.1-0.7,1.8v0.2L265.8,191.3z M267.7,182.6c-0.3-0.1-0.6-0.3-0.8-0.6l-0.4-0.2
		l-0.5,0.2l-0.2,0.5c0.5,0.7,1.1,1.1,1.7,1.3l0.5-0.3v-0.6L267.7,182.6z M267.7,192.2c-0.3-0.1-0.6-0.3-0.8-0.6l-0.4-0.2l-0.5,0.2
		l-0.2,0.5c0.5,0.7,1.1,1.1,1.7,1.3l0.5-0.3v-0.6L267.7,192.2z M268.6,179.8l0.4-0.1l0.4-0.5l-0.2-0.5c-0.3-0.2-0.7-0.2-1.1-0.2
		c-0.4,0-0.8,0.1-1.1,0.2l-0.2,0.5l0.4,0.5l0.4,0.1c0.1,0,0.2-0.1,0.5-0.1C268.3,179.7,268.5,179.7,268.6,179.8L268.6,179.8z
		 M268.6,189.3l0.4-0.1l0.4-0.5l-0.2-0.5c-0.3-0.2-0.7-0.2-1.1-0.2c-0.4,0-0.8,0.1-1.1,0.2l-0.2,0.5l0.4,0.5l0.4,0.1
		c0.1,0,0.2-0.1,0.5-0.1C268.3,189.3,268.5,189.3,268.6,189.3L268.6,189.3z M267.5,180.6c-0.2,0.2-0.3,0.4-0.3,0.6
		c0,0.2,0.1,0.4,0.3,0.6c0.2,0.2,0.4,0.3,0.6,0.3s0.4-0.1,0.6-0.3c0.2-0.2,0.3-0.4,0.3-0.6s-0.1-0.4-0.3-0.6
		c-0.2-0.2-0.4-0.3-0.6-0.3S267.6,180.4,267.5,180.6z M267.5,190.1c-0.2,0.2-0.3,0.4-0.3,0.6s0.1,0.4,0.3,0.6
		c0.2,0.2,0.4,0.3,0.6,0.3s0.4-0.1,0.6-0.3c0.2-0.2,0.3-0.4,0.3-0.6s-0.1-0.4-0.3-0.6c-0.2-0.2-0.4-0.3-0.6-0.3
		S267.6,189.9,267.5,190.1z M268.1,181.5c-0.2,0-0.3-0.1-0.3-0.3c0-0.2,0.1-0.3,0.3-0.3s0.3,0.1,0.3,0.3
		C268.4,181.4,268.3,181.5,268.1,181.5z M268.1,191c-0.2,0-0.3-0.1-0.3-0.3c0-0.2,0.1-0.3,0.3-0.3s0.3,0.1,0.3,0.3
		C268.4,190.9,268.3,191,268.1,191z M269.7,181.8c-0.5,0.2-1,0.6-1.5,1.1v0.6l0.5,0.3c0.7-0.2,1.3-0.6,1.7-1.3l-0.2-0.5L269.7,181.8
		z M269.7,191.4c-0.5,0.2-1,0.6-1.5,1.1v0.6l0.5,0.3c0.7-0.2,1.3-0.6,1.7-1.3l-0.2-0.5L269.7,191.4z M269.2,179.9
		c0,0.2,0.1,0.5,0.2,0.7c0.1,0.2,0.1,0.4,0.1,0.7l0.2,0.4l0.5,0.2l0.4-0.4v-0.2c0-0.7-0.2-1.3-0.7-1.8h-0.5L269.2,179.9z
		 M269.2,189.4c0,0.2,0.1,0.5,0.2,0.7c0.1,0.2,0.1,0.4,0.1,0.7l0.2,0.4l0.5,0.2l0.4-0.4v-0.2c0-0.7-0.2-1.3-0.7-1.8h-0.5
		L269.2,189.4z"/>
	<path id="path162" inkscape:connector-curvature="0" class="st2" d="M253.4,181.2c0-1.4,0.5-2.6,1.5-3.6c1-1,2.2-1.5,3.6-1.5
		c1.1,0,2.1,0.3,2.9,0.9c0.9,0.6,1.5,1.4,1.9,2.4c0.4-1,1-1.8,1.9-2.4c0.9-0.6,1.9-0.9,2.9-0.9c-1.2-1.1-1.8-2.4-1.8-3.9
		c0-0.5,0.1-1,0.2-1.4c-0.9,0.8-1.9,1.1-3.2,1.1c-1.4,0-2.6-0.5-3.6-1.5c-1-1-1.5-2.2-1.5-3.6c0-0.5,0.1-1,0.2-1.4
		c-0.9,0.8-1.9,1.1-3.2,1.1c-1.4,0-2.6-0.5-3.6-1.5s-1.5-2.2-1.5-3.6c0-1.4,0.5-2.6,1.5-3.6c1-1,2.2-1.5,3.6-1.5
		c1.4,0,2.6,0.5,3.6,1.5c1,1,1.5,2.2,1.5,3.6c0,0.5-0.1,1-0.2,1.4c0.9-0.8,1.9-1.1,3.2-1.1c1.4,0,2.6,0.5,3.6,1.5
		c1,1,1.5,2.2,1.5,3.6c0,0.5-0.1,1-0.2,1.4c0.9-0.8,1.9-1.1,3.2-1.1c1.4,0,2.6,0.5,3.6,1.5c1,1,1.5,2.2,1.5,3.6
		c0,1.4-0.5,2.6-1.5,3.6c-1,1-2.2,1.5-3.6,1.5c1.2,1.1,1.8,2.4,1.8,3.9c0,1.1-0.3,2.1-0.9,2.9c-0.6,0.9-1.4,1.5-2.4,1.9
		c1,0.4,1.8,1,2.4,1.9c0.6,0.9,0.9,1.9,0.9,2.9c0,1.4-0.5,2.6-1.5,3.6c-1,1-2.2,1.5-3.6,1.5c-1.1,0-2.1-0.3-2.9-0.9
		c-0.9-0.6-1.5-1.4-1.9-2.4c-0.4,1-1,1.8-1.9,2.4c-0.9,0.6-1.9,0.9-2.9,0.9c-1.4,0-2.6-0.5-3.6-1.5c-1-1-1.5-2.2-1.5-3.6
		c0-1.1,0.3-2.1,0.9-2.9c0.6-0.9,1.4-1.5,2.4-1.9c-1-0.4-1.8-1-2.4-1.9C253.7,183.2,253.4,182.3,253.4,181.2L253.4,181.2z
		 M252.3,158.5c-0.8,0.8-1.2,1.8-1.2,3c0,1.2,0.4,2.1,1.2,3c0.8,0.8,1.8,1.2,3,1.2c1.2,0,2.1-0.4,3-1.2c0.8-0.8,1.2-1.8,1.2-3
		c0-1.2-0.4-2.1-1.2-3c-0.8-0.8-1.8-1.2-3-1.2C254.1,157.3,253.1,157.7,252.3,158.5z M252.9,163.8c-0.6-0.7-1-1.4-1-2.3
		s0.3-1.6,1-2.3c0.6-0.7,1.4-1,2.3-1c0.9,0,1.7,0.3,2.3,1c0.6,0.7,1,1.4,1,2.3s-0.3,1.6-1,2.3c-0.6,0.7-1.4,1-2.3,1
		C254.3,164.8,253.5,164.4,252.9,163.8L252.9,163.8z M253,162.1c0.4-0.1,0.7-0.3,0.8-0.6c0-0.2,0-0.5,0.1-0.7
		c0.1-0.2,0.2-0.4,0.2-0.7l-0.4-0.5h-0.5c-0.4,0.5-0.7,1.1-0.7,1.8v0.2L253,162.1z M254.8,162.9c-0.3-0.1-0.6-0.3-0.8-0.6l-0.4-0.2
		l-0.5,0.2l-0.2,0.5c0.5,0.7,1.1,1.1,1.7,1.3l0.5-0.3v-0.6L254.8,162.9z M255.7,160l0.4-0.1l0.4-0.5l-0.2-0.5
		c-0.3-0.2-0.7-0.2-1.1-0.2c-0.4,0-0.8,0.1-1.1,0.2l-0.2,0.5l0.4,0.5l0.4,0.1c0.1,0,0.2-0.1,0.5-0.1S255.6,160,255.7,160L255.7,160z
		 M254.6,160.8c-0.2,0.2-0.3,0.4-0.3,0.6s0.1,0.4,0.3,0.6c0.2,0.2,0.4,0.3,0.6,0.3s0.4-0.1,0.6-0.3c0.2-0.2,0.3-0.4,0.3-0.6
		s-0.1-0.4-0.3-0.6c-0.2-0.2-0.4-0.3-0.6-0.3S254.8,160.7,254.6,160.8z M255.6,178.2c-0.8,0.8-1.2,1.8-1.2,3c0,1.2,0.4,2.1,1.2,3
		c0.8,0.8,1.8,1.2,3,1.2c1.2,0,2.1-0.4,3-1.2s1.2-1.8,1.2-3c0-1.2-0.4-2.1-1.2-3s-1.8-1.2-3-1.2C257.4,177,256.4,177.4,255.6,178.2z
		 M255.6,187.8c-0.8,0.8-1.2,1.8-1.2,3s0.4,2.1,1.2,3c0.8,0.8,1.8,1.2,3,1.2c1.2,0,2.1-0.4,3-1.2c0.8-0.8,1.2-1.8,1.2-3
		c0-1.2-0.4-2.1-1.2-3c-0.8-0.8-1.8-1.2-3-1.2C257.4,186.6,256.4,187,255.6,187.8z M255.2,161.8c-0.2,0-0.3-0.1-0.3-0.3
		c0-0.2,0.1-0.3,0.3-0.3c0.2,0,0.3,0.1,0.3,0.3C255.5,161.7,255.4,161.8,255.2,161.8z M256.8,162.1c-0.5,0.2-1,0.6-1.5,1.1v0.6
		l0.5,0.3c0.7-0.2,1.3-0.6,1.7-1.3l-0.2-0.5L256.8,162.1z M256.4,160.2c0,0.2,0.1,0.5,0.2,0.7c0.1,0.2,0.1,0.4,0.1,0.7l0.2,0.4
		l0.5,0.2l0.4-0.4v-0.2c0-0.7-0.2-1.3-0.7-1.8h-0.5L256.4,160.2z M260.3,163.9c-0.8,0.8-1.2,1.8-1.2,3c0,1.2,0.4,2.1,1.2,3
		c0.8,0.8,1.8,1.2,3,1.2s2.1-0.4,3-1.2c0.8-0.8,1.2-1.8,1.2-3c0-1.2-0.4-2.1-1.2-3c-0.8-0.8-1.8-1.2-3-1.2S261.2,163.1,260.3,163.9z
		 M261,169.2c-0.7-0.7-1-1.4-1-2.3c0-0.9,0.3-1.6,1-2.3c0.7-0.7,1.4-1,2.3-1c0.9,0,1.6,0.3,2.3,1c0.7,0.7,1,1.4,1,2.3
		c0,0.9-0.3,1.6-1,2.3c-0.7,0.7-1.4,1-2.3,1C262.4,170.1,261.7,169.8,261,169.2z M260.3,186c1.5,0.6,2.5,1.6,3,3
		c0.6-1.5,1.6-2.5,3-3c-1.5-0.6-2.5-1.6-3-3C262.7,184.4,261.7,185.4,260.3,186z M261,167.4c0.4-0.1,0.7-0.3,0.8-0.6
		c0-0.2,0-0.5,0.1-0.7c0.1-0.2,0.2-0.4,0.2-0.7l-0.4-0.5h-0.5c-0.4,0.5-0.7,1.1-0.7,1.8v0.2L261,167.4z M262.9,168.3
		c-0.3-0.1-0.6-0.3-0.8-0.6l-0.4-0.2l-0.5,0.2l-0.2,0.5c0.5,0.7,1.1,1.1,1.7,1.3l0.5-0.3v-0.6L262.9,168.3z M263.8,165.4l0.4-0.1
		l0.4-0.5l-0.2-0.5c-0.3-0.2-0.7-0.2-1.1-0.2c-0.4,0-0.8,0.1-1.1,0.2l-0.2,0.5l0.4,0.5l0.4,0.1c0.1,0,0.2-0.1,0.5-0.1
		C263.5,165.4,263.7,165.4,263.8,165.4L263.8,165.4z M262.7,166.2c-0.2,0.2-0.3,0.4-0.3,0.6s0.1,0.4,0.3,0.6
		c0.2,0.2,0.4,0.3,0.6,0.3c0.2,0,0.4-0.1,0.6-0.3c0.2-0.2,0.3-0.4,0.3-0.6s-0.1-0.4-0.3-0.6c-0.2-0.2-0.4-0.3-0.6-0.3
		C263.1,166,262.9,166,262.7,166.2z M263.3,167.1c-0.2,0-0.3-0.1-0.3-0.3c0-0.2,0.1-0.3,0.3-0.3s0.3,0.1,0.3,0.3
		C263.6,167,263.5,167.1,263.3,167.1z M264.9,167.5c-0.5,0.2-1,0.6-1.5,1.1v0.6l0.5,0.3c0.7-0.2,1.3-0.6,1.7-1.3l-0.2-0.5
		L264.9,167.5z M265.1,178.2c-0.8,0.8-1.2,1.8-1.2,3c0,1.2,0.4,2.1,1.2,3c0.8,0.8,1.8,1.2,3,1.2c1.2,0,2.1-0.4,3-1.2
		c0.8-0.8,1.2-1.8,1.2-3c0-1.2-0.4-2.1-1.2-3c-0.8-0.8-1.8-1.2-3-1.2C266.9,177,265.9,177.4,265.1,178.2z M265.1,187.8
		c-0.8,0.8-1.2,1.8-1.2,3s0.4,2.1,1.2,3c0.8,0.8,1.8,1.2,3,1.2c1.2,0,2.1-0.4,3-1.2c0.8-0.8,1.2-1.8,1.2-3c0-1.2-0.4-2.1-1.2-3
		c-0.8-0.8-1.8-1.2-3-1.2C266.9,186.6,265.9,187,265.1,187.8z M264.4,165.5c0,0.2,0.1,0.5,0.2,0.7c0.1,0.2,0.1,0.4,0.1,0.7l0.2,0.4
		l0.5,0.2l0.4-0.4v-0.2c0-0.7-0.2-1.3-0.7-1.8h-0.5L264.4,165.5z M268.4,169.3c-0.8,0.8-1.2,1.8-1.2,3s0.4,2.1,1.2,3
		c0.8,0.8,1.8,1.2,3,1.2c1.2,0,2.1-0.4,3-1.2c0.8-0.8,1.2-1.8,1.2-3s-0.4-2.1-1.2-3c-0.8-0.8-1.8-1.2-3-1.2
		C270.2,168,269.2,168.5,268.4,169.3z M269,174.5c-0.6-0.7-1-1.4-1-2.3c0-0.9,0.3-1.6,1-2.3c0.6-0.7,1.4-1,2.3-1s1.7,0.3,2.3,1
		c0.6,0.7,1,1.4,1,2.3s-0.3,1.6-1,2.3c-0.6,0.7-1.4,1-2.3,1C270.4,175.5,269.7,175.2,269,174.5z M269.1,172.8
		c0.4-0.1,0.7-0.3,0.8-0.6c0-0.2,0-0.5,0.1-0.7c0.1-0.2,0.2-0.4,0.2-0.7l-0.4-0.5h-0.5c-0.4,0.5-0.7,1.1-0.7,1.8v0.2L269.1,172.8z
		 M270.9,173.7c-0.3-0.1-0.6-0.3-0.8-0.6l-0.4-0.2l-0.5,0.2l-0.2,0.5c0.5,0.7,1.1,1.1,1.7,1.3l0.5-0.3V174L270.9,173.7z
		 M271.8,170.8l0.4-0.1l0.4-0.5l-0.2-0.5c-0.3-0.2-0.7-0.2-1.1-0.2s-0.8,0.1-1.1,0.2l-0.2,0.5l0.4,0.5l0.4,0.1
		c0.1,0,0.2-0.1,0.5-0.1C271.6,170.7,271.8,170.8,271.8,170.8L271.8,170.8z M270.7,171.6c-0.2,0.2-0.3,0.4-0.3,0.6s0.1,0.4,0.3,0.6
		c0.2,0.2,0.4,0.3,0.6,0.3s0.4-0.1,0.6-0.3c0.2-0.2,0.3-0.4,0.3-0.6c0-0.2-0.1-0.4-0.3-0.6c-0.2-0.2-0.4-0.3-0.6-0.3
		S270.9,171.4,270.7,171.6z M271.4,172.5c-0.2,0-0.3-0.1-0.3-0.3s0.1-0.3,0.3-0.3c0.2,0,0.3,0.1,0.3,0.3
		C271.7,172.4,271.6,172.5,271.4,172.5z M273,172.9c-0.5,0.2-1,0.6-1.5,1.1v0.6l0.5,0.3c0.7-0.2,1.3-0.6,1.7-1.3l-0.2-0.5L273,172.9
		z M272.5,170.9c0,0.2,0.1,0.5,0.2,0.7c0.1,0.2,0.1,0.4,0.1,0.7l0.2,0.4l0.5,0.2l0.4-0.4v-0.2c0-0.7-0.2-1.3-0.7-1.8h-0.5
		L272.5,170.9z"/>
</g>
</svg>
