<?xml version="1.0" encoding="utf-8"?>
<!-- Generator: Adobe Illustrator 25.0.1, SVG Export Plug-In . SVG Version: 6.00 Build 0)  -->
<svg version="1.1"
	 id="图层_1" inkscape:version="0.92.3 (2405546, 2018-03-11)" xmlns:cc="http://creativecommons.org/ns#" xmlns:dc="http://purl.org/dc/elements/1.1/" xmlns:inkscape="http://www.inkscape.org/namespaces/inkscape" xmlns:rdf="http://www.w3.org/1999/02/22-rdf-syntax-ns#" xmlns:sodipodi="http://sodipodi.sourceforge.net/DTD/sodipodi-0.dtd" xmlns:svg="http://www.w3.org/2000/svg"
	 xmlns="http://www.w3.org/2000/svg" xmlns:xlink="http://www.w3.org/1999/xlink" x="0px" y="0px" viewBox="0 0 139.8 200"
	 style="enable-background:new 0 0 139.8 200;" xml:space="preserve">
<style type="text/css">
	.st0{fill:#FFFFFF;}
	.st1{fill:#00082D;}
</style>
<path class="st0" d="M112,200.5H28c-15.4,0-27.9-12.5-27.9-27.9V28.4C0.1,13,12.6,0.5,28,0.5h84c15.4,0,27.9,12.5,27.9,27.9v144.2
	C139.9,188,127.4,200.5,112,200.5z"/>
<sodipodi:namedview  bordercolor="#666666" borderopacity="1" gridtolerance="10" guidetolerance="10" id="namedview617" inkscape:current-layer="图层_1" inkscape:cx="32.33986" inkscape:cy="152.60966" inkscape:pageopacity="0" inkscape:pageshadow="2" inkscape:window-height="705" inkscape:window-maximized="1" inkscape:window-width="1366" inkscape:window-x="-8" inkscape:window-y="-8" inkscape:zoom="1" objecttolerance="10" pagecolor="#ffffff" showgrid="false">
	</sodipodi:namedview>
<g id="g1736" transform="matrix(4.0332338,0,0,4.0332338,-1146.2813,-611.50277)">
	<path id="path164" inkscape:connector-curvature="0" d="M318.9,155.2v42.4c0,1-0.3,1.8-1,2.5c-0.7,0.7-1.5,1-2.5,1h-27.5
		c-1,0-1.8-0.3-2.5-1c-0.7-0.7-1-1.5-1-2.5v-42.4c0-1,0.3-1.8,1-2.5c0.7-0.7,1.5-1,2.5-1h27.5c1,0,1.8,0.3,2.5,1
		C318.5,153.4,318.9,154.2,318.9,155.2z M315.3,153.4h-27.5c-0.5,0-0.9,0.2-1.3,0.5c-0.3,0.3-0.5,0.8-0.5,1.3v42.4
		c0,0.5,0.2,0.9,0.5,1.3c0.3,0.3,0.8,0.5,1.3,0.5h27.5c0.5,0,0.9-0.2,1.3-0.5c0.3-0.3,0.5-0.8,0.5-1.3v-42.4c0-0.5-0.2-0.9-0.5-1.3
		C316.2,153.6,315.8,153.4,315.3,153.4z"/>
	<path id="path166" inkscape:connector-curvature="0" class="st1" d="M291.7,162.1c0-1.4,0.5-2.6,1.5-3.6c1-1,2.2-1.5,3.6-1.5
		c1.1,0,2.1,0.3,2.9,0.9c0.9,0.6,1.5,1.4,1.9,2.4c0.4-1,1-1.8,1.9-2.4c0.9-0.6,1.9-0.9,2.9-0.9c1.4,0,2.6,0.5,3.6,1.5
		c1,1,1.5,2.2,1.5,3.6c0,1.1-0.3,2.1-0.9,2.9c-0.6,0.9-1.4,1.5-2.4,1.9c1,0.4,1.8,1,2.4,1.9c0.6,0.9,0.9,1.9,0.9,2.9
		c0,1.1-0.3,2.1-0.9,2.9c-0.6,0.9-1.4,1.5-2.4,1.9c1,0.4,1.8,1,2.4,1.9c0.6,0.9,0.9,1.9,0.9,2.9c0,1.1-0.3,2.1-0.9,2.9
		c-0.6,0.9-1.4,1.5-2.4,1.9c1,0.4,1.8,1,2.4,1.9c0.6,0.9,0.9,1.9,0.9,2.9c0,1.4-0.5,2.6-1.5,3.6c-1,1-2.2,1.5-3.6,1.5
		c-1.1,0-2.1-0.3-2.9-0.9c-0.9-0.6-1.5-1.4-1.9-2.4c-0.4,1-1,1.8-1.9,2.4c-0.9,0.6-1.9,0.9-2.9,0.9c-1.4,0-2.6-0.5-3.6-1.5
		c-1-1-1.5-2.2-1.5-3.6c0-1.1,0.3-2.1,0.9-2.9c0.6-0.9,1.4-1.5,2.4-1.9c-1-0.4-1.8-1-2.4-1.9c-0.6-0.9-0.9-1.9-0.9-2.9
		c0-1.1,0.3-2.1,0.9-2.9c0.6-0.9,1.4-1.5,2.4-1.9c-1-0.4-1.8-1-2.4-1.9c-0.6-0.9-0.9-1.9-0.9-2.9c0-1.1,0.3-2.1,0.9-2.9
		c0.6-0.9,1.4-1.5,2.4-1.9c-1-0.4-1.8-1-2.4-1.9C292,164.1,291.7,163.1,291.7,162.1z M293.8,159.1c-0.8,0.8-1.2,1.8-1.2,3
		c0,1.2,0.4,2.1,1.2,3c0.8,0.8,1.8,1.2,3,1.2c1.2,0,2.1-0.4,3-1.2c0.8-0.8,1.2-1.8,1.2-3c0-1.2-0.4-2.1-1.2-3
		c-0.8-0.8-1.8-1.2-3-1.2C295.6,157.9,294.6,158.3,293.8,159.1z M293.8,168.7c-0.8,0.8-1.2,1.8-1.2,3c0,1.2,0.4,2.1,1.2,3
		c0.8,0.8,1.8,1.2,3,1.2c1.2,0,2.1-0.4,3-1.2c0.8-0.8,1.2-1.8,1.2-3c0-1.2-0.4-2.1-1.2-3c-0.8-0.8-1.8-1.2-3-1.2
		C295.6,167.4,294.6,167.9,293.8,168.7z M293.8,178.2c-0.8,0.8-1.2,1.8-1.2,3c0,1.2,0.4,2.1,1.2,3s1.8,1.2,3,1.2
		c1.2,0,2.1-0.4,3-1.2s1.2-1.8,1.2-3c0-1.2-0.4-2.1-1.2-3s-1.8-1.2-3-1.2C295.6,177,294.6,177.4,293.8,178.2z M293.8,187.8
		c-0.8,0.8-1.2,1.8-1.2,3s0.4,2.1,1.2,3s1.8,1.2,3,1.2c1.2,0,2.1-0.4,3-1.2c0.8-0.8,1.2-1.8,1.2-3c0-1.2-0.4-2.1-1.2-3
		c-0.8-0.8-1.8-1.2-3-1.2C295.6,186.6,294.6,187,293.8,187.8z M294.5,164.4c-0.7-0.7-1-1.4-1-2.3s0.3-1.6,1-2.3c0.7-0.7,1.4-1,2.3-1
		c0.9,0,1.6,0.3,2.3,1c0.7,0.7,1,1.4,1,2.3c0,0.9-0.3,1.6-1,2.3c-0.7,0.7-1.4,1-2.3,1C295.9,165.4,295.1,165,294.5,164.4z
		 M294.5,173.9c-0.7-0.7-1-1.4-1-2.3c0-0.9,0.3-1.6,1-2.3c0.7-0.7,1.4-1,2.3-1c0.9,0,1.6,0.3,2.3,1c0.7,0.7,1,1.4,1,2.3
		c0,0.9-0.3,1.6-1,2.3c-0.7,0.7-1.4,1-2.3,1C295.9,174.9,295.1,174.6,294.5,173.9z M294.5,183.5c-0.7-0.7-1-1.4-1-2.3
		c0-0.9,0.3-1.6,1-2.3c0.7-0.7,1.4-1,2.3-1c0.9,0,1.6,0.3,2.3,1c0.7,0.7,1,1.4,1,2.3s-0.3,1.6-1,2.3c-0.7,0.7-1.4,1-2.3,1
		C295.9,184.5,295.1,184.1,294.5,183.5z M294.5,193c-0.7-0.7-1-1.4-1-2.3c0-0.9,0.3-1.6,1-2.3c0.7-0.7,1.4-1,2.3-1
		c0.9,0,1.6,0.3,2.3,1c0.7,0.7,1,1.4,1,2.3s-0.3,1.6-1,2.3c-0.7,0.7-1.4,1-2.3,1C295.9,194,295.1,193.7,294.5,193z M294.5,162.7
		c0.4-0.1,0.7-0.3,0.8-0.6c0-0.2,0-0.5,0.1-0.7c0.1-0.2,0.2-0.4,0.2-0.7l-0.4-0.5h-0.5c-0.4,0.5-0.7,1.1-0.7,1.8v0.2L294.5,162.7z
		 M294.5,172.2c0.4-0.1,0.7-0.3,0.8-0.6c0-0.2,0-0.5,0.1-0.7c0.1-0.2,0.2-0.4,0.2-0.7l-0.4-0.5h-0.5c-0.4,0.5-0.7,1.1-0.7,1.8v0.2
		L294.5,172.2z M294.5,181.8c0.4-0.1,0.7-0.3,0.8-0.6c0-0.2,0-0.5,0.1-0.7c0.1-0.2,0.2-0.4,0.2-0.7l-0.4-0.5h-0.5
		c-0.4,0.5-0.7,1.1-0.7,1.8v0.2L294.5,181.8z M294.5,191.3c0.4-0.1,0.7-0.3,0.8-0.6c0-0.2,0-0.5,0.1-0.7c0.1-0.2,0.2-0.4,0.2-0.7
		l-0.4-0.5h-0.5c-0.4,0.5-0.7,1.1-0.7,1.8v0.2L294.5,191.3z M296.3,163.5c-0.3-0.1-0.6-0.3-0.8-0.6l-0.4-0.2l-0.5,0.2l-0.2,0.5
		c0.5,0.7,1.1,1.1,1.7,1.3l0.5-0.3v-0.6L296.3,163.5z M296.3,173.1c-0.3-0.1-0.6-0.3-0.8-0.6l-0.4-0.2l-0.5,0.2l-0.2,0.5
		c0.5,0.7,1.1,1.1,1.7,1.3l0.5-0.3v-0.6L296.3,173.1z M296.3,182.6c-0.3-0.1-0.6-0.3-0.8-0.6l-0.4-0.2l-0.5,0.2l-0.2,0.5
		c0.5,0.7,1.1,1.1,1.7,1.3l0.5-0.3v-0.6L296.3,182.6z M296.3,192.2c-0.3-0.1-0.6-0.3-0.8-0.6l-0.4-0.2l-0.5,0.2l-0.2,0.5
		c0.5,0.7,1.1,1.1,1.7,1.3l0.5-0.3v-0.6L296.3,192.2z M297.2,160.6l0.4-0.1l0.4-0.5l-0.2-0.5c-0.3-0.2-0.7-0.2-1.1-0.2
		c-0.4,0-0.8,0.1-1.1,0.2l-0.2,0.5l0.4,0.5l0.4,0.1c0.1,0,0.2-0.1,0.5-0.1C297,160.6,297.2,160.6,297.2,160.6z M297.2,170.2l0.4-0.1
		l0.4-0.5l-0.2-0.5c-0.3-0.2-0.7-0.2-1.1-0.2c-0.4,0-0.8,0.1-1.1,0.2l-0.2,0.5l0.4,0.5l0.4,0.1c0.1,0,0.2-0.1,0.5-0.1
		C297,170.1,297.2,170.2,297.2,170.2z M297.2,179.8l0.4-0.1l0.4-0.5l-0.2-0.5c-0.3-0.2-0.7-0.2-1.1-0.2c-0.4,0-0.8,0.1-1.1,0.2
		l-0.2,0.5l0.4,0.5l0.4,0.1c0.1,0,0.2-0.1,0.5-0.1C297,179.7,297.2,179.7,297.2,179.8z M297.2,189.3l0.4-0.1l0.4-0.5l-0.2-0.5
		c-0.3-0.2-0.7-0.2-1.1-0.2c-0.4,0-0.8,0.1-1.1,0.2l-0.2,0.5l0.4,0.5l0.4,0.1c0.1,0,0.2-0.1,0.5-0.1
		C297,189.3,297.2,189.3,297.2,189.3z M296.1,161.4c-0.2,0.2-0.3,0.4-0.3,0.6s0.1,0.4,0.3,0.6c0.2,0.2,0.4,0.3,0.6,0.3
		s0.4-0.1,0.6-0.3c0.2-0.2,0.3-0.4,0.3-0.6s-0.1-0.4-0.3-0.6c-0.2-0.2-0.4-0.3-0.6-0.3S296.3,161.3,296.1,161.4z M296.1,171
		c-0.2,0.2-0.3,0.4-0.3,0.6c0,0.2,0.1,0.4,0.3,0.6c0.2,0.2,0.4,0.3,0.6,0.3s0.4-0.1,0.6-0.3c0.2-0.2,0.3-0.4,0.3-0.6
		c0-0.2-0.1-0.4-0.3-0.6c-0.2-0.2-0.4-0.3-0.6-0.3S296.3,170.8,296.1,171z M296.1,180.6c-0.2,0.2-0.3,0.4-0.3,0.6
		c0,0.2,0.1,0.4,0.3,0.6c0.2,0.2,0.4,0.3,0.6,0.3s0.4-0.1,0.6-0.3c0.2-0.2,0.3-0.4,0.3-0.6s-0.1-0.4-0.3-0.6
		c-0.2-0.2-0.4-0.3-0.6-0.3S296.3,180.4,296.1,180.6z M296.1,190.1c-0.2,0.2-0.3,0.4-0.3,0.6s0.1,0.4,0.3,0.6
		c0.2,0.2,0.4,0.3,0.6,0.3s0.4-0.1,0.6-0.3c0.2-0.2,0.3-0.4,0.3-0.6s-0.1-0.4-0.3-0.6c-0.2-0.2-0.4-0.3-0.6-0.3
		S296.3,189.9,296.1,190.1z M296.8,162.4c-0.2,0-0.3-0.1-0.3-0.3s0.1-0.3,0.3-0.3c0.2,0,0.3,0.1,0.3,0.3
		C297.1,162.3,297,162.4,296.8,162.4z M296.8,171.9c-0.2,0-0.3-0.1-0.3-0.3s0.1-0.3,0.3-0.3c0.2,0,0.3,0.1,0.3,0.3
		C297.1,171.8,297,171.9,296.8,171.9z M296.8,181.5c-0.2,0-0.3-0.1-0.3-0.3c0-0.2,0.1-0.3,0.3-0.3c0.2,0,0.3,0.1,0.3,0.3
		C297.1,181.4,297,181.5,296.8,181.5z M296.8,191c-0.2,0-0.3-0.1-0.3-0.3c0-0.2,0.1-0.3,0.3-0.3c0.2,0,0.3,0.1,0.3,0.3
		C297.1,190.9,297,191,296.8,191z M298.4,162.7c-0.5,0.2-1,0.6-1.5,1.1v0.6l0.5,0.3c0.7-0.2,1.3-0.6,1.7-1.3l-0.2-0.5L298.4,162.7z
		 M298.4,172.3c-0.5,0.2-1,0.6-1.5,1.1v0.6l0.5,0.3c0.7-0.2,1.3-0.6,1.7-1.3l-0.2-0.5L298.4,172.3z M298.4,181.8
		c-0.5,0.2-1,0.6-1.5,1.1v0.6l0.5,0.3c0.7-0.2,1.3-0.6,1.7-1.3l-0.2-0.5L298.4,181.8z M298.4,191.4c-0.5,0.2-1,0.6-1.5,1.1v0.6
		l0.5,0.3c0.7-0.2,1.3-0.6,1.7-1.3l-0.2-0.5L298.4,191.4z M297.9,160.8c0,0.2,0.1,0.5,0.2,0.7c0.1,0.2,0.1,0.4,0.1,0.7l0.2,0.4
		l0.5,0.2l0.4-0.4v-0.2c0-0.7-0.2-1.3-0.7-1.8h-0.5L297.9,160.8z M297.9,170.3c0,0.2,0.1,0.5,0.2,0.7c0.1,0.2,0.1,0.4,0.1,0.7
		l0.2,0.4l0.5,0.2l0.4-0.4v-0.2c0-0.7-0.2-1.3-0.7-1.8h-0.5L297.9,170.3z M297.9,179.9c0,0.2,0.1,0.5,0.2,0.7
		c0.1,0.2,0.1,0.4,0.1,0.7l0.2,0.4l0.5,0.2l0.4-0.4v-0.2c0-0.7-0.2-1.3-0.7-1.8h-0.5L297.9,179.9z M297.9,189.4
		c0,0.2,0.1,0.5,0.2,0.7c0.1,0.2,0.1,0.4,0.1,0.7l0.2,0.4l0.5,0.2l0.4-0.4v-0.2c0-0.7-0.2-1.3-0.7-1.8h-0.5L297.9,189.4z
		 M298.5,166.9c1.5,0.6,2.5,1.6,3,3c0.6-1.5,1.6-2.5,3-3c-1.5-0.6-2.5-1.6-3-3C301,165.3,300,166.3,298.5,166.9z M304.6,176.4
		c-1.5-0.6-2.5-1.6-3-3c-0.6,1.5-1.6,2.5-3,3c1.5,0.6,2.5,1.6,3,3C302.1,178,303.1,177,304.6,176.4z M298.5,186c1.5,0.6,2.5,1.6,3,3
		c0.6-1.5,1.6-2.5,3-3c-1.5-0.6-2.5-1.6-3-3C301,184.4,300,185.4,298.5,186z M303.4,159.1c-0.8,0.8-1.2,1.8-1.2,3
		c0,1.2,0.4,2.1,1.2,3c0.8,0.8,1.8,1.2,3,1.2c1.2,0,2.1-0.4,3-1.2c0.8-0.8,1.2-1.8,1.2-3c0-1.2-0.4-2.1-1.2-3
		c-0.8-0.8-1.8-1.2-3-1.2C305.2,157.9,304.2,158.3,303.4,159.1z M303.4,168.7c-0.8,0.8-1.2,1.8-1.2,3c0,1.2,0.4,2.1,1.2,3
		c0.8,0.8,1.8,1.2,3,1.2c1.2,0,2.1-0.4,3-1.2c0.8-0.8,1.2-1.8,1.2-3c0-1.2-0.4-2.1-1.2-3c-0.8-0.8-1.8-1.2-3-1.2
		C305.2,167.4,304.2,167.9,303.4,168.7z M303.4,178.2c-0.8,0.8-1.2,1.8-1.2,3c0,1.2,0.4,2.1,1.2,3c0.8,0.8,1.8,1.2,3,1.2
		c1.2,0,2.1-0.4,3-1.2c0.8-0.8,1.2-1.8,1.2-3c0-1.2-0.4-2.1-1.2-3c-0.8-0.8-1.8-1.2-3-1.2C305.2,177,304.2,177.4,303.4,178.2z
		 M303.4,187.8c-0.8,0.8-1.2,1.8-1.2,3s0.4,2.1,1.2,3c0.8,0.8,1.8,1.2,3,1.2c1.2,0,2.1-0.4,3-1.2c0.8-0.8,1.2-1.8,1.2-3
		c0-1.2-0.4-2.1-1.2-3c-0.8-0.8-1.8-1.2-3-1.2C305.2,186.6,304.2,187,303.4,187.8z M304,164.4c-0.7-0.7-1-1.4-1-2.3s0.3-1.6,1-2.3
		c0.7-0.7,1.4-1,2.3-1c0.9,0,1.6,0.3,2.3,1c0.7,0.7,1,1.4,1,2.3c0,0.9-0.3,1.6-1,2.3c-0.7,0.7-1.4,1-2.3,1
		C305.4,165.4,304.7,165,304,164.4z M304,173.9c-0.7-0.7-1-1.4-1-2.3c0-0.9,0.3-1.6,1-2.3c0.7-0.7,1.4-1,2.3-1c0.9,0,1.6,0.3,2.3,1
		c0.7,0.7,1,1.4,1,2.3c0,0.9-0.3,1.6-1,2.3c-0.7,0.7-1.4,1-2.3,1C305.4,174.9,304.7,174.6,304,173.9z M304,183.5
		c-0.7-0.7-1-1.4-1-2.3c0-0.9,0.3-1.6,1-2.3c0.7-0.7,1.4-1,2.3-1c0.9,0,1.6,0.3,2.3,1c0.7,0.7,1,1.4,1,2.3s-0.3,1.6-1,2.3
		c-0.7,0.7-1.4,1-2.3,1C305.4,184.5,304.7,184.1,304,183.5z M304,193c-0.7-0.7-1-1.4-1-2.3c0-0.9,0.3-1.6,1-2.3c0.7-0.7,1.4-1,2.3-1
		c0.9,0,1.6,0.3,2.3,1c0.7,0.7,1,1.4,1,2.3s-0.3,1.6-1,2.3c-0.7,0.7-1.4,1-2.3,1C305.4,194,304.7,193.7,304,193z M304,162.7
		c0.4-0.1,0.7-0.3,0.8-0.6c0-0.2,0-0.5,0.1-0.7c0.1-0.2,0.2-0.4,0.2-0.7l-0.4-0.5h-0.5c-0.4,0.5-0.7,1.1-0.7,1.8v0.2L304,162.7z
		 M304,172.2c0.4-0.1,0.7-0.3,0.8-0.6c0-0.2,0-0.5,0.1-0.7c0.1-0.2,0.2-0.4,0.2-0.7l-0.4-0.5h-0.5c-0.4,0.5-0.7,1.1-0.7,1.8v0.2
		L304,172.2z M304,181.8c0.4-0.1,0.7-0.3,0.8-0.6c0-0.2,0-0.5,0.1-0.7c0.1-0.2,0.2-0.4,0.2-0.7l-0.4-0.5h-0.5
		c-0.4,0.5-0.7,1.1-0.7,1.8v0.2L304,181.8z M304,191.3c0.4-0.1,0.7-0.3,0.8-0.6c0-0.2,0-0.5,0.1-0.7c0.1-0.2,0.2-0.4,0.2-0.7
		l-0.4-0.5h-0.5c-0.4,0.5-0.7,1.1-0.7,1.8v0.2L304,191.3z M305.9,163.5c-0.3-0.1-0.6-0.3-0.8-0.6l-0.4-0.2l-0.5,0.2l-0.2,0.5
		c0.5,0.7,1.1,1.1,1.7,1.3l0.5-0.3v-0.6L305.9,163.5z M305.9,173.1c-0.3-0.1-0.6-0.3-0.8-0.6l-0.4-0.2l-0.5,0.2L304,173
		c0.5,0.7,1.1,1.1,1.7,1.3l0.5-0.3v-0.6L305.9,173.1z M305.9,182.6c-0.3-0.1-0.6-0.3-0.8-0.6l-0.4-0.2l-0.5,0.2l-0.2,0.5
		c0.5,0.7,1.1,1.1,1.7,1.3l0.5-0.3v-0.6L305.9,182.6z M305.9,192.2c-0.3-0.1-0.6-0.3-0.8-0.6l-0.4-0.2l-0.5,0.2l-0.2,0.5
		c0.5,0.7,1.1,1.1,1.7,1.3l0.5-0.3v-0.6L305.9,192.2z M306.8,160.6l0.4-0.1l0.4-0.5l-0.2-0.5c-0.3-0.2-0.7-0.2-1.1-0.2
		c-0.4,0-0.8,0.1-1.1,0.2l-0.2,0.5l0.4,0.5l0.4,0.1c0.1,0,0.2-0.1,0.5-0.1C306.6,160.6,306.7,160.6,306.8,160.6L306.8,160.6z
		 M306.8,170.2l0.4-0.1l0.4-0.5l-0.2-0.5c-0.3-0.2-0.7-0.2-1.1-0.2c-0.4,0-0.8,0.1-1.1,0.2l-0.2,0.5l0.4,0.5l0.4,0.1
		c0.1,0,0.2-0.1,0.5-0.1C306.6,170.1,306.7,170.2,306.8,170.2L306.8,170.2z M306.8,179.8l0.4-0.1l0.4-0.5l-0.2-0.5
		c-0.3-0.2-0.7-0.2-1.1-0.2c-0.4,0-0.8,0.1-1.1,0.2l-0.2,0.5l0.4,0.5l0.4,0.1c0.1,0,0.2-0.1,0.5-0.1
		C306.6,179.7,306.7,179.7,306.8,179.8L306.8,179.8z M306.8,189.3l0.4-0.1l0.4-0.5l-0.2-0.5c-0.3-0.2-0.7-0.2-1.1-0.2
		c-0.4,0-0.8,0.1-1.1,0.2l-0.2,0.5l0.4,0.5l0.4,0.1c0.1,0,0.2-0.1,0.5-0.1C306.6,189.3,306.7,189.3,306.8,189.3L306.8,189.3z
		 M305.7,161.4c-0.2,0.2-0.3,0.4-0.3,0.6s0.1,0.4,0.3,0.6c0.2,0.2,0.4,0.3,0.6,0.3s0.4-0.1,0.6-0.3c0.2-0.2,0.3-0.4,0.3-0.6
		s-0.1-0.4-0.3-0.6c-0.2-0.2-0.4-0.3-0.6-0.3S305.9,161.3,305.7,161.4z M305.7,171c-0.2,0.2-0.3,0.4-0.3,0.6c0,0.2,0.1,0.4,0.3,0.6
		c0.2,0.2,0.4,0.3,0.6,0.3s0.4-0.1,0.6-0.3c0.2-0.2,0.3-0.4,0.3-0.6c0-0.2-0.1-0.4-0.3-0.6c-0.2-0.2-0.4-0.3-0.6-0.3
		S305.9,170.8,305.7,171z M305.7,180.6c-0.2,0.2-0.3,0.4-0.3,0.6c0,0.2,0.1,0.4,0.3,0.6c0.2,0.2,0.4,0.3,0.6,0.3s0.4-0.1,0.6-0.3
		c0.2-0.2,0.3-0.4,0.3-0.6s-0.1-0.4-0.3-0.6c-0.2-0.2-0.4-0.3-0.6-0.3S305.9,180.4,305.7,180.6z M305.7,190.1
		c-0.2,0.2-0.3,0.4-0.3,0.6s0.1,0.4,0.3,0.6c0.2,0.2,0.4,0.3,0.6,0.3s0.4-0.1,0.6-0.3c0.2-0.2,0.3-0.4,0.3-0.6s-0.1-0.4-0.3-0.6
		c-0.2-0.2-0.4-0.3-0.6-0.3S305.9,189.9,305.7,190.1z M306.3,162.4c-0.2,0-0.3-0.1-0.3-0.3s0.1-0.3,0.3-0.3s0.3,0.1,0.3,0.3
		C306.6,162.3,306.5,162.4,306.3,162.4z M306.3,171.9c-0.2,0-0.3-0.1-0.3-0.3s0.1-0.3,0.3-0.3s0.3,0.1,0.3,0.3
		C306.6,171.8,306.5,171.9,306.3,171.9z M306.3,181.5c-0.2,0-0.3-0.1-0.3-0.3c0-0.2,0.1-0.3,0.3-0.3s0.3,0.1,0.3,0.3
		C306.6,181.4,306.5,181.5,306.3,181.5z M306.3,191c-0.2,0-0.3-0.1-0.3-0.3c0-0.2,0.1-0.3,0.3-0.3s0.3,0.1,0.3,0.3
		C306.6,190.9,306.5,191,306.3,191z M307.9,162.7c-0.5,0.2-1,0.6-1.5,1.1v0.6l0.5,0.3c0.7-0.2,1.3-0.6,1.7-1.3l-0.2-0.5L307.9,162.7
		z M307.9,172.3c-0.5,0.2-1,0.6-1.5,1.1v0.6l0.5,0.3c0.7-0.2,1.3-0.6,1.7-1.3l-0.2-0.5L307.9,172.3z M307.9,181.8
		c-0.5,0.2-1,0.6-1.5,1.1v0.6l0.5,0.3c0.7-0.2,1.3-0.6,1.7-1.3l-0.2-0.5L307.9,181.8z M307.9,191.4c-0.5,0.2-1,0.6-1.5,1.1v0.6
		l0.5,0.3c0.7-0.2,1.3-0.6,1.7-1.3l-0.2-0.5L307.9,191.4z M307.5,160.8c0,0.2,0.1,0.5,0.2,0.7c0.1,0.2,0.1,0.4,0.1,0.7l0.2,0.4
		l0.5,0.2l0.4-0.4v-0.2c0-0.7-0.2-1.3-0.7-1.8h-0.5L307.5,160.8z M307.5,170.3c0,0.2,0.1,0.5,0.2,0.7c0.1,0.2,0.1,0.4,0.1,0.7
		l0.2,0.4l0.5,0.2l0.4-0.4v-0.2c0-0.7-0.2-1.3-0.7-1.8h-0.5L307.5,170.3z M307.5,179.9c0,0.2,0.1,0.5,0.2,0.7
		c0.1,0.2,0.1,0.4,0.1,0.7l0.2,0.4l0.5,0.2l0.4-0.4v-0.2c0-0.7-0.2-1.3-0.7-1.8h-0.5L307.5,179.9z M307.5,189.4
		c0,0.2,0.1,0.5,0.2,0.7c0.1,0.2,0.1,0.4,0.1,0.7l0.2,0.4l0.5,0.2l0.4-0.4v-0.2c0-0.7-0.2-1.3-0.7-1.8h-0.5L307.5,189.4z"/>
</g>
</svg>
