<?xml version="1.0" encoding="utf-8"?>
<!-- Generator: Adobe Illustrator 25.0.1, SVG Export Plug-In . SVG Version: 6.00 Build 0)  -->
<svg version="1.1"
	 id="图层_1" inkscape:version="0.92.3 (2405546, 2018-03-11)" xmlns:cc="http://creativecommons.org/ns#" xmlns:dc="http://purl.org/dc/elements/1.1/" xmlns:inkscape="http://www.inkscape.org/namespaces/inkscape" xmlns:rdf="http://www.w3.org/1999/02/22-rdf-syntax-ns#" xmlns:sodipodi="http://sodipodi.sourceforge.net/DTD/sodipodi-0.dtd" xmlns:svg="http://www.w3.org/2000/svg"
	 xmlns="http://www.w3.org/2000/svg" xmlns:xlink="http://www.w3.org/1999/xlink" x="0px" y="0px" viewBox="0 0 139.8 200"
	 style="enable-background:new 0 0 139.8 200;" xml:space="preserve">
<style type="text/css">
	.st0{fill:#FFFFFF;}
	.st1{fill:#00082D;}
	.st2{fill:#870000;}
</style>
<path class="st0" d="M112,200.5H28c-15.4,0-27.9-12.5-27.9-27.9V28.4C0.1,13,12.6,0.5,28,0.5h84c15.4,0,27.9,12.5,27.9,27.9v144.2
	C139.9,188,127.4,200.5,112,200.5z"/>
<sodipodi:namedview  bordercolor="#666666" borderopacity="1" gridtolerance="10" guidetolerance="10" id="namedview617" inkscape:current-layer="图层_1" inkscape:cx="-139.16014" inkscape:cy="152.60966" inkscape:pageopacity="0" inkscape:pageshadow="2" inkscape:window-height="705" inkscape:window-maximized="1" inkscape:window-width="1366" inkscape:window-x="-8" inkscape:window-y="-8" inkscape:zoom="1" objecttolerance="10" pagecolor="#ffffff" showgrid="false">
	</sodipodi:namedview>
<g id="g1753" transform="matrix(4.0332338,0,0,4.0332338,-1300.5041,-611.50277)">
	<path id="path168" inkscape:connector-curvature="0" d="M357.1,155.2v42.4c0,1-0.3,1.8-1,2.5c-0.7,0.7-1.5,1-2.5,1H326
		c-1,0-1.8-0.3-2.5-1c-0.7-0.7-1-1.5-1-2.5v-42.4c0-1,0.3-1.8,1-2.5c0.7-0.7,1.5-1,2.5-1h27.5c1,0,1.8,0.3,2.5,1
		C356.8,153.4,357.1,154.2,357.1,155.2z M353.5,153.4H326c-0.5,0-0.9,0.2-1.3,0.5c-0.3,0.3-0.5,0.8-0.5,1.3v42.4
		c0,0.5,0.2,0.9,0.5,1.3c0.3,0.3,0.8,0.5,1.3,0.5h27.5c0.5,0,0.9-0.2,1.3-0.5c0.3-0.3,0.5-0.8,0.5-1.3v-42.4c0-0.5-0.2-0.9-0.5-1.3
		C354.5,153.6,354,153.4,353.5,153.4z"/>
	<path id="path170" inkscape:connector-curvature="0" class="st1" d="M327.2,179.9c-1-1-1.4-2.1-1.4-3.5s0.5-2.5,1.4-3.5
		c1-1,2.1-1.4,3.5-1.4c1,0,2,0.3,2.8,0.9c0.8,0.6,1.4,1.3,1.8,2.3c0.4-0.9,0.9-1.7,1.8-2.3c0.8-0.6,1.8-0.9,2.8-0.9
		c1,0,2,0.3,2.8,0.9c0.8,0.6,1.4,1.3,1.8,2.3c0.3-0.9,0.9-1.7,1.8-2.3c0.8-0.6,1.8-0.9,2.8-0.9c1.4,0,2.5,0.5,3.5,1.4
		c1,1,1.4,2.1,1.4,3.5s-0.5,2.5-1.4,3.5c-1,1-2.1,1.4-3.5,1.4c-1,0-2-0.3-2.8-0.9c-0.8-0.6-1.4-1.3-1.8-2.3
		c-0.4,0.9-0.9,1.7-1.8,2.3s-1.8,0.9-2.8,0.9c-1,0-2-0.3-2.8-0.9c-0.8-0.6-1.4-1.3-1.8-2.3c-0.4,0.9-0.9,1.7-1.8,2.3
		c-0.8,0.6-1.8,0.9-2.8,0.9C329.3,181.3,328.2,180.8,327.2,179.9z M327.9,173.6c-0.8,0.8-1.1,1.7-1.1,2.8c0,1.1,0.4,2,1.1,2.8
		c0.8,0.8,1.7,1.1,2.8,1.1c1.1,0,2-0.4,2.8-1.1c0.8-0.8,1.1-1.7,1.1-2.8c0-1.1-0.4-2-1.1-2.8c-0.8-0.8-1.7-1.1-2.8-1.1
		S328.7,172.9,327.9,173.6z M337.1,173.6c-0.8,0.8-1.1,1.7-1.1,2.8c0,1.1,0.4,2,1.1,2.8c0.8,0.8,1.7,1.1,2.8,1.1
		c1.1,0,2-0.4,2.8-1.1c0.8-0.8,1.1-1.7,1.1-2.8c0-1.1-0.4-2-1.1-2.8c-0.8-0.8-1.7-1.1-2.8-1.1C338.8,172.5,337.8,172.9,337.1,173.6z
		 M346.2,173.6c-0.8,0.8-1.1,1.7-1.1,2.8c0,1.1,0.4,2,1.1,2.8c0.8,0.8,1.7,1.1,2.8,1.1c1.1,0,2-0.4,2.8-1.1c0.8-0.8,1.1-1.7,1.1-2.8
		c0-1.1-0.4-2-1.1-2.8c-0.8-0.8-1.7-1.1-2.8-1.1C347.9,172.5,347,172.9,346.2,173.6z"/>
	<path id="path172" inkscape:connector-curvature="0" class="st2" d="M328.3,178.7c-0.6-0.6-1-1.4-1-2.3s0.3-1.7,1-2.3
		c0.6-0.6,1.4-0.9,2.3-0.9s1.7,0.3,2.3,0.9c0.6,0.6,1,1.4,1,2.3c0,0.9-0.3,1.7-1,2.3c-0.6,0.6-1.4,0.9-2.3,0.9
		C329.8,179.7,329,179.4,328.3,178.7z M329,176.3c0-0.4,0.1-0.7,0.4-1c0-0.3-0.1-0.7-0.4-0.9l-0.6,0.1c-0.5,0.6-0.7,1.2-0.7,1.9v0.2
		l0.5,0.5C328.5,177,328.8,176.8,329,176.3L329,176.3z M330.3,178c-0.4-0.1-0.8-0.3-1-0.7l-0.5-0.1l-0.5,0.2l-0.1,0.7
		c0.5,0.7,1.1,1.1,1.8,1.2l0.6-0.3v-0.5L330.3,178z M329.3,174.2c0.1,0.4,0.4,0.6,0.8,0.7c0.3-0.1,0.5-0.1,0.6-0.1
		c0.1,0,0.3,0,0.6,0.1c0.4,0,0.7-0.3,0.8-0.7l-0.3-0.6c-0.3-0.1-0.7-0.2-1.1-0.2c-0.4,0-0.8,0.1-1.1,0.2L329.3,174.2z M329.8,175.5
		c-0.3,0.3-0.4,0.6-0.4,0.9c0,0.4,0.1,0.7,0.4,0.9c0.3,0.3,0.6,0.4,0.9,0.4c0.3,0,0.7-0.1,0.9-0.4s0.4-0.6,0.4-0.9
		c0-0.3-0.1-0.7-0.4-0.9c-0.3-0.3-0.6-0.4-0.9-0.4C330.3,175.1,330,175.2,329.8,175.5z M330.7,177.1c-0.4,0-0.7-0.2-0.7-0.7
		s0.2-0.7,0.7-0.7c0.4,0,0.7,0.2,0.7,0.7C331.3,176.8,331.1,177.1,330.7,177.1z M331.4,179.2c0.7-0.1,1.3-0.5,1.8-1.2l-0.1-0.7
		l-0.5-0.2l-0.5,0.1c-0.2,0.4-0.5,0.6-1,0.7l-0.3,0.5v0.5L331.4,179.2z M332.3,176.3c0.2,0.4,0.5,0.7,0.9,0.7l0.5-0.5v-0.2
		c0-0.7-0.2-1.3-0.7-1.9l-0.6-0.1c-0.3,0.3-0.4,0.6-0.4,0.9C332.2,175.6,332.3,176,332.3,176.3L332.3,176.3z M337.5,178.7
		c-0.6-0.6-1-1.4-1-2.3s0.3-1.7,1-2.3c0.6-0.6,1.4-0.9,2.3-0.9s1.7,0.3,2.3,0.9c0.6,0.6,1,1.4,1,2.3c0,0.9-0.3,1.7-1,2.3
		c-0.6,0.6-1.4,0.9-2.3,0.9C338.9,179.7,338.2,179.4,337.5,178.7z M338.2,176.3c0-0.4,0.1-0.7,0.4-1c0-0.3-0.1-0.7-0.4-0.9l-0.6,0.1
		c-0.5,0.6-0.7,1.2-0.7,1.9v0.2l0.5,0.5C337.7,177,338,176.8,338.2,176.3L338.2,176.3z M339.5,178c-0.4-0.1-0.8-0.3-1-0.7l-0.5-0.1
		l-0.5,0.2l-0.1,0.7c0.5,0.7,1.1,1.1,1.8,1.2l0.6-0.3v-0.5L339.5,178z M338.5,174.2c0.1,0.4,0.4,0.6,0.8,0.7
		c0.3-0.1,0.5-0.1,0.6-0.1c0.1,0,0.3,0,0.6,0.1c0.4,0,0.7-0.3,0.8-0.7l-0.3-0.6c-0.3-0.1-0.7-0.2-1.1-0.2s-0.8,0.1-1.1,0.2
		L338.5,174.2z M338.9,175.5c-0.3,0.3-0.4,0.6-0.4,0.9c0,0.4,0.1,0.7,0.4,0.9c0.3,0.3,0.6,0.4,0.9,0.4c0.3,0,0.7-0.1,0.9-0.4
		c0.3-0.3,0.4-0.6,0.4-0.9c0-0.3-0.1-0.7-0.4-0.9c-0.3-0.3-0.6-0.4-0.9-0.4C339.5,175.1,339.2,175.2,338.9,175.5z M339.8,177.1
		c-0.4,0-0.7-0.2-0.7-0.7s0.2-0.7,0.7-0.7s0.7,0.2,0.7,0.7C340.5,176.8,340.3,177.1,339.8,177.1z M340.6,179.2
		c0.7-0.1,1.3-0.5,1.8-1.2l-0.1-0.7l-0.5-0.2l-0.5,0.1c-0.2,0.4-0.5,0.6-1,0.7l-0.3,0.5v0.5L340.6,179.2z M341.5,176.3
		c0.2,0.4,0.5,0.7,0.9,0.7l0.5-0.5v-0.2c0-0.7-0.2-1.3-0.7-1.9l-0.6-0.1c-0.3,0.3-0.4,0.6-0.4,0.9
		C341.4,175.6,341.5,176,341.5,176.3L341.5,176.3z M346.7,178.7c-0.6-0.6-1-1.4-1-2.3s0.3-1.7,1-2.3c0.6-0.6,1.4-0.9,2.3-0.9
		s1.7,0.3,2.3,0.9c0.6,0.6,1,1.4,1,2.3c0,0.9-0.3,1.7-1,2.3c-0.6,0.6-1.4,0.9-2.3,0.9C348.1,179.7,347.3,179.4,346.7,178.7z
		 M347.4,176.3c0-0.4,0.1-0.7,0.4-1c0-0.3-0.1-0.7-0.4-0.9l-0.6,0.1c-0.5,0.6-0.7,1.2-0.7,1.9v0.2l0.5,0.5
		C346.9,177,347.2,176.8,347.4,176.3L347.4,176.3z M348.6,178c-0.4-0.1-0.8-0.3-1-0.7l-0.5-0.1l-0.5,0.2l-0.1,0.7
		c0.5,0.7,1.1,1.1,1.8,1.2l0.6-0.3v-0.5L348.6,178z M347.6,174.2c0.1,0.4,0.4,0.6,0.8,0.7c0.3-0.1,0.5-0.1,0.6-0.1s0.3,0,0.6,0.1
		c0.4,0,0.7-0.3,0.8-0.7l-0.3-0.6c-0.3-0.1-0.7-0.2-1.1-0.2c-0.4,0-0.8,0.1-1.1,0.2L347.6,174.2z M348.1,175.5
		c-0.3,0.3-0.4,0.6-0.4,0.9c0,0.4,0.1,0.7,0.4,0.9c0.3,0.3,0.6,0.4,0.9,0.4c0.3,0,0.7-0.1,0.9-0.4c0.3-0.3,0.4-0.6,0.4-0.9
		c0-0.3-0.1-0.7-0.4-0.9c-0.3-0.3-0.6-0.4-0.9-0.4C348.7,175.1,348.4,175.2,348.1,175.5z M349,177.1c-0.4,0-0.7-0.2-0.7-0.7
		s0.2-0.7,0.7-0.7c0.4,0,0.7,0.2,0.7,0.7C349.7,176.8,349.5,177.1,349,177.1z M349.7,179.2c0.7-0.1,1.3-0.5,1.8-1.2l-0.1-0.7
		l-0.5-0.2l-0.5,0.1c-0.2,0.4-0.5,0.6-1,0.7l-0.3,0.5v0.5L349.7,179.2z M350.7,176.3c0.2,0.4,0.5,0.7,0.9,0.7l0.5-0.5v-0.2
		c0-0.7-0.2-1.3-0.7-1.9l-0.6-0.1c-0.3,0.3-0.4,0.6-0.4,0.9C350.5,175.6,350.7,176,350.7,176.3L350.7,176.3z"/>
	<path id="path174" inkscape:connector-curvature="0" class="st1" d="M327.2,165.1c-1-1-1.4-2.1-1.4-3.5s0.5-2.5,1.4-3.5
		c1-1,2.1-1.4,3.5-1.4c1,0,2,0.3,2.8,0.9c0.8,0.6,1.4,1.3,1.8,2.3c0.4-0.9,0.9-1.7,1.8-2.3c0.8-0.6,1.8-0.9,2.8-0.9
		c1,0,2,0.3,2.8,0.9s1.4,1.3,1.8,2.3c0.3-0.9,0.9-1.7,1.8-2.3c0.8-0.6,1.8-0.9,2.8-0.9c1.4,0,2.5,0.5,3.5,1.4c1,1,1.4,2.1,1.4,3.5
		s-0.5,2.5-1.4,3.5c-1,1-2.1,1.4-3.5,1.4c-1,0-2-0.3-2.8-0.9c-0.8-0.6-1.4-1.3-1.8-2.3c-0.4,0.9-0.9,1.7-1.8,2.3
		c-0.8,0.6-1.8,0.9-2.8,0.9c-1,0-2-0.3-2.8-0.9c-0.8-0.6-1.4-1.3-1.8-2.3c-0.4,0.9-0.9,1.7-1.8,2.3c-0.8,0.6-1.8,0.9-2.8,0.9
		C329.3,166.6,328.2,166.1,327.2,165.1z M327.2,194.6c-1-1-1.4-2.1-1.4-3.5c0-1.4,0.5-2.5,1.4-3.5c1-1,2.1-1.4,3.5-1.4
		c1,0,2,0.3,2.8,0.9c0.8,0.6,1.4,1.3,1.8,2.3c0.4-0.9,0.9-1.7,1.8-2.3c0.8-0.6,1.8-0.9,2.8-0.9c1,0,2,0.3,2.8,0.9
		c0.8,0.6,1.4,1.3,1.8,2.3c0.3-0.9,0.9-1.7,1.8-2.3c0.8-0.6,1.8-0.9,2.8-0.9c1.4,0,2.5,0.5,3.5,1.4c1,1,1.4,2.1,1.4,3.5
		s-0.5,2.5-1.4,3.5c-1,1-2.1,1.4-3.5,1.4c-1,0-2-0.3-2.8-0.9c-0.8-0.6-1.4-1.3-1.8-2.3c-0.4,0.9-0.9,1.7-1.8,2.3
		c-0.8,0.6-1.8,0.9-2.8,0.9c-1,0-2-0.3-2.8-0.9c-0.8-0.6-1.4-1.3-1.8-2.3c-0.4,0.9-0.9,1.7-1.8,2.3c-0.8,0.6-1.8,0.9-2.8,0.9
		C329.3,196.1,328.2,195.6,327.2,194.6z M327.9,158.9c-0.8,0.8-1.1,1.7-1.1,2.8c0,1.1,0.4,2,1.1,2.8c0.8,0.8,1.7,1.1,2.8,1.1
		c1.1,0,2-0.4,2.8-1.1c0.8-0.8,1.1-1.7,1.1-2.8c0-1.1-0.4-2-1.1-2.8c-0.8-0.8-1.7-1.1-2.8-1.1S328.7,158.1,327.9,158.9z
		 M327.9,188.4c-0.8,0.8-1.1,1.7-1.1,2.8c0,1.1,0.4,2,1.1,2.8c0.8,0.8,1.7,1.1,2.8,1.1c1.1,0,2-0.4,2.8-1.1c0.8-0.8,1.1-1.7,1.1-2.8
		c0-1.1-0.4-2-1.1-2.8c-0.8-0.8-1.7-1.1-2.8-1.1S328.7,187.6,327.9,188.4z M328.3,164c-0.6-0.6-1-1.4-1-2.3s0.3-1.7,1-2.3
		c0.6-0.6,1.4-0.9,2.3-0.9s1.7,0.3,2.3,0.9c0.6,0.6,1,1.4,1,2.3s-0.3,1.7-1,2.3c-0.6,0.6-1.4,1-2.3,1
		C329.8,164.9,329,164.6,328.3,164z M328.3,193.5c-0.6-0.6-1-1.4-1-2.3s0.3-1.7,1-2.3c0.6-0.6,1.4-0.9,2.3-0.9s1.7,0.3,2.3,0.9
		c0.6,0.6,1,1.4,1,2.3c0,0.9-0.3,1.7-1,2.3c-0.6,0.6-1.4,1-2.3,1C329.8,194.4,329,194.1,328.3,193.5z M329,161.6
		c0-0.4,0.1-0.7,0.4-1c0-0.4-0.1-0.7-0.4-0.9l-0.6,0.1c-0.5,0.6-0.7,1.2-0.7,1.9v0.2l0.5,0.5C328.5,162.3,328.8,162,329,161.6
		L329,161.6z M329,191.1c0-0.4,0.1-0.7,0.4-1c0-0.3-0.1-0.7-0.4-0.9l-0.6,0.1c-0.5,0.6-0.7,1.2-0.7,1.9v0.2l0.5,0.5
		C328.5,191.8,328.8,191.5,329,191.1L329,191.1z M330.3,163.2c-0.4-0.1-0.8-0.3-1-0.7l-0.5-0.1l-0.5,0.2l-0.1,0.7
		c0.5,0.7,1.1,1.1,1.8,1.2l0.6-0.3v-0.5L330.3,163.2z M330.3,192.7c-0.4-0.1-0.8-0.3-1-0.7l-0.5-0.1l-0.5,0.2l-0.1,0.7
		c0.5,0.7,1.1,1.1,1.8,1.2l0.6-0.3v-0.5L330.3,192.7z M329.3,159.5c0.1,0.4,0.4,0.6,0.8,0.7c0.3-0.1,0.5-0.1,0.6-0.1
		c0.1,0,0.3,0,0.6,0.1c0.4,0,0.7-0.3,0.8-0.7l-0.3-0.6c-0.3-0.1-0.7-0.2-1.1-0.2c-0.4,0-0.8,0.1-1.1,0.2L329.3,159.5z M329.3,189
		c0.1,0.4,0.4,0.6,0.8,0.7c0.3-0.1,0.5-0.1,0.6-0.1c0.1,0,0.3,0,0.6,0.1c0.4,0,0.7-0.3,0.8-0.7l-0.3-0.6c-0.3-0.1-0.7-0.2-1.1-0.2
		c-0.4,0-0.8,0.1-1.1,0.2L329.3,189z M329.8,160.7c-0.3,0.3-0.4,0.6-0.4,0.9c0,0.4,0.1,0.7,0.4,0.9c0.3,0.3,0.6,0.4,0.9,0.4
		c0.3,0,0.7-0.1,0.9-0.4c0.3-0.3,0.4-0.6,0.4-0.9c0-0.3-0.1-0.7-0.4-0.9c-0.3-0.3-0.6-0.4-0.9-0.4
		C330.3,160.4,330,160.5,329.8,160.7z M329.8,190.2c-0.3,0.3-0.4,0.6-0.4,0.9c0,0.4,0.1,0.7,0.4,0.9c0.3,0.3,0.6,0.4,0.9,0.4
		c0.3,0,0.7-0.1,0.9-0.4c0.3-0.3,0.4-0.6,0.4-0.9c0-0.3-0.1-0.7-0.4-0.9c-0.3-0.3-0.6-0.4-0.9-0.4C330.3,189.8,330,190,329.8,190.2z
		 M330.7,162.3c-0.4,0-0.7-0.2-0.7-0.7c0-0.4,0.2-0.7,0.7-0.7c0.4,0,0.7,0.2,0.7,0.7C331.3,162.1,331.1,162.3,330.7,162.3z
		 M330.7,191.8c-0.4,0-0.7-0.2-0.7-0.7c0-0.4,0.2-0.7,0.7-0.7c0.4,0,0.7,0.2,0.7,0.7C331.3,191.6,331.1,191.8,330.7,191.8z
		 M331.4,164.5c0.7-0.1,1.3-0.5,1.8-1.2l-0.1-0.7l-0.5-0.2l-0.5,0.1c-0.2,0.4-0.5,0.6-1,0.7l-0.3,0.5v0.5L331.4,164.5z M331.4,194
		c0.7-0.1,1.3-0.5,1.8-1.2l-0.1-0.7l-0.5-0.2l-0.5,0.1c-0.2,0.4-0.5,0.6-1,0.7l-0.3,0.5v0.5L331.4,194z M332.3,161.6
		c0.2,0.4,0.5,0.7,0.9,0.7l0.5-0.5v-0.2c0-0.7-0.2-1.3-0.7-1.9l-0.6-0.1c-0.3,0.3-0.4,0.6-0.4,0.9
		C332.2,160.9,332.3,161.2,332.3,161.6L332.3,161.6z M332.3,191.1c0.2,0.4,0.5,0.7,0.9,0.7l0.5-0.5v-0.2c0-0.7-0.2-1.3-0.7-1.9
		l-0.6-0.1c-0.3,0.3-0.4,0.6-0.4,0.9C332.2,190.4,332.3,190.7,332.3,191.1L332.3,191.1z M337.1,158.9c-0.8,0.8-1.1,1.7-1.1,2.8
		c0,1.1,0.4,2,1.1,2.8c0.8,0.8,1.7,1.1,2.8,1.1c1.1,0,2-0.4,2.8-1.1c0.8-0.8,1.1-1.7,1.1-2.8c0-1.1-0.4-2-1.1-2.8
		c-0.8-0.8-1.7-1.1-2.8-1.1C338.8,157.7,337.8,158.1,337.1,158.9z M337.1,188.4c-0.8,0.8-1.1,1.7-1.1,2.8c0,1.1,0.4,2,1.1,2.8
		c0.8,0.8,1.7,1.1,2.8,1.1c1.1,0,2-0.4,2.8-1.1c0.8-0.8,1.1-1.7,1.1-2.8c0-1.1-0.4-2-1.1-2.8c-0.8-0.8-1.7-1.1-2.8-1.1
		C338.8,187.2,337.8,187.6,337.1,188.4z M337.5,164c-0.6-0.6-1-1.4-1-2.3s0.3-1.7,1-2.3c0.6-0.6,1.4-0.9,2.3-0.9s1.7,0.3,2.3,0.9
		c0.6,0.6,1,1.4,1,2.3s-0.3,1.7-1,2.3c-0.6,0.6-1.4,1-2.3,1S338.2,164.6,337.5,164z M337.5,193.5c-0.6-0.6-1-1.4-1-2.3
		s0.3-1.7,1-2.3c0.6-0.6,1.4-0.9,2.3-0.9s1.7,0.3,2.3,0.9c0.6,0.6,1,1.4,1,2.3c0,0.9-0.3,1.7-1,2.3c-0.6,0.6-1.4,1-2.3,1
		S338.2,194.1,337.5,193.5z M338.2,161.6c0-0.4,0.1-0.7,0.4-1c0-0.4-0.1-0.7-0.4-0.9l-0.6,0.1c-0.5,0.6-0.7,1.2-0.7,1.9v0.2l0.5,0.5
		C337.7,162.3,338,162,338.2,161.6L338.2,161.6z M338.2,191.1c0-0.4,0.1-0.7,0.4-1c0-0.3-0.1-0.7-0.4-0.9l-0.6,0.1
		c-0.5,0.6-0.7,1.2-0.7,1.9v0.2l0.5,0.5C337.7,191.8,338,191.5,338.2,191.1L338.2,191.1z M339.5,163.2c-0.4-0.1-0.8-0.3-1-0.7
		l-0.5-0.1l-0.5,0.2l-0.1,0.7c0.5,0.7,1.1,1.1,1.8,1.2l0.6-0.3v-0.5L339.5,163.2z M339.5,192.7c-0.4-0.1-0.8-0.3-1-0.7l-0.5-0.1
		l-0.5,0.2l-0.1,0.7c0.5,0.7,1.1,1.1,1.8,1.2l0.6-0.3v-0.5L339.5,192.7z M338.5,159.5c0.1,0.4,0.4,0.6,0.8,0.7
		c0.3-0.1,0.5-0.1,0.6-0.1c0.1,0,0.3,0,0.6,0.1c0.4,0,0.7-0.3,0.8-0.7l-0.3-0.6c-0.3-0.1-0.7-0.2-1.1-0.2s-0.8,0.1-1.1,0.2
		L338.5,159.5z M338.5,189c0.1,0.4,0.4,0.6,0.8,0.7c0.3-0.1,0.5-0.1,0.6-0.1c0.1,0,0.3,0,0.6,0.1c0.4,0,0.7-0.3,0.8-0.7l-0.3-0.6
		c-0.3-0.1-0.7-0.2-1.1-0.2s-0.8,0.1-1.1,0.2L338.5,189z M338.9,160.7c-0.3,0.3-0.4,0.6-0.4,0.9c0,0.4,0.1,0.7,0.4,0.9
		c0.3,0.3,0.6,0.4,0.9,0.4c0.3,0,0.7-0.1,0.9-0.4c0.3-0.3,0.4-0.6,0.4-0.9c0-0.3-0.1-0.7-0.4-0.9c-0.3-0.3-0.6-0.4-0.9-0.4
		C339.5,160.4,339.2,160.5,338.9,160.7z M338.9,190.2c-0.3,0.3-0.4,0.6-0.4,0.9c0,0.4,0.1,0.7,0.4,0.9c0.3,0.3,0.6,0.4,0.9,0.4
		c0.3,0,0.7-0.1,0.9-0.4c0.3-0.3,0.4-0.6,0.4-0.9c0-0.3-0.1-0.7-0.4-0.9c-0.3-0.3-0.6-0.4-0.9-0.4
		C339.5,189.8,339.2,190,338.9,190.2z M339.8,162.3c-0.4,0-0.7-0.2-0.7-0.7c0-0.4,0.2-0.7,0.7-0.7s0.7,0.2,0.7,0.7
		C340.5,162.1,340.3,162.3,339.8,162.3z M339.8,191.8c-0.4,0-0.7-0.2-0.7-0.7c0-0.4,0.2-0.7,0.7-0.7s0.7,0.2,0.7,0.7
		C340.5,191.6,340.3,191.8,339.8,191.8z M340.6,164.5c0.7-0.1,1.3-0.5,1.8-1.2l-0.1-0.7l-0.5-0.2l-0.5,0.1c-0.2,0.4-0.5,0.6-1,0.7
		l-0.3,0.5v0.5L340.6,164.5z M340.6,194c0.7-0.1,1.3-0.5,1.8-1.2l-0.1-0.7l-0.5-0.2l-0.5,0.1c-0.2,0.4-0.5,0.6-1,0.7l-0.3,0.5v0.5
		L340.6,194z M341.5,161.6c0.2,0.4,0.5,0.7,0.9,0.7l0.5-0.5v-0.2c0-0.7-0.2-1.3-0.7-1.9l-0.6-0.1c-0.3,0.3-0.4,0.6-0.4,0.9
		C341.4,160.9,341.5,161.2,341.5,161.6L341.5,161.6z M341.5,191.1c0.2,0.4,0.5,0.7,0.9,0.7l0.5-0.5v-0.2c0-0.7-0.2-1.3-0.7-1.9
		l-0.6-0.1c-0.3,0.3-0.4,0.6-0.4,0.9C341.4,190.4,341.5,190.7,341.5,191.1L341.5,191.1z M346.2,158.9c-0.8,0.8-1.1,1.7-1.1,2.8
		c0,1.1,0.4,2,1.1,2.8c0.8,0.8,1.7,1.1,2.8,1.1c1.1,0,2-0.4,2.8-1.1c0.8-0.8,1.1-1.7,1.1-2.8c0-1.1-0.4-2-1.1-2.8
		c-0.8-0.8-1.7-1.1-2.8-1.1C347.9,157.7,347,158.1,346.2,158.9z M346.2,188.4c-0.8,0.8-1.1,1.7-1.1,2.8c0,1.1,0.4,2,1.1,2.8
		c0.8,0.8,1.7,1.1,2.8,1.1c1.1,0,2-0.4,2.8-1.1c0.8-0.8,1.1-1.7,1.1-2.8c0-1.1-0.4-2-1.1-2.8c-0.8-0.8-1.7-1.1-2.8-1.1
		C347.9,187.2,347,187.6,346.2,188.4z M346.7,164c-0.6-0.6-1-1.4-1-2.3s0.3-1.7,1-2.3c0.6-0.6,1.4-0.9,2.3-0.9s1.7,0.3,2.3,0.9
		c0.6,0.6,1,1.4,1,2.3s-0.3,1.7-1,2.3c-0.6,0.6-1.4,1-2.3,1S347.3,164.6,346.7,164z M346.7,193.5c-0.6-0.6-1-1.4-1-2.3
		s0.3-1.7,1-2.3c0.6-0.6,1.4-0.9,2.3-0.9s1.7,0.3,2.3,0.9c0.6,0.6,1,1.4,1,2.3c0,0.9-0.3,1.7-1,2.3c-0.6,0.6-1.4,1-2.3,1
		S347.3,194.1,346.7,193.5z M347.4,161.6c0-0.4,0.1-0.7,0.4-1c0-0.4-0.1-0.7-0.4-0.9l-0.6,0.1c-0.5,0.6-0.7,1.2-0.7,1.9v0.2l0.5,0.5
		C346.9,162.3,347.2,162,347.4,161.6L347.4,161.6z M347.4,191.1c0-0.4,0.1-0.7,0.4-1c0-0.3-0.1-0.7-0.4-0.9l-0.6,0.1
		c-0.5,0.6-0.7,1.2-0.7,1.9v0.2l0.5,0.5C346.9,191.8,347.2,191.5,347.4,191.1L347.4,191.1z M348.6,163.2c-0.4-0.1-0.8-0.3-1-0.7
		l-0.5-0.1l-0.5,0.2l-0.1,0.7c0.5,0.7,1.1,1.1,1.8,1.2l0.6-0.3v-0.5L348.6,163.2z M348.6,192.7c-0.4-0.1-0.8-0.3-1-0.7l-0.5-0.1
		l-0.5,0.2l-0.1,0.7c0.5,0.7,1.1,1.1,1.8,1.2l0.6-0.3v-0.5L348.6,192.7z M347.6,159.5c0.1,0.4,0.4,0.6,0.8,0.7
		c0.3-0.1,0.5-0.1,0.6-0.1s0.3,0,0.6,0.1c0.4,0,0.7-0.3,0.8-0.7l-0.3-0.6c-0.3-0.1-0.7-0.2-1.1-0.2c-0.4,0-0.8,0.1-1.1,0.2
		L347.6,159.5z M347.6,189c0.1,0.4,0.4,0.6,0.8,0.7c0.3-0.1,0.5-0.1,0.6-0.1s0.3,0,0.6,0.1c0.4,0,0.7-0.3,0.8-0.7l-0.3-0.6
		c-0.3-0.1-0.7-0.2-1.1-0.2c-0.4,0-0.8,0.1-1.1,0.2L347.6,189z M348.1,160.7c-0.3,0.3-0.4,0.6-0.4,0.9c0,0.4,0.1,0.7,0.4,0.9
		c0.3,0.3,0.6,0.4,0.9,0.4c0.3,0,0.7-0.1,0.9-0.4c0.3-0.3,0.4-0.6,0.4-0.9c0-0.3-0.1-0.7-0.4-0.9c-0.3-0.3-0.6-0.4-0.9-0.4
		C348.7,160.4,348.4,160.5,348.1,160.7z M348.1,190.2c-0.3,0.3-0.4,0.6-0.4,0.9c0,0.4,0.1,0.7,0.4,0.9c0.3,0.3,0.6,0.4,0.9,0.4
		c0.3,0,0.7-0.1,0.9-0.4c0.3-0.3,0.4-0.6,0.4-0.9c0-0.3-0.1-0.7-0.4-0.9c-0.3-0.3-0.6-0.4-0.9-0.4
		C348.7,189.8,348.4,190,348.1,190.2z M349,162.3c-0.4,0-0.7-0.2-0.7-0.7c0-0.4,0.2-0.7,0.7-0.7c0.4,0,0.7,0.2,0.7,0.7
		C349.7,162.1,349.5,162.3,349,162.3z M349,191.8c-0.4,0-0.7-0.2-0.7-0.7c0-0.4,0.2-0.7,0.7-0.7c0.4,0,0.7,0.2,0.7,0.7
		C349.7,191.6,349.5,191.8,349,191.8z M349.7,164.5c0.7-0.1,1.3-0.5,1.8-1.2l-0.1-0.7l-0.5-0.2l-0.5,0.1c-0.2,0.4-0.5,0.6-1,0.7
		l-0.3,0.5v0.5L349.7,164.5z M349.7,194c0.7-0.1,1.3-0.5,1.8-1.2l-0.1-0.7l-0.5-0.2l-0.5,0.1c-0.2,0.4-0.5,0.6-1,0.7l-0.3,0.5v0.5
		L349.7,194z M350.7,161.6c0.2,0.4,0.5,0.7,0.9,0.7l0.5-0.5v-0.2c0-0.7-0.2-1.3-0.7-1.9l-0.6-0.1c-0.3,0.3-0.4,0.6-0.4,0.9
		C350.5,160.9,350.7,161.2,350.7,161.6L350.7,161.6z M350.7,191.1c0.2,0.4,0.5,0.7,0.9,0.7l0.5-0.5v-0.2c0-0.7-0.2-1.3-0.7-1.9
		l-0.6-0.1c-0.3,0.3-0.4,0.6-0.4,0.9C350.5,190.4,350.7,190.7,350.7,191.1L350.7,191.1z"/>
</g>
</svg>
