<?xml version="1.0" encoding="utf-8"?>
<!-- Generator: Adobe Illustrator 25.0.1, SVG Export Plug-In . SVG Version: 6.00 Build 0)  -->
<svg version="1.1"
	 id="图层_1" inkscape:version="0.92.3 (2405546, 2018-03-11)" xmlns:cc="http://creativecommons.org/ns#" xmlns:dc="http://purl.org/dc/elements/1.1/" xmlns:inkscape="http://www.inkscape.org/namespaces/inkscape" xmlns:rdf="http://www.w3.org/1999/02/22-rdf-syntax-ns#" xmlns:sodipodi="http://sodipodi.sourceforge.net/DTD/sodipodi-0.dtd" xmlns:svg="http://www.w3.org/2000/svg"
	 xmlns="http://www.w3.org/2000/svg" xmlns:xlink="http://www.w3.org/1999/xlink" x="0px" y="0px" viewBox="0 0 139.8 200"
	 style="enable-background:new 0 0 139.8 200;" xml:space="preserve">
<style type="text/css">
	.st0{fill:#FFFFFF;}
	.st1{fill:#870000;}
	.st2{fill:#133F00;}
</style>
<path class="st0" d="M112,200.5H28c-15.4,0-27.9-12.5-27.9-27.9V28.4C0.1,13,12.6,0.5,28,0.5h84c15.4,0,27.9,12.5,27.9,27.9v144.2
	C139.9,188,127.4,200.5,112,200.5z"/>
<sodipodi:namedview  bordercolor="#666666" borderopacity="1" gridtolerance="10" guidetolerance="10" id="namedview617" inkscape:current-layer="图层_1" inkscape:cx="44.33986" inkscape:cy="112.60966" inkscape:pageopacity="0" inkscape:pageshadow="2" inkscape:window-height="705" inkscape:window-maximized="1" inkscape:window-width="1366" inkscape:window-x="-8" inkscape:window-y="-8" inkscape:zoom="1" objecttolerance="10" pagecolor="#ffffff" showgrid="false">
	</sodipodi:namedview>
<g id="g1596" transform="matrix(4.0331525,0,0,4.0331525,-66.744641,-322.32955)">
	<path id="path68" inkscape:connector-curvature="0" d="M51.2,83.5v42.4c0,1-0.3,1.8-1,2.5c-0.7,0.7-1.5,1-2.5,1H20.1
		c-1,0-1.8-0.3-2.5-1c-0.7-0.7-1-1.5-1-2.5V83.5c0-1,0.3-1.8,1-2.5s1.5-1,2.5-1h27.5c1,0,1.8,0.3,2.5,1
		C50.9,81.7,51.2,82.5,51.2,83.5L51.2,83.5z M47.6,81.7H20.1c-0.5,0-0.9,0.2-1.3,0.5c-0.3,0.3-0.5,0.8-0.5,1.3v42.4
		c0,0.5,0.2,0.9,0.5,1.3c0.3,0.3,0.8,0.5,1.3,0.5h27.5c0.5,0,0.9-0.2,1.3-0.5c0.3-0.3,0.5-0.8,0.5-1.3V83.5c0-0.5-0.2-0.9-0.5-1.3
		C48.6,81.9,48.1,81.7,47.6,81.7z"/>
	<path id="path70" inkscape:connector-curvature="0" class="st1" d="M26.4,107.9c0,0.1,0,0.1-0.1,0.1c-0.2,0-0.7-0.4-1.7-1.2
		c-0.3-0.2-0.7-0.5-1.2-0.7c-0.5-0.2-0.8-0.4-1.1-0.5c-0.3-0.1-0.4-0.2-0.4-0.2c0-0.1,0.2-0.1,0.5-0.1c0.6,0,1.3,0.3,1.9,0.7
		c0.7,0.4,1.2,0.8,1.5,1.2C26.2,107.5,26.4,107.8,26.4,107.9L26.4,107.9z M22.8,102.9c0.2,0,0.6,0.1,1.2,0.3
		c0.6,0.2,1.3,0.6,2.1,1.3c0.9,0.6,1.5,1.4,2.1,2.4c0.2,0.4,0.2,0.6,0.2,0.7c0,0.1,0,0.2-0.1,0.2l-0.7-0.7c-2.2-2.2-3.9-3.5-4.9-3.9
		c-0.1,0-0.2-0.1-0.2-0.2C22.5,102.9,22.6,102.9,22.8,102.9L22.8,102.9z M25.4,108.9c-0.3,0-0.9-0.1-1.6-0.3
		c-0.8-0.2-1.2-0.4-1.2-0.6c0-0.1,0.2-0.1,0.7-0.1c0.2,0,0.5,0.1,0.9,0.2c0.4,0.1,0.7,0.3,1,0.4c0.3,0.1,0.4,0.2,0.4,0.3
		C25.5,108.9,25.5,108.9,25.4,108.9L25.4,108.9z M26.9,107.4c0,0,0-0.1,0.1-0.1c0.1,0,0.4,0.3,1,0.8c0.5,0.5,0.8,0.9,0.8,1.2
		c0,0.3-0.1,0.4-0.4,0.4c-0.3,0-0.7-0.1-1.2-0.3c-0.5-0.2-0.7-0.4-0.7-0.5c0,0,0.1-0.1,0.2-0.1c0.1,0,0.3,0,0.6,0.1
		c0.3,0.1,0.5,0.1,0.5,0.1c0.1,0,0.1,0,0.1-0.1c0-0.2-0.2-0.4-0.5-0.9C27.1,107.7,26.9,107.5,26.9,107.4L26.9,107.4z"/>
	<path id="path72" inkscape:connector-curvature="0" class="st1" d="M32.4,121.7c0,0.1-0.1,0.2-0.2,0.2c-0.1,0-0.2-0.1-0.3-0.1
		c-0.1-0.1-0.2-0.1-0.3-0.1c0,0-0.4,0.2-1.1,0.7c-0.7,0.5-1.1,0.7-1.3,0.7c-0.1,0-0.2-0.1-0.2-0.2c0,0,0.2-0.2,0.6-0.6
		c0.4-0.4,0.6-0.6,0.6-0.6c0,0,0-0.1-0.1-0.1c-0.2,0-0.5,0-0.9,0.1c-0.3,0.1-0.5,0.1-0.6,0.1c-0.1,0-0.2,0-0.2-0.1
		c0-0.3,0.7-0.5,2.2-0.7c0.3,0,0.5-0.1,0.5-0.3c0.1-0.2,0.1-0.6,0.1-1.3c0-0.3,0-0.6-0.1-0.9c-0.1-0.3-0.1-0.5-0.1-0.5
		c0-0.1,0.1-0.1,0.2-0.1c0.4,0,0.8,0.2,1,0.5c0,0.1,0.1,0.2,0.1,0.5c0,0.8-0.1,1.6-0.3,2.2C32.3,121.3,32.4,121.5,32.4,121.7
		L32.4,121.7z"/>
	<path id="path74" inkscape:connector-curvature="0" class="st1" d="M35.5,120.2c0,0.6,0,0.9,0.1,1.1c0.1,0.2,0.3,0.3,0.7,0.4
		c0.4,0.1,0.7,0.2,1,0.3c0,0,0,0.1,0.1,0.1c0.1,0,0.1,0.1,0.1,0.1c0,0.1-0.1,0.1-0.3,0.1c-0.1,0-0.4,0-0.9-0.1
		c-0.5-0.1-0.8-0.1-1-0.1c0,0-0.2,0.1-0.6,0.4c-0.4,0.3-0.7,0.4-0.9,0.4c-0.1,0-0.1-0.1-0.1-0.2c0,0,0.1-0.1,0.2-0.3
		c0.3-0.4,0.4-0.6,0.3-0.6c0,0-0.3,0.1-0.7,0.3c-0.5,0.2-0.8,0.3-0.9,0.3c-0.1,0-0.2,0-0.2-0.1c0-0.1,0.4-0.4,1.1-0.9s1.1-1,1.1-1.6
		c0-0.2,0-0.3,0-0.6c0-0.2,0-0.5-0.1-0.7c0-0.3-0.1-0.5-0.1-0.6c0-0.1,0-0.2,0.1-0.2h0.1c0.7,0,1,0.2,1,0.6c0,0.2,0,0.4-0.1,0.9
		C35.5,119.7,35.5,120,35.5,120.2L35.5,120.2z"/>
	<path id="path76" inkscape:connector-curvature="0" d="M27.5,96.8c0-0.1-0.1-0.2-0.3-0.4c-0.2-0.2-0.4-0.4-0.6-0.7
		c-0.2-0.3-0.4-0.5-0.5-0.6c-1.6-2.2-2.5-3.6-2.5-4.2c0-0.1,0.1-0.2,0.2-0.2c0.1,0,0.2,0.1,0.3,0.2c2.3,3.5,3.6,5.2,3.8,5.2
		c0.1,0,0.1,0,0.1-0.1c0-0.1-0.5-0.9-1.6-2.3c-1.1-1.4-1.6-2.3-1.6-2.7c0-0.1,0.1-0.2,0.2-0.2c0.1,0,0.6,0.8,1.7,2.3
		c1,1.5,1.6,2.3,1.8,2.3c0.1,0,0.1,0,0.1-0.1c0-0.2-0.5-0.9-1.4-2.2c-0.9-1.3-1.4-2.1-1.4-2.3c0-0.1,0.1-0.2,0.2-0.2
		c0.2,0,0.6,0.6,1.4,1.9c0.8,1.3,1.2,1.9,1.3,1.9c0.1,0,0.1,0,0.1-0.1c0-0.1-0.2-0.5-0.7-1.3c-0.4-0.8-0.7-1.3-0.7-1.6
		c0-0.2,0-0.2,0.1-0.2c0.1,0,0.5,0.6,1,1.8c0.6,1.2,0.9,1.8,0.9,1.8c0.1,0,0.1-0.1,0.1-0.2s-0.2-0.8-0.7-1.9
		c-0.5-1.1-0.7-1.7-0.7-1.9c0-0.1,0.1-0.2,0.2-0.2c0.1,0,0.4,0.6,0.9,1.7l0.8,1.7c0.2,0.3,0.4,0.4,0.5,0.3c0,0-0.2-0.9-0.7-2.6
		c-0.5-1.7-0.7-2.8-0.7-3.4c0-0.2,0.1-0.4,0.2-0.4c0.2,0,0.5,0.9,0.9,2.8c0.5,1.9,0.7,2.8,0.9,2.8c0.2,0,0.2-0.1,0.2-0.3
		c0-0.2-0.2-0.8-0.5-2.1c-0.4-1.2-0.5-2.2-0.5-3c0-0.4,0-0.6,0.1-0.6c0.3,0,0.6,0.8,0.9,2.5c0.3,1.7,0.5,2.5,0.6,2.5
		c0.1,0,0.2-0.2,0.2-0.6c0-0.2-0.1-0.8-0.2-1.8c-0.1-1-0.2-1.7-0.2-2.1c0-0.6,0.1-1,0.2-1c0.2,0,0.3,0.5,0.5,1.5
		c0.2,1,0.2,1.9,0.2,2.8c0,0.6,0.1,0.9,0.3,0.9c0.1,0,0.2-0.3,0.2-1c0-0.4,0-0.9-0.1-1.7c-0.1-0.8-0.1-1.3-0.1-1.6
		c0-0.5,0.1-0.7,0.2-0.7c0.2,0,0.3,0.8,0.4,2.4c0.1,1.6,0.2,2.4,0.3,2.4c0.2,0,0.3-0.6,0.3-1.8c0-1.2,0-1.9,0.1-1.9
		c0.3,0,0.4,0.6,0.4,1.9c0,0.2,0,0.4,0,0.8c0,0.4,0,0.6,0,0.8c0,0.4,0.1,0.5,0.3,0.3c0.1,0,0.1-0.1,0.1-0.2c0-0.1,0.1-0.4,0.2-1
		c0.1-0.6,0.2-1,0.4-1.4c0.1-0.4,0.3-0.6,0.4-0.6c0.1,0,0.2,0.1,0.2,0.4c0,0.2-0.1,0.6-0.3,1.3c-0.2,0.7-0.3,1.1-0.3,1.3
		c0,0.1,0.1,0.1,0.2,0.1c0.1,0,0.5-0.8,1-2.5c0.6-1.7,0.9-2.5,1.1-2.5c0.1,0,0.2,0.3,0.2,0.9c0,0.3-0.2,0.8-0.4,1.4
		c-0.2,0.6-0.4,1.2-0.6,1.7c-0.2,0.5-0.3,0.8-0.3,0.8c0,0.1,0.1,0.2,0.2,0.2c0.1,0,0.5-0.8,1.2-2.4c0.7-1.6,1.1-2.4,1.3-2.4
		c0.1,0,0.1,0.1,0.1,0.2c0,0.4-0.3,1.3-0.8,2.4S38,92,38,92.1c0,0,0.1,0.1,0.1,0.1c0.1,0,0.5-0.7,1.3-2c0.7-1.3,1.1-2,1.2-2
		c0.1,0,0.2,0.1,0.2,0.2c0,0.2-0.2,0.7-0.5,1.4c-0.2,0.4-0.5,0.9-0.7,1.3c-0.3,0.4-0.4,0.7-0.6,0.9c-0.1,0.2-0.2,0.3-0.2,0.4
		c0,0.1,0.1,0.1,0.2,0.1c0.2,0,0.5-0.5,1.1-1.5s0.9-1.5,1-1.5c0.1,0,0.2,0.1,0.2,0.2c0,0.3-0.3,0.9-0.8,1.7l-0.9,1.3
		c0,0.1,0,0.2,0.1,0.2c0.1,0,0.4-0.4,1-1.2c0.6-0.8,0.9-1.2,1.1-1.2c0.1,0,0.1,0.1,0.1,0.2c0,0.2-0.4,0.8-1.1,1.6
		c-0.7,0.8-1.1,1.3-1.1,1.3l0.1,0.1c0.3,0,1.1-0.7,2.4-2c1.2-1.3,1.9-2,2-2c0.1,0,0.1,0.1,0.1,0.2c0,0.4-0.6,1.2-1.9,2.4
		c-1.3,1.2-1.9,1.8-1.9,1.8c0,0.1,0,0.1,0.1,0.1c0.3,0,1.2-0.6,2.6-1.9c1.4-1.3,2.2-1.9,2.4-1.9c0.1,0,0.1,0.1,0.1,0.2
		c0,0.3-0.8,1-2.3,2.3C41.8,94.3,41,95,41,95c0,0.1,0,0.2,0,0.2c0,0,0.1,0,0.1,0c0.1,0,0.8-0.5,2.1-1.4c1.3-0.9,2-1.4,2.2-1.4
		c0.1,0,0.1,0,0.1,0.1c0,0.2-0.1,0.3-0.4,0.5c-1.2,0.9-2.3,1.6-3.2,2.2c-0.4,0.2-0.5,0.4-0.5,0.5s0,0.2,0.1,0.2c0,0,0.6-0.3,1.6-1
		c1-0.6,1.7-1,2-1c0.2,0,0.2,0.1,0.1,0.3c0,0.1-0.3,0.3-0.8,0.6c-0.5,0.3-1,0.5-1.6,0.8c-0.6,0.3-0.9,0.5-1.1,0.6
		c-0.2,0.2-0.1,0.3,0.2,0.3c0.1,0,0.5-0.2,1.3-0.7c0.8-0.4,1.3-0.7,1.6-0.7c0.2,0,0.3,0.1,0.3,0.2c0,0.1-0.5,0.3-1.5,0.8
		s-1.5,0.7-1.5,0.9c0,0.1,0.1,0.2,0.2,0.2c0,0,0.5-0.1,1.3-0.3c0.9-0.2,1.3-0.3,1.5-0.3c0.3,0,0.5,0.1,0.5,0.2
		c0,0.2-0.6,0.4-1.9,0.7c-1.2,0.3-1.9,0.5-1.9,0.6c0,0.2,0.1,0.2,0.2,0.2c0.2,0,0.7-0.1,1.6-0.3c0.9-0.2,1.4-0.3,1.6-0.3
		c0.2,0,0.3,0.1,0.3,0.2s-0.1,0.2-0.3,0.3c-0.2,0.1-0.5,0.1-1.1,0.2C44,98.7,43.5,98.8,43,99c-0.1,0-0.2,0.1-0.3,0.2
		c-0.1,0.1-0.1,0.1,0,0.2s0.1,0.1,0.3,0.1c0.2,0,0.6-0.1,1.3-0.2c0.7-0.2,1.1-0.2,1.2-0.2c0.2,0,0.3,0.1,0.3,0.2
		c0,0.2-0.9,0.5-2.7,0.8c-0.1,0-0.1,0-0.2,0.1s-0.1,0.2,0,0.2s0.2,0.1,0.3,0.1c0.1,0,0.4-0.1,1-0.2c0.5-0.1,0.9-0.2,1.1-0.2
		c0.1,0,0.2,0,0.2,0.1c0,0.2-0.4,0.4-1.3,0.6c-0.9,0.2-1.3,0.3-1.3,0.4c0,0.1,0.1,0.2,0.4,0.2c0.2,0,0.5-0.1,1-0.2l0.7-0.1
		c0.2,0,0.3,0.1,0.3,0.2c0,0.2-0.6,0.4-1.7,0.5c-1.1,0.2-1.7,0.4-1.7,0.7c0,0,0.1,0.1,0.2,0.1c0.1,0,0.3,0,0.6-0.1
		c0.3-0.1,0.6-0.1,0.7-0.1c0.2,0,0.4,0.1,0.4,0.2c0,0.1-0.3,0.2-0.8,0.3c-0.6,0.1-0.9,0.1-1.1,0.1c-0.2,0-0.3,0.1-0.3,0.2
		c0,0.1,0.1,0.1,0.2,0.1c0.2,0,0.4,0,0.7-0.1c0.3,0,0.4-0.1,0.5-0.1c0.2,0,0.2,0.1,0.2,0.2c0,0.3-0.6,0.4-1.7,0.4
		c-0.1,0-0.2,0.2-0.2,0.4c0.1,0,0.2,0,0.4,0c0.2,0,0.3,0,0.4-0.1c0.1,0,0.2,0,0.2,0c0,0.1-0.1,0.2-0.3,0.3s-0.4,0.1-0.7,0.2
		c-0.3,0.1-0.5,0.2-0.7,0.4c-0.4,0.4-0.8,0.6-1.3,0.6s-0.8,0.1-0.9,0.1c0,0-0.4,0.3-1,0.9c-0.7,0.6-1.3,0.9-1.9,0.9
		c-0.2,0-0.4-0.1-0.8-0.2c-0.4-0.1-0.7-0.2-0.9-0.2c-0.1,0-0.4,0.1-0.7,0.2c-0.4,0.1-0.7,0.2-0.9,0.2c-0.4,0-0.8-0.2-1.2-0.5
		c-0.4-0.3-0.6-0.5-0.6-0.6c0,0-0.2-0.1-0.6-0.1c-0.3-0.1-0.6-0.2-0.8-0.3c-0.2-0.1-0.3-0.2-0.3-0.3c0-0.1,0-0.1,0.1-0.1
		c0.1,0,0.3,0.1,0.5,0.1c0.2,0.1,0.4,0.1,0.5,0.1c0.1,0,0.1,0,0.1-0.1c0-0.1-0.3-0.3-1-0.4c-0.7-0.2-1-0.3-1-0.5
		c0-0.1,0.1-0.1,0.2-0.1c0.2,0,0.4,0,0.8,0.1l0.5,0.2c0.2,0,0.3,0,0.3-0.1c0-0.2-0.1-0.4-0.4-0.4c-1.6-0.3-2.4-0.6-2.4-0.9
		c0-0.1,0.1-0.2,0.2-0.2c0.1,0,0.5,0.1,1.1,0.4c0.6,0.2,1,0.4,1.2,0.4c0.1,0,0.2,0,0.2-0.1c0-0.1-0.1-0.2-0.4-0.4
		c-0.3-0.1-0.7-0.3-1.1-0.4c-0.5-0.2-0.8-0.3-1.1-0.5c-0.8-0.5-1.5-1.1-2.3-1.9c-0.8-0.8-1.1-1.2-1.1-1.4c0-0.2,0.1-0.2,0.2-0.2
		c0.1,0,0.5,0.3,1.3,1c0.8,0.7,1.3,1,1.5,1c0.1,0,0.1-0.1,0.1-0.2c0-0.1-0.1-0.2-0.4-0.4c-0.3-0.2-0.6-0.5-1-0.8
		c-0.4-0.4-0.7-0.7-1-1.1c-0.1-0.2-0.2-0.3-0.2-0.4c0-0.1,0-0.2,0-0.3s0-0.1,0.1-0.1c0.1,0,0.5,0.4,1.2,1.2c0.7,0.8,1.2,1.2,1.5,1.2
		c0.1,0,0.1,0,0.1-0.1c0-0.1-0.4-0.6-1.3-1.6c-0.9-1-1.3-1.6-1.3-1.9c0-0.1,0-0.2,0.1-0.2c0.1,0,0.5,0.5,1.3,1.4
		c0.8,0.9,1.4,1.4,1.6,1.4l0.1-0.1c0,0-0.5-0.6-1.4-1.7c-1-1.1-1.4-1.8-1.4-2.3c0-0.1,0-0.1,0.1-0.1c0.1,0,0.6,0.6,1.5,1.7
		c0.9,1.1,1.4,1.7,1.6,1.7c0.1,0,0.2,0,0.2-0.1c0-0.1-0.2-0.5-0.7-1c-0.5-0.6-1-1.2-1.5-1.9s-0.9-1.1-1-1.3
		c-0.2-0.4-0.2-0.6,0.1-0.6c0.1,0,0.6,0.6,1.4,1.7c0.9,1.1,1.4,1.7,1.7,1.7C27.5,96.8,27.5,96.8,27.5,96.8L27.5,96.8z M28.9,99.9
		c-0.3,0-0.7,0.1-1,0.4c-0.4,0.3-0.5,0.7-0.5,1.3c0,0.2,0,0.3,0.1,0.5c0.1,0.2,0.2,0.3,0.5,0.5s0.6,0.3,1,0.3c1.1,0,1.7-0.5,1.7-1.4
		c0-0.4-0.2-0.8-0.5-1.1C29.7,100,29.3,99.9,28.9,99.9z M28.9,100.8c0.4,0,0.6,0.2,0.6,0.7c0,0.3-0.2,0.5-0.7,0.5
		c-0.4,0-0.6-0.2-0.6-0.5C28.3,101,28.5,100.8,28.9,100.8z M31.8,97.6c0-0.4-0.2-0.8-0.5-1.2c-0.3-0.3-0.7-0.5-1.1-0.5
		c-0.5,0-1,0.1-1.3,0.4c-0.4,0.3-0.5,0.7-0.5,1.2c0,1,0.6,1.6,1.7,1.6c0.4,0,0.8-0.2,1.2-0.5C31.7,98.4,31.8,98,31.8,97.6z
		 M29.5,97.6c0-0.2,0.1-0.3,0.2-0.5c0.2-0.2,0.3-0.2,0.5-0.2c0.2,0,0.3,0.1,0.4,0.2c0.1,0.2,0.2,0.3,0.2,0.5c0,0.4-0.2,0.5-0.7,0.5
		C29.7,98.1,29.5,98,29.5,97.6z M33.3,105c0-1-0.5-1.6-1.5-1.6c-1,0-1.4,0.4-1.4,1.3c0,0.4,0.1,0.8,0.4,1.1c0.3,0.3,0.7,0.5,1.2,0.5
		C32.9,106.3,33.3,105.9,33.3,105L33.3,105z M32.7,99.6c-0.4,0-0.8,0.2-1.1,0.5c-0.3,0.3-0.4,0.7-0.4,1.2c0,1,0.6,1.5,1.9,1.5
		c0.5,0,0.8-0.2,1.1-0.5c0.3-0.4,0.4-0.7,0.4-1C34.6,100.2,34,99.6,32.7,99.6L32.7,99.6z M31.3,104.9c0-0.4,0.2-0.6,0.6-0.6
		c0.4,0,0.6,0.2,0.6,0.7c0,0.3-0.2,0.5-0.5,0.5C31.5,105.4,31.3,105.3,31.3,104.9L31.3,104.9z M34.8,94.3c0-0.3-0.1-0.6-0.4-0.8
		c-0.3-0.3-0.6-0.4-1-0.4c-1.2,0-1.7,0.6-1.7,1.7c0,0.3,0.1,0.6,0.4,0.7s0.6,0.3,0.9,0.3c0.4,0,0.8-0.2,1.2-0.5
		C34.6,95,34.8,94.6,34.8,94.3z M33.5,101.3c0,0.3-0.2,0.5-0.5,0.5c-0.4,0-0.7-0.2-0.7-0.5c0-0.4,0.2-0.7,0.6-0.7
		S33.5,100.9,33.5,101.3z M33.2,95c-0.4,0-0.7-0.2-0.7-0.6c0-0.4,0.3-0.6,0.8-0.6c0.4,0,0.5,0.2,0.5,0.5C33.9,94.8,33.7,95,33.2,95
		L33.2,95z M34.7,99.3c0.1,0,0.3,0,0.5-0.1c0.2-0.1,0.5-0.2,0.7-0.5c0.3-0.3,0.4-0.7,0.4-1.2c0-0.5-0.1-0.9-0.4-1.1
		c-0.3-0.2-0.6-0.3-0.9-0.3c-0.4,0-0.8,0.1-1.3,0.4c-0.5,0.2-0.7,0.6-0.7,1.2c0,0.4,0.2,0.8,0.5,1.2C33.8,99.2,34.2,99.3,34.7,99.3
		L34.7,99.3z M34.8,97.2c0.4,0,0.7,0.2,0.7,0.6c0,0.4-0.2,0.6-0.7,0.6c-0.4,0-0.7-0.2-0.7-0.6C34.1,97.4,34.3,97.2,34.8,97.2z
		 M37.2,104.8c0-0.4-0.2-0.8-0.6-1c-0.4-0.2-0.7-0.3-1.1-0.3c-0.9,0-1.3,0.6-1.3,1.7c0,0.9,0.4,1.3,1.3,1.3c0.2,0,0.4,0,0.6-0.1
		c0.2-0.1,0.4-0.2,0.7-0.5C37,105.7,37.2,105.3,37.2,104.8L37.2,104.8z M35.7,104.6c0.4,0,0.5,0.2,0.5,0.5c0,0.5-0.2,0.7-0.6,0.7
		c-0.4,0-0.5-0.2-0.5-0.7C35.1,104.8,35.3,104.6,35.7,104.6z M35.2,100.8c0,0.4,0.2,0.8,0.5,1c0.3,0.2,0.7,0.4,1.1,0.4
		c1,0,1.5-0.5,1.5-1.4c0-0.4-0.1-0.7-0.4-1s-0.6-0.4-1-0.4c-0.5,0-0.9,0.1-1.2,0.4C35.3,100.1,35.2,100.4,35.2,100.8z M37.2,95.8
		c0.3,0,0.6-0.1,1-0.4c0.4-0.2,0.6-0.6,0.6-1.1c0-0.8-0.4-1.3-1.3-1.3c-1.1,0-1.6,0.5-1.6,1.4c0,0.4,0.1,0.8,0.4,1
		C36.4,95.6,36.8,95.8,37.2,95.8L37.2,95.8z M36.8,100.2c0.4,0,0.6,0.2,0.6,0.7c0,0.4-0.2,0.5-0.7,0.5c-0.4,0-0.5-0.2-0.5-0.6
		C36.2,100.5,36.4,100.2,36.8,100.2L36.8,100.2z M37.2,95c-0.4,0-0.5-0.2-0.5-0.5c0-0.4,0.2-0.7,0.6-0.7c0.4,0,0.6,0.2,0.6,0.5
		C37.9,94.8,37.7,95,37.2,95z M37.6,103.6c0,0.3,0.2,0.5,0.5,0.8c0.4,0.2,0.7,0.4,0.9,0.4c0.4,0,0.7-0.1,1-0.4
		c0.3-0.3,0.4-0.5,0.4-0.8c0-0.4-0.1-0.7-0.4-1c-0.3-0.3-0.6-0.4-1-0.4c-0.4,0-0.7,0.2-1,0.5C37.8,102.9,37.6,103.2,37.6,103.6
		L37.6,103.6z M37.9,97c0,0.9,0.5,1.4,1.4,1.4c0.4,0,0.8-0.1,1.1-0.4c0.3-0.3,0.5-0.6,0.5-1c0-1-0.5-1.4-1.4-1.4
		c-0.5,0-0.9,0.1-1.2,0.4C38.1,96.3,37.9,96.6,37.9,97L37.9,97z M39.6,103.4c0,0.1-0.1,0.2-0.2,0.4s-0.2,0.2-0.3,0.2
		c-0.4,0-0.6-0.1-0.6-0.4c0-0.4,0.2-0.7,0.5-0.7C39.4,102.9,39.6,103,39.6,103.4L39.6,103.4z M39,97.1c0-0.4,0.2-0.7,0.6-0.7
		c0.4,0,0.5,0.2,0.5,0.6c0,0.4-0.2,0.6-0.7,0.6C39.2,97.6,39,97.4,39,97.1L39,97.1z M40.4,101.7c1.1,0,1.6-0.4,1.6-1.3
		c0-0.4-0.1-0.7-0.4-1c-0.2-0.3-0.6-0.5-1-0.5c-0.3,0-0.7,0.1-1,0.4c-0.4,0.2-0.5,0.6-0.5,1.1c0,0.4,0.1,0.7,0.4,1
		C39.7,101.6,40,101.7,40.4,101.7L40.4,101.7z M40.7,101c-0.5,0-0.7-0.2-0.7-0.5c0-0.2,0.1-0.4,0.2-0.5c0.2-0.1,0.3-0.2,0.5-0.2
		c0.3,0,0.5,0.2,0.5,0.7C41.2,100.8,41,101,40.7,101L40.7,101z"/>
	<path id="path78" inkscape:connector-curvature="0" class="st2" d="M35.9,116.7c-0.3,0-0.8-0.1-1.4-0.2c-0.6-0.1-1.1-0.2-1.4-0.2
		c-0.2,0-0.6,0.1-1.2,0.4c-0.6,0.2-1.1,0.4-1.4,0.4c-0.2,0-0.6,0-1.3-0.1c-0.6-0.1-1.1-0.1-1.4-0.1c-2.4,0-4.4,0.3-6.2,1
		c-0.1-0.2-0.1-0.4-0.1-0.7c0-1.7,0.6-3.1,1.7-4.3c1.1-1.2,2.2-1.8,3.3-1.8c0.3,0,0.7,0.1,1.1,0.2c0.4,0.1,0.6,0.2,0.7,0.2
		c0.2,0,0.2-0.1,0.2-0.2c0,0,0-0.1-0.1-0.3c-0.1-0.1-0.1-0.2-0.1-0.3c0-0.2,0-0.3,0.1-0.3s0.2,0.1,0.3,0.2c0.1,0.2,0.2,0.4,0.3,0.8
		c0.1,0.4,0.1,0.8,0.1,1.2c0,0.2,0,0.6,0,1.1c0,0.5,0,0.8,0,1c0,1.4,0.4,2,1.3,2c0.3,0,0.8-0.1,1.4-0.4c0.7-0.3,1.2-0.4,1.7-0.4
		c0.1,0,0.3,0,0.4,0c0.2,0,0.3,0,0.4,0c0.6,0,1-0.4,1-1.3c0-0.3-0.2-0.5-0.5-0.8c-0.3-0.3-0.7-0.4-1-0.4c-0.4,0-0.9,0.3-1.4,1
		c-0.5,0.7-1,1-1.3,1c-0.6,0-1-0.5-1-1.4c0-0.4,0.1-1,0.3-1.7c0.2-0.7,0.3-1.3,0.3-1.6c0-0.5-0.1-0.8-0.3-1
		c-0.2-0.2-0.4-0.3-0.7-0.4c-0.2,0-0.4-0.1-0.4-0.1c0-0.1,0.1-0.1,0.4-0.1c0.4,0,0.8,0.2,1.1,0.6c0.3,0.4,0.5,0.6,0.6,0.6
		c0.1,0,0.2-0.2,0.5-0.5s0.6-0.7,1.1-1c0.5-0.3,1.1-0.5,1.7-0.5c0.8,0,1.5,0.4,2,1.1c0.5,0.7,0.8,1.1,0.8,1.1l0.9-0.2
		c0.6-0.2,1.3-0.3,2.2-0.3c1.2,0,2.5,0.6,3.8,1.9s2,2.8,2,4.6l-0.2,1c-0.1,0-0.8-0.1-2.2-0.4c-1.4-0.2-2.5-0.4-3.4-0.4
		c-1.4,0-2.4,0-3.1,0.1C36.6,116.6,36.1,116.7,35.9,116.7L35.9,116.7z M24.7,116.2c0-0.2-0.2-0.2-0.7-0.2c-0.4,0-0.7,0-0.9,0.1
		c-0.3,0.1-0.4,0.2-0.5,0.3c-0.1,0.1-0.1,0.2-0.1,0.3c0,0.2,0.1,0.2,0.2,0.2c0.2,0,0.6-0.1,1.2-0.3S24.7,116.3,24.7,116.2
		L24.7,116.2z M22.7,115.2c0,0.2,0.2,0.2,0.6,0.2c0.3,0,0.6-0.1,1-0.2c0.4-0.1,0.6-0.2,0.6-0.3c0-0.2-0.2-0.3-0.7-0.3
		C23.2,114.6,22.7,114.8,22.7,115.2z M24.4,113.4c-0.7,0-1.1,0.1-1.1,0.4c0,0.2,0.4,0.3,1.1,0.3c0.6,0,1-0.1,1-0.3
		C25.4,113.5,25.1,113.4,24.4,113.4z M24.3,112.6c0,0.2,0.4,0.4,1.3,0.4c0.3,0,0.4-0.1,0.4-0.2c0-0.3-0.3-0.5-1-0.5
		C24.5,112.3,24.3,112.4,24.3,112.6L24.3,112.6z M25.2,111.7c0,0.2,0.4,0.3,1.1,0.3c0.2,0,0.4-0.1,0.4-0.2c0-0.2-0.3-0.4-0.9-0.4
		C25.4,111.5,25.2,111.5,25.2,111.7L25.2,111.7z M28.4,115.8c-2,0-3,0.1-3,0.3c0,0.2,0.3,0.2,0.8,0.2c0.2,0,0.5,0,0.9,0
		c0.4,0,0.8,0,1,0c0.5,0,0.8-0.1,0.8-0.2C28.8,115.8,28.7,115.8,28.4,115.8L28.4,115.8z M28.6,115.1c0-0.3-0.8-0.5-2.3-0.5
		c-0.5,0-0.7,0.1-0.7,0.3c0,0.1,0,0.1,0.1,0.1c0,0,0.1,0,0.3,0.1c0.1,0,0.3,0,0.4,0s0.4,0,0.7,0c0.3,0,0.6,0,0.9,0.1
		C28.3,115.3,28.6,115.2,28.6,115.1L28.6,115.1z M28.5,114.2c0-0.3-0.5-0.5-1.6-0.5c-0.5,0-0.8,0.1-0.8,0.3c0,0.2,0.6,0.3,1.9,0.3
		C28.3,114.3,28.5,114.2,28.5,114.2z M26.6,113.1c0,0,0.3,0.1,0.8,0.2c0.5,0.1,0.8,0.1,0.9,0.1c0.2,0,0.2,0,0.2-0.1
		c0-0.1-0.1-0.2-0.2-0.2c-0.1-0.1-0.3-0.2-0.5-0.2c-0.2-0.1-0.5-0.1-0.7-0.1C26.7,112.8,26.6,112.9,26.6,113.1L26.6,113.1z
		 M27,112.2c0,0.1,0.2,0.2,0.6,0.4c0.4,0.1,0.7,0.2,0.9,0.2c0.1,0,0.1,0,0.1-0.1c0-0.1-0.1-0.2-0.4-0.4c-0.3-0.2-0.6-0.2-0.9-0.2
		C27.1,112,27,112.1,27,112.2z M28.6,111.8c0-0.3-0.3-0.4-0.8-0.4c-0.2,0-0.4,0-0.4,0.1c0,0.1,0.1,0.2,0.4,0.3
		c0.3,0.1,0.5,0.1,0.6,0.1C28.6,111.9,28.6,111.9,28.6,111.8z M29.9,110.7c0,0.1-0.1,0.2-0.2,0.2c-0.1,0-0.3-0.1-0.4-0.4
		c-0.2-0.2-0.2-0.4-0.2-0.6c0-0.1,0-0.1,0.1-0.1c0.2,0,0.3,0.1,0.5,0.3C29.8,110.3,29.9,110.5,29.9,110.7z M31.2,113.3
		c0-0.2-0.1-0.4-0.4-0.4c-0.3,0-0.5,0.3-0.5,0.9c0,0.2,0.1,0.4,0.2,0.4c0.1,0,0.2-0.1,0.4-0.3C31.2,113.7,31.2,113.5,31.2,113.3z
		 M32,113.9c0-0.2-0.1-0.3-0.2-0.3c-0.2,0-0.3,0.1-0.6,0.4c-0.2,0.3-0.3,0.5-0.3,0.6c0,0.2,0.1,0.2,0.2,0.2c0.1,0,0.3-0.1,0.5-0.4
		C31.9,114.3,32,114.1,32,113.9L32,113.9z M31.7,112.8c0.1,0,0.2-0.1,0.3-0.2c0.1-0.2,0.1-0.3,0.1-0.4c0-0.3-0.1-0.5-0.4-0.5
		c-0.5,0-0.7,0.2-0.7,0.6C30.9,112.7,31.2,112.8,31.7,112.8z M32.9,109.7c0-0.2-0.1-0.2-0.4-0.2c-0.4,0-0.6,0.2-0.6,0.5
		c0,0.2,0.1,0.3,0.4,0.3C32.7,110.3,32.9,110.1,32.9,109.7z M32.4,111.7c0.3,0,0.4-0.2,0.4-0.5c0-0.3-0.1-0.4-0.4-0.4
		c-0.3,0-0.5,0.2-0.5,0.5C32,111.6,32.1,111.7,32.4,111.7z M32.6,112.5c-0.1,0-0.2,0.1-0.3,0.2c-0.1,0.1-0.1,0.2-0.1,0.3
		c0,0.3,0.1,0.4,0.4,0.4c0.3,0,0.4-0.2,0.4-0.5C33,112.6,32.8,112.5,32.6,112.5L32.6,112.5z M33.3,108.7c-0.3,0-0.5,0.1-0.5,0.4
		c0,0.2,0.2,0.4,0.5,0.4c0.1,0,0.2,0,0.2,0c0.1-0.1,0.1-0.1,0.1-0.3C33.7,108.8,33.6,108.7,33.3,108.7L33.3,108.7z M33.3,110.9
		c0.3,0,0.4-0.1,0.4-0.4c0-0.3-0.1-0.4-0.4-0.4c-0.3,0-0.4,0.1-0.4,0.4C32.9,110.7,33.1,110.9,33.3,110.9z M33.9,112.1
		c0-0.3-0.1-0.5-0.4-0.5c-0.4,0-0.5,0.1-0.5,0.4c0,0.3,0.2,0.5,0.5,0.5S33.9,112.3,33.9,112.1L33.9,112.1z M34.2,110.7
		c-0.3,0-0.5,0.2-0.5,0.5c0,0.1,0,0.2,0.1,0.3c0.1,0.1,0.2,0.2,0.3,0.2c0.3,0,0.5-0.1,0.5-0.4C34.7,110.9,34.5,110.7,34.2,110.7
		L34.2,110.7z M34.1,110.1c0.4,0,0.5-0.2,0.5-0.5c0-0.2-0.1-0.4-0.4-0.4c-0.3,0-0.5,0.2-0.5,0.5C33.8,110,33.9,110.1,34.1,110.1z
		 M34.2,108.4c-0.3,0-0.4,0.1-0.4,0.3c0,0.2,0.1,0.3,0.4,0.3c0.2,0,0.4-0.1,0.4-0.3C34.6,108.5,34.5,108.4,34.2,108.4z M36,116.2
		c0.2,0,1-0.1,2.2-0.3c1.2-0.2,2.3-0.3,3.4-0.3c0.6,0,0.8-0.1,0.8-0.2c0-0.3-0.4-0.5-1.1-0.5c-0.4,0-1.1,0.1-2,0.2
		c-0.9,0.2-1.5,0.2-1.7,0.2c-0.2,0-0.2,0-0.2-0.1c0-0.2,0.5-0.4,1.6-0.6c1-0.2,1.8-0.3,2.2-0.3c0.4,0,0.7-0.1,0.7-0.3
		s-0.2-0.3-0.6-0.3c-0.4,0-1,0.1-1.8,0.3c-0.8,0.2-1.3,0.3-1.5,0.3c-0.1,0-0.2,0-0.2-0.1c0-0.3,0.9-0.6,2.7-0.8
		c0.4,0,0.7-0.2,0.7-0.4c0-0.1-0.1-0.2-0.4-0.2c-0.3,0-0.8,0.1-1.5,0.3c-0.7,0.2-1.2,0.3-1.3,0.3c-0.2,0-0.2-0.1,0.1-0.3
		c0.1-0.1,0.2-0.1,0.2-0.2c0.2-0.1,0.5-0.2,0.8-0.3c0.3-0.1,0.5-0.2,0.6-0.2c0.1,0,0.3-0.1,0.4-0.1c0.1,0,0.2-0.1,0.3-0.1
		c0-0.1,0.1-0.1,0.1-0.1c0-0.1-0.1-0.2-0.3-0.2c-0.2,0-0.6,0.1-1.2,0.3c-0.6,0.2-0.9,0.3-1,0.3c-0.1,0-0.2,0-0.2-0.1
		c0-0.1,0.4-0.3,1.1-0.7c0.7-0.3,1.1-0.5,1.1-0.6c0-0.1-0.1-0.2-0.2-0.2c-0.1,0-0.5,0.1-1,0.4c-0.6,0.3-0.9,0.4-1.1,0.4
		c-0.1,0-0.1,0-0.1-0.1c0-0.2,0.3-0.4,1-0.7c0.7-0.3,1-0.6,1-0.7c0-0.1-0.1-0.1-0.2-0.1c-0.3,0-0.6,0.1-1,0.3
		c-0.4,0.2-0.8,0.4-1,0.6l-0.5,0.3c-0.2,0-0.2-0.1-0.2-0.2c0,0,0.1-0.2,0.2-0.4c0.1-0.2,0.2-0.4,0.2-0.4c0-0.2-0.1-0.2-0.4-0.2
		c-0.2,0-0.7,0.4-1.3,1.1c-0.6,0.7-1,1.1-1,1.3c0,0,0.3,0.2,0.8,0.6c0.5,0.3,0.8,0.8,0.8,1.5c0,0.6-0.2,1.1-0.5,1.4
		C35.4,116.2,35.7,116.2,36,116.2L36,116.2z M35.6,110.3c0-0.2-0.2-0.4-0.5-0.4c-0.1,0-0.2,0.1-0.3,0.2c-0.1,0.1-0.2,0.2-0.2,0.4
		c0,0.2,0.2,0.4,0.5,0.4c0.1,0,0.2-0.1,0.4-0.2C35.5,110.5,35.6,110.4,35.6,110.3L35.6,110.3z M35.2,108.5c-0.3,0-0.4,0.2-0.4,0.5
		c0,0.2,0.1,0.3,0.4,0.3c0.4,0,0.5-0.1,0.5-0.4C35.7,108.7,35.6,108.5,35.2,108.5L35.2,108.5z M36.3,109.6c0-0.2-0.1-0.3-0.3-0.3
		c-0.2,0-0.4,0.1-0.4,0.3c0,0.2,0.1,0.4,0.3,0.4C36.2,110,36.3,109.9,36.3,109.6z M38.2,108.5c1.1-1.2,2.3-2.2,3.5-3
		c1.2-0.8,2.1-1.1,2.7-1.1c0.2,0,0.4,0.1,0.4,0.2c0,0.1,0,0.1-0.1,0.2c-0.2,0.2-0.6,0.4-1.3,0.7c-0.6,0.3-1.1,0.5-1.3,0.6
		c-0.8,0.5-1.5,1-2.2,1.5c-0.7,0.5-1.1,0.8-1.4,1c-0.3,0.2-0.4,0.3-0.5,0.3C38,108.8,38,108.7,38.2,108.5L38.2,108.5z M40.3,111
		c0,0.2,0.1,0.2,0.2,0.2c1,0,1.6-0.1,1.6-0.4c0-0.2-0.2-0.2-0.5-0.2c-0.2,0-0.5,0.1-0.8,0.1C40.4,110.8,40.3,110.9,40.3,111z
		 M40.3,108.4c0,0,0.2-0.2,0.7-0.6c0.5-0.3,1-0.7,1.7-1c0.7-0.3,1.2-0.5,1.5-0.5c0.4,0,0.5,0.1,0.5,0.2c0,0.1-1.3,0.7-4,1.9
		C40.4,108.5,40.3,108.5,40.3,108.4L40.3,108.4z M42.6,111.5c-0.9,0-1.4,0.2-1.4,0.5c0,0.1,0.1,0.2,0.4,0.2c0.1,0,0.3,0,0.7,0
		c0.3,0,0.5,0,0.6,0c0.2,0,0.4-0.1,0.4-0.2C43.2,111.6,43,111.5,42.6,111.5L42.6,111.5z M41.4,109c0,0,0.1-0.1,0.4-0.3
		c0.3-0.1,0.6-0.3,1-0.4c0.4-0.1,0.7-0.2,1-0.2c0.4,0,0.6,0.1,0.7,0.4c0,0.1,0,0.1-0.1,0.1c-0.1,0-0.3,0-0.5,0
		c-0.4,0-0.8,0.1-1.2,0.1c-0.4,0.1-0.6,0.1-0.8,0.2c-0.2,0-0.3,0.1-0.3,0.1C41.5,109.1,41.4,109.1,41.4,109L41.4,109z M42,113.1
		c0,0.2,0.5,0.2,1.6,0.2c0.4,0,0.5-0.1,0.5-0.2c0-0.2-0.3-0.4-1-0.4C42.4,112.8,42,112.9,42,113.1L42,113.1z M45,114.5
		c0-0.4-0.5-0.5-1.6-0.5c-0.3,0-0.5,0-0.7,0.1c-0.1,0-0.2,0.1-0.1,0.2c0,0.1,0.3,0.2,0.9,0.3c0.6,0.1,0.9,0.1,1.1,0.1
		C44.9,114.7,45,114.6,45,114.5z M44.6,115.4c-0.3-0.1-0.7-0.1-1-0.1c-0.4,0-0.5,0.1-0.5,0.2c0,0.4,0.6,0.6,1.9,0.7
		c0.2,0,0.3,0,0.3-0.2C45.2,115.7,45,115.5,44.6,115.4L44.6,115.4z"/>
</g>
</svg>
