<?xml version="1.0" encoding="utf-8"?>
<!-- Generator: Adobe Illustrator 25.0.1, SVG Export Plug-In . SVG Version: 6.00 Build 0)  -->
<svg version="1.1"
	 id="图层_1" inkscape:version="0.92.3 (2405546, 2018-03-11)" xmlns:cc="http://creativecommons.org/ns#" xmlns:dc="http://purl.org/dc/elements/1.1/" xmlns:inkscape="http://www.inkscape.org/namespaces/inkscape" xmlns:rdf="http://www.w3.org/1999/02/22-rdf-syntax-ns#" xmlns:sodipodi="http://sodipodi.sourceforge.net/DTD/sodipodi-0.dtd" xmlns:svg="http://www.w3.org/2000/svg"
	 xmlns="http://www.w3.org/2000/svg" xmlns:xlink="http://www.w3.org/1999/xlink" x="0px" y="0px" viewBox="0 0 139.8 200"
	 style="enable-background:new 0 0 139.8 200;" xml:space="preserve">
<style type="text/css">
	.st0{fill:#FFFFFF;}
	.st1{fill:#133F00;}
</style>
<path class="st0" d="M112,200.5H28c-15.4,0-27.9-12.5-27.9-27.9V28.4C0.1,13,12.6,0.5,28,0.5h84c15.4,0,27.9,12.5,27.9,27.9v144.2
	C139.9,188,127.4,200.5,112,200.5z"/>
<sodipodi:namedview  bordercolor="#666666" borderopacity="1" gridtolerance="10" guidetolerance="10" id="namedview617" inkscape:current-layer="图层_1" inkscape:cx="-7.16014" inkscape:cy="112.60966" inkscape:pageopacity="0" inkscape:pageshadow="2" inkscape:window-height="705" inkscape:window-maximized="1" inkscape:window-width="1366" inkscape:window-x="-8" inkscape:window-y="-8" inkscape:zoom="1" objecttolerance="10" pagecolor="#ffffff" showgrid="false">
	</sodipodi:namedview>
<g id="g1770" transform="matrix(4.0331525,0,0,4.0331525,-220.96433,-322.32955)">
	<path id="path80" inkscape:connector-curvature="0" d="M89.4,83.5v42.4c0,1-0.3,1.8-1,2.5c-0.7,0.7-1.5,1-2.5,1H58.4
		c-1,0-1.8-0.3-2.5-1c-0.7-0.7-1-1.5-1-2.5V83.5c0-1,0.3-1.8,1-2.5s1.5-1,2.5-1h27.5c1,0,1.8,0.3,2.5,1
		C89.1,81.7,89.4,82.5,89.4,83.5z M85.9,81.7H58.4c-0.5,0-0.9,0.2-1.3,0.5c-0.3,0.3-0.5,0.8-0.5,1.3v42.4c0,0.5,0.2,0.9,0.5,1.3
		c0.3,0.3,0.8,0.5,1.3,0.5h27.5c0.5,0,0.9-0.2,1.3-0.5c0.3-0.3,0.5-0.8,0.5-1.3V83.5c0-0.5-0.2-0.9-0.5-1.3
		C86.8,81.9,86.4,81.7,85.9,81.7L85.9,81.7z"/>
	<path id="path82" inkscape:connector-curvature="0" class="st1" d="M68.5,87.3c0-0.8,1.2-1.3,3.6-1.3c2.4,0,3.6,0.4,3.6,1.3
		c0,0.7-0.5,1.3-1.5,1.8v3.8c1,0.3,1.5,0.8,1.5,1.4c0,0.6-0.5,1.1-1.5,1.4v3.8c1,0.5,1.5,1.1,1.5,1.8c0,0.8-1.2,1.3-3.6,1.3
		s-3.6-0.4-3.6-1.3c0-0.7,0.5-1.3,1.5-1.8v-3.8c-1-0.3-1.5-0.8-1.5-1.4c0-0.6,0.5-1.1,1.5-1.4v-3.8C69,88.5,68.5,87.9,68.5,87.3z
		 M68.5,108.2c0-0.8,1.2-1.3,3.6-1.3c2.4,0,3.6,0.4,3.6,1.3c0,0.7-0.5,1.3-1.5,1.8v3.8c1,0.3,1.5,0.8,1.5,1.4s-0.5,1.1-1.5,1.4v3.8
		c1,0.5,1.5,1.1,1.5,1.8c0,0.8-1.2,1.3-3.6,1.3s-3.6-0.4-3.6-1.3c0-0.7,0.5-1.3,1.5-1.8v-3.8c-1-0.3-1.5-0.8-1.5-1.4
		c0-0.6,0.5-1.1,1.5-1.4V110C69,109.5,68.5,108.9,68.5,108.2z M71.2,87.3v5.3c0.2,0,0.5-0.1,0.9-0.1s0.7,0,0.9,0.1v-5.3
		c-0.2,0-0.5-0.1-0.9-0.1C71.7,87.2,71.4,87.2,71.2,87.3z M71.2,95.4c0.1,0,0.3,0,0.5,0c0.2,0,0.3,0,0.4,0s0.2,0,0.4,0
		c0.2,0,0.4,0,0.5,0v-2.3c-0.1,0-0.3,0-0.5,0c-0.2,0-0.3,0-0.4,0c-0.1,0-0.2,0-0.4,0c-0.2,0-0.4,0-0.5,0V95.4z M73,101.2V96
		c-0.2,0-0.5,0.1-0.9,0.1c-0.4,0-0.7,0-0.9-0.1v5.3c0.2,0,0.5,0.1,0.9,0.1S72.8,101.3,73,101.2z M71.2,108.2v5.3
		c0.2,0,0.5-0.1,0.9-0.1s0.7,0,0.9,0.1v-5.3c-0.2,0-0.5-0.1-0.9-0.1C71.7,108.1,71.4,108.1,71.2,108.2z M71.2,116.3
		c0.1,0,0.3,0,0.5,0c0.2,0,0.3,0,0.4,0s0.2,0,0.4,0c0.2,0,0.4,0,0.5,0V114c-0.1,0-0.3,0-0.5,0c-0.2,0-0.3,0-0.4,0
		c-0.1,0-0.2,0-0.4,0c-0.2,0-0.4,0-0.5,0V116.3z M73,122.2v-5.3c-0.2,0-0.5,0.1-0.9,0.1c-0.4,0-0.7,0-0.9-0.1v5.3
		c0.2,0,0.5,0.1,0.9,0.1S72.8,122.2,73,122.2z"/>
</g>
</svg>
