<?xml version="1.0" encoding="utf-8"?>
<!-- Generator: Adobe Illustrator 25.0.1, SVG Export Plug-In . SVG Version: 6.00 Build 0)  -->
<svg version="1.1"
	 id="图层_1" inkscape:version="0.92.3 (2405546, 2018-03-11)" xmlns:cc="http://creativecommons.org/ns#" xmlns:dc="http://purl.org/dc/elements/1.1/" xmlns:inkscape="http://www.inkscape.org/namespaces/inkscape" xmlns:rdf="http://www.w3.org/1999/02/22-rdf-syntax-ns#" xmlns:sodipodi="http://sodipodi.sourceforge.net/DTD/sodipodi-0.dtd" xmlns:svg="http://www.w3.org/2000/svg"
	 xmlns="http://www.w3.org/2000/svg" xmlns:xlink="http://www.w3.org/1999/xlink" x="0px" y="0px" viewBox="0 0 139.8 200"
	 style="enable-background:new 0 0 139.8 200;" xml:space="preserve">
<style type="text/css">
	.st0{fill:#FFFFFF;}
	.st1{fill:#133F00;}
</style>
<path class="st0" d="M112,200.5H28c-15.4,0-27.9-12.5-27.9-27.9V28.4C0.1,13,12.6,0.5,28,0.5h84c15.4,0,27.9,12.5,27.9,27.9v144.2
	C139.9,188,127.4,200.5,112,200.5z"/>
<sodipodi:namedview  bordercolor="#666666" borderopacity="1" gridtolerance="10" guidetolerance="10" id="namedview617" inkscape:current-layer="图层_1" inkscape:cx="-30.16014" inkscape:cy="112.60966" inkscape:pageopacity="0" inkscape:pageshadow="2" inkscape:window-height="705" inkscape:window-maximized="1" inkscape:window-width="1366" inkscape:window-x="-8" inkscape:window-y="-8" inkscape:zoom="1" objecttolerance="10" pagecolor="#ffffff" showgrid="false">
	</sodipodi:namedview>
<g id="g1800" transform="matrix(4.0331583,0,0,4.0331525,-529.40042,-322.32955)">
	<path id="path88" inkscape:connector-curvature="0" d="M165.9,83.5v42.4c0,1-0.3,1.8-1,2.5c-0.7,0.7-1.5,1-2.5,1h-27.5
		c-1,0-1.8-0.3-2.5-1c-0.7-0.7-1-1.5-1-2.5V83.5c0-1,0.3-1.8,1-2.5c0.7-0.7,1.5-1,2.5-1h27.5c1,0,1.8,0.3,2.5,1
		C165.6,81.7,165.9,82.5,165.9,83.5z M162.3,81.7h-27.5c-0.5,0-0.9,0.2-1.3,0.5c-0.3,0.3-0.5,0.8-0.5,1.3v42.4
		c0,0.5,0.2,0.9,0.5,1.3c0.3,0.3,0.8,0.5,1.3,0.5h27.5c0.5,0,0.9-0.2,1.3-0.5c0.3-0.3,0.5-0.8,0.5-1.3V83.5c0-0.5-0.2-0.9-0.5-1.3
		C163.3,81.9,162.8,81.7,162.3,81.7z"/>
	<path id="path90" inkscape:connector-curvature="0" class="st1" d="M138.4,87.3c0-0.8,1.2-1.3,3.6-1.3c2.4,0,3.6,0.4,3.6,1.3
		c0,0.7-0.5,1.3-1.5,1.8v3.8c1,0.3,1.5,0.8,1.5,1.4c0,0.6-0.5,1.1-1.5,1.4v3.8c1,0.5,1.5,1.1,1.5,1.8c0,0.8-1.2,1.3-3.6,1.3
		s-3.6-0.4-3.6-1.3c0-0.7,0.5-1.3,1.5-1.8v-3.8c-1-0.3-1.5-0.8-1.5-1.4c0-0.6,0.5-1.1,1.5-1.4v-3.8
		C138.9,88.5,138.4,87.9,138.4,87.3z M138.4,108.2c0-0.8,1.2-1.3,3.6-1.3c2.4,0,3.6,0.4,3.6,1.3c0,0.7-0.5,1.3-1.5,1.8v3.8
		c1,0.3,1.5,0.8,1.5,1.4s-0.5,1.1-1.5,1.4v3.8c1,0.5,1.5,1.1,1.5,1.8c0,0.8-1.2,1.3-3.6,1.3s-3.6-0.4-3.6-1.3c0-0.7,0.5-1.3,1.5-1.8
		v-3.8c-1-0.3-1.5-0.8-1.5-1.4c0-0.6,0.5-1.1,1.5-1.4V110C138.9,109.5,138.4,108.9,138.4,108.2z M141.1,87.3v5.3
		c0.2,0,0.5-0.1,0.9-0.1s0.7,0,0.9,0.1v-5.3c-0.2,0-0.5-0.1-0.9-0.1C141.6,87.2,141.3,87.2,141.1,87.3L141.1,87.3z M141.1,95.4
		c0.1,0,0.3,0,0.5,0c0.2,0,0.3,0,0.4,0s0.2,0,0.4,0c0.2,0,0.4,0,0.5,0v-2.3c-0.1,0-0.3,0-0.5,0c-0.2,0-0.3,0-0.4,0
		c-0.1,0-0.2,0-0.4,0c-0.2,0-0.4,0-0.5,0V95.4z M142.9,101.2V96c-0.2,0-0.5,0.1-0.9,0.1c-0.4,0-0.7,0-0.9-0.1v5.3
		c0.2,0,0.5,0.1,0.9,0.1C142.4,101.3,142.7,101.3,142.9,101.2z M141.1,108.2v5.3c0.2,0,0.5-0.1,0.9-0.1s0.7,0,0.9,0.1v-5.3
		c-0.2,0-0.5-0.1-0.9-0.1C141.6,108.1,141.3,108.1,141.1,108.2L141.1,108.2z M141.1,116.3c0.1,0,0.3,0,0.5,0c0.2,0,0.3,0,0.4,0
		s0.2,0,0.4,0c0.2,0,0.4,0,0.5,0V114c-0.1,0-0.3,0-0.5,0c-0.2,0-0.3,0-0.4,0c-0.1,0-0.2,0-0.4,0c-0.2,0-0.4,0-0.5,0V116.3z
		 M142.9,122.2v-5.3c-0.2,0-0.5,0.1-0.9,0.1c-0.4,0-0.7,0-0.9-0.1v5.3c0.2,0,0.5,0.1,0.9,0.1C142.4,122.2,142.7,122.2,142.9,122.2z
		 M151.6,87.3c0-0.8,1.2-1.3,3.6-1.3s3.6,0.4,3.6,1.3c0,0.7-0.5,1.3-1.5,1.8v3.8c1,0.3,1.5,0.8,1.5,1.4c0,0.6-0.5,1.1-1.5,1.4v3.8
		c1,0.5,1.5,1.1,1.5,1.8c0,0.8-1.2,1.3-3.6,1.3c-2.4,0-3.6-0.4-3.6-1.3c0-0.7,0.5-1.3,1.5-1.8v-3.8c-1-0.3-1.5-0.8-1.5-1.4
		c0-0.6,0.5-1.1,1.5-1.4v-3.8C152.1,88.5,151.6,87.9,151.6,87.3z M151.6,108.2c0-0.8,1.2-1.3,3.6-1.3s3.6,0.4,3.6,1.3
		c0,0.7-0.5,1.3-1.5,1.8v3.8c1,0.3,1.5,0.8,1.5,1.4s-0.5,1.1-1.5,1.4v3.8c1,0.5,1.5,1.1,1.5,1.8c0,0.8-1.2,1.3-3.6,1.3
		c-2.4,0-3.6-0.4-3.6-1.3c0-0.7,0.5-1.3,1.5-1.8v-3.8c-1-0.3-1.5-0.8-1.5-1.4c0-0.6,0.5-1.1,1.5-1.4V110
		C152.1,109.5,151.6,108.9,151.6,108.2z M154.3,87.3v5.3c0.2,0,0.5-0.1,0.9-0.1c0.4,0,0.7,0,0.9,0.1v-5.3c-0.2,0-0.5-0.1-0.9-0.1
		C154.8,87.2,154.5,87.2,154.3,87.3L154.3,87.3z M154.3,95.4c0.1,0,0.3,0,0.5,0c0.2,0,0.3,0,0.4,0c0.1,0,0.2,0,0.4,0
		c0.2,0,0.4,0,0.5,0v-2.3c-0.1,0-0.3,0-0.5,0c-0.2,0-0.3,0-0.4,0c-0.1,0-0.2,0-0.4,0c-0.2,0-0.4,0-0.5,0V95.4z M156.1,101.3V96
		c-0.2,0-0.5,0.1-0.9,0.1c-0.4,0-0.7,0-0.9-0.1v5.3c0.2,0,0.5,0.1,0.9,0.1C155.6,101.3,155.9,101.3,156.1,101.3z M154.3,108.2v5.3
		c0.2,0,0.5-0.1,0.9-0.1c0.4,0,0.7,0,0.9,0.1v-5.3c-0.2,0-0.5-0.1-0.9-0.1C154.8,108.1,154.5,108.1,154.3,108.2L154.3,108.2z
		 M154.3,116.3c0.1,0,0.3,0,0.5,0c0.2,0,0.3,0,0.4,0c0.1,0,0.2,0,0.4,0c0.2,0,0.4,0,0.5,0V114c-0.1,0-0.3,0-0.5,0
		c-0.2,0-0.3,0-0.4,0c-0.1,0-0.2,0-0.4,0c-0.2,0-0.4,0-0.5,0V116.3z M156.1,122.2v-5.3c-0.2,0-0.5,0.1-0.9,0.1c-0.4,0-0.7,0-0.9-0.1
		v5.3c0.2,0,0.5,0.1,0.9,0.1C155.6,122.2,155.9,122.2,156.1,122.2z"/>
</g>
</svg>
