<?xml version="1.0" encoding="utf-8"?>
<!-- Generator: Adobe Illustrator 25.0.1, SVG Export Plug-In . SVG Version: 6.00 Build 0)  -->
<svg version="1.1"
	 id="图层_1" inkscape:version="0.92.3 (2405546, 2018-03-11)" xmlns:cc="http://creativecommons.org/ns#" xmlns:dc="http://purl.org/dc/elements/1.1/" xmlns:inkscape="http://www.inkscape.org/namespaces/inkscape" xmlns:rdf="http://www.w3.org/1999/02/22-rdf-syntax-ns#" xmlns:sodipodi="http://sodipodi.sourceforge.net/DTD/sodipodi-0.dtd" xmlns:svg="http://www.w3.org/2000/svg"
	 xmlns="http://www.w3.org/2000/svg" xmlns:xlink="http://www.w3.org/1999/xlink" x="0px" y="0px" viewBox="0 0 139.8 200"
	 style="enable-background:new 0 0 139.8 200;" xml:space="preserve">
<style type="text/css">
	.st0{fill:#FFFFFF;}
	.st1{fill:#870000;}
	.st2{fill:#133F00;}
</style>
<path class="st0" d="M112,200.5H28c-15.4,0-27.9-12.5-27.9-27.9V28.4C0.1,13,12.6,0.5,28,0.5h84c15.4,0,27.9,12.5,27.9,27.9v144.2
	C139.9,188,127.4,200.5,112,200.5z"/>
<sodipodi:namedview  bordercolor="#666666" borderopacity="1" gridtolerance="10" guidetolerance="10" id="namedview617" inkscape:current-layer="图层_1" inkscape:cx="-24.66014" inkscape:cy="112.60966" inkscape:pageopacity="0" inkscape:pageshadow="2" inkscape:window-height="705" inkscape:window-maximized="1" inkscape:window-width="1366" inkscape:window-x="-8" inkscape:window-y="-8" inkscape:zoom="1" objecttolerance="10" pagecolor="#ffffff" showgrid="false">
	</sodipodi:namedview>
<g id="g1848" transform="matrix(4.0331525,0,0,4.0331525,-992.04259,-322.32955)">
	<path id="path102" inkscape:connector-curvature="0" d="M280.6,83.5v42.4c0,1-0.3,1.8-1,2.5c-0.7,0.7-1.5,1-2.5,1h-27.5
		c-1,0-1.8-0.3-2.5-1c-0.7-0.7-1-1.5-1-2.5V83.5c0-1,0.3-1.8,1-2.5c0.7-0.7,1.5-1,2.5-1H277c1,0,1.8,0.3,2.5,1
		C280.3,81.7,280.6,82.5,280.6,83.5z M277,81.7h-27.5c-0.5,0-0.9,0.2-1.3,0.5c-0.3,0.3-0.5,0.8-0.5,1.3v42.4c0,0.5,0.2,0.9,0.5,1.3
		c0.3,0.3,0.8,0.5,1.3,0.5H277c0.5,0,0.9-0.2,1.3-0.5c0.3-0.3,0.5-0.8,0.5-1.3V83.5c0-0.5-0.2-0.9-0.5-1.3
		C278,81.9,277.6,81.7,277,81.7z"/>
	<path id="path104" inkscape:connector-curvature="0" class="st1" d="M259.8,85.1c0-0.8,1.2-1.3,3.5-1.3s3.5,0.4,3.5,1.3
		c0,0.7-0.5,1.3-1.5,1.8v2c1,0.3,1.5,0.8,1.5,1.4s-0.5,1.1-1.5,1.4v2c1,0.5,1.5,1.1,1.5,1.8c0,0.8-1.2,1.3-3.5,1.3s-3.5-0.4-3.5-1.3
		c0-0.7,0.5-1.3,1.5-1.8v-2c-1-0.3-1.5-0.8-1.5-1.4c0-0.6,0.5-1.1,1.5-1.4v-2C260.3,86.3,259.8,85.7,259.8,85.1z M262.4,85.1v3.5
		c0.2,0,0.5-0.1,0.9-0.1c0.4,0,0.7,0,0.9,0.1v-3.5c-0.2,0-0.5-0.1-0.9-0.1C262.9,85,262.6,85,262.4,85.1z M262.4,91.4
		c0.1,0,0.3,0,0.5,0c0.2,0,0.3,0,0.4,0s0.2,0,0.4,0c0.2,0,0.4,0,0.5,0v-2.3c-0.1,0-0.3,0-0.5,0c-0.2,0-0.3,0-0.4,0
		c-0.1,0-0.2,0-0.4,0c-0.2,0-0.4,0-0.5,0V91.4z M264.2,95.5V92c-0.2,0-0.5,0.1-0.9,0.1c-0.4,0-0.7,0-0.9-0.1v3.5
		c0.2,0,0.5,0.1,0.9,0.1C263.7,95.5,264,95.5,264.2,95.5L264.2,95.5z"/>
	<path id="path106" inkscape:connector-curvature="0" class="st2" d="M250.5,99.5c0-0.8,1.2-1.3,3.5-1.3c2.3,0,3.5,0.4,3.5,1.3
		c0,0.7-0.5,1.3-1.5,1.8v2c1,0.3,1.5,0.8,1.5,1.4s-0.5,1.1-1.5,1.4v2c1,0.5,1.5,1.1,1.5,1.8c0,0.8-1.2,1.3-3.5,1.3
		c-2.3,0-3.5-0.4-3.5-1.3c0-0.7,0.5-1.3,1.5-1.8v-2c-1-0.3-1.5-0.8-1.5-1.4c0-0.6,0.5-1.1,1.5-1.4v-2
		C251,100.8,250.5,100.2,250.5,99.5L250.5,99.5z M250.5,114c0-0.8,1.2-1.3,3.5-1.3c2.3,0,3.5,0.4,3.5,1.3c0,0.7-0.5,1.3-1.5,1.8v2
		c1,0.3,1.5,0.8,1.5,1.4s-0.5,1.1-1.5,1.4v2c1,0.5,1.5,1.1,1.5,1.8c0,0.8-1.2,1.3-3.5,1.3c-2.3,0-3.5-0.4-3.5-1.3
		c0-0.7,0.5-1.3,1.5-1.8v-2c-1-0.3-1.5-0.8-1.5-1.4c0-0.6,0.5-1.1,1.5-1.4v-2C251,115.3,250.5,114.7,250.5,114L250.5,114z M253,99.5
		v3.5c0.2,0,0.5-0.1,0.9-0.1c0.4,0,0.7,0,0.9,0.1v-3.5c-0.2,0-0.5-0.1-0.9-0.1C253.5,99.5,253.2,99.5,253,99.5z M253,105.9
		c0.1,0,0.2,0,0.4,0c0.2,0,0.4,0,0.5,0s0.3,0,0.5,0c0.2,0,0.3,0,0.4,0v-2.3c-0.1,0-0.2,0-0.4,0c-0.2,0-0.4,0-0.5,0s-0.3,0-0.5,0
		c-0.2,0-0.3,0-0.4,0V105.9z M254.8,109.9v-3.5c-0.2,0-0.5,0.1-0.9,0.1c-0.4,0-0.7,0-0.9-0.1v3.5c0.2,0,0.5,0.1,0.9,0.1
		C254.3,110,254.6,110,254.8,109.9z M253,114v3.5c0.2,0,0.5-0.1,0.9-0.1c0.4,0,0.7,0,0.9,0.1V114c-0.2,0-0.5-0.1-0.9-0.1
		C253.5,113.9,253.2,113.9,253,114z M253,120.3c0.1,0,0.2,0,0.4,0c0.2,0,0.4,0,0.5,0s0.3,0,0.5,0c0.2,0,0.3,0,0.4,0V118
		c-0.1,0-0.2,0-0.4,0c-0.2,0-0.4,0-0.5,0s-0.3,0-0.5,0c-0.2,0-0.3,0-0.4,0V120.3z M254.8,124.4v-3.5c-0.2,0-0.5,0.1-0.9,0.1
		c-0.4,0-0.7,0-0.9-0.1v3.5c0.2,0,0.5,0.1,0.9,0.1C254.3,124.4,254.6,124.4,254.8,124.4z M259.8,99.5c0-0.8,1.2-1.3,3.5-1.3
		s3.5,0.4,3.5,1.3c0,0.7-0.5,1.3-1.5,1.8v2c1,0.3,1.5,0.8,1.5,1.4s-0.5,1.1-1.5,1.4v2c1,0.5,1.5,1.1,1.5,1.8c0,0.8-1.2,1.3-3.5,1.3
		s-3.5-0.4-3.5-1.3c0-0.7,0.5-1.3,1.5-1.8v-2c-1-0.3-1.5-0.8-1.5-1.4c0-0.6,0.5-1.1,1.5-1.4v-2C260.3,100.8,259.8,100.2,259.8,99.5z
		 M259.8,114c0-0.8,1.2-1.3,3.5-1.3s3.5,0.4,3.5,1.3c0,0.7-0.5,1.3-1.5,1.8v2c1,0.3,1.5,0.8,1.5,1.4s-0.5,1.1-1.5,1.4v2
		c1,0.5,1.5,1.1,1.5,1.8c0,0.8-1.2,1.3-3.5,1.3s-3.5-0.4-3.5-1.3c0-0.7,0.5-1.3,1.5-1.8v-2c-1-0.3-1.5-0.8-1.5-1.4
		c0-0.6,0.5-1.1,1.5-1.4v-2C260.3,115.3,259.8,114.7,259.8,114z M262.4,99.5v3.5c0.2,0,0.5-0.1,0.9-0.1c0.4,0,0.7,0,0.9,0.1v-3.5
		c-0.2,0-0.5-0.1-0.9-0.1C262.9,99.5,262.6,99.5,262.4,99.5z M262.4,105.9c0.1,0,0.3,0,0.5,0c0.2,0,0.3,0,0.4,0s0.2,0,0.4,0
		c0.2,0,0.4,0,0.5,0v-2.3c-0.1,0-0.3,0-0.5,0c-0.2,0-0.3,0-0.4,0c-0.1,0-0.2,0-0.4,0c-0.2,0-0.4,0-0.5,0V105.9z M264.2,109.9v-3.5
		c-0.2,0-0.5,0.1-0.9,0.1c-0.4,0-0.7,0-0.9-0.1v3.5c0.2,0,0.5,0.1,0.9,0.1C263.7,110,264,110,264.2,109.9z M262.4,114v3.5
		c0.2,0,0.5-0.1,0.9-0.1c0.4,0,0.7,0,0.9,0.1V114c-0.2,0-0.5-0.1-0.9-0.1C262.9,113.9,262.6,113.9,262.4,114z M262.4,120.3
		c0.1,0,0.3,0,0.5,0c0.2,0,0.3,0,0.4,0s0.2,0,0.4,0c0.2,0,0.4,0,0.5,0V118c-0.1,0-0.3,0-0.5,0c-0.2,0-0.3,0-0.4,0
		c-0.1,0-0.2,0-0.4,0c-0.2,0-0.4,0-0.5,0V120.3z M264.2,124.4v-3.5c-0.2,0-0.5,0.1-0.9,0.1c-0.4,0-0.7,0-0.9-0.1v3.5
		c0.2,0,0.5,0.1,0.9,0.1C263.7,124.4,264,124.4,264.2,124.4z M269.2,99.5c0-0.8,1.2-1.3,3.5-1.3s3.5,0.4,3.5,1.3
		c0,0.7-0.5,1.3-1.5,1.8v2c1,0.3,1.5,0.8,1.5,1.4s-0.5,1.1-1.5,1.4v2c1,0.5,1.5,1.1,1.5,1.8c0,0.8-1.2,1.3-3.5,1.3
		c-2.3,0-3.5-0.4-3.5-1.3c0-0.7,0.5-1.3,1.5-1.8v-2c-1-0.3-1.5-0.8-1.5-1.4c0-0.6,0.5-1.1,1.5-1.4v-2
		C269.7,100.8,269.2,100.2,269.2,99.5z M269.2,114c0-0.8,1.2-1.3,3.5-1.3s3.5,0.4,3.5,1.3c0,0.7-0.5,1.3-1.5,1.8v2
		c1,0.3,1.5,0.8,1.5,1.4s-0.5,1.1-1.5,1.4v2c1,0.5,1.5,1.1,1.5,1.8c0,0.8-1.2,1.3-3.5,1.3c-2.3,0-3.5-0.4-3.5-1.3
		c0-0.7,0.5-1.3,1.5-1.8v-2c-1-0.3-1.5-0.8-1.5-1.4c0-0.6,0.5-1.1,1.5-1.4v-2C269.7,115.3,269.2,114.7,269.2,114z M271.8,99.5v3.5
		c0.2,0,0.5-0.1,0.9-0.1c0.4,0,0.7,0,0.9,0.1v-3.5c-0.2,0-0.5-0.1-0.9-0.1C272.3,99.5,272,99.5,271.8,99.5z M271.8,105.9
		c0.1,0,0.2,0,0.4,0c0.2,0,0.4,0,0.5,0s0.3,0,0.5,0c0.2,0,0.3,0,0.4,0v-2.3c-0.1,0-0.2,0-0.4,0c-0.2,0-0.4,0-0.5,0s-0.3,0-0.5,0
		c-0.2,0-0.3,0-0.4,0V105.9z M273.6,109.9v-3.5c-0.2,0-0.5,0.1-0.9,0.1c-0.4,0-0.7,0-0.9-0.1v3.5c0.2,0,0.5,0.1,0.9,0.1
		S273.4,110,273.6,109.9z M271.8,114v3.5c0.2,0,0.5-0.1,0.9-0.1c0.4,0,0.7,0,0.9,0.1V114c-0.2,0-0.5-0.1-0.9-0.1
		C272.3,113.9,272,113.9,271.8,114z M271.8,120.3c0.1,0,0.2,0,0.4,0c0.2,0,0.4,0,0.5,0s0.3,0,0.5,0c0.2,0,0.3,0,0.4,0V118
		c-0.1,0-0.2,0-0.4,0c-0.2,0-0.4,0-0.5,0s-0.3,0-0.5,0c-0.2,0-0.3,0-0.4,0V120.3z M273.6,124.4v-3.5c-0.2,0-0.5,0.1-0.9,0.1
		c-0.4,0-0.7,0-0.9-0.1v3.5c0.2,0,0.5,0.1,0.9,0.1C273.1,124.4,273.4,124.4,273.6,124.4z"/>
</g>
</svg>
