<?xml version="1.0" encoding="utf-8"?>
<!-- Generator: Adobe Illustrator 25.0.1, SVG Export Plug-In . SVG Version: 6.00 Build 0)  -->
<svg version="1.1"
	 id="图层_1" inkscape:version="0.92.3 (2405546, 2018-03-11)" xmlns:cc="http://creativecommons.org/ns#" xmlns:dc="http://purl.org/dc/elements/1.1/" xmlns:inkscape="http://www.inkscape.org/namespaces/inkscape" xmlns:rdf="http://www.w3.org/1999/02/22-rdf-syntax-ns#" xmlns:sodipodi="http://sodipodi.sourceforge.net/DTD/sodipodi-0.dtd" xmlns:svg="http://www.w3.org/2000/svg"
	 xmlns="http://www.w3.org/2000/svg" xmlns:xlink="http://www.w3.org/1999/xlink" x="0px" y="0px" viewBox="0 0 139.8 200"
	 style="enable-background:new 0 0 139.8 200;" xml:space="preserve">
<style type="text/css">
	.st0{fill:#FFFFFF;}
	.st1{fill:#133F00;}
</style>
<path class="st0" d="M112,200.5H28c-15.4,0-27.9-12.5-27.9-27.9V28.4C0.1,13,12.6,0.5,28,0.5h84c15.4,0,27.9,12.5,27.9,27.9v144.2
	C139.9,188,127.4,200.5,112,200.5z"/>
<sodipodi:namedview  bordercolor="#666666" borderopacity="1" gridtolerance="10" guidetolerance="10" id="namedview617" inkscape:current-layer="图层_1" inkscape:cx="-36.16014" inkscape:cy="112.60966" inkscape:pageopacity="0" inkscape:pageshadow="2" inkscape:window-height="705" inkscape:window-maximized="1" inkscape:window-width="1366" inkscape:window-x="-8" inkscape:window-y="-8" inkscape:zoom="1" objecttolerance="10" pagecolor="#ffffff" showgrid="false">
	</sodipodi:namedview>
<g id="g1864" transform="matrix(4.0331525,0,0,4.0331525,-1146.2582,-322.32955)">
	<path id="path108" inkscape:connector-curvature="0" d="M318.9,83.5v42.4c0,1-0.3,1.8-1,2.5c-0.7,0.7-1.5,1-2.5,1h-27.5
		c-1,0-1.8-0.3-2.5-1c-0.7-0.7-1-1.5-1-2.5V83.5c0-1,0.3-1.8,1-2.5c0.7-0.7,1.5-1,2.5-1h27.5c1,0,1.8,0.3,2.5,1
		C318.5,81.7,318.9,82.5,318.9,83.5z M315.3,81.7h-27.5c-0.5,0-0.9,0.2-1.3,0.5c-0.3,0.3-0.5,0.8-0.5,1.3v42.4
		c0,0.5,0.2,0.9,0.5,1.3c0.3,0.3,0.8,0.5,1.3,0.5h27.5c0.5,0,0.9-0.2,1.3-0.5c0.3-0.3,0.5-0.8,0.5-1.3V83.5c0-0.5-0.2-0.9-0.5-1.3
		C316.2,81.9,315.8,81.7,315.3,81.7z"/>
	<path id="path110" inkscape:connector-curvature="0" class="st1" d="M304.9,92.9c0.6-0.3,1.1-0.2,1.5,0.1c0.4,0.4,0.4,0.9,0.1,1.5
		l2.2,2.2v-1.1c-1-0.3-1.5-0.8-1.5-1.4c0-0.6,0.5-1.1,1.5-1.4v-3.8c-1-0.5-1.5-1.1-1.5-1.8c0-0.8,1.2-1.3,3.6-1.3
		c2.4,0,3.6,0.4,3.6,1.3c0,0.7-0.5,1.3-1.5,1.8v3.8c1,0.3,1.5,0.8,1.5,1.4c0,0.6-0.5,1.1-1.5,1.4v3.8c1,0.5,1.5,1.1,1.5,1.8
		c0,0.8-1.2,1.3-3.6,1.3c-2.4,0-3.6-0.4-3.6-1.3c0-0.4,0.2-0.7,0.6-1.1l-3.4-3.4c-0.6,0.3-1.1,0.2-1.5-0.1c-0.4-0.4-0.4-0.9-0.1-1.5
		l-1.3-1.3l-1.3,1.3c0.3,0.6,0.2,1.1-0.1,1.4c-0.4,0.4-0.9,0.5-1.5,0.2l-3.4,3.4c0.4,0.4,0.6,0.8,0.6,1.1c0,0.8-1.2,1.3-3.6,1.3
		c-2.4,0-3.6-0.4-3.6-1.3c0-0.7,0.5-1.3,1.5-1.8v-3.8c-1-0.3-1.5-0.8-1.5-1.4c0-0.6,0.5-1.1,1.5-1.4v-3.8c-1-0.5-1.5-1.1-1.5-1.8
		c0-0.8,1.2-1.3,3.6-1.3c2.4,0,3.6,0.4,3.6,1.3c0,0.7-0.5,1.3-1.5,1.8v3.8c1,0.3,1.5,0.8,1.5,1.4c0,0.6-0.5,1.1-1.5,1.4v1.1l2.2-2.2
		c-0.3-0.6-0.3-1.1,0.1-1.5c0.4-0.4,0.9-0.4,1.5-0.1l1.4-1.3c-0.3-0.4-0.5-0.9-0.5-1.3c0-0.8,0.3-1.1,1-1.1c0.6,0,1,0.2,1.4,0.5
		c0.4-0.4,0.9-0.5,1.4-0.5c0.7,0,1,0.4,1,1.1c0,0.4-0.2,0.9-0.5,1.3L304.9,92.9z M298.2,116.5c-0.6,0.3-1.1,0.2-1.5-0.1
		c-0.4-0.4-0.4-0.9-0.1-1.5l-2.2-2.2v1.1c1,0.3,1.5,0.8,1.5,1.4s-0.5,1.1-1.5,1.4v3.8c1,0.5,1.5,1.1,1.5,1.8c0,0.8-1.2,1.3-3.6,1.3
		c-2.4,0-3.6-0.4-3.6-1.3c0-0.7,0.5-1.3,1.5-1.8v-3.8c-1-0.3-1.5-0.8-1.5-1.4c0-0.6,0.5-1.1,1.5-1.4V110c-1-0.5-1.5-1.1-1.5-1.8
		c0-0.8,1.2-1.3,3.6-1.3c2.4,0,3.6,0.4,3.6,1.3c0,0.4-0.2,0.7-0.6,1.1l3.4,3.4c0.6-0.3,1.1-0.2,1.5,0.1c0.4,0.4,0.4,0.9,0.1,1.5
		l1.3,1.3l1.3-1.3c-0.3-0.6-0.2-1.1,0.1-1.4c0.4-0.4,0.9-0.5,1.5-0.2l3.4-3.4c-0.4-0.4-0.6-0.8-0.6-1.1c0-0.8,1.2-1.3,3.6-1.3
		c2.4,0,3.6,0.4,3.6,1.3c0,0.7-0.5,1.3-1.5,1.8v3.8c1,0.3,1.5,0.8,1.5,1.4s-0.5,1.1-1.5,1.4v3.8c1,0.5,1.5,1.1,1.5,1.8
		c0,0.8-1.2,1.3-3.6,1.3c-2.4,0-3.6-0.4-3.6-1.3c0-0.7,0.5-1.3,1.5-1.8v-3.8c-1-0.3-1.5-0.8-1.5-1.4c0-0.6,0.5-1.1,1.5-1.4v-1.1
		l-2.2,2.2c0.3,0.6,0.3,1.1-0.1,1.5c-0.4,0.4-0.9,0.4-1.5,0.1l-1.4,1.3c0.3,0.4,0.5,0.9,0.5,1.3c0,0.8-0.3,1.1-1,1.1
		c-0.6,0-1-0.2-1.4-0.5c-0.4,0.4-0.9,0.5-1.4,0.5c-0.7,0-1-0.4-1-1.1c0-0.4,0.2-0.9,0.5-1.3L298.2,116.5z M291.4,87.3v5.3
		c0.2,0,0.5-0.1,0.9-0.1c0.4,0,0.7,0,0.9,0.1v-5.3c-0.2,0-0.5-0.1-0.9-0.1C291.9,87.2,291.6,87.2,291.4,87.3z M291.4,95.4
		c0.1,0,0.2,0,0.4,0c0.2,0,0.4,0,0.5,0s0.3,0,0.5,0c0.2,0,0.3,0,0.4,0v-2.3c-0.1,0-0.2,0-0.4,0c-0.2,0-0.4,0-0.5,0s-0.3,0-0.5,0
		c-0.2,0-0.3,0-0.4,0V95.4z M293.2,101.2V96c-0.2,0-0.5,0.1-0.9,0.1c-0.4,0-0.7,0-0.9-0.1v5.3c0.2,0,0.5,0.1,0.9,0.1
		C292.7,101.3,293,101.3,293.2,101.2z M291.4,108.2v5.3c0.2,0,0.5-0.1,0.9-0.1c0.4,0,0.7,0,0.9,0.1v-5.3c-0.2,0-0.5-0.1-0.9-0.1
		C291.9,108.1,291.6,108.1,291.4,108.2z M293.2,114c-0.1,0-0.2,0-0.4,0c-0.2,0-0.4,0-0.5,0s-0.3,0-0.5,0c-0.2,0-0.3,0-0.4,0v2.3
		c0.1,0,0.2,0,0.4,0c0.2,0,0.4,0,0.5,0s0.3,0,0.5,0c0.2,0,0.3,0,0.4,0V114z M293.2,122.2v-5.3c-0.2,0-0.5,0.1-0.9,0.1
		c-0.4,0-0.7,0-0.9-0.1v5.3c0.2,0,0.5,0.1,0.9,0.1C292.7,122.2,293,122.2,293.2,122.2z M298,96.2c-0.3-0.2-0.6-0.5-0.8-0.8l-2.7,2.7
		v1.4l0.2,0.1L298,96.2z M297.1,114.1c0.2-0.4,0.5-0.6,0.8-0.8l-3.4-3.4l-0.2,0.1v1.4L297.1,114.1z M297.5,94.9c0,0,0.1,0.1,0.1,0.2
		c0.1,0.1,0.1,0.2,0.2,0.2c0.1,0.1,0.2,0.1,0.2,0.2c0.1,0.1,0.2,0.1,0.2,0.2l1-1c-0.1-0.1-0.1-0.2-0.2-0.2c-0.1-0.1-0.1-0.2-0.2-0.2
		c0,0-0.1-0.1-0.2-0.2c-0.1-0.1-0.2-0.1-0.2-0.2L297.5,94.9z M298.4,113.7c-0.1,0.1-0.2,0.1-0.2,0.2c-0.1,0.1-0.2,0.1-0.2,0.2
		c-0.1,0-0.1,0.1-0.1,0.1c0,0,0,0.1-0.1,0.1c0,0.1-0.1,0.1-0.1,0.1l1,1c0.1,0,0.2-0.1,0.2-0.2c0.1-0.1,0.1-0.1,0.2-0.2
		c0.1-0.1,0.1-0.2,0.2-0.2c0.1-0.1,0.1-0.2,0.2-0.2L298.4,113.7z M303.3,94.3c0.3-0.4,0.6-0.7,0.8-0.8l-2-2v-1.3
		c-0.2-0.1-0.4-0.1-0.6-0.1s-0.4,0-0.6,0.1v1.3l-2,2c0.2,0.2,0.5,0.4,0.8,0.8l1.7-1.7L303.3,94.3z M299.8,115.1
		c-0.3,0.4-0.6,0.7-0.8,0.8l2,2v1.3c0.2,0.1,0.4,0.1,0.6,0.1s0.4,0,0.6-0.1V118l2-2c-0.2-0.2-0.5-0.4-0.8-0.8l-1.7,1.7L299.8,115.1z
		 M304.7,95.8c0.1-0.1,0.2-0.1,0.2-0.2c0.1-0.1,0.2-0.1,0.2-0.2c0.1,0,0.1-0.1,0.1-0.1c0,0,0-0.1,0.1-0.1c0-0.1,0.1-0.1,0.1-0.1
		l-1-1c-0.1,0-0.2,0.1-0.2,0.2c-0.1,0.1-0.1,0.1-0.2,0.2c-0.1,0.1-0.1,0.2-0.2,0.2c-0.1,0.1-0.1,0.2-0.2,0.2L304.7,95.8z
		 M305.5,114.5c0,0-0.1-0.1-0.1-0.2s-0.1-0.2-0.2-0.2c-0.1-0.1-0.2-0.1-0.2-0.2c-0.1-0.1-0.2-0.1-0.2-0.2l-1,1
		c0.1,0.1,0.1,0.2,0.2,0.2c0.1,0.1,0.1,0.2,0.2,0.2c0,0,0.1,0.1,0.2,0.2c0.1,0.1,0.2,0.1,0.2,0.2L305.5,114.5z M306,95.3
		c-0.2,0.4-0.5,0.6-0.8,0.8l3.4,3.4l0.2-0.1V98L306,95.3z M305.1,113.3c0.3,0.2,0.6,0.5,0.8,0.8l2.7-2.7V110l-0.2-0.1L305.1,113.3z
		 M309.9,87.3v5.3c0.2,0,0.5-0.1,0.9-0.1s0.7,0,0.9,0.1v-5.3c-0.2,0-0.5-0.1-0.9-0.1C310.4,87.2,310.1,87.2,309.9,87.3L309.9,87.3z
		 M309.9,95.4c0.1,0,0.2,0,0.4,0c0.2,0,0.4,0,0.5,0s0.3,0,0.5,0c0.2,0,0.3,0,0.4,0v-2.3c-0.1,0-0.2,0-0.4,0c-0.2,0-0.4,0-0.5,0
		s-0.3,0-0.5,0c-0.2,0-0.3,0-0.4,0V95.4z M311.7,101.2V96c-0.2,0-0.5,0.1-0.9,0.1s-0.7,0-0.9-0.1v5.3c0.2,0,0.5,0.1,0.9,0.1
		S311.5,101.3,311.7,101.2z M309.9,108.2v5.3c0.2,0,0.5-0.1,0.9-0.1s0.7,0,0.9,0.1v-5.3c-0.2,0-0.5-0.1-0.9-0.1
		C310.4,108.1,310.1,108.1,309.9,108.2L309.9,108.2z M311.7,114c-0.1,0-0.2,0-0.4,0c-0.2,0-0.4,0-0.5,0s-0.3,0-0.5,0
		c-0.2,0-0.3,0-0.4,0v2.3c0.1,0,0.2,0,0.4,0c0.2,0,0.4,0,0.5,0s0.3,0,0.5,0c0.2,0,0.3,0,0.4,0V114z M311.7,122.2v-5.3
		c-0.2,0-0.5,0.1-0.9,0.1s-0.7,0-0.9-0.1v5.3c0.2,0,0.5,0.1,0.9,0.1S311.5,122.2,311.7,122.2z"/>
</g>
</svg>
