<?xml version="1.0" encoding="utf-8"?>
<!-- Generator: Adobe Illustrator 25.0.1, SVG Export Plug-In . SVG Version: 6.00 Build 0)  -->
<svg version="1.1"
	 id="图层_1" inkscape:version="0.92.3 (2405546, 2018-03-11)" xmlns:cc="http://creativecommons.org/ns#" xmlns:dc="http://purl.org/dc/elements/1.1/" xmlns:inkscape="http://www.inkscape.org/namespaces/inkscape" xmlns:rdf="http://www.w3.org/1999/02/22-rdf-syntax-ns#" xmlns:sodipodi="http://sodipodi.sourceforge.net/DTD/sodipodi-0.dtd" xmlns:svg="http://www.w3.org/2000/svg"
	 xmlns="http://www.w3.org/2000/svg" xmlns:xlink="http://www.w3.org/1999/xlink" x="0px" y="0px" viewBox="0 0 139.8 200"
	 style="enable-background:new 0 0 139.8 200;" xml:space="preserve">
<style type="text/css">
	.st0{fill:#FFFFFF;}
	.st1{fill:#133F00;}
	.st2{fill:#870000;}
</style>
<path class="st0" d="M112,200.5H28c-15.4,0-27.9-12.5-27.9-27.9V28.4C0.1,13,12.6,0.5,28,0.5h84c15.4,0,27.9,12.5,27.9,27.9v144.2
	C139.9,188,127.4,200.5,112,200.5z"/>
<sodipodi:namedview  bordercolor="#666666" borderopacity="1" gridtolerance="10" guidetolerance="10" id="namedview617" inkscape:current-layer="图层_1" inkscape:cx="-7.66014" inkscape:cy="112.60966" inkscape:pageopacity="0" inkscape:pageshadow="2" inkscape:window-height="705" inkscape:window-maximized="1" inkscape:window-width="1366" inkscape:window-x="-8" inkscape:window-y="-8" inkscape:zoom="1" objecttolerance="10" pagecolor="#ffffff" showgrid="false">
	</sodipodi:namedview>
<g id="g1881" transform="matrix(4.0331525,0,0,4.0331525,-1300.4779,-322.32955)">
	<path id="path112" inkscape:connector-curvature="0" d="M357.1,83.5v42.4c0,1-0.3,1.8-1,2.5c-0.7,0.7-1.5,1-2.5,1H326
		c-1,0-1.8-0.3-2.5-1c-0.7-0.7-1-1.5-1-2.5V83.5c0-1,0.3-1.8,1-2.5c0.7-0.7,1.5-1,2.5-1h27.5c1,0,1.8,0.3,2.5,1
		C356.8,81.7,357.1,82.5,357.1,83.5z M353.5,81.7H326c-0.5,0-0.9,0.2-1.3,0.5c-0.3,0.3-0.5,0.8-0.5,1.3v42.4c0,0.5,0.2,0.9,0.5,1.3
		c0.3,0.3,0.8,0.5,1.3,0.5h27.5c0.5,0,0.9-0.2,1.3-0.5c0.3-0.3,0.5-0.8,0.5-1.3V83.5c0-0.5-0.2-0.9-0.5-1.3
		C354.5,81.9,354,81.7,353.5,81.7z"/>
	<path id="path114" inkscape:connector-curvature="0" class="st1" d="M326.9,85.1c0-0.8,1.2-1.3,3.5-1.3s3.5,0.4,3.5,1.3
		c0,0.7-0.5,1.3-1.5,1.8v2c1,0.3,1.5,0.8,1.5,1.4s-0.5,1.1-1.5,1.4v2c1,0.5,1.5,1.1,1.5,1.8c0,0.8-1.2,1.3-3.5,1.3
		c-2.3,0-3.5-0.4-3.5-1.3c0-0.7,0.5-1.3,1.5-1.8v-2c-1-0.3-1.5-0.8-1.5-1.4c0-0.6,0.5-1.1,1.5-1.4v-2
		C327.4,86.3,326.9,85.7,326.9,85.1z M326.9,99.5c0-0.8,1.2-1.3,3.5-1.3s3.5,0.4,3.5,1.3c0,0.7-0.5,1.3-1.5,1.8v2
		c1,0.3,1.5,0.8,1.5,1.4s-0.5,1.1-1.5,1.4v2c1,0.5,1.5,1.1,1.5,1.8c0,0.8-1.2,1.3-3.5,1.3c-2.3,0-3.5-0.4-3.5-1.3
		c0-0.7,0.5-1.3,1.5-1.8v-2c-1-0.3-1.5-0.8-1.5-1.4c0-0.6,0.5-1.1,1.5-1.4v-2C327.4,100.8,326.9,100.2,326.9,99.5z M326.9,114
		c0-0.8,1.2-1.3,3.5-1.3s3.5,0.4,3.5,1.3c0,0.7-0.5,1.3-1.5,1.8v2c1,0.3,1.5,0.8,1.5,1.4s-0.5,1.1-1.5,1.4v2c1,0.5,1.5,1.1,1.5,1.8
		c0,0.8-1.2,1.3-3.5,1.3c-2.3,0-3.5-0.4-3.5-1.3c0-0.7,0.5-1.3,1.5-1.8v-2c-1-0.3-1.5-0.8-1.5-1.4c0-0.6,0.5-1.1,1.5-1.4v-2
		C327.4,115.3,326.9,114.7,326.9,114z M329.5,85.1v3.5c0.2,0,0.5-0.1,0.9-0.1c0.4,0,0.7,0,0.9,0.1v-3.5c-0.2,0-0.5-0.1-0.9-0.1
		C330,85,329.7,85,329.5,85.1z M329.5,91.4c0.1,0,0.2,0,0.4,0c0.2,0,0.4,0,0.5,0s0.3,0,0.5,0c0.2,0,0.3,0,0.4,0v-2.3
		c-0.1,0-0.2,0-0.4,0c-0.2,0-0.4,0-0.5,0s-0.3,0-0.5,0c-0.2,0-0.3,0-0.4,0V91.4z M331.3,95.5V92c-0.2,0-0.5,0.1-0.9,0.1
		c-0.4,0-0.7,0-0.9-0.1v3.5c0.2,0,0.5,0.1,0.9,0.1C330.8,95.5,331.1,95.5,331.3,95.5L331.3,95.5z M329.5,99.5v3.5
		c0.2,0,0.5-0.1,0.9-0.1c0.4,0,0.7,0,0.9,0.1v-3.5c-0.2,0-0.5-0.1-0.9-0.1C330,99.5,329.7,99.5,329.5,99.5z M329.5,105.9
		c0.1,0,0.2,0,0.4,0c0.2,0,0.4,0,0.5,0s0.3,0,0.5,0c0.2,0,0.3,0,0.4,0v-2.3c-0.1,0-0.2,0-0.4,0c-0.2,0-0.4,0-0.5,0s-0.3,0-0.5,0
		c-0.2,0-0.3,0-0.4,0V105.9z M331.3,109.9v-3.5c-0.2,0-0.5,0.1-0.9,0.1c-0.4,0-0.7,0-0.9-0.1v3.5c0.2,0,0.5,0.1,0.9,0.1
		C330.8,110,331.1,110,331.3,109.9z M329.5,114v3.5c0.2,0,0.5-0.1,0.9-0.1c0.4,0,0.7,0,0.9,0.1V114c-0.2,0-0.5-0.1-0.9-0.1
		C330,113.9,329.7,113.9,329.5,114z M329.5,120.3c0.1,0,0.2,0,0.4,0c0.2,0,0.4,0,0.5,0s0.3,0,0.5,0c0.2,0,0.3,0,0.4,0V118
		c-0.1,0-0.2,0-0.4,0c-0.2,0-0.4,0-0.5,0s-0.3,0-0.5,0c-0.2,0-0.3,0-0.4,0V120.3z M331.3,124.4v-3.5c-0.2,0-0.5,0.1-0.9,0.1
		c-0.4,0-0.7,0-0.9-0.1v3.5c0.2,0,0.5,0.1,0.9,0.1C330.8,124.4,331.1,124.4,331.3,124.4z"/>
	<path id="path116" inkscape:connector-curvature="0" class="st2" d="M336.3,85.1c0-0.8,1.2-1.3,3.5-1.3s3.5,0.4,3.5,1.3
		c0,0.7-0.5,1.3-1.5,1.8v2c1,0.3,1.5,0.8,1.5,1.4s-0.5,1.1-1.5,1.4v2c1,0.5,1.5,1.1,1.5,1.8c0,0.8-1.2,1.3-3.5,1.3s-3.5-0.4-3.5-1.3
		c0-0.7,0.5-1.3,1.5-1.8v-2c-1-0.3-1.5-0.8-1.5-1.4c0-0.6,0.5-1.1,1.5-1.4v-2C336.8,86.3,336.3,85.7,336.3,85.1z M336.3,99.5
		c0-0.8,1.2-1.3,3.5-1.3s3.5,0.4,3.5,1.3c0,0.7-0.5,1.3-1.5,1.8v2c1,0.3,1.5,0.8,1.5,1.4s-0.5,1.1-1.5,1.4v2c1,0.5,1.5,1.1,1.5,1.8
		c0,0.8-1.2,1.3-3.5,1.3s-3.5-0.4-3.5-1.3c0-0.7,0.5-1.3,1.5-1.8v-2c-1-0.3-1.5-0.8-1.5-1.4c0-0.6,0.5-1.1,1.5-1.4v-2
		C336.8,100.8,336.3,100.2,336.3,99.5z M336.3,114c0-0.8,1.2-1.3,3.5-1.3s3.5,0.4,3.5,1.3c0,0.7-0.5,1.3-1.5,1.8v2
		c1,0.3,1.5,0.8,1.5,1.4s-0.5,1.1-1.5,1.4v2c1,0.5,1.5,1.1,1.5,1.8c0,0.8-1.2,1.3-3.5,1.3s-3.5-0.4-3.5-1.3c0-0.7,0.5-1.3,1.5-1.8
		v-2c-1-0.3-1.5-0.8-1.5-1.4c0-0.6,0.5-1.1,1.5-1.4v-2C336.8,115.3,336.3,114.7,336.3,114z M338.9,85.1v3.5c0.2,0,0.5-0.1,0.9-0.1
		c0.4,0,0.7,0,0.9,0.1v-3.5c-0.2,0-0.5-0.1-0.9-0.1C339.4,85,339.1,85,338.9,85.1z M338.9,91.4c0.1,0,0.3,0,0.5,0c0.2,0,0.3,0,0.4,0
		s0.2,0,0.4,0c0.2,0,0.4,0,0.5,0v-2.3c-0.1,0-0.3,0-0.5,0c-0.2,0-0.3,0-0.4,0c-0.1,0-0.2,0-0.4,0c-0.2,0-0.4,0-0.5,0V91.4z
		 M340.7,95.5V92c-0.2,0-0.5,0.1-0.9,0.1c-0.4,0-0.7,0-0.9-0.1v3.5c0.2,0,0.5,0.1,0.9,0.1C340.2,95.5,340.5,95.5,340.7,95.5
		L340.7,95.5z M338.9,99.5v3.5c0.2,0,0.5-0.1,0.9-0.1c0.4,0,0.7,0,0.9,0.1v-3.5c-0.2,0-0.5-0.1-0.9-0.1
		C339.4,99.5,339.1,99.5,338.9,99.5z M338.9,105.9c0.1,0,0.3,0,0.5,0c0.2,0,0.3,0,0.4,0s0.2,0,0.4,0c0.2,0,0.4,0,0.5,0v-2.3
		c-0.1,0-0.3,0-0.5,0c-0.2,0-0.3,0-0.4,0c-0.1,0-0.2,0-0.4,0c-0.2,0-0.4,0-0.5,0V105.9z M340.7,109.9v-3.5c-0.2,0-0.5,0.1-0.9,0.1
		c-0.4,0-0.7,0-0.9-0.1v3.5c0.2,0,0.5,0.1,0.9,0.1C340.2,110,340.5,110,340.7,109.9z M338.9,114v3.5c0.2,0,0.5-0.1,0.9-0.1
		c0.4,0,0.7,0,0.9,0.1V114c-0.2,0-0.5-0.1-0.9-0.1C339.4,113.9,339.1,113.9,338.9,114z M338.9,120.3c0.1,0,0.3,0,0.5,0
		c0.2,0,0.3,0,0.4,0s0.2,0,0.4,0c0.2,0,0.4,0,0.5,0V118c-0.1,0-0.3,0-0.5,0c-0.2,0-0.3,0-0.4,0c-0.1,0-0.2,0-0.4,0
		c-0.2,0-0.4,0-0.5,0V120.3z M340.7,124.4v-3.5c-0.2,0-0.5,0.1-0.9,0.1c-0.4,0-0.7,0-0.9-0.1v3.5c0.2,0,0.5,0.1,0.9,0.1
		C340.2,124.4,340.5,124.4,340.7,124.4z"/>
	<path id="path118" inkscape:connector-curvature="0" class="st1" d="M345.7,85.1c0-0.8,1.2-1.3,3.5-1.3s3.5,0.4,3.5,1.3
		c0,0.7-0.5,1.3-1.5,1.8v2c1,0.3,1.5,0.8,1.5,1.4s-0.5,1.1-1.5,1.4v2c1,0.5,1.5,1.1,1.5,1.8c0,0.8-1.2,1.3-3.5,1.3
		c-2.3,0-3.5-0.4-3.5-1.3c0-0.7,0.5-1.3,1.5-1.8v-2c-1-0.3-1.5-0.8-1.5-1.4c0-0.6,0.5-1.1,1.5-1.4v-2
		C346.2,86.3,345.7,85.7,345.7,85.1z M345.7,99.5c0-0.8,1.2-1.3,3.5-1.3s3.5,0.4,3.5,1.3c0,0.7-0.5,1.3-1.5,1.8v2
		c1,0.3,1.5,0.8,1.5,1.4s-0.5,1.1-1.5,1.4v2c1,0.5,1.5,1.1,1.5,1.8c0,0.8-1.2,1.3-3.5,1.3c-2.3,0-3.5-0.4-3.5-1.3
		c0-0.7,0.5-1.3,1.5-1.8v-2c-1-0.3-1.5-0.8-1.5-1.4c0-0.6,0.5-1.1,1.5-1.4v-2C346.2,100.8,345.7,100.2,345.7,99.5z M345.7,114
		c0-0.8,1.2-1.3,3.5-1.3s3.5,0.4,3.5,1.3c0,0.7-0.5,1.3-1.5,1.8v2c1,0.3,1.5,0.8,1.5,1.4s-0.5,1.1-1.5,1.4v2c1,0.5,1.5,1.1,1.5,1.8
		c0,0.8-1.2,1.3-3.5,1.3c-2.3,0-3.5-0.4-3.5-1.3c0-0.7,0.5-1.3,1.5-1.8v-2c-1-0.3-1.5-0.8-1.5-1.4c0-0.6,0.5-1.1,1.5-1.4v-2
		C346.2,115.3,345.7,114.7,345.7,114z M348.3,85.1v3.5c0.2,0,0.5-0.1,0.9-0.1c0.4,0,0.7,0,0.9,0.1v-3.5c-0.2,0-0.5-0.1-0.9-0.1
		C348.8,85,348.5,85,348.3,85.1z M348.3,91.4c0.1,0,0.2,0,0.4,0c0.2,0,0.4,0,0.5,0s0.3,0,0.5,0c0.2,0,0.3,0,0.4,0v-2.3
		c-0.1,0-0.2,0-0.4,0c-0.2,0-0.4,0-0.5,0s-0.3,0-0.5,0c-0.2,0-0.3,0-0.4,0V91.4z M350,95.5V92c-0.2,0-0.5,0.1-0.9,0.1
		c-0.4,0-0.7,0-0.9-0.1v3.5c0.2,0,0.5,0.1,0.9,0.1C349.6,95.5,349.9,95.5,350,95.5L350,95.5z M348.3,99.5v3.5c0.2,0,0.5-0.1,0.9-0.1
		c0.4,0,0.7,0,0.9,0.1v-3.5c-0.2,0-0.5-0.1-0.9-0.1C348.8,99.5,348.5,99.5,348.3,99.5z M348.3,105.9c0.1,0,0.2,0,0.4,0
		c0.2,0,0.4,0,0.5,0s0.3,0,0.5,0c0.2,0,0.3,0,0.4,0v-2.3c-0.1,0-0.2,0-0.4,0c-0.2,0-0.4,0-0.5,0s-0.3,0-0.5,0c-0.2,0-0.3,0-0.4,0
		V105.9z M350,109.9v-3.5c-0.2,0-0.5,0.1-0.9,0.1c-0.4,0-0.7,0-0.9-0.1v3.5c0.2,0,0.5,0.1,0.9,0.1C349.6,110,349.9,110,350,109.9z
		 M348.3,114v3.5c0.2,0,0.5-0.1,0.9-0.1c0.4,0,0.7,0,0.9,0.1V114c-0.2,0-0.5-0.1-0.9-0.1C348.8,113.9,348.5,113.9,348.3,114z
		 M348.3,120.3c0.1,0,0.2,0,0.4,0c0.2,0,0.4,0,0.5,0s0.3,0,0.5,0c0.2,0,0.3,0,0.4,0V118c-0.1,0-0.2,0-0.4,0c-0.2,0-0.4,0-0.5,0
		s-0.3,0-0.5,0c-0.2,0-0.3,0-0.4,0V120.3z M350,124.4v-3.5c-0.2,0-0.5,0.1-0.9,0.1c-0.4,0-0.7,0-0.9-0.1v3.5c0.2,0,0.5,0.1,0.9,0.1
		C349.6,124.4,349.9,124.4,350,124.4z"/>
</g>
</svg>
