<?xml version="1.0" encoding="utf-8"?>
<!-- Generator: Adobe Illustrator 25.0.1, SVG Export Plug-In . SVG Version: 6.00 Build 0)  -->
<svg version="1.1"
	 id="图层_1" inkscape:version="0.92.3 (2405546, 2018-03-11)" xmlns:cc="http://creativecommons.org/ns#" xmlns:dc="http://purl.org/dc/elements/1.1/" xmlns:inkscape="http://www.inkscape.org/namespaces/inkscape" xmlns:rdf="http://www.w3.org/1999/02/22-rdf-syntax-ns#" xmlns:sodipodi="http://sodipodi.sourceforge.net/DTD/sodipodi-0.dtd" xmlns:svg="http://www.w3.org/2000/svg"
	 xmlns="http://www.w3.org/2000/svg" xmlns:xlink="http://www.w3.org/1999/xlink" x="0px" y="0px" viewBox="0 0 139.8 200"
	 style="enable-background:new 0 0 139.8 200;" xml:space="preserve">
<style type="text/css">
	.st0{fill:#FFFFFF;}
</style>
<path class="st0" d="M112,200.5H28c-15.4,0-27.9-12.5-27.9-27.9V28.4C0.1,13,12.6,0.5,28,0.5h84c15.4,0,27.9,12.5,27.9,27.9v144.2
	C139.9,188,127.4,200.5,112,200.5z"/>
<sodipodi:namedview  bordercolor="#666666" borderopacity="1" gridtolerance="10" guidetolerance="10" id="namedview617" inkscape:current-layer="图层_1" inkscape:cx="-59.16014" inkscape:cy="152.60966" inkscape:pageopacity="0" inkscape:pageshadow="2" inkscape:window-height="705" inkscape:window-maximized="1" inkscape:window-width="1366" inkscape:window-x="-8" inkscape:window-y="-8" inkscape:zoom="1" objecttolerance="10" pagecolor="#ffffff" showgrid="false">
	</sodipodi:namedview>
<g id="g1898" transform="matrix(4.0331525,0,0,4.0331525,-66.744641,-900.64328)">
	<path id="path176" inkscape:connector-curvature="0" d="M51.2,226.9v42.4c0,1-0.3,1.8-1,2.5c-0.7,0.7-1.5,1-2.5,1H20.1
		c-1,0-1.8-0.4-2.5-1c-0.7-0.7-1-1.5-1-2.5v-42.4c0-1,0.3-1.8,1-2.5c0.7-0.7,1.5-1,2.5-1h27.5c1,0,1.8,0.3,2.5,1
		C50.9,225.1,51.2,225.9,51.2,226.9L51.2,226.9z M47.6,225.1H20.1c-0.5,0-0.9,0.2-1.3,0.5c-0.3,0.3-0.5,0.8-0.5,1.3v42.4
		c0,0.5,0.2,0.9,0.5,1.3c0.3,0.3,0.8,0.5,1.3,0.5h27.5c0.5,0,0.9-0.2,1.3-0.5c0.3-0.3,0.5-0.8,0.5-1.3v-42.4c0-0.5-0.2-0.9-0.5-1.3
		C48.6,225.3,48.1,225.1,47.6,225.1z"/>
	<path id="path178" inkscape:connector-curvature="0" d="M24.9,243.7c0.1-0.2,0.2-0.3,0.5-0.3c0.2,0,0.7,0.2,1.6,0.6
		c2-0.4,3.7-0.8,5.3-1.3c0-0.2-0.1-0.7-0.1-1.3c-0.1,0-0.4,0.1-0.9,0.2s-0.9,0.2-1.2,0.2c-0.8,0-1.3-0.3-1.5-0.8
		c0.2,0,0.6-0.1,1.5-0.2c0.8-0.1,1.5-0.2,2-0.4V240c0-1.4-0.4-2.6-1.1-3.6c-0.7-1-1.1-2.1-1.1-3.2c1.1,0.5,2.2,0.9,3.4,1.2
		c1.2,0.3,1.9,0.5,2.2,0.7c0.3,0.2,0.5,0.5,0.5,1c0,0.2-0.1,0.4-0.3,0.5c-0.2,0.1-0.5,0.2-0.7,0.3c-0.3,0.1-0.5,0.4-0.8,0.9
		c-0.3,0.5-0.4,1.1-0.5,2c0.6-0.2,1.1-0.4,1.4-0.7c0.3-0.3,0.6-0.4,0.7-0.4c0.4,0,0.7,0.1,1.2,0.4c0.4,0.3,0.6,0.5,0.6,0.7
		c0,0.2-0.2,0.4-0.5,0.5c-0.3,0.1-0.9,0.2-1.6,0.4c-0.7,0.1-1.3,0.3-1.8,0.4c0,0.2,0,0.4-0.1,0.7c0,0.3-0.1,0.5-0.1,0.7l5.1-0.9
		c0.4,0,0.9,0.4,1.5,1c0.6,0.7,1,1.3,1,1.8c0,0.4-0.4,0.7-1.3,0.8c-0.3,0.8-0.7,1.5-1.3,2.3c-0.6,0.8-0.9,1.3-0.9,1.7
		c0,0.6-0.2,1-0.5,1c-0.2,0-0.5-0.1-0.9-0.4c-0.5,0-0.9,0.1-1.2,0.2c1.1,1.4,2.4,2.4,4,3.2c1.6,0.8,3,1.4,4.3,1.9
		c1.3,0.5,2.2,1.2,2.7,2c-0.6-0.1-1.2-0.3-1.8-0.5c-0.6-0.3-1-0.4-1.3-0.4c-0.2,0-0.6,0.2-1.2,0.6c-0.6,0.4-1.2,0.6-1.6,0.6
		c-0.6,0-1.1-0.3-1.7-0.9c-0.6-0.6-1.3-1.6-2.2-3c-0.9-1.5-1.7-2.5-2.2-3.2c-0.1,0-0.2,0.1-0.5,0.1c0,0.4,0,1-0.1,1.7
		c0,0.7-0.1,1.2-0.1,1.6c0,1.1,0.1,2.6,0.4,4.3c0.3,1.8,0.4,2.8,0.4,3c0,1.8-0.4,2.7-1.1,2.7c-0.4,0-0.9-0.6-1.3-1.7s-0.6-2.1-0.6-3
		c0-0.4-1-1.9-2.9-4.6c-2.2,1.8-3.8,2.6-5.1,2.6c-0.7,0-1.2-0.1-1.4-0.2c2.7-1.4,4.6-2.5,5.9-3.6l-0.2-0.8l0.5,0.4
		c0.7-0.6,1.4-1.5,1.9-2.6c-0.4,0-0.8-0.3-1.1-0.7c0,0,0-0.1,0-0.2c0.1-0.1,0.1-0.2,0.1-0.2c0-0.1-0.3-0.5-0.9-1.1
		c-0.6-0.7-1.2-1.4-1.9-2.2S25.1,244,24.9,243.7L24.9,243.7z M32.3,243.4c-1.6,0.3-3.1,0.8-4.5,1.4c0.7,0.7,1.1,1.1,1.2,1.3
		c0.4-0.2,0.9-0.3,1.7-0.4c0.8-0.1,1.3-0.2,1.6-0.3c0-0.2,0-0.5,0-1C32.3,244,32.3,243.7,32.3,243.4L32.3,243.4z M32.4,250
		c-0.1,0-0.2,0-0.4,0c-0.2,0-0.4,0-0.5,0c-0.5,0.8-1.3,2-2.6,3.5c0.2,0.2,0.5,0.5,0.9,1c0.4,0.5,0.7,0.8,1,1.1
		c0.3,0.3,0.5,0.4,0.7,0.4C31.8,256,32.1,254,32.4,250z M32.3,246.6c-1.4,0.1-2.2,0.2-2.7,0.5c0.3,0.6,0.6,1.2,1,1.6
		c0.2,0,0.5,0.1,0.9,0.1c0.4,0,0.7,0,0.8,0c0-0.3,0-0.7,0-1.1S32.3,246.8,32.3,246.6L32.3,246.6z M38.1,243.3c0-0.3-0.5-0.5-1.4-0.5
		c-1,0-2,0.1-3.1,0.4c0,0.3-0.1,0.6-0.1,1.1c0,0.5,0,0.8,0,0.9c0.6-0.1,1-0.2,1.3-0.5c0.3-0.2,0.7-0.4,1.2-0.4c0.2,0,0.3,0,0.4,0.1
		c0.1,0.1,0.3,0.2,0.5,0.4s0.3,0.3,0.4,0.4C37.8,244.4,38.1,243.7,38.1,243.3L38.1,243.3z M36.9,246.1c-0.3-0.2-0.5-0.2-0.7-0.2
		c-0.2,0-0.6,0.1-1.3,0.2c-0.7,0.2-1.2,0.3-1.4,0.3c0,0.2-0.1,0.5-0.1,1c0,0.5,0,0.9,0.1,1.1c0.6,0,1.3-0.1,2.2-0.3
		c0.1-0.2,0.3-0.5,0.6-1C36.5,246.7,36.7,246.3,36.9,246.1z"/>
</g>
</svg>
