<?xml version="1.0" encoding="utf-8"?>
<!-- Generator: Adobe Illustrator 25.0.1, SVG Export Plug-In . SVG Version: 6.00 Build 0)  -->
<svg version="1.1"
	 id="图层_1" inkscape:version="0.92.3 (2405546, 2018-03-11)" xmlns:cc="http://creativecommons.org/ns#" xmlns:dc="http://purl.org/dc/elements/1.1/" xmlns:inkscape="http://www.inkscape.org/namespaces/inkscape" xmlns:rdf="http://www.w3.org/1999/02/22-rdf-syntax-ns#" xmlns:sodipodi="http://sodipodi.sourceforge.net/DTD/sodipodi-0.dtd" xmlns:svg="http://www.w3.org/2000/svg"
	 xmlns="http://www.w3.org/2000/svg" xmlns:xlink="http://www.w3.org/1999/xlink" x="0px" y="0px" viewBox="0 0 139.8 200"
	 style="enable-background:new 0 0 139.8 200;" xml:space="preserve">
<style type="text/css">
	.st0{fill:#FFFFFF;}
</style>
<path class="st0" d="M112,200.5H28c-15.4,0-27.9-12.5-27.9-27.9V28.4C0.1,13,12.6,0.5,28,0.5h84c15.4,0,27.9,12.5,27.9,27.9v144.2
	C139.9,188,127.4,200.5,112,200.5z"/>
<sodipodi:namedview  bordercolor="#666666" borderopacity="1" gridtolerance="10" guidetolerance="10" id="namedview617" inkscape:current-layer="图层_1" inkscape:cx="-148.99666" inkscape:cy="152.60966" inkscape:pageopacity="0" inkscape:pageshadow="2" inkscape:window-height="705" inkscape:window-maximized="1" inkscape:window-width="1366" inkscape:window-x="-8" inkscape:window-y="-8" inkscape:zoom="1" objecttolerance="10" pagecolor="#ffffff" showgrid="false">
	</sodipodi:namedview>
<g id="g1913" transform="matrix(4.0331525,0,0,4.0331525,-375.17998,-900.64328)">
	<path id="path184" inkscape:connector-curvature="0" d="M127.7,226.9v42.4c0,1-0.3,1.8-1,2.5c-0.7,0.7-1.5,1-2.5,1H96.6
		c-1,0-1.8-0.4-2.5-1c-0.7-0.7-1-1.5-1-2.5v-42.4c0-1,0.3-1.8,1-2.5c0.7-0.7,1.5-1,2.5-1h27.5c1,0,1.8,0.3,2.5,1
		C127.3,225.1,127.7,225.9,127.7,226.9L127.7,226.9z M124.1,225.1H96.6c-0.5,0-0.9,0.2-1.3,0.5c-0.3,0.3-0.5,0.8-0.5,1.3v42.4
		c0,0.5,0.2,0.9,0.5,1.3c0.3,0.3,0.8,0.5,1.3,0.5h27.5c0.5,0,0.9-0.2,1.3-0.5c0.3-0.3,0.5-0.8,0.5-1.3v-42.4c0-0.5-0.2-0.9-0.5-1.3
		C125,225.3,124.6,225.1,124.1,225.1z"/>
	<path id="path186" inkscape:connector-curvature="0" d="M106,259c-1.5,0-2.3-0.4-2.3-1.2c0-0.2,0.3-0.5,0.9-0.8
		c-0.7-1.8-1.3-3.6-2-5.3c-0.7-1.7-1.1-2.9-1.4-3.6c-0.3-0.7-0.4-1.2-0.5-1.4c0,0,0.1-0.1,0.1-0.1c0.1-0.1,0.1-0.1,0.1-0.1
		c0,0,0.1,0,0.1,0c1.2,0.8,2,1.5,2.3,2.1c1.4-0.4,2.4-0.9,3.2-1.3c-0.2-2.2-0.4-3.3-0.4-3.3c0-0.6,0.1-1,0.4-1
		c0.3,0,0.6,0.4,0.7,1.3c0.2,0.8,0.2,1.6,0.2,2.2c1.3-1.4,2.2-2.4,2.8-3.2c0.1-0.5,0.2-0.8,0.2-1l0.9-0.3c0.7-0.5,1.1-1,1.3-1.4
		c-0.2-0.2-0.9-0.4-2-0.4c-1.3,0-2.7,0.1-4.3,0.4c-1.5,0.2-2.8,0.5-3.9,0.7c-1,0.2-1.6,0.4-1.7,0.4c-0.8,0-1.3-0.2-1.3-0.7
		c0.8-0.2,2.6-0.6,5.6-1.2c2.9-0.7,5.4-1.2,7.4-1.6c2-0.4,3.2-0.7,3.6-0.7c0.3,0,0.6,0.1,0.8,0.1c0.2,0.1,0.4,0.3,0.7,0.5
		c0.3,0.2,0.5,0.4,0.7,0.5c1.7,1,2.6,1.8,2.6,2.6c0,0.5-0.3,0.8-0.8,0.8c-0.6,0-1.6-0.1-2.9-0.3c-1.4-0.2-2.3-0.3-2.9-0.3
		c-0.2,0-0.5,0-1,0.1c-0.3,0.2-0.5,0.4-0.5,0.7c0.7,0.4,1.1,0.8,1.1,1.2c0,0.3-0.1,0.5-0.3,0.6c-0.2,0.1-0.5,0.2-0.8,0.2
		c-0.4,0.1-0.7,0.1-0.9,0.2c-0.2,0.4-0.3,0.9-0.4,1.5c0.6-0.1,1.2-0.3,1.6-0.5c0.4-0.2,0.8-0.4,1.2-0.4c0.6,0,1.7,0.5,3,1.6
		c1.4,1.1,2.1,2,2.1,2.7c0,0.3-0.1,0.6-0.4,1c-0.3,0.3-0.6,0.7-1.1,1c-0.5,0.4-1.1,1.2-1.9,2.3c-0.8,1.2-1.5,2.6-2.3,4.3
		c-0.3,0.7-1,1.1-2.2,1.1c-0.3,0-0.8,0-1.4-0.1c-0.6-0.1-1.1-0.1-1.4-0.1c-0.4,0-0.9,0-1.5,0.1C106.8,258.9,106.3,259,106,259
		L106,259z M103.8,249.4c1.2,2.7,2.1,5.2,2.6,7.4h1c0-0.4-0.1-1.1-0.3-2.2c-0.2-1.1-0.2-2-0.2-2.8c0-0.1,0-0.4,0-0.7
		c0-0.4-0.1-0.9-0.1-1.4c0-0.6-0.1-1-0.1-1.4C105.9,248.4,105,248.8,103.8,249.4L103.8,249.4z M107.8,247.7c0,0.4,0.1,1.6,0.2,3.6
		c0.1,2.1,0.2,3.9,0.3,5.5c0.1,0,0.2,0,0.5,0c0.2,0,0.4,0,0.5,0c0.1-1.2,0.2-2.5,0.3-3.7c0.1-1.2,0.2-2.4,0.3-3.6
		c0.1-1.2,0.2-2,0.2-2.4c-0.2,0-0.6,0.1-1.1,0.3C108.4,247.6,108,247.7,107.8,247.7L107.8,247.7z M110.3,244.9c-0.2-0.1-0.6,0-1,0.2
		c-0.2,0.4-0.4,0.9-0.5,1.4c0.2,0,0.5-0.1,0.8-0.2c0.3-0.1,0.5-0.1,0.6-0.2c0-0.1,0-0.2,0-0.5c0-0.2,0-0.4,0-0.5V244.9z
		 M111.4,246.8c-0.6,5.1-1,8.5-1.1,10.2c0.4,0,0.7,0,1-0.1c0.6-0.8,1.4-2.2,2.4-4.3c1.1-2.1,1.6-3.4,1.6-3.9c0-0.5-0.3-1-0.9-1.4
		c-0.6-0.4-1.1-0.7-1.5-0.7C112.5,246.7,112,246.7,111.4,246.8L111.4,246.8z"/>
</g>
</svg>
