<?xml version="1.0" encoding="utf-8"?>
<!-- Generator: Adobe Illustrator 25.0.1, SVG Export Plug-In . SVG Version: 6.00 Build 0)  -->
<svg version="1.1"
	 id="图层_1" inkscape:version="0.92.3 (2405546, 2018-03-11)" xmlns:cc="http://creativecommons.org/ns#" xmlns:dc="http://purl.org/dc/elements/1.1/" xmlns:inkscape="http://www.inkscape.org/namespaces/inkscape" xmlns:rdf="http://www.w3.org/1999/02/22-rdf-syntax-ns#" xmlns:sodipodi="http://sodipodi.sourceforge.net/DTD/sodipodi-0.dtd" xmlns:svg="http://www.w3.org/2000/svg"
	 xmlns="http://www.w3.org/2000/svg" xmlns:xlink="http://www.w3.org/1999/xlink" x="0px" y="0px" viewBox="0 0 139.8 200"
	 style="enable-background:new 0 0 139.8 200;" xml:space="preserve">
<style type="text/css">
	.st0{fill:#FFFFFF;}
</style>
<sodipodi:namedview  bordercolor="#666666" borderopacity="1" gridtolerance="10" guidetolerance="10" id="namedview617" inkscape:current-layer="图层_1" inkscape:cx="-40.49666" inkscape:cy="152.60966" inkscape:pageopacity="0" inkscape:pageshadow="2" inkscape:window-height="705" inkscape:window-maximized="1" inkscape:window-width="1366" inkscape:window-x="-8" inkscape:window-y="-8" inkscape:zoom="1" objecttolerance="10" pagecolor="#ffffff" showgrid="false">
	</sodipodi:namedview>
<path class="st0" d="M112,200.5H28c-15.4,0-27.9-12.5-27.9-27.9V28.4C0.1,13,12.6,0.5,28,0.5h84c15.4,0,27.9,12.5,27.9,27.9v144.2
	C139.9,188,127.4,200.5,112,200.5z"/>
<g id="g1928" transform="matrix(4.0331525,0,0,4.0331525,-220.96433,-900.64328)">
	<path id="path180" inkscape:connector-curvature="0" d="M89.4,226.9v42.4c0,1-0.3,1.8-1,2.5c-0.7,0.7-1.5,1-2.5,1H58.4
		c-1,0-1.8-0.4-2.5-1c-0.7-0.7-1-1.5-1-2.5v-42.4c0-1,0.3-1.8,1-2.5c0.7-0.7,1.5-1,2.5-1h27.5c1,0,1.8,0.3,2.5,1
		C89.1,225.1,89.4,225.9,89.4,226.9L89.4,226.9z M85.9,225.1H58.4c-0.5,0-0.9,0.2-1.3,0.5c-0.3,0.3-0.5,0.8-0.5,1.3v42.4
		c0,0.5,0.2,0.9,0.5,1.3c0.3,0.3,0.8,0.5,1.3,0.5h27.5c0.5,0,0.9-0.2,1.3-0.5c0.3-0.3,0.5-0.8,0.5-1.3v-42.4c0-0.5-0.2-0.9-0.5-1.3
		C86.8,225.3,86.4,225.1,85.9,225.1z"/>
	<path id="path182" inkscape:connector-curvature="0" d="M70.9,255.8c-0.2,0.1-0.5,0.2-0.8,0.2c-0.3,0.1-0.5,0.1-0.7,0.2
		c-0.2,0.1-0.3,0.1-0.4,0.1c-0.3,0-0.5-0.2-0.7-0.6c0.2-0.1,0.6-0.3,1.1-0.4c0.6-0.2,1.1-0.3,1.5-0.5c0-0.2-0.1-0.5-0.1-0.8
		s-0.1-0.6-0.1-0.8c-0.4,0.1-0.7,0.2-1,0.3c-0.3,0.1-0.5,0.2-0.6,0.3c-0.1,0.1-0.2,0.1-0.3,0.1c-0.3,0-0.6-0.2-0.9-0.5
		c0.3-0.2,1-0.6,2.2-1c-0.1-0.8-0.5-1.6-1.3-2.4c-0.6,0.2-1.2,0.4-2,0.9c-0.8,0.4-1.1,0.7-1.1,1c0,0.6,0.4,1.7,1.3,3.4
		c0.8,1.7,1.3,2.8,1.3,3.5c0,0.3-0.1,0.5-0.4,0.7c-0.2,0.2-0.5,0.3-0.7,0.3c-0.2,0-0.5-0.1-0.7-0.3c-0.2-0.2-0.5-0.6-0.7-1
		c-0.3-0.5-0.5-0.9-0.7-1.3c-0.2-0.4-0.4-0.9-0.7-1.6c-0.3-0.7-0.5-1.2-0.7-1.5c-0.8-1.5-1.4-3-1.9-4.5l0.4-0.2
		c0.3,0,0.6,0.1,0.9,0.2c0.3,0.1,0.7,0.3,1.1,0.6s0.8,0.4,1,0.6c1.9-0.7,3-1.1,3.2-1.3c-0.6-0.6-1.3-1.1-2.1-1.5
		c-0.7-0.4-1.3-0.6-1.7-0.7c-0.4-0.1-0.6-0.3-0.6-0.4s0-0.3,0.1-0.4c0.1-0.1,0.2-0.1,0.3-0.1c2.9,1.2,4.5,2.1,4.8,2.7
		c0.3-0.2,0.7-0.3,1-0.4c0.3-1.4,0.5-2.8,0.6-4.1c-1,0.2-1.9,0.4-2.9,0.4c-0.2,0-0.5-0.1-0.7-0.4c0.1-0.1,0.6-0.3,1.6-0.6
		c0.9-0.3,1.7-0.6,2.3-0.9c0.2-2.1,0.3-3.4,0.3-4.1c0-1.2-0.2-1.9-0.7-1.9h-0.2c0.6-1.2,1.3-2.2,2.3-3.1c0.4,0.2,1,0.8,1.7,1.9
		c0.7,1.1,1.1,2,1.1,2.7c0,0,0,0.1,0,0.2c0,0.1,0,0.2,0,0.2c-0.1,0-0.3,0.1-0.5,0.1c-0.5,0-1-0.2-1.4-0.5c-0.1,0.3-0.2,0.8-0.4,1.7
		c-0.2,0.8-0.3,1.5-0.4,1.9c0.3-0.2,0.8-0.5,1.4-1c0.6-0.5,1-0.8,1.2-0.8c0.2,0,0.5,0.3,0.8,0.8c0.3,0.5,0.5,0.9,0.5,1.3
		c-1,0.6-2.5,1.1-4.5,1.7c-0.4,0.9-0.7,2-1.1,3.1c0.7-0.1,1.7-0.7,3.2-1.8c1.4-1.1,2.4-1.8,2.9-2c0.8,0.7,1.2,1.2,1.2,1.5
		c0,0.2-0.1,0.4-0.1,0.6c-0.1,0.1-0.2,0.3-0.4,0.5c-0.2,0.2-0.4,0.3-0.5,0.5c0.7,0,1.2,0,1.5,0.1c0.3,0.1,0.6,0.2,1,0.5
		c0.4,0.3,0.8,0.8,1.2,1.5c0.2,0.3,0.4,0.7,0.7,1c0.3,0.4,0.5,0.7,0.6,0.9c0.1,0.2,0.2,0.5,0.2,0.8c0,0.7-0.8,2.4-2.3,5
		c-0.4,0.6-0.7,1.3-1.1,2c-0.4,0.8-0.7,1.3-0.9,1.7c-0.2,0.4-0.4,0.8-0.7,1.1c-0.3,0.4-0.5,0.6-0.7,0.8c-0.2,0.1-0.5,0.2-0.7,0.2
		c-0.4,0-0.7-0.1-1-0.2c-0.3-0.1-0.6-0.3-1-0.6c-0.3-0.3-0.9-0.7-1.7-1.3s-1.8-1.2-2.8-1.8c0.4,0,0.8,0.1,1.1,0.2
		C70.9,258,70.9,257.1,70.9,255.8L70.9,255.8z M74.1,248.5c-1.9,0.2-3.4,0.6-4.6,1.1c0.6,0.9,1,1.7,1.2,2.6c0.8-0.2,1.5-0.4,2-0.7
		C73.4,250.4,73.8,249.4,74.1,248.5z M71,247.4c-0.1,0.2-0.2,0.5-0.3,1.1c1.9-0.5,3.2-1,4-1.6c0.1-0.2,0.1-0.4,0.1-0.5
		c0-0.2-0.2-0.4-0.5-0.4c-0.1,0-0.3,0.1-0.7,0.2c-0.3,0.2-0.7,0.3-1.3,0.6C72,247.1,71.5,247.3,71,247.4L71,247.4z M76,252.2
		c-1.2,0-2.3,0.1-3.3,0.4c0,0.1-0.1,0.7-0.2,1.7c0.6-0.1,1-0.3,1.5-0.4c0.4-0.2,0.7-0.3,0.9-0.3s0.3-0.1,0.4-0.1
		c0.5,0,0.8,0.3,0.8,1c0,0.3-0.1,0.4-0.4,0.4c-1,0-2.1,0.1-3.2,0.4c-0.1,1.8-0.2,2.9-0.4,3.6c1.4,0.6,2.2,0.9,2.3,0.9
		c0.1,0,0.3-0.1,0.6-0.4c0.3-0.3,0.6-0.8,1-1.4c0.4-0.7,0.8-1.5,1.2-2.3c0.2-0.4,0.4-0.8,0.6-1.3s0.4-0.8,0.5-1s0.2-0.4,0.3-0.7
		s0.2-0.5,0.2-0.7c0-0.2,0.1-0.4,0.1-0.7c0-0.4-0.7-1.3-2.1-2.8c-0.4-0.1-0.8-0.1-1.1,0c-0.1,0.2-0.3,0.4-0.5,0.7
		c-0.2,0.3-0.5,0.7-0.7,1c-0.2,0.4-0.4,0.7-0.6,1.1c0.8-0.2,1.4-0.2,1.7-0.2c0.2,0,0.5,0.1,0.7,0.3s0.3,0.4,0.3,0.6
		C76.7,252,76.4,252.2,76,252.2z"/>
</g>
</svg>
