<?xml version="1.0" encoding="utf-8"?>
<!-- Generator: Adobe Illustrator 25.0.1, SVG Export Plug-In . SVG Version: 6.00 Build 0)  -->
<svg version="1.1"
	 id="图层_1" inkscape:version="0.92.3 (2405546, 2018-03-11)" xmlns:cc="http://creativecommons.org/ns#" xmlns:dc="http://purl.org/dc/elements/1.1/" xmlns:inkscape="http://www.inkscape.org/namespaces/inkscape" xmlns:rdf="http://www.w3.org/1999/02/22-rdf-syntax-ns#" xmlns:sodipodi="http://sodipodi.sourceforge.net/DTD/sodipodi-0.dtd" xmlns:svg="http://www.w3.org/2000/svg"
	 xmlns="http://www.w3.org/2000/svg" xmlns:xlink="http://www.w3.org/1999/xlink" x="0px" y="0px" viewBox="0 0 139.8 200"
	 style="enable-background:new 0 0 139.8 200;" xml:space="preserve">
<style type="text/css">
	.st0{fill:#FFFFFF;}
	.st1{fill:#870000;}
</style>
<path class="st0" d="M112,200.5H28c-15.4,0-27.9-12.5-27.9-27.9V28.4C0.1,13,12.6,0.5,28,0.5h84c15.4,0,27.9,12.5,27.9,27.9v144.2
	C139.9,188,127.4,200.5,112,200.5z"/>
<sodipodi:namedview  bordercolor="#666666" borderopacity="1" gridtolerance="10" guidetolerance="10" id="namedview617" inkscape:current-layer="图层_1" inkscape:cx="-23.49666" inkscape:cy="152.60966" inkscape:pageopacity="0" inkscape:pageshadow="2" inkscape:window-height="705" inkscape:window-maximized="1" inkscape:window-width="1366" inkscape:window-x="-8" inkscape:window-y="-8" inkscape:zoom="1" objecttolerance="10" pagecolor="#ffffff" showgrid="false">
	</sodipodi:namedview>
<g id="g1958" transform="matrix(4.0331525,0,0,4.0331525,-992.04259,-900.64328)">
	<path id="path198" inkscape:connector-curvature="0" d="M280.6,226.9v42.4c0,1-0.3,1.8-1,2.5c-0.7,0.7-1.5,1-2.5,1h-27.5
		c-1,0-1.8-0.4-2.5-1c-0.7-0.7-1-1.5-1-2.5v-42.4c0-1,0.3-1.8,1-2.5c0.7-0.7,1.5-1,2.5-1H277c1,0,1.8,0.3,2.5,1
		C280.3,225.1,280.6,225.9,280.6,226.9L280.6,226.9z M277,225.1h-27.5c-0.5,0-0.9,0.2-1.3,0.5c-0.3,0.3-0.5,0.8-0.5,1.3v42.4
		c0,0.5,0.2,0.9,0.5,1.3c0.3,0.3,0.8,0.5,1.3,0.5H277c0.5,0,0.9-0.2,1.3-0.5c0.3-0.3,0.5-0.8,0.5-1.3v-42.4c0-0.5-0.2-0.9-0.5-1.3
		C278,225.3,277.6,225.1,277,225.1z"/>
	<path id="path200" inkscape:connector-curvature="0" class="st1" d="M262.3,233.8c0.8,0.3,1.6,1,2.3,2c0.8,1,1.1,1.8,1.1,2.3
		c0,0.2-0.1,0.4-0.2,0.6c-0.1,0.2-0.3,0.3-0.5,0.5c-0.2,0.2-0.4,0.5-0.6,1.1c-0.2,0.6-0.3,1.3-0.4,2.2c0.5-0.2,1.2-0.4,2-0.7
		c0.8-0.3,1.5-0.6,2.1-0.8c0.6-0.2,1-0.3,1.3-0.3c0.3,0,0.8,0.4,1.3,1.1c0.1,0.2,0.4,0.4,0.8,0.8c0.4,0.4,0.7,0.7,0.8,0.9
		c0.1,0.2,0.3,0.4,0.4,0.7c0.2,0.3,0.2,0.6,0.2,0.8c0,0.4-0.2,0.5-0.5,0.5c-0.8,0-1.3,0.1-1.7,0.4c-0.3,0.4-0.6,1-1.1,1.6
		c-0.5,0.6-0.8,1.1-1.1,1.4c-0.3,0.4-0.4,0.6-0.4,0.8c0,0.7-0.3,1.1-0.8,1.1c-0.2,0-0.6-0.1-1.2-0.2c-0.6-0.1-1.4-0.2-2.4-0.2
		c0,0.4,0,1.2-0.1,2.5c0,1.3-0.1,2.1-0.1,2.2c0,0.3,0,1,0.1,2.3c0.1,1.2,0.1,2.1,0.1,2.5c0,1-0.1,2.1-0.4,3.1c-0.3,1-0.6,1.7-0.9,2
		c-0.5-0.4-0.7-1.9-0.7-4.6c0-0.3,0-0.9,0.1-1.8s0.1-1.8,0.1-2.5c0-0.4,0-1.3-0.1-2.7c0-1.4-0.1-2.4-0.1-3c-0.3,0-0.9,0.1-1.6,0.4
		c-0.8,0.3-1.4,0.4-1.9,0.4c-0.3,0-0.5-0.3-0.5-0.9c0-0.4-0.8-1.2-2.3-2.5c-1.5-1.3-2.3-2.3-2.3-3c0-1,0.2-1.7,0.5-2
		c0.3,0.2,0.7,0.5,1.2,0.9c0.5,0.4,0.9,0.7,1.2,1s0.6,0.4,0.9,0.4s1.1-0.3,2.5-0.8c1.4-0.5,2.2-0.9,2.3-1c0-0.1,0-0.4,0-0.9
		c0-0.5,0-0.8,0-1c0-0.2-0.1-0.5-0.1-1c0-0.4-0.1-0.7-0.2-1c-0.1-0.2-0.2-0.5-0.3-0.7c-0.1-0.3-0.2-0.5-0.4-0.6
		c-0.2-0.1-0.4-0.2-0.7-0.2c0-0.1,0-0.2-0.1-0.4s-0.1-0.4-0.1-0.5C260.1,235.8,260.8,234.8,262.3,233.8L262.3,233.8z M257.9,245.8
		c0.9,1.2,1.6,2.4,2.2,3.6c0.6-0.1,1.3-0.2,1.9-0.4v-4.5c-0.4,0.1-0.8,0.3-1.3,0.6c-0.5,0.3-1,0.5-1.4,0.6c-0.4,0.1-0.7,0.2-0.9,0.2
		C258.2,245.9,258.1,245.9,257.9,245.8L257.9,245.8z M264.1,243.8c-0.2,1.9-0.2,3.6-0.2,5c0.2,0,0.4,0,0.8,0c0.4,0,0.8,0,1.1,0
		c0.1-0.2,0.4-0.5,0.7-1c0.4-0.5,0.6-0.9,0.8-1.2c0.2-0.3,0.4-0.7,0.7-1.1c0.3-0.4,0.4-0.8,0.6-1.1s0.2-0.6,0.2-0.9
		c0-0.5-0.3-0.7-1-0.7C267,242.9,265.7,243.2,264.1,243.8L264.1,243.8z"/>
</g>
</svg>
