<?xml version="1.0" encoding="utf-8"?>
<!-- Generator: Adobe Illustrator 25.0.1, SVG Export Plug-In . SVG Version: 6.00 Build 0)  -->
<svg version="1.1"
	 id="图层_1" inkscape:version="0.92.3 (2405546, 2018-03-11)" xmlns:cc="http://creativecommons.org/ns#" xmlns:dc="http://purl.org/dc/elements/1.1/" xmlns:inkscape="http://www.inkscape.org/namespaces/inkscape" xmlns:rdf="http://www.w3.org/1999/02/22-rdf-syntax-ns#" xmlns:sodipodi="http://sodipodi.sourceforge.net/DTD/sodipodi-0.dtd" xmlns:svg="http://www.w3.org/2000/svg"
	 xmlns="http://www.w3.org/2000/svg" xmlns:xlink="http://www.w3.org/1999/xlink" x="0px" y="0px" viewBox="0 0 139.8 200"
	 style="enable-background:new 0 0 139.8 200;" xml:space="preserve">
<style type="text/css">
	.st0{fill:#FFFFFF;}
	.st1{fill:#133F00;}
</style>
<path class="st0" d="M112,200.5H28c-15.4,0-27.9-12.5-27.9-27.9V28.4C0.1,13,12.6,0.5,28,0.5h84c15.4,0,27.9,12.5,27.9,27.9v144.2
	C139.9,188,127.4,200.5,112,200.5z"/>
<sodipodi:namedview  bordercolor="#666666" borderopacity="1" gridtolerance="10" guidetolerance="10" id="namedview617" inkscape:current-layer="图层_1" inkscape:cx="-194.99666" inkscape:cy="152.60966" inkscape:pageopacity="0" inkscape:pageshadow="2" inkscape:window-height="705" inkscape:window-maximized="1" inkscape:window-width="1366" inkscape:window-x="-8" inkscape:window-y="-8" inkscape:zoom="1" objecttolerance="10" pagecolor="#ffffff" showgrid="false">
	</sodipodi:namedview>
<g id="g1973" transform="matrix(4.0331525,0,0,4.0331525,-837.83097,-900.64328)">
	<path id="path194" inkscape:connector-curvature="0" d="M242.4,226.9v42.4c0,1-0.4,1.8-1,2.5c-0.7,0.7-1.5,1-2.5,1h-27.5
		c-1,0-1.8-0.4-2.5-1c-0.7-0.7-1-1.5-1-2.5v-42.4c0-1,0.3-1.8,1-2.5c0.7-0.7,1.5-1,2.5-1h27.5c1,0,1.8,0.3,2.5,1
		C242,225.1,242.4,225.9,242.4,226.9L242.4,226.9z M238.8,225.1h-27.5c-0.5,0-0.9,0.2-1.3,0.5c-0.3,0.3-0.5,0.8-0.5,1.3v42.4
		c0,0.5,0.2,0.9,0.5,1.3c0.3,0.3,0.8,0.5,1.3,0.5h27.5c0.5,0,0.9-0.2,1.3-0.5c0.3-0.3,0.5-0.8,0.5-1.3v-42.4c0-0.5-0.2-0.9-0.5-1.3
		C239.7,225.3,239.3,225.1,238.8,225.1z"/>
	<path id="path196" inkscape:connector-curvature="0" class="st1" d="M232.6,252.6c-0.2,0.4-0.9,0.6-2.3,0.6c-0.2,0-0.5,0-0.9,0
		c-0.4,0-0.7,0-1,0c-0.1,0-0.2,0-0.4,0c-0.2,0-0.4,0-0.5,0c-0.2,2.2-0.4,3.4-0.5,3.6c-0.3,0.4-0.9,0.9-2,1.5
		c-1.1,0.6-1.8,0.9-2.1,0.9c-0.2,0-0.4-0.1-0.6-0.2c-0.2-0.2-0.3-0.3-0.3-0.5c0-0.2,0.3-0.6,0.9-1c0.6-0.4,1.2-0.9,1.9-1.6
		c0.7-0.7,1-1.5,1.2-2.5c-0.2,0-0.6,0.1-1.3,0.1c-0.7,0.1-1.2,0.1-1.5,0.2c-0.2,0.5-0.5,1-0.8,1.7c-0.3,0.7-0.5,1.2-0.7,1.5
		c-0.2,0.3-0.3,0.7-0.6,1c-0.2,0.4-0.4,0.6-0.7,0.8s-0.5,0.2-0.8,0.2c-0.3,0-0.6-0.1-0.9-0.3c-0.3-0.2-0.6-0.4-0.8-0.6
		c-0.2-0.2-0.5-0.5-0.8-1c-0.4-0.4-0.6-0.7-0.8-0.9c-0.2,0.1-0.6,0.1-1.3,0.1c-0.6,0-1.2-0.7-1.6-2.1c1,0.4,1.7,0.7,2.1,0.7
		c0.3,0,1.5-0.4,3.4-1.3c2-0.9,3-1.4,3.2-1.6c0-0.3-0.4-0.7-1-1.1c-0.4,0.1-0.9,0.4-1.6,1c-0.6,0.6-1.1,0.9-1.5,0.9
		c-0.5,0-0.8-0.2-1-0.5c0.3-0.2,0.9-0.6,1.9-1.3c1-0.7,1.8-1.2,2.4-1.4c0.3-0.4,0.5-0.9,0.5-1.4c-0.2-0.1-0.4-0.1-0.6-0.1
		c-0.4,0-0.9,0.2-1.5,0.6c-1.3,1.5-2.4,2.6-3.3,3.3s-2.2,1.1-3.7,1.4c3.2-2.6,5.6-4.9,7.2-6.9c-0.1-0.2-0.7-0.8-1.6-1.8
		c-1-0.9-1.5-1.7-1.5-2.2c0.6,0.1,1.4,0.4,2.3,1.1c0.9,0.7,1.5,1.2,1.9,1.6c1.1-1.4,1.9-2.6,2.3-3.9c-0.4,0-1.1,0.3-1.9,0.7
		c-0.8,0.4-1.4,0.6-1.9,0.6c-0.3,0-0.6-0.1-0.7-0.2c0,0,0.3-0.2,0.8-0.6c0.5-0.4,1.1-0.8,1.7-1.2c0.6-0.4,1.1-0.8,1.5-1.1
		c0.2-0.2,0.5-0.6,0.8-1c0.3-0.4,0.6-0.7,0.8-1c0.2-0.2,0.5-0.4,0.7-0.4s0.5,0.1,0.7,0.3c0.2,0.2,0.4,0.4,0.4,0.6
		c0,0-0.1,0.4-0.4,1.2c0.1,0.2,0.5,0.7,1.1,1.4c0.4-0.5,0.8-1.5,1.3-3c0.5-1.5,0.9-2.4,1.1-2.6c0.2,0.1,0.5,0.3,0.8,0.8
		c0.3,0.5,0.5,0.8,0.5,1.2c0,0.1-0.1,0.3-0.3,0.4c-0.2,0.2-0.3,0.3-0.4,0.5c-0.5,1.2-1.2,2.5-2.2,3.9c0.7,1,1.1,1.6,1.3,1.8
		c0.8-0.8,1.4-1.7,1.6-2.5c0.4,0,0.7,0.2,1,0.5c0.3,0.3,0.5,0.6,0.5,0.9c0,0.3-0.1,0.4-0.3,0.4c-0.2,0-0.5,0.1-0.7,0.2
		c-0.2,0.2-0.5,0.4-0.7,0.7c-0.3,0.3-0.5,0.5-0.6,0.6c1.2,1.6,2.2,2.8,3,3.6c0.8,0.8,1.4,1.3,1.7,1.5c0.3,0.1,0.7,0.6,1.3,1.3
		c0.5,0.7,1.2,1.9,2,3.5c-0.4,0-0.9-0.2-1.5-0.5c-0.6-0.3-1.4-0.8-2.3-1.3c-0.9-0.6-1.7-1-2.4-1.3c-0.2-0.4-0.5-1-0.9-2.1
		s-1-2.3-2-3.9c-0.3,0.2-0.7,0.2-1,0.2c0.4-0.7,0.6-1,0.6-1.1c-1.1-2.1-2.1-3.6-2.9-4.5c-0.6,1.1-1.8,3.2-3.8,6.3
		c0.2,0.2,0.5,0.4,0.8,0.4c0.2,0,0.4-0.1,0.7-0.3c0.3-0.2,0.5-0.3,0.7-0.3c0.5,0,0.8,0.2,1,0.5c-0.1,0.2-0.2,0.3-0.4,0.4
		c-0.2,0.1-0.3,0.2-0.5,0.3c-0.2,0.1-0.4,0.2-0.5,0.3c-0.2,0.4-0.3,0.8-0.2,1.3c0.7-0.1,1.3-0.4,2-0.8c0.5-1.9,0.8-3.5,0.8-4.8
		c0-0.3,0-0.6-0.1-0.9c1,0.6,1.5,1.4,1.5,2.2c0,0.3,0,0.5-0.1,0.7c-0.1,0.2-0.1,0.3-0.2,0.5c-0.1,0.2-0.3,0.5-0.5,1.1
		c-0.2,0.6-0.5,1.3-0.7,2.2c0.2,0.2,0.4,0.4,0.5,0.4c0.3,0,0.7-0.2,1.3-0.5c0.6-0.3,1.1-0.5,1.6-0.5c0.4,0,0.7,0.3,0.8,0.9
		c-0.1,0.1-0.4,0.2-0.9,0.3c-0.5,0.1-0.9,0.3-1.1,0.4c-0.1,0.7-0.2,1.5-0.2,2.3c0.4,0,0.8,0,1.3-0.1c0.5,0,0.8-0.1,0.8-0.1
		c0.2,0,0.3-0.1,0.6-0.2c0.2-0.1,0.4-0.2,0.6-0.1C231.6,251.8,232.2,252.1,232.6,252.6L232.6,252.6z M216.6,255.9
		c0.6,0.6,1.5,1,2.5,1c0.4,0,0.9-0.4,1.5-1.3c0.6-0.8,0.9-1.4,0.9-1.7c0-0.2-0.1-0.4-0.4-0.6C219.2,254.2,217.7,255,216.6,255.9z
		 M223.9,250.9c0-0.1,0-0.3,0.1-0.4s0.1-0.4,0.2-0.7c0.1-0.3,0.2-0.5,0.2-0.7c-1,0.2-1.9,0.6-2.6,1.3c0.1,0.4,0.3,0.6,0.5,0.8
		c0.3,0.2,0.4,0.3,0.5,0.4c0.3,0.7,0.5,1.1,0.5,1.2c0.2,0,1.1-0.2,2.6-0.4c0.2-0.8,0.2-1.5,0.2-2.2c-0.5,0-0.9-0.1-1.3-0.2
		C224.5,250.5,224.1,250.8,223.9,250.9L223.9,250.9z M228.8,255.3c0.2-0.2,0.7-0.4,1.5-0.4c0.9,0,1.8,0.2,2.6,0.7
		c0.8,0.5,1.3,1,1.3,1.6s-0.3,1.1-0.9,1.5c-0.6,0.4-1.3,0.6-1.9,0.6c0,0-0.1,0-0.1,0c-0.1,0-0.1,0-0.1,0c-0.2-0.3-0.4-0.8-0.7-1.4
		C230,257.2,229.5,256.3,228.8,255.3L228.8,255.3z"/>
</g>
</svg>
