<?xml version="1.0" encoding="utf-8"?>
<!-- Generator: Adobe Illustrator 25.0.1, SVG Export Plug-In . SVG Version: 6.00 Build 0)  -->
<svg version="1.1"
	 id="图层_1" inkscape:version="0.92.3 (2405546, 2018-03-11)" xmlns:cc="http://creativecommons.org/ns#" xmlns:dc="http://purl.org/dc/elements/1.1/" xmlns:inkscape="http://www.inkscape.org/namespaces/inkscape" xmlns:rdf="http://www.w3.org/1999/02/22-rdf-syntax-ns#" xmlns:sodipodi="http://sodipodi.sourceforge.net/DTD/sodipodi-0.dtd" xmlns:svg="http://www.w3.org/2000/svg"
	 xmlns="http://www.w3.org/2000/svg" xmlns:xlink="http://www.w3.org/1999/xlink" x="0px" y="0px" viewBox="0 0 139.8 200"
	 style="enable-background:new 0 0 139.8 200;" xml:space="preserve">
<style type="text/css">
	.st0{fill:#FFFFFF;}
	.st1{fill:#00082D;}
</style>
<path class="st0" d="M112,200.5H28c-15.4,0-27.9-12.5-27.9-27.9V28.4C0.1,13,12.6,0.5,28,0.5h84c15.4,0,27.9,12.5,27.9,27.9v144.2
	C139.9,188,127.4,200.5,112,200.5z"/>
<sodipodi:namedview  bordercolor="#666666" borderopacity="1" gridtolerance="10" guidetolerance="10" id="namedview617" inkscape:current-layer="图层_1" inkscape:cx="-6.49666" inkscape:cy="112.60966" inkscape:pageopacity="0" inkscape:pageshadow="2" inkscape:window-height="705" inkscape:window-maximized="1" inkscape:window-width="1366" inkscape:window-x="-8" inkscape:window-y="-8" inkscape:zoom="1" objecttolerance="10" pagecolor="#ffffff" showgrid="false">
	</sodipodi:namedview>
<g id="g1988" transform="matrix(4.0331525,0,0,4.0331525,-2543.1043,-882.47797)">
	<path id="path596" inkscape:connector-curvature="0" d="M630.5,222.4c0-1,0.3-1.8,1-2.5c0.7-0.7,1.5-1,2.5-1h27.5
		c1,0,1.8,0.3,2.5,1c0.7,0.7,1,1.5,1,2.5v42.4c0,1-0.3,1.8-1,2.5c-0.7,0.7-1.5,1-2.5,1h-27.5c-1,0-1.8-0.4-2.5-1
		c-0.7-0.7-1-1.5-1-2.5 M632.3,264.8c0,0.5,0.2,0.9,0.5,1.3c0.3,0.3,0.8,0.5,1.3,0.5h27.5c0.5,0,0.9-0.2,1.3-0.5
		c0.3-0.3,0.5-0.8,0.5-1.3v-42.4c0-0.5-0.2-0.9-0.5-1.3c-0.3-0.3-0.8-0.5-1.3-0.5h-27.5c-0.5,0-0.9,0.2-1.3,0.5
		c-0.3,0.3-0.5,0.8-0.5,1.3"/>
	<path id="path600" inkscape:connector-curvature="0" class="st1" d="M635.5,222.8h3.6v3.6h-3.6V222.8z M639.1,227v3h-2.3v-1.8h1.1
		v0.6h-0.6v0.6h1.2v-1.8h-2.4v3h3v4.3h-3.6v-3h2.4v1.8h-1.1V233h0.6v-0.6h-1.2v1.9h2.4v-3h-3V227L639.1,227L639.1,227z M639.1,235.5
		v3h-2.3v-1.9h1.1v0.6h-0.6v0.6h1.2v-1.8h-2.4v3h3v4.2h-3.6v-3h2.4v1.8h-1.1v-0.6h0.6v-0.6h-1.2v1.8h2.4v-3.1h-3v-4.1L639.1,235.5
		L639.1,235.5z M639.1,243.9v3h-2.3v-1.8h1.1v0.6h-0.6v0.6h1.2v-1.8h-2.4v3h3v4.2h-3.6v-3h2.4v1.8h-1.1v-0.6h0.6v-0.6h-1.2v1.8h2.4
		v-3h-3v-4.2L639.1,243.9z M639.1,252.3v3h-2.3v-1.8h1.1v0.6h-0.6v0.6h1.2v-1.8h-2.4v3h3v4.2h-3.6v-3h2.4v1.8h-1.1v-0.6h0.6v-0.5
		h-1.2v1.7h2.4v-3h-3v-4.2L639.1,252.3L639.1,252.3z M635.5,260.8h3.6v3.6h-3.6V260.8z M636.1,223.4v2.4h2.4v-2.4H636.1z
		 M636.1,261.4v2.4h2.4v-2.4H636.1z M636.8,224h1.1v1.3h-1.1V224z M636.8,262h1.1v1.2h-1.1V262z M639.7,222.8h3v2.5H641V224h0.6v0.6
		h0.6v-1.3h-1.8v2.4h3v-3h4.2v3.6h-3V224h1.8v1.3h-0.6v-0.6h-0.6v1.1h1.9v-2.4H644v3h-4.2L639.7,222.8z M639.7,260.8h3v2.4H641V262
		h0.6v0.7h0.6v-1.3h-1.8v2.4h3v-3h4.2v3.6h-3V262h1.8v1.2h-0.6v-0.5h-0.6v1.1h1.9v-2.4H644v3h-4.2L639.7,260.8z M648.2,222.8h3v2.5
		h-1.8V224h0.6v0.6h0.6v-1.3h-1.8v2.4h3.1v-3h4.2v3.6H653V224h1.8v1.3h-0.6v-0.6h-0.7v1.1h1.8v-2.4h-3v3h-4.2L648.2,222.8
		L648.2,222.8z M648.2,260.8h3v2.4h-1.8V262h0.6v0.7h0.6v-1.3h-1.8v2.4h3.1v-3h4.2v3.6H653V262h1.8v1.2h-0.6v-0.5h-0.7v1.1h1.8v-2.4
		h-3v3h-4.2L648.2,260.8L648.2,260.8z M656.7,222.8h3.6v3.6h-3.6V222.8z M660.3,227v3h-2.5v-1.8h1.3v0.6h-0.6v0.6h1.2v-1.8h-2.4v3h3
		v4.3h-3.6v-3h2.4v1.8h-1.3V233h0.6v-0.6h-1.1v1.9h2.4v-3h-3V227L660.3,227L660.3,227z M660.3,235.5v3h-2.5v-1.9h1.3v0.6h-0.6v0.6
		h1.2v-1.8h-2.4v3h3v4.2h-3.6v-3h2.4v1.8h-1.3v-0.6h0.6v-0.6h-1.1v1.8h2.4v-3.1h-3v-4.1L660.3,235.5L660.3,235.5z M660.3,243.9v3
		h-2.5v-1.8h1.3v0.6h-0.6v0.6h1.2v-1.8h-2.4v3h3v4.2h-3.6v-3h2.4v1.8h-1.3v-0.6h0.6v-0.6h-1.1v1.8h2.4v-3h-3v-4.2L660.3,243.9z
		 M660.3,252.3v3h-2.5v-1.8h1.3v0.6h-0.6v0.6h1.2v-1.8h-2.4v3h3v4.2h-3.6v-3h2.4v1.8h-1.3v-0.6h0.6v-0.5h-1.1v1.7h2.4v-3h-3v-4.2
		L660.3,252.3L660.3,252.3z M656.7,260.8h3.6v3.6h-3.6V260.8z M657.3,223.4v2.4h2.4v-2.4H657.3z M657.3,261.4v2.4h2.4v-2.4H657.3z
		 M657.8,224h1.3v1.3h-1.3V224z M657.8,262h1.3v1.2h-1.3V262z"/>
</g>
</svg>
