<?xml version="1.0" encoding="utf-8"?>
<!-- Generator: Adobe Illustrator 25.0.1, SVG Export Plug-In . SVG Version: 6.00 Build 0)  -->
<svg version="1.1"
	 id="图层_1" inkscape:version="0.92.3 (2405546, 2018-03-11)" xmlns:cc="http://creativecommons.org/ns#" xmlns:dc="http://purl.org/dc/elements/1.1/" xmlns:inkscape="http://www.inkscape.org/namespaces/inkscape" xmlns:rdf="http://www.w3.org/1999/02/22-rdf-syntax-ns#" xmlns:sodipodi="http://sodipodi.sourceforge.net/DTD/sodipodi-0.dtd" xmlns:svg="http://www.w3.org/2000/svg"
	 xmlns="http://www.w3.org/2000/svg" xmlns:xlink="http://www.w3.org/1999/xlink" x="0px" y="0px" viewBox="0 0 139.8 200"
	 style="enable-background:new 0 0 139.8 200;" xml:space="preserve">
<style type="text/css">
	.st0{fill:#FFFFFF;}
	.st1{fill:#A00283;}
	.st2{fill:#870000;}
	.st3{fill:#00082D;}
</style>
<path class="st0" d="M112,200.5H28c-15.4,0-27.9-12.5-27.9-27.9V28.4C0.1,13,12.6,0.5,28,0.5h84c15.4,0,27.9,12.5,27.9,27.9v144.2
	C139.9,188,127.4,200.5,112,200.5z"/>
<sodipodi:namedview  bordercolor="#666666" borderopacity="1" gridtolerance="10" guidetolerance="10" id="namedview617" inkscape:current-layer="图层_1" inkscape:cx="-17.99666" inkscape:cy="112.60966" inkscape:pageopacity="0" inkscape:pageshadow="2" inkscape:window-height="705" inkscape:window-maximized="1" inkscape:window-width="1366" inkscape:window-x="-8" inkscape:window-y="-8" inkscape:zoom="1" objecttolerance="10" pagecolor="#ffffff" showgrid="false">
	</sodipodi:namedview>
<g id="g2005" transform="matrix(4.0331525,0,0,4.0331525,-1886.4627,-881.46968)">
	<path id="path546" inkscape:connector-curvature="0" class="st1" d="M484.1,244.6L484.1,244.6c0-0.1,0.1-0.2,0.2-0.2l0.2-0.7
		l0.4-0.4c0.5-0.4,1.1-0.7,2-0.7c0.1,0,0.4,0.1,0.9,0.2c0.2,0.1,0.4,0.1,0.5,0.2c0.6,0.5,1.1,1.1,1.6,1.8c0.2,0.3,0.4,0.6,0.4,0.9
		v0.2c0.1-0.1,0.2-0.2,0.4-0.2c0.2-0.1,0.4-0.2,0.5-0.2c0.4,0,0.7,0.1,0.9,0.4c0.2,0.1,0.4,0.3,0.5,0.5v0.2v0.7l-0.1,0.3l-0.1,0.3
		l-0.2,0.2c-0.1,0-0.2,0.1-0.2,0.2h0.4h0.2c0.2,0.1,0.4,0.3,0.4,0.5v0.2v0.2c0,0.2-0.1,0.4-0.2,0.5c-0.1,0.1-0.4,0.2-0.7,0.2
		c-0.1,0-0.2-0.1-0.2-0.2v-0.3v-0.3c0-0.1,0-0.2-0.1-0.2h-0.4h-0.4c-0.4,0-0.6-0.1-0.7-0.4l-0.2-0.4c0-0.1,0.1-0.4,0.4-0.9l0.2-0.2
		c0.1,0,0.2-0.1,0.4-0.2h0.4v-0.2h0.2v-0.1c0-0.2-0.2-0.4-0.5-0.4c-0.2,0-0.4,0.1-0.5,0.2h-0.2v0.5c0,0.1,0,0.2-0.1,0.3
		c-0.1,0.1-0.1,0.1-0.1,0.3c-0.1,0.1-0.2,0.2-0.4,0.2c-0.1,0-0.2-0.1-0.4-0.2v-0.5v-0.4l-0.1-0.2c-0.1-0.1-0.1-0.2-0.3-0.4
		c-0.5-0.7-0.8-1.2-1.1-1.4c-0.2-0.2-0.4-0.4-0.5-0.4c-0.5-0.1-0.8-0.2-0.9-0.2c-0.3,0-0.7,0.1-1.2,0.4l-0.4,0.4h-0.2v0.2v0.2h-0.2
		v0.2v0.2v0.2c0.1,0.1,0.2,0.2,0.2,0.4v0.4c-0.1,0.1-0.3,0.2-0.6,0.3c0,0.1,0,0.2-0.1,0.2c-0.1,0-0.2-0.1-0.2-0.2v-0.1l0.2-0.2
		c0-0.6-0.7-0.9-2-0.9h-0.2c-0.6,0-1.1,0.2-1.5,0.5c-0.1,0-0.3,0.2-0.7,0.5v0.1c-0.1,0.1-0.2,0.3-0.2,0.4c0,0.2,0.1,0.4,0.2,0.4
		c0.1,0.5,0.5,0.8,1.1,1.1c0.1,0,0.4,0,0.7,0l0.5,0.1h0.2h0.2v-0.4c0.1-0.1,0.2-0.2,0.2-0.4c0.4-0.5,0.8-0.8,1.2-0.9
		c0.8-0.4,1.5-0.7,2-0.7c0.7,0,1.2,0.2,1.6,0.7c0.1,0.1,0.2,0.2,0.2,0.4c0,0.4-0.2,0.5-0.5,0.5c-0.2,0-0.4-0.1-0.5-0.4
		c-0.1-0.1-0.4-0.2-0.9-0.2h-0.4c-0.2,0-0.7,0.1-1.4,0.4l-1.1,0.5l-0.2,0.4l0.2,0.2c0.5,0,0.9,0.2,1.2,0.5c0.1,0,0.2,0,0.2,0.1
		c0.1,0.1,0.1,0.1,0.1,0.3h0.4h0.4h0.6c0.3,0,0.5,0.1,0.7,0.2c0.4,0.1,0.8,0.4,1.2,0.9c-0.4-0.1-0.9-0.2-1.6-0.4h-0.7H485l0.2,0.2
		l0.2,0.2v0.2v0.2v0.2h0.5c0.4,0.1,0.9,0.5,1.2,1c-0.4-0.2-0.7-0.3-0.9-0.3h-0.9v0.2l-0.2,0.4H485c-0.2,0-0.4-0.1-0.4-0.2v-0.5
		c0-0.5-0.2-0.9-0.6-1.4c-0.6-0.9-1.5-1.3-2.8-1.4h-1.4h-0.3h-0.3c-0.2,0-0.5,0.1-0.9,0.4c-0.1,0-0.2,0.1-0.3,0.2
		c-0.1,0.1-0.2,0.2-0.4,0.2l-0.2,0.2l-0.4,0.5c-0.1,0.2-0.2,0.4-0.2,0.7c0,0.8,0.5,1.4,1.6,1.8c0.4,0.1,0.7,0.2,1.1,0.2h0.1h0.3
		c0.1,0,0.3,0,0.6-0.1c0.3-0.1,0.6-0.1,0.8-0.1c0.1,0,0.3,0,0.6-0.1s0.5-0.1,0.6-0.1h0.4h0.4c0.1,0,0.7,0.1,1.8,0.2
		c0.6,0.1,0.9,0.2,1.1,0.4c0.6,0.1,1.1,0.3,1.4,0.5c0.1,0.1,0.2,0.3,0.3,0.4c0.1,0.2,0.3,0.4,0.4,0.5c0.1,0.2,0.3,0.4,0.5,0.6
		c-0.1-0.1-0.3-0.3-0.6-0.5c-0.3-0.2-0.5-0.4-0.7-0.5c-0.2-0.1-0.4-0.2-0.8-0.4h-1.1c-0.2-0.1-0.7-0.2-1.4-0.2
		c-0.3,0.1-1,0.3-2.1,0.5c-0.7,0.2-1.4,0.4-2.1,0.4c-2.3,0-3.7-0.5-4.3-1.6c-0.4-0.4-0.5-0.8-0.5-1.4s0.1-1,0.4-1.2h0.2v-0.4
		c0.4-0.5,0.9-0.8,1.2-1.1c0.5-0.2,1-0.4,1.6-0.5h0.2v-0.2l-0.2-0.2c-0.2-0.4-0.4-0.8-0.4-1.2c0-0.2,0.1-0.4,0.2-0.7l0.2-0.5
		c0.2-0.1,0.5-0.3,0.9-0.5c0.6-0.3,1.3-0.5,2.1-0.5c0.2,0,0.6,0.1,1.1,0.2c0.2,0,0.5,0.1,0.7,0.2h0.2l0.2,0.2
		C484.1,245.1,484.1,244.9,484.1,244.6L484.1,244.6z M481.7,251.2c0-0.2,0.1-0.4,0.2-0.4c1.2,1,1.8,1.5,2,1.6h-0.4
		c-0.6,0-1.1-0.2-1.4-0.5c-0.2-0.1-0.4-0.3-0.4-0.5L481.7,251.2L481.7,251.2z M488.4,249.8l0.2-0.4c0-0.1-0.1-0.2-0.2-0.2l-0.2,0.2
		h-0.2c-0.1,0-0.2-0.1-0.4-0.2c-0.1-0.1-0.2-0.2-0.2-0.4c0-0.2,0.1-0.4,0.2-0.5c0.1,0,0.2,0,0.2,0.1c0,0.1,0,0.1,0.1,0.2
		c0.1,0.1,0.1,0.1,0.3,0.1h0.2h0.3h0.3c0.2,0,0.5,0.1,0.7,0.4h0.1v0.4c0,0.1,0,0.4-0.1,0.7l-0.2,0.5c-0.1,0.2-0.2,0.4-0.4,0.4
		c-0.4,0-0.6-0.1-0.7-0.4c-0.1-0.1-0.2-0.3-0.2-0.5C488.3,250,488.3,249.9,488.4,249.8z M492.5,250.5h0.2c1.1,0.2,1.8,0.6,2.1,1.1
		c0,0.1,0.1,0.3,0.2,0.4l0.2,0.3c0.1,0.1,0.2,0.2,0.2,0.4c0,0.2-0.1,0.4-0.4,0.4c-0.1,0-0.3,0-0.4,0.1l-0.3,0.1h-0.2l-0.9,0.2
		c-0.4,0.2-0.7,0.4-0.9,0.4c-0.4,0.2-0.7,0.4-0.9,0.5c-0.6,0.3-1.2,0.5-1.8,0.5c-0.2,0-0.6-0.1-1.1-0.2c0.8-0.1,1.4-0.2,1.6-0.4
		c0.1-0.1,0.3-0.2,0.4-0.4c0.2-0.1,0.3-0.2,0.4-0.4c0.2-0.1,0.7-0.3,1.4-0.5c0.1-0.1,0.4-0.2,0.9-0.4c0.1,0,0.2,0,0.4-0.1
		c0.1-0.1,0.2-0.1,0.4-0.1h0.2v-0.1c-0.1,0-0.2-0.1-0.2-0.2c-0.1-0.1-0.2-0.2-0.4-0.2c-0.4-0.1-0.9-0.2-1.4-0.2
		c-0.6,0-1.1,0.1-1.6,0.4l-0.5,0.2l-0.1,0c-0.1,0.1-0.1,0.1-0.2,0.2c-0.1,0.1-0.2,0.1-0.2,0.1h-0.2h-0.4c-0.1,0-0.4,0.1-0.7,0.2
		h-0.2v0.2h-0.2v0.2h-0.2c0.2-0.5,0.4-0.8,0.5-0.9l0.4-0.4l0.7-0.5l0.5-0.4c0.7-0.3,1.3-0.5,1.7-0.5H492.5z"/>
	<path id="path548" inkscape:connector-curvature="0" class="st2" d="M492.5,221.8h0.4l0.2,0.2v0.2c-0.2,0.2-0.4,0.7-0.5,1.2
		l1.4-0.5c1,0,1.5,0.2,1.4,0.5c0,0.1-0.7,0.4-2.1,0.7c-0.9,0.4-1.3,0.6-1.2,0.7l-0.4,0.7h0.1l1.8-0.5l0.7-0.2
		c0.4,0.1,0.5,0.2,0.5,0.4c-0.4,0.4-1.1,0.7-2.1,1.1v0.2l0.7,0.5l2.1-0.5l-0.3-0.7v-0.2h0.2l2,0.9c0,0.2-1.1,0.6-3.2,1.1
		c1.2,1.2,2.6,2,4.3,2.3c0.5,0.2,0.7,0.5,0.7,0.7v0.2c-0.1,0.4-0.4,0.5-0.7,0.5c-1.1,0-2.3-0.5-3.6-1.6v2.1v1.4
		c-0.1,0.4-0.3,0.7-0.5,0.9h-0.4c-0.1,0-0.2-0.2-0.4-0.5h-0.2c-0.9,0-1.7,0.2-2.5,0.5c-0.2-0.1-0.4-0.2-0.4-0.4
		c0.5-0.3,1.2-0.6,2.1-0.9h1.1v-0.7v-0.6c0-1.6-0.1-2.4-0.2-2.4h-0.2c-1.2,0-2.1,0.7-2.8,2l1.6-0.5c0.4,0,0.7,0.1,0.9,0.4l-1.3,1.6
		h-0.1l0.4-1.1h-0.5h-0.9v0.1c0,1.2-0.2,1.8-0.5,1.8h-0.2c-0.1,0-0.1-0.1-0.1-0.4l0.5-3.6h0.2c0.1,0,0.2,0.2,0.2,0.5
		c0.8-0.8,1.8-1.4,2.8-1.6l0.4,0.2l-0.7-0.7c-1.9,0.5-2.9,0.9-2.8,1.2c-0.6,1.1-1.4,1.9-2.5,2.4l-1.2,0.6c1.5-1.6,2.6-2.8,3-3.4
		c-1,0.4-1.6,0.5-1.8,0.5l-0.2-0.2c0-0.2,0.7-0.7,2-1.4l0.9-0.9h-0.2l-0.9,0.4c-0.2,0-0.5-0.2-0.7-0.5c1.7-0.2,2.5-0.7,2.5-1.4V225
		h-0.9l-0.9-0.2v-0.2c0-0.1,0.5-0.2,1.6-0.4c0.5,0,0.8-0.6,0.8-1.8h-0.5C491.3,222.3,491.7,222,492.5,221.8L492.5,221.8z M489,228.2
		h0.2c0.6-0.1,0.9-0.4,0.9-0.7C489.4,227.9,489.1,228.1,489,228.2z M490.9,227.7c1.3-0.4,2-0.6,2-0.7l-0.5-0.5
		C491.4,226.7,490.9,227.1,490.9,227.7L490.9,227.7z"/>
	<path id="path550" inkscape:connector-curvature="0" class="st3" d="M472.7,243.2h-0.1h-0.2c-0.1,0.1-0.3,0.2-0.5,0.2
		c-0.8,0-1.3-0.2-1.4-0.5c-0.1-0.1-0.2-0.2-0.2-0.4v-0.4v-0.2c0.2-0.4,0.8-0.5,1.8-0.5c0.1,0,0.2,0,0.3,0.1c0.1,0.1,0.1,0.2,0.2,0.4
		l0.1,0.3l0.7,0.4l0.1,0.1l0.1,0.1v0.2h-0.2h-0.2l-0.2,0.2L472.7,243.2z M472,246.4v-0.5v-0.2c-0.1-0.2-0.2-0.4-0.2-0.5
		c0-0.4,0.2-0.9,0.7-1.2c0.4-0.7,1.3-1.1,2.7-1.2h0.2c1.8,0,3.3,0.4,4.5,1.2h0.2c-0.9-0.2-1.8-0.4-2.9-0.4h-0.7h-0.6h-0.6
		c-0.1,0-0.4,0.2-0.7,0.5c-0.7,0.5-1.1,1-1.1,1.6v0.5h-0.2v0.2v0.2c-0.1,0-0.2,0-0.3,0.1c-0.1,0-0.2,0.1-0.3,0.1l-0.3,0.2
		C472.3,246.9,472.2,246.7,472,246.4L472,246.4z M483.8,260.1l0.2,0.2c0,0.1-0.1,0.3-0.2,0.5c-0.1,0.2-0.2,0.4-0.4,0.4h-0.2
		l-0.2-0.2l-0.2-0.2v-0.2c0-0.1-0.1-0.2-0.2-0.4c-0.1-0.1-0.3-0.2-0.5-0.4c-0.4-0.1-0.8-0.2-1.4-0.2c-0.2,0-0.4,0.1-0.5,0.2
		c-0.1,0-0.3,0.1-0.5,0.2c-0.1,0-0.2,0.1-0.2,0.2v0.2c-0.2,0.4-0.5,0.7-0.9,0.9c-0.1,0-0.2,0-0.4,0.1c-0.1,0.1-0.2,0.1-0.4,0.1
		l-0.2,0.2c-0.2,0-0.4-0.1-0.5-0.2l-0.4-0.4l-0.5-0.5c-0.1-0.1-0.4-0.3-0.7-0.5s-0.7-0.4-0.9-0.5c-0.8-0.6-1.8-0.9-2.8-1.1h0.4
		c0.1,0,0.2,0,0.3-0.1c0.1-0.1,0.2-0.1,0.4-0.1h0.4c0.1,0,0.4,0,0.7,0.1c0.4,0.1,0.7,0.1,0.9,0.1h0.2h0.4h0.4c0.8,0,1.5,0.1,2.1,0.2
		h0.2l0.2,0.2l0.4,0.2h0.4h0.2c0.1,0,0.2,0.1,0.4,0.4c0.1,0,0.2-0.1,0.2-0.2h0.2c0.3-0.1,0.7-0.2,1.1-0.2h0.4c0.1,0,0.3,0,0.5,0.1
		l0.4,0.1c0.1,0,0.2,0,0.3,0.1c0.1,0.1,0.3,0.1,0.4,0.1c0.1,0,0.2,0.1,0.4,0.2C483.5,259.7,483.7,259.9,483.8,260.1L483.8,260.1z
		 M475.2,241.8c-0.4-0.1-0.7-0.3-0.9-0.5c-0.4-0.2-0.5-0.5-0.5-0.9v-0.2c0-0.1,0-0.2,0.1-0.3l0.1-0.1c0-0.1,0-0.3,0.1-0.4
		c0.1-0.2,0.1-0.3,0.2-0.4c0.1-0.1,0.2-0.1,0.4-0.1h0.4c0.7,0,1.2,0.3,1.2,0.9l-0.1,0.3c-0.1,0.2-0.1,0.3-0.1,0.4s0,0.2,0.1,0.3
		c0.1,0.1,0.1,0.2,0.1,0.4v0.2v0.2v0.2l0.1,0.2l0.1,0.2h-0.2C476.1,242.1,475.7,242,475.2,241.8L475.2,241.8z M475.8,261.4
		c-0.2,0-0.5,0.1-0.9,0.2l-0.3,0.1c-0.1,0.1-0.3,0.1-0.4,0.1c-0.2,0-0.4-0.2-0.4-0.5l0.2-0.4v-0.2v-0.2h0.4h0.2c0.6,0,1,0.1,1.2,0.4
		h0.2l0.2,0.5h-0.1H475.8L475.8,261.4z M476,247.3c-0.7-0.1-1.2-0.5-1.4-1.1v-0.7v-0.3v-0.2c0-0.1,0-0.1,0.1-0.3
		c0.1-0.2,0.3-0.4,0.6-0.4h0.2c0.1,0,0.2,0.1,0.4,0.2c0.1,0.1,0.2,0.4,0.2,0.7v0.2v0.4c0,0.4,0.1,0.8,0.2,1.2l0.2,0.2L476,247.3z
		 M476.5,261.7L476.5,261.7h0.2l0.2,0.2c-0.1,0-0.2,0.1-0.2,0.2c-0.1,0.1-0.1,0.3-0.2,0.5c-0.1,0-0.2,0.1-0.2,0.2v0.7
		c0,0.1-0.1,0.2-0.4,0.3h-0.4v0.2l-0.2-0.2h-0.2c-0.2,0-0.4,0-0.6-0.1l-0.1-0.2v-0.4c0-0.7,0.2-1.2,0.7-1.2c0.4-0.1,0.6-0.2,0.7-0.2
		h0.4L476.5,261.7L476.5,261.7z M476.1,231.5L476.1,231.5c0-0.8,0.1-1.2,0.2-1.2c0-0.1,0.1-0.2,0.2-0.2c0.2-0.1,0.3-0.2,0.4-0.2
		c0.1,0,0.3,0.1,0.6,0.4c0.1,0,0.2,0.1,0.4,0.4l0.1,0.3l0.1,0.3c0,0.1-0.1,0.3-0.2,0.4c-0.1,0.2-0.2,0.3-0.2,0.4
		c0,0.4,0.2,0.8,0.5,1.2h-0.5c-0.4,0-0.7-0.2-0.9-0.5c-0.3-0.5-0.6-0.8-0.7-1.1V231.5z M484,258.7c0-0.2-0.2-0.5-0.5-0.7
		c-0.5-0.5-0.9-0.8-1.4-1.1l-0.4-0.2h-0.2c0,0.1,0,0.2,0.1,0.2c0.1,0,0.1,0.1,0.1,0.2l-0.2,0.2v0.2v0.2h0.2c0,0.1-0.1,0.3-0.4,0.5
		c-0.1,0.1-0.4,0.2-0.7,0.2c-0.3,0-0.6-0.1-0.9-0.4c0-0.4,0.1-0.6,0.2-0.7h0.5l0.6-0.5v-0.2h-0.6c-1.1-0.2-2.1-0.4-3.2-0.5H477h-0.2
		h-0.2h0.2c-0.1-0.1-0.3-0.2-0.5-0.2h2.3h1.1c1.2,0,2.1,0.1,2.7,0.4c0.1,0,0.2,0.1,0.4,0.2l0.9,0.2c0.3,0,0.6,0.1,0.7,0.4l0.2,0.2
		c0.1,0.1,0.2,0.5,0.2,1c0,0.2-0.2,0.6-0.6,0.9H484L484,258.7z M477.9,244.4v0.2v0.1c0,0.1,0.1,0.2,0.2,0.2c0,0.1,0,0.2,0.1,0.3
		c0.1,0.1,0.1,0.1,0.1,0.3h-0.2c-0.1,0.2-0.3,0.4-0.5,0.4c-0.2,0-0.4-0.1-0.5-0.4c-0.1,0-0.2-0.1-0.2-0.4c0-0.3,0.1-0.5,0.2-0.6
		l0.1-0.1c0.1-0.1,0.1-0.1,0.3-0.1l0.2-0.2C477.7,244.1,477.8,244.2,477.9,244.4z M477.9,240.5c0.1,0,0.3,0.1,0.5,0.2l0.2,0.2v0.1
		l-0.1,0.2c-0.1,0.1-0.1,0.2-0.1,0.4l0.2,0.2v0.2c0,0.1-0.1,0.2-0.2,0.2l-0.5-0.2c-0.4-0.1-0.5-0.2-0.5-0.4v-0.7v-0.2h-0.2
		C477.3,240.6,477.6,240.5,477.9,240.5L477.9,240.5z M479.2,237v-0.5c-0.2-1.2-0.4-2.2-0.4-3c0-1,0.1-1.8,0.4-2.3v-0.3v-0.1v-0.4
		h0.2V230l0.2-0.2l0.2-0.7c0.6-2,1.6-3.3,3.2-3.7c-0.8,0.3-1.5,1.2-2.1,2.7l-0.5,1.2c0,0.2-0.1,0.4-0.2,0.7l-0.4,0.7v1.8
		c0,1.3,0.2,2.8,0.5,4.6l0.1,0.2v0.2c0.1-0.1,0.2-0.2,0.2-0.4c0.2-0.2,0.4-0.4,0.5-0.4h0.9c0.7,0,1.2,0.1,1.4,0.4
		c0.2,0,0.5,0.2,0.7,0.7c0.1,0.4,0.2,0.7,0.2,1.1c0,0.7-0.2,1.3-0.5,1.8c-0.4,0.2-0.8,0.4-1.2,0.5h-0.4c0,0.1-0.1,0.2-0.2,0.2
		c-0.2,0-0.4,0.1-0.4,0.2l0.2,0.2v0.4c0,0.5-0.2,0.8-0.5,0.9l-0.4,0.2c-0.1,0-0.3-0.1-0.4-0.2c-0.2-0.1-0.3-0.2-0.3-0.4v-0.2
		c0-0.1,0.1-0.2,0.2-0.4c0.1-0.1,0.2-0.2,0.2-0.4c0-0.1-0.1-0.4-0.2-0.9l-0.3-0.9c-0.1-0.2-0.2-0.6-0.4-1c-0.1-0.4-0.2-0.7-0.2-1
		C479.4,237.6,479.3,237.3,479.2,237L479.2,237z M480.9,234.1l-0.6,0.4v0.2v0.2l-0.1-0.2c-0.1-0.1-0.2-0.3-0.2-0.5
		c0-0.4,0.1-0.7,0.2-0.9c0.1-0.5,0.2-0.7,0.4-0.7l0.2-0.4h0.3h0.2h0.2h0.2h0.3c0.1,0,0.2,0.1,0.2,0.2c0.1,0.1,0.2,0.2,0.4,0.4v0.4
		v0.2c0,0.1-0.1,0.3-0.2,0.5h-0.5l-0.1,0.1c-0.1,0.1-0.1,0.1-0.3,0.1C481.2,233.9,481.1,234,480.9,234.1z M481.1,238.4
		c-0.2,0.2-0.4,0.4-0.4,0.5v0.3v0c0.1,0.1,0.2,0.2,0.2,0.3s0,0.1,0.1,0.3l0.1,0.2c0,0.2,0.1,0.4,0.2,0.4c0.1,0,0.3-0.1,0.5-0.2
		c0.4-0.1,0.7-0.6,0.9-1.4c0-0.2-0.1-0.5-0.2-0.7H482h-0.2C481.6,238,481.4,238.1,481.1,238.4L481.1,238.4z M489.7,258.1
		c-0.2,0.1-0.7,0.3-1.2,0.4c-1.1,0.4-1.9,0.8-2.5,1.2l-0.4,0.2v0v0.3c-0.1,0.2-0.4,0.4-0.7,0.4h-0.2l-0.2,0.2
		c-0.1,0-0.3-0.1-0.4-0.2v-0.2v-0.2l0.2-0.7l0.2-0.2V259h0.3h0.1c0.1-0.1,0.4-0.2,0.7-0.2l0.2-0.2l0.2-0.2l0.1-0.2
		c0.7-0.2,1.3-0.4,1.6-0.5c0.1-0.1,0.2-0.2,0.3-0.2h0.1c0.6-0.2,1.2-0.4,1.7-0.4h0.2c0.1,0,0.2,0,0.4-0.1l0.2-0.1
		c1.8,0,3.1,0.3,4.1,0.9c0.8,0.2,1.4,0.7,1.6,1.4h0.2v0.1v0.1v0.2l0.1,0.1c0.1,0.1,0.1,0.1,0.1,0.1v0.2v0.4v0.4
		c0-0.1-0.1-0.2-0.2-0.2v-0.2v-0.2c-0.2-0.4-0.6-0.9-1.1-1.2L495,259c-0.1-0.1-0.2-0.2-0.4-0.2v-0.2l-1.1-0.4h-0.2
		c-0.5-0.1-1.1-0.2-1.8-0.2h-0.5L489.7,258.1L489.7,258.1z M485.8,256.9c0.2-0.4,0.3-0.8,0.3-1.2v-0.4v-0.4c0.1,0,0.3,0,0.4-0.1
		l0.2-0.1h0.5v0.2l0.2,0.2v0.1v0.3v0.4c0,0.3-0.1,0.6-0.4,1c-0.2,0.3-0.4,0.6-0.5,0.8h-0.2c-0.1,0-0.3,0-0.4,0.1l-0.1,0.1h-0.2
		l-0.2,0.1c-0.1,0.1-0.2,0.1-0.4,0.1c0-0.1,0-0.2,0.1-0.3c0.1-0.1,0.2-0.1,0.4-0.3c0.2-0.1,0.3-0.2,0.3-0.4L485.8,256.9z
		 M498.4,263.7v0.4c0,0.1-0.1,0.2-0.2,0.2c-0.1,0-0.2-0.1-0.4-0.2h-0.4h-3.3c-0.6,0-1.2-0.1-1.8-0.2c-0.6-0.2-1-0.4-1.2-0.5
		c-0.5-0.4-0.8-1-1.1-1.8v-0.7c0-0.2,0-0.4-0.1-0.6c-0.1-0.2-0.1-0.3-0.1-0.4c-0.2-0.2-0.6-0.4-1.2-0.4c-0.4-0.1-0.9-0.2-1.6-0.2
		c0.7-0.2,1.3-0.4,1.8-0.4c0.4,0,0.7,0.1,0.9,0.2c0.4,0.2,0.7,0.6,0.9,1.1c0.1,0.1,0.2,0.2,0.2,0.4c0.1,0.1,0.2,0.3,0.2,0.5v0.5v0.2
		c0,0.1,0.1,0.2,0.2,0.2c0,0.2,0.1,0.4,0.4,0.7c0.6,0.5,1.9,0.8,3.9,0.9h0.4h0.4c1,0,1.7-0.1,2.1-0.4L498.4,263.7L498.4,263.7z
		 M493.2,255.5h0.9c1.3,0,2.3,0.2,2.9,0.5c0.2,0.3,0.4,0.6,0.4,0.9c0,0.1,0,0.3-0.1,0.6l-0.1,0.4l-0.4,0.4c-0.1,0-0.2-0.1-0.2-0.2
		l0.1-0.1l0.1-0.2v-0.2h-0.1h-0.1c-0.1,0-0.3,0.1-0.5,0.2c0,0.1-0.1,0.2-0.2,0.2h-0.2l-0.4,0.1c-0.1,0-0.2,0-0.2-0.1v-0.2
		c-0.1,0-0.2,0-0.2-0.1c0-0.1,0.1-0.2,0.2-0.4c0.1-0.1,0.3-0.2,0.5-0.2h0.2h0.4h0.5v-0.2l-0.2-0.2v-0.2h-0.2
		c-0.1-0.1-0.6-0.3-1.4-0.5h-1.2c-1,0-1.7,0.1-2.1,0.2c-0.7,0.2-1.4,0.4-1.8,0.7h-0.1h-0.2v0.2c0.7-0.6,1.5-1,2.3-1.2h0.1
		c0.1,0,0.1-0.1,0.3-0.2h0.4C492.9,255.5,493.1,255.5,493.2,255.5L493.2,255.5z M492.3,260.5l0.2-0.2v-0.7V259h-0.2h0.2
		c0.4,0.1,0.7,0.4,0.9,0.7l0.2,0.2c0.1,0.2,0.1,0.4,0.2,0.5v0.5v0.5c-0.1,0.1-0.2,0.2-0.3,0.4l-0.1,0.2l-0.1,0.2
		c-0.1,0.1-0.1,0.2-0.1,0.3v0.1c-0.2,0.2-0.5,0.4-0.7,0.4h-0.2c-0.4,0-0.6-0.1-0.7-0.2l-0.2-0.5c0-0.2,0.1-0.4,0.2-0.7l0.1-0.2v-0.1
		c0-0.1,0.1-0.2,0.3-0.4C492.2,260.7,492.3,260.6,492.3,260.5L492.3,260.5z M493.9,256.4h0.2h0.1c0.4,0,0.5,0.1,0.5,0.2
		c0,0.1-0.1,0.2-0.4,0.2l-0.2,0.2h-0.2h-0.2l-0.2,0.1l-0.1,0.1c-0.1,0-0.2-0.1-0.2-0.2c0-0.1,0.1-0.2,0.2-0.2
		C493.5,256.6,493.6,256.5,493.9,256.4L493.9,256.4L493.9,256.4z M494.5,262.1c0-0.1,0-0.2,0.1-0.3c0.1-0.1,0.1-0.3,0.1-0.4v-0.2
		c0-0.6-0.1-0.9-0.2-0.9c0.2,0,0.5,0.1,0.9,0.4l0.1,0.1l0,0.1c0.2,0.5,0.4,0.9,0.4,1.2v0.4v0.2c-0.3,0.4-0.6,0.5-0.9,0.5
		c-0.4,0-0.6-0.2-0.7-0.7C494.3,262.3,494.4,262.2,494.5,262.1L494.5,262.1z M496.8,261.2h0.2c0.2,0,0.4,0.1,0.6,0.3
		c0.2,0.2,0.3,0.3,0.3,0.4v0.5c0,0.4-0.2,0.6-0.7,0.7l-0.1-0.1L497,263c-0.4-0.1-0.5-0.4-0.5-0.7c0-0.1,0.1-0.2,0.2-0.2v-0.4
		l0.2-0.2v-0.2L496.8,261.2L496.8,261.2z"/>
	<path id="path552" inkscape:connector-curvature="0" d="M502.4,222.1v42.4c0,1-0.4,1.8-1,2.5c-0.7,0.7-1.5,1-2.5,1h-27.5
		c-1,0-1.8-0.4-2.5-1c-0.7-0.7-1-1.5-1-2.5v-42.4c0-1,0.3-1.8,1-2.5c0.7-0.7,1.5-1,2.5-1h27.5c1,0,1.8,0.3,2.5,1
		C502,220.3,502.4,221.1,502.4,222.1z M498.8,220.3h-27.5c-0.5,0-0.9,0.2-1.3,0.5c-0.3,0.3-0.5,0.8-0.5,1.3v42.4
		c0,0.5,0.2,0.9,0.5,1.3c0.3,0.3,0.8,0.5,1.3,0.5h27.5c0.5,0,0.9-0.2,1.3-0.5c0.3-0.3,0.5-0.8,0.5-1.3v-42.4c0-0.5-0.2-0.9-0.5-1.3
		C499.8,220.5,499.3,220.3,498.8,220.3L498.8,220.3z"/>
</g>
</svg>
