<?xml version="1.0" encoding="utf-8"?>
<!-- Generator: Adobe Illustrator 25.0.1, SVG Export Plug-In . SVG Version: 6.00 Build 0)  -->
<svg version="1.1"
	 id="图层_1" inkscape:version="0.92.3 (2405546, 2018-03-11)" xmlns:cc="http://creativecommons.org/ns#" xmlns:dc="http://purl.org/dc/elements/1.1/" xmlns:inkscape="http://www.inkscape.org/namespaces/inkscape" xmlns:rdf="http://www.w3.org/1999/02/22-rdf-syntax-ns#" xmlns:sodipodi="http://sodipodi.sourceforge.net/DTD/sodipodi-0.dtd" xmlns:svg="http://www.w3.org/2000/svg"
	 xmlns="http://www.w3.org/2000/svg" xmlns:xlink="http://www.w3.org/1999/xlink" x="0px" y="0px" viewBox="0 0 139.8 200"
	 style="enable-background:new 0 0 139.8 200;" xml:space="preserve">
<style type="text/css">
	.st0{fill:#FFFFFF;}
	.st1{fill:#BC00A1;}
	.st2{fill:#00082D;}
	.st3{fill:#870000;}
</style>
<sodipodi:namedview  bordercolor="#666666" borderopacity="1" gridtolerance="10" guidetolerance="10" id="namedview617" inkscape:current-layer="图层_1" inkscape:cx="-29.49666" inkscape:cy="112.60966" inkscape:pageopacity="0" inkscape:pageshadow="2" inkscape:window-height="705" inkscape:window-maximized="1" inkscape:window-width="1366" inkscape:window-x="-8" inkscape:window-y="-8" inkscape:zoom="1" objecttolerance="10" pagecolor="#ffffff" showgrid="false">
	</sodipodi:namedview>
<path class="st0" d="M112,200.5H28c-15.4,0-27.9-12.5-27.9-27.9V28.4C0.1,13,12.6,0.5,28,0.5h84c15.4,0,27.9,12.5,27.9,27.9v144.2
	C139.9,188,127.4,200.5,112,200.5z"/>
<g id="g2028" transform="matrix(4.0331525,0,0,4.0331525,-2057.666,-882.09078)">
	<path id="path554" inkscape:connector-curvature="0" d="M510.2,222.3c0-1,0.3-1.8,1-2.5c0.7-0.7,1.5-1,2.5-1h27.5
		c1,0,1.8,0.3,2.5,1c0.7,0.7,1,1.5,1,2.5v42.4c0,1-0.3,1.8-1,2.5c-0.7,0.7-1.5,1-2.5,1h-27.5c-1,0-1.8-0.4-2.5-1
		c-0.7-0.7-1-1.5-1-2.5 M512,264.7c0,0.5,0.2,0.9,0.5,1.3c0.3,0.3,0.8,0.5,1.3,0.5h27.5c0.5,0,0.9-0.2,1.3-0.5
		c0.3-0.3,0.5-0.8,0.5-1.3v-42.4c0-0.5-0.2-0.9-0.5-1.3c-0.3-0.3-0.8-0.5-1.3-0.5h-27.5c-0.5,0-0.9,0.2-1.3,0.5
		c-0.3,0.3-0.5,0.8-0.5,1.3"/>
	<path id="path556" inkscape:connector-curvature="0" class="st1" d="M525.5,241v0.4c0.5-0.6,0.8-0.9,0.9-1.1
		c-0.4,1.2-0.5,2.3-0.5,3.5c0,0.9,0.1,1.5,0.2,1.9c0.1,0.1,0.2,0.2,0.2,0.4c0.2,0.2,0.4,0.4,0.4,0.5s-0.2,0.2-0.5,0.2
		c-0.1,0-0.3-0.1-0.5-0.2c0-0.1-0.1-0.3-0.2-0.5c-0.3-0.6-0.5-1.2-0.5-1.9c0-0.4,0.1-0.6,0.2-0.9v-0.4l-0.5-0.5
		c-0.4-0.4-1-0.7-1.9-1.1l0.2,0.4v0.4c0.2,0.7,0.5,1.4,0.9,1.9l0.1,0.1l0.1,0.1v0.4l0.2,0.2l0.2,0.2c0.2,0.3,0.5,0.7,0.9,1.1
		l0.1,0.2c0.1,0.1,0.1,0.2,0.3,0.4v0.2c0,0.1-0.1,0.2-0.2,0.2H525l-0.2,0.2c-0.1,0.1-0.3,0.1-0.5,0.1l-0.7-0.1
		c-1.1-0.1-1.8-0.3-2.3-0.5c-0.2-0.2-0.6-0.6-1.1-1.2c-0.6-0.7-1.3-1.1-2.1-1.1h0.2h0.1h0.2h0.3h0.2c0.3-0.5,1-0.7,2.1-0.7h0.7h0.2
		l0.2,0.2c-0.2-0.3-0.4-0.7-0.4-1.2c0-0.4,0.1-0.8,0.4-1.2L522,241h-0.2c-0.1,0-0.3-0.1-0.5-0.2c-0.2-0.1-0.4-0.2-0.5-0.2h0.5
		c1.5,0,3,0.4,3.8,1.1 M524.1,246.3c-0.7-1.4-2.1-2.1-4-2.1h-0.4c0.7,0.1,1.3,0.5,1.6,1.1c0.2,0.2,0.4,0.4,0.5,0.5
		c0.2,0.1,0.6,0.2,1.1,0.3C523.5,246.1,523.8,246.2,524.1,246.3L524.1,246.3z M533.4,246.6l0.2,0.2v0.3c-0.2,0-0.6-0.1-1.1-0.3
		l-0.2-0.2h-0.1H532c-0.1,0.1-0.2,0.2-0.4,0.2c-0.2,0.1-0.6,0.2-1.1,0.2l-0.2-0.1l-0.2-0.1c-0.4,0-1.1-0.1-2.3-0.4
		c1.1,0,2.1-0.1,3-0.4h0.4v-0.2c-0.1,0-0.2,0-0.3-0.1l-0.1-0.1v-0.2c-0.3-0.1-0.7-0.2-1.1-0.2c-1.2,0-1.9,0.3-2.3,0.9l-0.2,0.2v0.2
		c-0.1,0.1-0.2,0.2-0.4,0.2c-0.2-0.1-0.4-0.2-0.4-0.4c0-0.1,0.1-0.3,0.4-0.5c0.2-0.4,0.4-1,0.5-1.6c0-0.5-0.1-1.1-0.2-1.9
		c0-0.2-0.1-0.5-0.2-0.9c-0.1-0.4-0.2-0.6-0.2-0.9c-0.1-0.4-0.2-0.8-0.2-1.4c-0.1-0.1-0.2-0.2-0.2-0.4v-0.2l0.2,0.2
		c1,1.3,1.5,2.3,1.6,3.2v0.2c0,0.1,0,0.2,0.1,0.2c0.1,0,0.2-0.1,0.2-0.2l0.2-0.2c0.1-0.1,0.2-0.2,0.4-0.2l0.9-0.5
		c0.6-0.2,1.2-0.4,1.9-0.4h0.1c0.1,0,0.4,0.1,0.9,0.4c-0.1,0-0.3,0-0.6,0.1c-0.3,0-0.5,0.1-0.6,0.1c0,0.9-0.1,1.5-0.2,1.8l-0.1,0.3
		l-0.1,0.2c-0.1,0.4-0.4,0.7-0.7,1.1c0.9,0.1,1.5,0.5,1.9,1.1l0.1,0.1c0.1,0.1,0.1,0.1,0.2,0.3C533.2,246.4,533.3,246.5,533.4,246.6
		 M528.6,244.2c-0.1,0.1-0.1,0.3-0.1,0.4c0,0.2-0.1,0.3-0.2,0.4c0.9-0.4,1.6-0.8,2.1-1.4c0.1,0,0.2-0.1,0.3-0.2
		c0.1-0.1,0.2-0.2,0.2-0.4l0.1-0.1c0.1-0.1,0.1-0.1,0.1-0.3c0.1-0.1,0.2-0.3,0.4-0.6c0.1-0.3,0.2-0.4,0.4-0.4
		c-0.9,0.4-1.9,0.9-2.8,1.8l-0.4,0.4V244.2z"/>
	<path id="path558" inkscape:connector-curvature="0" class="st2" d="M519.7,260.2h0.4h0.3c0.4,0.1,1.1,0.3,1.9,0.5l-2.5,0.2
		c-1.1,0-1.8,0.1-2.1,0.4c-0.1,0-0.3,0.1-0.4,0.2c-0.2,0.1-0.3,0.2-0.4,0.4c-0.4,0.1-0.8,0.2-1.2,0.2c-0.4,0-0.9-0.1-1.2-0.4
		c-0.1,0-0.2-0.1-0.4-0.4c0-0.1-0.1-0.2-0.2-0.2v-0.2v-0.2c0-0.4,0.2-0.9,0.7-1.2l0.4-0.5l1.1-0.2c0.1,0,0.5,0.1,1.1,0.2
		c1.2,0.2,2,0.6,2.5,1.1h0.2L519.7,260.2L519.7,260.2z M538.5,252.3h1.6c0.7,0,1.4,0.1,1.9,0.2c-0.6,0.1-1.4,0.3-2.5,0.5
		c-0.7,0.2-1.1,0.4-1.2,0.5c-0.1,0-0.3,0.1-0.5,0.3c-0.2,0.2-0.4,0.3-0.5,0.3c-2.2,1.2-3.5,1.9-3.9,2.3c0.5-0.2,0.9-0.4,1.4-0.5
		c0.1,0,0.4,0,0.7-0.1c0.4-0.1,0.6-0.1,0.9-0.3c0.8-0.2,1.7-0.5,2.6-0.9c0.2-0.1,0.4-0.1,0.4,0h-0.2c-0.5,0.6-1.4,1.3-2.6,2.1
		c-0.1,0-0.2,0-0.3,0.1c-0.1,0.1-0.1,0.1-0.3,0.1l-0.4,0.1c-0.2,0.1-0.4,0.1-0.5,0.1c-0.1,0.1-0.3,0.2-0.4,0.2
		c-0.2,0-0.3,0.1-0.5,0.2c-1.2,0.4-1.9,0.6-2.2,0.9c-0.2,0.1-0.4,0.3-0.4,0.5v0.2c0,0.1-0.1,0.3-0.4,0.5h-0.2
		c-0.2,0-0.5-0.1-0.7-0.4c0-0.1-0.1-0.2-0.2-0.2h-0.7c-0.7-0.1-1.2-0.2-1.6-0.2h-0.7h-0.2c0-0.1-0.1-0.2-0.2-0.2h-0.7v0.2h0.5
		c0.2,0.1,0.5,0.2,0.8,0.3c0.3,0.1,0.6,0.1,0.8,0.1c0.9,0,1.5,0.1,1.6,0.2c1.2,0.2,2.3,0.6,3.5,1.1l0.3,0.2l0.3,0.2h0.7
		c1,0,1.8,0.1,2.6,0.4c0.6,0.1,1,0.3,1.3,0.6c0.3,0.3,0.5,0.6,0.5,1c0,0.2-0.1,0.4-0.2,0.5c-0.1,0.1-0.2,0.2-0.4,0.2
		c-0.6,0.4-1.1,0.7-1.8,0.7h-0.2l-1.2-0.1c-0.1-0.1-0.3-0.2-0.7-0.2h-0.7c-0.7,0-1.4-0.2-2.1-0.5h-0.4c-0.2-0.2-0.4-0.4-0.5-0.4
		c0.1,0,0.3,0.1,0.5,0.2h0.7h1.2c0.5,0,1.5-0.2,3.2-0.5h0.2h0.4c0.1,0,0.2-0.1,0.2-0.2c0-0.1-0.1-0.2-0.4-0.4
		c-0.2-0.2-0.4-0.4-0.5-0.4c-0.4-0.1-1.2-0.2-2.3-0.2c-0.4,0-1.1,0.1-2.1,0.2h-2.6c-1.6,0-3-0.1-4-0.4c-0.6,0-1.1-0.2-1.8-0.5
		l-0.7-0.4c-0.9-0.3-1.8-0.6-3-0.7c0.5-0.1,0.9-0.2,1.4-0.2c0.7,0,1.4,0.1,1.9,0.4c0.7,0.2,1.3,0.4,1.6,0.5h1.8c0.4,0,1,0.1,1.8,0.2
		h5.5c-2.6-0.4-4.2-0.7-4.8-0.7c-0.2-0.1-0.6-0.2-1-0.2h-0.9h-1.6h-1.9c-0.2,0-0.5-0.1-0.9-0.2c-0.4-0.1-0.6-0.2-0.7-0.2
		c-0.4-0.1-0.8-0.2-1.2-0.2h-0.4c-0.4-0.1-0.7-0.3-1.1-0.5c-0.4-0.3-0.7-0.9-0.7-1.6c0.6,0.9,1.1,1.3,1.8,1.2c0.8,0,1.4,0.1,1.8,0.4
		c0.5,0.1,1.1,0.2,1.9,0.2c-0.4-0.1-0.6-0.3-0.9-0.5c-0.1-0.2-0.2-0.5-0.4-0.7c-0.7-1.3-1.5-2.3-2.3-3c-1.5-1.5-3.2-2.3-4.9-2.3
		h-0.2c0.6-0.2,1.2-0.4,1.9-0.4h0.7c0.8,0.1,1.6,0.5,2.5,1.1c1.1,0.9,2.1,1.9,3,3l0.2,0.2V256v-0.2c-0.2-1.2-0.4-2.1-0.5-2.6
		l-0.4-1.4c-1.1-2-2.4-3.4-3.9-4.2l-0.5-0.4h-0.4c-0.4,0-1.1,0.5-2.1,1.5c-0.7,0.7-1.1,1.2-1.2,1.4c0,0.2-0.1,0.4-0.2,0.4v-0.2v-0.4
		c0-0.7,0.2-1.4,0.5-1.9c0.1-0.1,0.3-0.4,0.6-0.8c0.3-0.4,0.5-0.7,0.6-1l0.2-0.2v-0.2v-0.4c0.1-0.2,0.4-0.3,0.8-0.4
		c0.1,0.1,0.4,0.3,0.7,0.5c0.1,0,0.3,0.1,0.4,0.2l0.3,0.2c1.2,0.7,2.2,1.4,3,2.1c1.3,1.2,2.3,2.7,3,4.6c0.1,0.6,0.2,1.3,0.4,2.1
		c0.1,0.1,0.2,0.8,0.2,2.1c0,0.1,0.1,0.2,0.2,0.2v-0.4c0-0.2,0.1-0.7,0.2-1.4c0.1-0.7,0.2-1.3,0.2-1.6c0.1-0.1,0.2-0.2,0.2-0.4
		c0-0.1-0.1-0.2-0.2-0.2c-0.5-0.1-0.8-0.3-0.9-0.5v-0.5c0-0.5,0.1-0.7,0.2-0.7l0.2,0.2h0.2h0.2c0,0.1,0,0.2,0.1,0.3l0.1,0.1
		c0.1,0.1,0.2,0.2,0.4,0.2h0.2v-0.2l-0.5-0.5c-0.2-0.2-0.4-0.4-0.6-0.6c-0.2-0.2-0.4-0.3-0.8-0.4h0.7c0.5,0,1,0.2,1.7,0.6
		c0.6,0.4,1.2,0.6,1.7,0.6c0,0.1,0,0.2,0.1,0.2h0.2h0.5c0.4,0,0.6-0.1,0.9-0.4l0.9-0.9h0.2c0.1,0,0.2,0,0.3-0.1l0.1-0.1
		c0.1,0,0.3,0.1,0.5,0.2l0.1,0.2v0.2v0.5v0.6c-0.1,0-0.2,0-0.2,0.1l-0.1,0.1c-0.2,0.1-0.4,0.3-0.4,0.5h0.2l0.3-0.1l0.4-0.1
		c0.6-0.2,1.3-0.5,2.3-0.8c0.9-0.3,1.5-0.5,1.8-0.6c0.1,0,0.2,0,0.4-0.1c0.1-0.1,0.2-0.1,0.4-0.3l0.2-0.2l0.2-0.2h-0.7
		c-0.8-0.2-1.4-0.4-1.6-0.5l-1.1-0.5l-0.3-0.2c-0.2-0.1-0.4-0.1-0.5-0.2v0.2v0.2c-0.1,0-0.2,0-0.4-0.1l-0.2-0.1
		c-0.1,0-0.2,0-0.4-0.1l-0.2,0c-1.1-0.2-1.9-0.4-2.6-0.4H529c-0.3,0-0.6,0.1-0.7,0.2l0.3,0.2c0.1,0.2,0.2,0.4,0.2,0.7v0.2h-0.2
		c-0.1,0-0.3-0.1-0.5-0.2c0-0.1-0.1-0.2-0.2-0.3l-0.2-0.1c-1.1-0.2-1.7-0.3-1.9-0.4c-0.6,0-1,0.1-1.2,0.4c-0.1,0-0.2,0.1-0.4,0.2
		l-0.4,0.4h-0.2v-0.2c0-0.6,0.2-1,0.5-1.2c0.4-0.2,0.9-0.4,1.8-0.4h0.4c0.3,0,0.5,0.1,0.6,0.2h0.2c0.1,0,0.2,0.1,0.2,0.2h0.2
		l0.4-0.2c0.2-0.4,0.8-0.5,1.8-0.5c0.6,0,1.1,0.1,1.6,0.2c0.1,0,0.3,0.1,0.4,0.2c0.2,0.1,0.3,0.2,0.4,0.2h0.5c0.6,0,1.3,0.2,2.3,0.7
		c0.4,0.2,0.6,0.3,0.9,0.4c0.3,0.1,0.8,0.2,1.4,0.4c0.9,0.1,1.5,0.2,1.6,0.2c0.5,0,0.9-0.1,1.2-0.4c-0.2,0.2-0.5,0.5-0.9,0.7
		c0,0.1-0.1,0.2-0.4,0.3c-0.2,0.1-0.4,0.1-0.5,0.1l-0.2,0.1c-0.1,0.1-0.2,0.1-0.4,0.1h-0.5l-0.2,0.4c-0.6,1.3-1.6,2.1-3,2.3h-1.2
		c-0.4,0-0.9-0.1-1.4-0.2l-0.4-0.2h-0.2l-0.2,0.2c-0.3,0-0.5,0.1-0.5,0.2v0.2v0.4c0.2,1.3,0.3,2.5,0.4,3.5c0.5-1.3,1.6-2.4,3.3-3.3
		c0.1,0,0.4-0.1,0.7-0.4s0.6-0.4,0.9-0.4c0.7-0.2,1.2-0.4,1.6-0.6C537.7,252.6,538.2,252.4,538.5,252.3L538.5,252.3z M515.8,260.4
		c0.6-0.2,1.4-0.3,2.3-0.4c0.1,0,0.3,0,0.6,0.1c0.3,0.1,0.5,0.1,0.6,0.1c-0.4-0.2-1.1-0.4-2-0.4c-0.7,0-1.2,0.1-1.5,0.4
		c-0.1,0.1-0.2,0.2-0.2,0.4L515.8,260.4z M525.5,262.3h1.6c0.5,0,1.5,0.1,3,0.4c-0.2,0-0.6,0-1.2,0.1c-0.6,0.1-1,0.1-1.2,0.3h-1.2
		c-1.1,0-2.1-0.2-3.2-0.7h0.4c0.1,0,0.2,0.1,0.4,0.2h0.4h0.4c0.1,0,0.2,0,0.4-0.1L525.5,262.3z M525.5,258.6
		c-0.1-0.1-0.3-0.2-0.5-0.2C525.2,258.4,525.4,258.5,525.5,258.6z M525.3,257.9l-0.2,0.2h0.2h0.2c0-0.4,0-0.5-0.1-0.5
		C525.3,257.6,525.3,257.7,525.3,257.9z M527.1,256.3c0.1-1.5,0.2-2.6,0.4-3.3c-0.2,0.2-0.5,0.4-0.9,0.4h-0.4
		c0.1,1.4,0.2,2.5,0.2,3.2v0.2v0.2h0.2h0.2h0.2C527,256.6,527.1,256.4,527.1,256.3z M526.9,258.1v-0.4c0-0.1-0.1-0.2-0.2-0.2h-0.3
		v0.5h0.3h0.1H526.9z M528.6,253.5l0.2-0.2v-0.2h-0.4l-0.7-0.4c0.1,1,0.2,1.9,0.2,2.7v0.9c0,0.1,0,0.2-0.1,0.3
		c-0.1,0.1-0.1,0.1-0.1,0.3h0.2h0.4c0.1,0,0.2-0.1,0.2-0.4C528.5,255.2,528.5,254.2,528.6,253.5L528.6,253.5z M528.3,258.1v-0.4
		h-0.2h-0.4v0.4h0.2c0.1,0.1,0.2,0.2,0.4,0.2V258.1z M529.7,253.7v-0.2v-0.2c0-0.1-0.1-0.2-0.4-0.2v0.2v1.1v1v0.8l-0.2,0.4v0.5h0.5
		v-0.4c0-0.1,0-0.3-0.1-0.5l-0.1-0.4C529.5,255.3,529.6,254.6,529.7,253.7L529.7,253.7z M529.2,258.3h0.5v-0.5h-0.5v0.4V258.3z"/>
	<path id="path560" inkscape:connector-curvature="0" class="st2" d="M531.1,249.8l-0.3-0.2c-0.2-0.1-0.3-0.2-0.4-0.2h-0.4
		c-0.2,0-0.4-0.1-0.4-0.2c0-0.1,0.2-0.2,0.5-0.4c0.1-0.1,0.3-0.2,0.5-0.2s0.5,0.1,0.7,0.2c0.2,0.1,0.4,0.2,0.5,0.3
		c0.1,0.1,0.2,0.3,0.2,0.4l-0.2,0.2c0,0.1-0.1,0.2-0.4,0.2h-0.2C531.4,250,531.2,249.9,531.1,249.8L531.1,249.8z"/>
	<path id="path562" inkscape:connector-curvature="0" class="st3" d="M536.4,224.8c0.6,0.2,1,0.6,1.2,1.1l-0.4,0.5l0.2,1.6v0.4
		c0,0.5-0.2,0.9-0.5,1.2h-0.2c-0.2,0-0.4-0.5-0.5-1.6c-0.7,0-1.9,0.3-3.5,0.9v0.4v0.2c1.5-0.5,2.5-0.7,2.8-0.7
		c0.1,0,0.2,0.1,0.4,0.4l-0.9,0.5c-0.6,0.7-0.9,1.2-0.9,1.4l1.8,0.7c0.2-0.5,0.3-0.9,0.4-1.2l-0.2-0.4l0.2-0.2h0.2
		c0.6,0.2,0.9,0.4,0.9,0.5l-0.7,1.2l-0.2,0.5c0.7,0.4,2.1,0.9,4.2,1.8v0.2c-0.6,0.4-1.1,0.5-1.6,0.5h-0.4c-0.5,0-1.4-0.5-2.8-1.6
		c-1,0.7-1.7,1.1-2.3,1.1h-0.4h-1.1v-0.2c0.9,0,1.9-0.5,3-1.4v-0.2l-1.2-1.1c-1.4,2-2.8,3-4.2,3c1.7-1.4,3-2.7,3.9-3.9l0.2-0.5
		c-0.4,0-1.4,0.4-3.2,1.2v-0.2v-0.7l1.4-0.5v-0.5c0-1.2,0.2-2.2,0.7-3.2h0.2v0.2C534.2,225.2,535.4,224.8,536.4,224.8L536.4,224.8z
		 M537.8,222.5c0.8,0,1.3,0.2,1.4,0.5v0.4c0,0.2-0.3,0.4-0.9,0.5l-1.6-0.2c-0.7,0-1.8,0.6-3.3,1.8h-0.2l1-1.4h-0.1l-2.1,0.5
		l-0.9-0.2c0-0.1,2-0.8,6-1.9L537.8,222.5z M532.9,227.7v0.4c1.5-0.6,2.4-0.9,2.6-0.9l0.7,0.2v-0.7c-0.8,0-1.9,0.3-3.2,0.9
		C532.9,227.6,532.9,227.6,532.9,227.7L532.9,227.7z M533.1,226.9l2.1-0.7h0.5l0.5,0.1V226c0-0.5-0.1-0.7-0.4-0.7
		c-0.9,0-1.8,0.5-2.8,1.4L533.1,226.9L533.1,226.9z"/>
	<path id="path564" inkscape:connector-curvature="0" class="st2" d="M538.7,247v0.1l-0.1,0.1l-0.1,0.1v0.2
		c-0.4,0.1-0.6,0.2-0.9,0.2c-0.2,0.1-0.5,0.2-0.8,0.2s-0.5-0.1-0.6-0.2c-0.2,0-0.3-0.1-0.3-0.2c0-0.1,0.2-0.3,0.7-0.5l0.7-0.4
		c0.1,0,0.2,0,0.4-0.1c0.1-0.1,0.2-0.1,0.4-0.2c0.1-0.1,0.2-0.1,0.4-0.1c0.4,0,0.5,0.2,0.5,0.5L538.7,247z"/>
	<path id="path566" inkscape:connector-curvature="0" class="st2" d="M538.2,248.2c0.2,0,0.4,0.1,0.4,0.4c0,0.3-0.2,0.5-0.6,0.5
		l-0.8-0.2c-0.5,0-0.7-0.1-0.7-0.4l0.7-0.2h0.7C537.9,248.3,538.1,248.2,538.2,248.2L538.2,248.2z"/>
	<path id="path568" inkscape:connector-curvature="0" class="st2" d="M524.9,241.4c-0.9-2-2.4-4.2-4.1-6.6c-0.4-0.6-0.6-0.9-0.7-0.9
		v-0.2l-0.2-0.1c-0.1,0-0.2-0.1-0.4-0.3c-0.1-0.2-0.2-0.4-0.4-0.4l-0.4,0.4c-1.8,1.5-3.1,2.5-4,3c-0.1,0.1-0.8,0.4-1.9,0.7
		c1.6-0.9,2.7-1.6,3.3-2.3c0.1-0.1,0.2-0.3,0.3-0.5c0.1-0.2,0.1-0.5,0.3-0.7c0.1-0.2,0.2-0.4,0.3-0.5c0.1-0.1,0.2-0.3,0.4-0.6
		c0.2-0.3,0.3-0.5,0.5-0.6c0-0.1,0-0.2,0.1-0.3l0.2-0.2c0.1-0.1,0.1-0.1,0.3-0.1h0.2c0.1,0,0.2,0,0.4-0.1l0.2-0.1l0.2,0.1
		c0.1,0.1,0.2,0.1,0.3,0.3c0.1,0.1,0.1,0.2,0.1,0.4c0.1,0.1,0.3,0.2,0.4,0.4c0.2,0.1,0.3,0.2,0.3,0.4c0.1,0.1,0.3,0.4,0.6,0.7
		c0.3,0.4,0.5,0.6,0.6,0.7c0.6,0.7,1.2,1.7,1.9,2.8v0.2h0.2c0-0.2-0.1-0.4-0.2-0.5c0-0.8,0.1-1.8,0.2-2.9c0.1-1.1,0.3-2.1,0.5-2.9
		c0.3-1.2,0.7-2,1.1-2.5c0.5-0.6,1.1-1.1,1.8-1.8c-1.2,1.2-1.9,3.5-2.1,6.9v1.6c0,1.4,0.1,3.3,0.4,5.8v0.4 M533.3,246.3
		c0-0.1,0.2-0.3,0.5-0.5c0.8-0.4,1.4-0.7,1.8-1.1l0.2-0.2c0-0.1,0.1-0.2,0.2-0.2l0.3-0.1c0.2-0.1,0.3-0.1,0.4-0.3
		c0.1,0,0.3-0.1,0.4-0.3l0.4-0.4c0.2-0.1,0.4-0.2,0.7-0.2c0.2,0,0.4,0.1,0.4,0.2v0.2h0.2c0,0.1-0.1,0.2-0.2,0.4
		c-0.5,0.9-1.4,1.6-2.6,1.9c-1,0.2-1.7,0.4-2.3,0.5H533.3"/>
</g>
</svg>
