<?xml version="1.0" encoding="utf-8"?>
<!-- Generator: Adobe Illustrator 25.0.1, SVG Export Plug-In . SVG Version: 6.00 Build 0)  -->
<svg version="1.1"
	 id="图层_1" inkscape:version="0.92.3 (2405546, 2018-03-11)" xmlns:cc="http://creativecommons.org/ns#" xmlns:dc="http://purl.org/dc/elements/1.1/" xmlns:inkscape="http://www.inkscape.org/namespaces/inkscape" xmlns:rdf="http://www.w3.org/1999/02/22-rdf-syntax-ns#" xmlns:sodipodi="http://sodipodi.sourceforge.net/DTD/sodipodi-0.dtd" xmlns:svg="http://www.w3.org/2000/svg"
	 xmlns="http://www.w3.org/2000/svg" xmlns:xlink="http://www.w3.org/1999/xlink" x="0px" y="0px" viewBox="0 0 139.8 200"
	 style="enable-background:new 0 0 139.8 200;" xml:space="preserve">
<style type="text/css">
	.st0{fill:#FFFFFF;}
	.st1{fill:#870000;}
	.st2{fill:#A00283;}
	.st3{fill:#00082D;}
</style>
<sodipodi:namedview  bordercolor="#666666" borderopacity="1" gridtolerance="10" guidetolerance="10" id="namedview617" inkscape:current-layer="图层_1" inkscape:cx="-40.99666" inkscape:cy="112.60966" inkscape:pageopacity="0" inkscape:pageshadow="2" inkscape:window-height="705" inkscape:window-maximized="1" inkscape:window-width="1366" inkscape:window-x="-8" inkscape:window-y="-8" inkscape:zoom="1" objecttolerance="10" pagecolor="#ffffff" showgrid="false">
	</sodipodi:namedview>
<path class="st0" d="M112,200.5H28c-15.4,0-27.9-12.5-27.9-27.9V28.4C0.1,13,12.6,0.5,28,0.5h84c15.4,0,27.9,12.5,27.9,27.9v144.2
	C139.9,188,127.4,200.5,112,200.5z"/>
<g id="g2051" transform="matrix(4.0331525,0,0,4.0331525,-2209.1956,-882.09078)">
	<path id="path570" inkscape:connector-curvature="0" d="M547.8,222.3c0-1,0.3-1.8,1-2.5c0.7-0.7,1.5-1,2.5-1h27.5
		c1,0,1.8,0.3,2.5,1c0.7,0.7,1,1.5,1,2.5v42.4c0,1-0.3,1.8-1,2.5c-0.7,0.7-1.5,1-2.5,1h-27.5c-1,0-1.8-0.4-2.5-1
		c-0.7-0.7-1-1.5-1-2.5 M549.6,264.7c0,0.5,0.2,0.9,0.5,1.3c0.3,0.3,0.8,0.5,1.3,0.5h27.5c0.5,0,0.9-0.2,1.3-0.5
		c0.3-0.3,0.5-0.8,0.5-1.3v-42.4c0-0.5-0.2-0.9-0.5-1.3c-0.3-0.3-0.8-0.5-1.3-0.5h-27.5c-0.5,0-0.9,0.2-1.3,0.5
		c-0.3,0.3-0.5,0.8-0.5,1.3"/>
	<path id="path572" inkscape:connector-curvature="0" class="st1" d="M570.2,225.9c0.6,0,0.9,0.2,0.9,0.7h0.5c0.3,0,0.5,0.1,0.5,0.4
		v0.2c0,0.1-0.4,0.4-1.1,0.9l-0.5,1.9h0.2c0.9-0.7,1.4-1.3,1.4-1.6c0.2,0,0.5,0.1,0.9,0.4l0.7-0.7l-0.9,2.1c0,0.3-0.1,0.5-0.2,0.5
		c-0.4,0-0.6-0.4-0.8-1.2c-0.8,0.9-1.2,1.8-1.2,2.5v1.2v0.7c-0.1,0.6-0.2,0.9-0.4,0.9c-0.2,0-0.4-0.4-0.5-1.1l0.1-1.8l-1.7,1.8h-0.4
		l-0.2-0.4v-0.2l1.8-3c0.3-0.9,0.5-1.4,0.5-1.6c-0.8,0.1-1.6,0.6-2.4,1.4c-0.4-0.1-0.5-0.4-0.5-0.7s0.2-0.7,0.7-1.1l0.4,0.4
		c0.8-0.2,1.5-0.8,2.1-1.6c0-0.2-0.1-0.4-0.4-0.7C569.8,226.1,569.9,226,570.2,225.9L570.2,225.9z M571,223.2
		c0.8,0.1,1.2,0.4,1.2,0.9l-1.6,0.9c-1.1,0.7-1.8,1.1-2.3,1.1c1.3-1.2,1.9-1.9,1.9-2.1v-0.2L571,223.2z M574.7,223.6l0.4,0.2
		l0.5-0.2l0.2,0.5c-0.2,0.9-0.3,2.1-0.4,3.5c0.6-0.4,1.1-0.9,1.8-1.6c0.4,0,0.9,0.2,1.4,0.7v0.2c0,0.1-1.1,0.5-3.4,1.2
		c0,2.9-0.7,4.8-2.1,5.6c-0.5,0.2-0.9,0.4-1.3,0.4h-0.7V234c0.9-0.5,1.6-1,1.9-1.6c0.9-0.6,1.4-3,1.4-7.2v-0.4
		c0-0.1-0.2-0.2-0.5-0.4v-0.2C574.3,223.9,574.5,223.7,574.7,223.6L574.7,223.6z M575.4,231.7c1.3,0,2.5,0.5,3.5,1.6l0.2,0.5v0.2
		c-0.1,0.1-0.3,0.2-0.5,0.2h-0.9l-1.4,0.2c0.5-0.4,0.7-0.8,0.7-1.1c-0.4-0.6-0.9-1.1-1.6-1.4L575.4,231.7z"/>
	<path id="path574" inkscape:connector-curvature="0" class="st2" d="M562,252.7c-0.4,0.1-0.5,0.3-0.5,0.5v0.1
		c0,0.1,0.1,0.2,0.4,0.2c0.4,0,0.6-0.1,0.7-0.2c0.1-0.1,0.2-0.2,0.2-0.3c0-0.2-0.2-0.4-0.5-0.4H562z M563.1,250.8
		c-0.4,0-0.8,0.1-1.1,0.4c-0.1,0.1-0.2,0.3-0.2,0.5c0,0.5,0.2,0.7,0.5,0.7c0.2,0,0.4-0.2,0.7-0.5l0.4-0.2c0.1-0.1,0.2-0.2,0.2-0.4
		c0-0.1-0.1-0.2-0.2-0.2C563.3,250.9,563.2,250.8,563.1,250.8z M563.4,252.4c-0.2,0-0.4,0.1-0.5,0.4v0.4l-0.2,0.2
		c0,0.1,0.1,0.1,0.4,0.1s0.4,0,0.5-0.1h0.2v-0.2l0.2-0.2v-0.2C564,252.5,563.8,252.4,563.4,252.4L563.4,252.4z M564.7,253.1
		l-0.2,0.2c-0.1,0.1-0.2,0.3-0.2,0.7c0,0.4,0.2,0.5,0.6,0.5c0.1,0,0.2-0.1,0.2-0.2c0-0.1,0.1-0.2,0.2-0.2c0.1,0,0.2,0,0.2-0.1v-0.2
		c0-0.1,0-0.1,0.1-0.2l0.1-0.1v-0.2c0-0.2-0.1-0.3-0.2-0.3L564.7,253.1L564.7,253.1z M564.7,251.5c-0.2,0.1-0.4,0.3-0.4,0.5
		c0,0.3,0.2,0.4,0.6,0.4c0.5,0,0.7-0.2,0.7-0.5c0-0.2-0.2-0.3-0.5-0.4h-0.2L564.7,251.5z M572.1,252.8l-0.3-0.9
		c-0.4-0.5-1.1-0.8-2.3-0.9c0.4,0.1,0.8,0.3,1.1,0.5c0.4,0.4,0.5,0.8,0.5,1.2c0,0.4-0.2,0.7-0.5,0.9c-0.2,0.1-0.5,0.2-0.7,0.2
		c-0.7,0-1.4-0.2-2.1-0.8l-0.4-0.1c-0.2-0.1-0.4-0.6-0.4-1.4v-0.4h-0.2l-0.1,0.2c-0.1,0.1-0.1,0.2-0.1,0.2c0,0.1,0,0.1-0.1,0.1h-0.3
		l-0.2-0.2c-0.1,0-0.2,0.1-0.4,0.2c0,0.2,0.1,0.4,0.4,0.4h0.2h0.1v0.5v0.2v0.2h-0.1c-0.4,0.2-0.5,0.4-0.5,0.7c0,0.1,0.1,0.2,0.2,0.4
		l0.2,0.2c0,0.1-0.1,0.2-0.4,0.2H565l-0.2,0.2c-0.1,0.1-0.2,0.2-0.4,0.2h-0.1c-0.1,0.1-0.3,0.2-0.5,0.2h-0.2h-0.2
		c-0.2,0-0.4-0.1-0.4-0.2l0.2-0.4l0.4,0.4h0.2c0.1,0,0.2-0.1,0.4-0.2l0.3-0.5v-0.2c0-0.2-0.2-0.4-0.5-0.4c-0.2,0-0.4,0.1-0.5,0.4
		c-0.2-0.2-0.5-0.4-0.7-0.4c-0.2,0-0.4,0.1-0.5,0.2l-0.1,0.1l-0.1,0.1l-0.2-0.2l-0.1-0.1c-0.1-0.1-0.1-0.1-0.1-0.3
		c-0.1-0.1-0.2-0.2-0.2-0.4c-0.1,0-0.2-0.1-0.2-0.2s0-0.2,0.1-0.3c0.1-0.1,0.1-0.1,0.3-0.1h0.2c0.2-0.2,0.4-0.4,0.4-0.5
		c0-0.2-0.1-0.4-0.4-0.5h-0.2v-0.2l0.2-0.2l0.1-0.2l0.2-0.4c0.1-0.1,0.1-0.2,0.3-0.2c0.3-0.2,0.7-0.4,1.1-0.4h0.4h0.4
		c0.1,0,0.2-0.1,0.2-0.2l-0.5-0.4h-0.2c0-0.1,0.1-0.1,0.4-0.2h0.2c0.6,0,1,0.2,1.4,0.7c0.2,0.2,0.4,0.4,0.4,0.5
		c0,0.1-0.1,0.2-0.3,0.3l-0.3,0.1c0.9-0.1,1.6-0.4,1.9-0.9c0.1-0.1,0.2-0.4,0.2-0.9c0.1-0.2,0.2-0.6,0.4-1.1c0-1.3-0.1-2.1-0.2-2.5
		c-0.1,0-0.2-0.1-0.3-0.2c-0.1-0.1-0.1-0.2-0.3-0.4v-0.2v-0.2c0-0.1,0.1-0.2,0.4-0.4c0.1,0,0.2-0.1,0.3-0.2l0.1-0.2
		c0.2-0.1,0.8-0.5,1.6-1.2c0-0.2,0.1-0.4,0.2-0.4c0.2,1.1,0.5,1.8,0.9,2.1c0.4,0.6,1,1.2,1.9,1.8l0.9,0.5c0,0.1-0.1,0.3-0.4,0.5
		c-0.5,0.3-0.9,0.6-1.2,0.9l-0.4,0.2c-0.6,0.2-0.9,0.8-0.9,1.8v0.4l0.4-0.2c0.1-0.1,0.3-0.3,0.7-0.4c0.3-0.2,0.6-0.3,0.9-0.4
		c0.7-0.3,1.2-0.6,1.4-0.9c0.1-0.1,0.2-0.2,0.4-0.4c0-0.1,0-0.2,0.1-0.3s0.1-0.1,0.1-0.3c0.1-0.2,0.2-0.4,0.2-0.5
		c0-0.4-0.1-0.7-0.2-1.1c-0.1-0.1-0.5-0.3-1.1-0.5c-0.9-0.5-1.4-0.9-1.6-1.4l-0.2-0.4c-0.1-0.1-0.2-0.2-0.4-0.3
		c-0.1-0.1-0.2-0.3-0.2-0.4c-0.1-0.4-0.2-0.6-0.2-0.9v-0.2v-0.4c0-0.1-0.1-0.3-0.2-0.5l-0.4-0.2H570c-0.2,0-0.5,0.1-0.7,0.2
		c-0.4,0.2-0.8,0.7-1.2,1.4c-0.2,0.2-0.4,0.4-0.5,0.4s-0.2-0.1-0.4-0.2c-0.2-0.2-0.5-0.5-0.7-0.9c-0.1-0.1-0.1-0.2-0.1-0.3l-0.2-0.2
		c-0.4-0.1-0.6-0.2-0.7-0.2c-0.4,0-0.5,0.1-0.5,0.2c-0.1,0-0.2,0.2-0.4,0.5v1.1c0,1.2,0.2,2.1,0.7,2.6c0.2,0.2,0.4,0.4,0.5,0.5v-0.2
		c0.1,0.2,0.2,0.4,0.4,0.4c-0.4-0.4-0.5-1.2-0.5-2.3v-0.5v-0.7v-0.5c0.1,0.1,0.3,0.3,0.4,0.5l0.4,0.5c0.2,0,0.4,0.1,0.4,0.4h-0.2
		h-0.2l-0.3,0.4c-0.1,0.1-0.2,0.3-0.2,0.5c0,0.2,0.1,0.6,0.4,1.1l0.5,0.5c0.1,0.4,0.2,0.8,0.2,1.2v0.5v0.4c-0.1,0.7-0.2,1.2-0.4,1.4
		c-0.2,0.6-0.4,0.9-0.7,0.9v-0.4c0-0.6-0.3-1-0.9-1.4c-0.1,0-0.2,0-0.3-0.1c-0.1-0.1-0.2-0.1-0.3-0.1h-0.3h-0.4
		c-0.2,0-0.4,0-0.5,0.1l-0.3,0.1c-1.2,0.4-2,1-2.5,1.9l-0.4,0.9v0.7c0,0.6,0.1,1.1,0.4,1.6c0.4,1.2,1.3,1.9,2.6,2.1
		c0.2,0.1,0.5,0.2,0.9,0.2c0.7,0,1.3-0.1,1.8-0.4l0.2-0.2l0.2-0.2c0.4-0.2,0.7-0.6,0.9-1.1v-0.2c0.6,0.7,1.4,1.1,2.3,1.2
		c0.1,0,0.2,0,0.4,0.1c0,0,1.4-0.3,2-1C572.2,253.9,572.1,252.8,572.1,252.8L572.1,252.8z"/>
	<path id="path576" inkscape:connector-curvature="0" class="st3" d="M550.4,244.1c0.1,0.4,0.3,0.6,0.5,0.7h0.4h0.5
		c0.2-0.1,0.5-0.2,0.8-0.3c0.3-0.1,0.5-0.1,0.6-0.3h0.4h-0.2l-0.7,1.1c0,0.1-0.1,0.2-0.2,0.4c-0.1,0-0.2,0-0.3,0.1
		c-0.1,0.1-0.1,0.1-0.1,0.3c-0.6,0.5-0.9,1.2-1.1,2.1v0.2c0,0.9,0.4,1.5,1.2,1.8c0.1,0.1,0.2,0.2,0.4,0.2c0.1,0,0.2,0,0.2-0.1
		c0-0.1,0.1-0.1,0.1-0.2v-0.3c0-0.1,0.1-0.1,0.2-0.2l0.2-2.3c0-0.6,0.1-1.1,0.2-1.4c0.1-0.5,0.3-0.8,0.5-1.1
		c0.6-0.5,1.4-0.7,2.5-0.7c0.4,0,1,0.1,1.8,0.4H558c-1.6,0-2.7,0.5-3.2,1.4c-0.1,0.1-0.2,0.3-0.4,0.5v0.4v0.3v0.2l0.2,0.5
		c0.1,0.2,0.2,0.4,0.3,0.6c0.2,0.2,0.4,0.4,0.6,0.4c0.5,0,0.8-0.2,0.9-0.5c0.1-0.1,0.2-0.3,0.2-0.5v-0.4c0-0.4,0.1-0.6,0.4-0.9
		c0.4-0.7,0.8-1.3,1.4-1.8l0.1-0.1l0.2-0.1c0.1,0,0.2,0.1,0.4,0.2l0.2,0.2c1.2,0.6,2.2,1.4,3.2,2.3c-0.7-1.2-1.5-2-2.3-2.5
		c0-0.1-0.1-0.2-0.2-0.3l-0.2-0.1l-0.2-0.7v-0.4c0-0.2-0.1-0.3-0.2-0.4v-0.2v-0.2v-1.4l-0.1-0.2c-0.1-0.1-0.1-0.2-0.1-0.4L559,240
		c-0.1-0.1-0.3-0.2-0.5-0.2c-0.4,0-0.6,0.1-0.9,0.4c-0.1,0.2-0.2,0.4-0.2,0.7v0.2c0,0.6,0.2,1.1,0.5,1.6c0.1,0,0.2,0,0.3,0.1
		l0.2,0.2c0.1,0.1,0.1,0.1,0.2,0.2c0,0.1,0.1,0.1,0.1,0.2s0,0.1,0.1,0.3l0.1,0.2v0.2c-0.1,0-0.2-0.1-0.2-0.2
		c-0.8-0.2-1.4-0.4-1.7-0.4h-0.4h-0.2h-0.2c-0.1-0.1-0.2-0.2-0.2-0.4h-0.2c-0.2-0.4-0.4-0.8-0.4-1.4c0-0.2,0.1-0.4,0.2-0.4
		c0-0.1,0.1-0.3,0.2-0.5s0.2-0.4,0.2-0.5c0-0.4-0.1-0.6-0.4-0.9c-0.2-0.1-0.5-0.2-0.8-0.2l-0.1,0.2h-0.4c-0.1,0.1-0.2,0.3-0.4,0.5
		c-0.2,0.2-0.4,0.6-0.4,1.1c0,0.2,0.1,0.4,0.2,0.5l0.4,0.7c0.4,0.6,0.8,1,1.2,1.3c-0.4,0.1-0.8,0.2-1.1,0.4l-0.2,0.2l-0.2-0.2
		c-0.1,0-0.2-0.1-0.4-0.2l-0.2-0.1l-0.2-0.1l-1.6-0.4h-0.3h-0.1C551,243.3,550.6,243.6,550.4,244.1L550.4,244.1z M555.7,256.1
		c-0.2,0-0.6,0.1-1.2,0.4c-0.5,0.1-0.8,0.2-1.1,0.4l-0.1,0.2l-0.1,0.2l-0.4,0.2c-0.2,0.1-0.5,0.3-0.7,0.5l-0.2,0.4h0.2
		c0.4-0.4,0.9-0.5,1.8-0.5h0.4l0.4,0.2v0.3v0.3v0.2c0,0.4,0.1,0.9,0.2,1.2c0.1,0.1,0.2,0.3,0.4,0.5h0.5h0.5h0.3h0.3h0.2l0.2,0.2
		l0.4,0.4l0.2,0.4l0.5,0.5h0.5c0.4,0,1.1-0.3,2.2-0.9c1.2-0.6,1.9-0.9,2.3-1.1c0.1-0.1,0.5-0.2,1.1-0.4h0.1c-0.1,0-0.1-0.1-0.1-0.2
		c-0.5-0.1-0.9-0.2-1.4-0.2c-0.9,0-1.6,0.2-1.9,0.6l-0.4,0.2v-0.1v-0.2v-0.1c0-0.2-0.1-0.5-0.4-0.7l-0.4-0.4
		c-0.1-0.1-0.3-0.2-0.5-0.4h-0.4h-0.2l-0.1-0.1c0-0.1-0.1-0.1-0.1-0.2c-0.1-0.1-0.1-0.1-0.2-0.1h-0.2h-0.2c-0.1,0-0.1-0.1-0.3-0.2
		c-0.1,0-0.2-0.1-0.4-0.2c-0.1,0-0.2-0.1-0.3-0.3l-0.1-0.2c-0.1-0.2-0.2-0.4-0.4-0.5C556.5,256.1,556.2,256.1,555.7,256.1
		L555.7,256.1z M554.6,260.1h-0.4c-0.4,0-0.7,0.1-1.1,0.4c-0.6,0.4-0.9,1-0.9,1.6v0.2v1.2c0.4,0.9,0.8,1.4,1.4,1.4h0.2
		c-0.6,0-0.9-0.5-0.9-1.6l0-0.2c-0.1-0.2-0.1-0.3-0.1-0.5l0.1-0.2l0-0.2l0.4-0.9C553.7,260.5,554.2,260.1,554.6,260.1L554.6,260.1z
		 M564.5,227.7c-0.8,0-1.5,0.2-1.9,0.7l-0.4,0.4c-0.1,0.1-0.3,0.3-0.5,0.5c-0.2,0.2-0.5,0.5-0.7,0.7c-1.1,1.3-1.7,2.7-1.9,4.2v0.5
		l-0.4-0.2c-0.3-0.1-0.6-0.2-0.8-0.2h-0.4h-0.2c-0.9,0.2-1.6,0.7-1.9,1.6l-0.2,0.2v0.2c0,0.4,0.2,0.7,0.7,0.9
		c0.1,0.1,0.3,0.2,0.5,0.2c0.2,0,0.6-0.1,1-0.3c0.4-0.2,0.7-0.3,0.8-0.3c0.1-0.1,0.4-0.2,0.7-0.2v0.2v0.5c0,0.7,0.1,1.3,0.2,1.8
		c0.1,0.1,0.2,0.3,0.3,0.4l0.1,0.3l2.8,4.6c0.7,1.1,1.3,1.8,1.8,2.3c0.9,0.9,1.8,1.5,2.5,1.6c-0.4-0.4-1.3-1.2-2.5-2.6
		c-0.7-1.1-1.3-1.9-1.6-2.5c-0.1-0.1-0.2-0.3-0.3-0.4c-0.1-0.2-0.1-0.3-0.3-0.4l-0.2-0.3l-0.2-0.2c-0.2-0.4-0.5-0.8-0.9-1.4
		c-0.2-0.2-0.3-0.4-0.3-0.5c0-0.1,0.1-0.3,0.3-0.4c0.2-0.2,0.3-0.3,0.3-0.4v-0.1c0-0.1,0.1-0.1,0.2-0.1h0.2v0.2h0.2
		c0.1,0,0.3-0.1,0.5-0.2c0.1,0,0.2,0,0.3-0.1c0.1-0.1,0.1-0.1,0.3-0.1l0.4-0.4c0.6-0.4,0.9-1.1,0.9-2.1v-0.4c0-0.4-0.2-0.6-0.5-0.9
		c-0.2-0.1-0.5-0.2-0.7-0.2c-0.2,0-0.5,0.1-0.7,0.2v0.4l-0.2,0.2c-0.1,0-0.2,0-0.2,0.1s0,0.3-0.1,0.7c-0.1,0.4-0.1,0.7-0.3,0.8
		c0,0.1-0.1,0.3-0.3,0.4c-0.2,0.2-0.3,0.3-0.3,0.4c-0.2,0.1-0.4,0.3-0.4,0.5l0.1,0.1l0.1,0.1l-0.4,0.4v-0.4
		c-0.1-0.4-0.2-0.9-0.2-1.4v-0.3v-0.3h0.2c0.1,0,0.2-0.1,0.2-0.2c0-0.1-0.1-0.3-0.2-0.7c0-0.1-0.1-0.2-0.2-0.4v-0.3v-0.3l0.1-0.2
		c0.1-0.1,0.1-0.2,0.1-0.4c0.2-1.6,1-3.1,2.3-4.4c0.2-0.4,0.4-0.5,0.5-0.5s0.2,0.1,0.2,0.2c0.2,0.1,0.5,0.2,0.9,0.2
		c0.1,0,0.3,0,0.5-0.1c0.2-0.1,0.4-0.1,0.4-0.1c0.1,0,0.2,0,0.5-0.1c0.3-0.1,0.5-0.1,0.6-0.1c0.1,0,0.3-0.1,0.5-0.2
		c0.2-0.2,0.4-0.4,0.4-0.5l-0.2-0.4c0-0.1,0-0.2-0.1-0.3c-0.1-0.1-0.1-0.1-0.1-0.3h-0.2c-0.3-0.1-0.7-0.2-1-0.2L564.5,227.7
		L564.5,227.7z M561.3,246.2c-0.2-0.1-0.5-0.2-0.9-0.2c-0.7,0-1.4,0.3-1.9,0.9c-0.9,0.7-1.3,1.4-1.2,1.9c0,0.2,0.1,0.4,0.2,0.5
		c0.1,0.1,0.4,0.2,0.7,0.4c0.1,0.1,0.2,0.2,0.4,0.2c0.2,0,0.4-0.1,0.5-0.2c0.1-0.1,0.4-0.4,0.7-0.9c0-0.1,0.1-0.2,0.2-0.4l0.2-0.2
		c0.1-0.2,0.2-0.5,0.2-0.7c0-0.1,0-0.2-0.1-0.4l-0.1-0.2C560.2,246.5,560.6,246.2,561.3,246.2L561.3,246.2z M559.2,254.6
		c-0.4,0-0.6,0.1-0.9,0.2c-0.2,0.1-0.4,0.4-0.4,0.9v0.4c0.2,0.1,0.5,0.2,0.7,0.2h0.2c0.1,0,0.2,0,0.4-0.1c0.1-0.1,0.2-0.1,0.4-0.1
		c0.1,0,0.2,0.1,0.4,0.2c0.1,0.1,0.2,0.2,0.4,0.2c0.2,0,0.4-0.1,0.5-0.2c0.1-0.1,0.2-0.2,0.2-0.4c0-0.1-0.1-0.3-0.2-0.5v-0.1
		c0-0.1-0.1-0.1-0.2-0.3c-0.1-0.1-0.2-0.2-0.3-0.2c-0.4-0.1-0.6-0.2-0.9-0.2L559.2,254.6L559.2,254.6z M568.6,259.6v0.4v1.2
		c-0.1-0.2-0.5-0.4-1.1-0.7v-0.2v-0.2v-0.2c0.2-0.5,0.4-0.9,0.5-1.2c0.1,0,0.2,0.1,0.3,0.2c0.1,0.1,0.2,0.3,0.2,0.6L568.6,259.6
		L568.6,259.6z M571,256.9l-1.4,0.2l0.2,0.2c0.3,0,0.6,0.2,0.7,0.5l0.1,0.4c0.1,0.2,0.1,0.4,0.3,0.4l0.5,0.2c0.1,0,0.2,0,0.4-0.1
		l0.1-0.1c0.1,0,0.2-0.1,0.4-0.2l0.2-0.7c0-0.1-0.1-0.3-0.4-0.5c-0.1-0.1-0.2-0.2-0.4-0.2h-0.4L571,256.9z M572.4,255.5h-0.3
		c-0.2,0-0.3,0.1-0.3,0.2l-0.5,0.2c0,0.1,0.1,0.2,0.2,0.2v-0.2c0.3,0.1,0.6,0.3,0.9,0.5c0.1,0.1,0.3,0.3,0.5,0.4l0.5,0.4
		c0.2,0.1,0.6,0.2,1.1,0.2h0.5c0.2,0,0.4-0.1,0.5-0.4c0.1-0.1,0.2-0.3,0.2-0.5v-0.4c-0.2-0.4-0.4-0.5-0.7-0.5c-0.1,0-0.3,0-0.4,0.1
		c-0.2,0.1-0.3,0.1-0.4,0.1c-0.1-0.1-0.2-0.2-0.4-0.3c-0.1-0.1-0.2-0.1-0.4-0.1L572.4,255.5L572.4,255.5z M571.9,253.9
		c0,0.1,0.1,0.2,0.2,0.2v-0.2H571.9z M572.1,254.1l-0.2-0.2h0.1h0.1V254.1z M579.7,253.2v-0.4c-0.1-0.5-0.4-0.8-0.7-0.9
		c-0.1,0-0.2-0.1-0.4-0.2l-0.2-0.1c-0.1-0.1-0.2-0.1-0.4-0.1h-0.2c-0.2,0-0.4,0.1-0.5,0.2c-0.2,0-0.9,0.3-1.9,0.9
		c-0.5,0.2-1.1,0.6-1.8,1.1c0.1,0,0.2,0,0.4-0.1l0.3-0.1h0.9h1.4c0.1,0.1,0.3,0.2,0.5,0.3c0.2,0.1,0.4,0.1,0.6,0.3h0.4h0.2
		c0.5,0,0.9-0.1,1.2-0.2c0-0.1,0-0.2,0.1-0.4l0.1-0.2V253.2z M571.2,254.7H571 M572.2,254.3c-1.5,1.2-2.7,2.5-2.7,2.5l-0.9,0.9
		c-0.6,0.9-1,1.6-1.2,2.3v0.4h-0.2l-0.4-0.5c-0.2,0-0.4-0.1-0.4-0.4c0-0.1,0.2-0.5,0.6-1.1c0.2-0.4,0.4-0.7,0.5-1.1
		c0-0.2-0.1-0.3-0.2-0.4h-0.2l-0.2,0.2l-0.4,0.2c-0.1,0.1-0.3,0.3-0.5,0.4l-0.2,0.3c-0.1,0-0.3,0.1-0.5,0.4l-0.2-0.2v-0.4
		c-0.6-0.8-1.7-1.3-3.4-1.4h-0.5c-1.1,0-1.9,0.4-2.6,1.1c0.8-0.3,1.6-0.5,2.3-0.5h0.5c0.5,0,1.2,0.2,2.1,0.5
		c0.7,0.2,1.2,0.4,1.4,0.5c0.2,0.2,0.4,0.4,0.4,0.5h-0.2c-0.2,0.3-0.4,0.7-0.4,1.2v0.4c0,0.2,0.1,0.4,0.3,0.6
		c0.2,0.2,0.3,0.3,0.3,0.4c0.1,0,0.2,0.1,0.2,0.4c0,0.1,0,0.2-0.1,0.4c-0.1,0.1-0.1,0.2-0.1,0.4c0,0.1,0.1,0.2,0.2,0.4
		c0.1,0.4,0.5,0.8,1.1,1.1h0.4c0.2,0,0.6-0.1,1.1-0.4c0.2-0.1,0.4-0.3,0.5-0.5c0.2-0.2,0.4-0.5,0.4-0.7v-0.2v-0.2l0.4,0.5l0.4,0.2
		c0.2,0,0.4,0.1,0.4,0.2h0h0.1c0.4,0,0.7-0.2,1.1-0.5c0.4-0.4,0.5-0.8,0.5-1.2c0-0.2-0.1-0.4-0.2-0.4c-0.1-0.5-0.4-0.7-0.7-0.7
		c-0.1,0-0.3,0-0.4-0.1l-0.3-0.1c-0.4-0.1-0.8-0.3-1.2-0.6l-0.5-0.3v-0.2c0.1,0,0.2-0.1,0.2-0.2c0.7-1.1,1.9-2.2,3.5-3.5
		c0.1-0.2,1.2-1.1,3.2-2.6l0.3-0.2c0.1-0.1,0.3-0.2,0.4-0.4c0.1-0.1,0.3-0.2,0.4-0.2s0.6-0.1,1.6-0.2c0.4-0.1,0.6-0.2,0.7-0.4
		l0.4-0.5v-0.2V250v-0.3c0.1-0.1,0.2-0.3,0.2-0.5c0-0.1-0.1-0.3-0.2-0.4c-0.1-0.2-0.2-0.3-0.2-0.4V248v-0.2
		c-0.1-0.2-0.2-0.4-0.4-0.5c-0.4-0.2-0.6-0.4-0.8-0.4c-0.3,0-0.6,0.1-0.8,0.4c0,0.1,0,0.2-0.1,0.3c-0.1,0.1-0.1,0.1-0.3,0.1
		c-0.1,0.1-0.2,0.3-0.2,0.5c-0.2,0.4-0.4,1-0.4,1.9c0,0.1,0,0.2-0.1,0.4s-0.1,0.2-0.1,0.4c-0.1,0-0.1,0.1-0.1,0.4l0.1,0.2v0.4h-0.1
		c-0.1,0.1-0.2,0.2-0.4,0.2C575.3,251.9,573.7,253.1,572.2,254.3L572.2,254.3z"/>
</g>
</svg>
