<?xml version="1.0" encoding="utf-8"?>
<!-- Generator: Adobe Illustrator 25.0.1, SVG Export Plug-In . SVG Version: 6.00 Build 0)  -->
<svg version="1.1"
	 id="图层_1" inkscape:version="0.92.3 (2405546, 2018-03-11)" xmlns:cc="http://creativecommons.org/ns#" xmlns:dc="http://purl.org/dc/elements/1.1/" xmlns:inkscape="http://www.inkscape.org/namespaces/inkscape" xmlns:rdf="http://www.w3.org/1999/02/22-rdf-syntax-ns#" xmlns:sodipodi="http://sodipodi.sourceforge.net/DTD/sodipodi-0.dtd" xmlns:svg="http://www.w3.org/2000/svg"
	 xmlns="http://www.w3.org/2000/svg" xmlns:xlink="http://www.w3.org/1999/xlink" x="0px" y="0px" viewBox="0 0 139.8 200"
	 style="enable-background:new 0 0 139.8 200;" xml:space="preserve">
<style type="text/css">
	.st0{fill:#FFFFFF;}
	.st1{fill:#A00283;}
	.st2{fill:#870000;}
	.st3{fill:#00082D;}
</style>
<path class="st0" d="M112,200.5H28c-15.4,0-27.9-12.5-27.9-27.9V28.4C0.1,13,12.6,0.5,28,0.5h84c15.4,0,27.9,12.5,27.9,27.9v144.2
	C139.9,188,127.4,200.5,112,200.5z"/>
<sodipodi:namedview  bordercolor="#666666" borderopacity="1" gridtolerance="10" guidetolerance="10" id="namedview617" inkscape:current-layer="图层_1" inkscape:cx="-52.49666" inkscape:cy="112.60966" inkscape:pageopacity="0" inkscape:pageshadow="2" inkscape:window-height="705" inkscape:window-maximized="1" inkscape:window-width="1366" inkscape:window-x="-8" inkscape:window-y="-8" inkscape:zoom="1" objecttolerance="10" pagecolor="#ffffff" showgrid="false">
	</sodipodi:namedview>
<g id="g2075" transform="matrix(4.0331525,0,0,4.0331525,-2364.4639,-882.47797)">
	<path id="path578" inkscape:connector-curvature="0" d="M586.3,222.4c0-1,0.3-1.8,1-2.5c0.7-0.7,1.5-1,2.5-1h27.5
		c1,0,1.8,0.3,2.5,1c0.7,0.7,1,1.5,1,2.5v42.4c0,1-0.3,1.8-1,2.5c-0.7,0.7-1.5,1-2.5,1h-27.5c-1,0-1.8-0.4-2.5-1
		c-0.7-0.7-1-1.5-1-2.5 M588,264.8c0,0.5,0.2,0.9,0.5,1.3c0.3,0.3,0.8,0.5,1.3,0.5h27.5c0.5,0,0.9-0.2,1.3-0.5
		c0.3-0.3,0.5-0.8,0.5-1.3v-42.4c0-0.5-0.2-0.9-0.5-1.3c-0.3-0.3-0.8-0.5-1.3-0.5h-27.5c-0.5,0-0.9,0.2-1.3,0.5
		c-0.3,0.3-0.5,0.8-0.5,1.3"/>
	<path id="path580" inkscape:connector-curvature="0" class="st1" d="M601.6,250.3h-0.4c-0.4,0-0.7,0.1-0.9,0.3
		c-0.2,0.2-0.3,0.5-0.3,0.9h0.4c0.5-0.1,0.9-0.4,1.1-0.8v-0.2V250.3z"/>
	<path id="path582" inkscape:connector-curvature="0" class="st2" d="M610.4,223.5c0.4,0.1,0.5,0.2,0.5,0.4v0.2
		c-0.6,0.6-0.9,1-0.9,1.1h0.5c0.4,0,0.8-0.1,1.4-0.4c0.6,0.2,0.9,0.5,0.9,0.9c-0.6,0.2-1.3,0.8-2.2,1.8v0.2c2,1.1,4.2,2,6.3,2.7
		l0.2,0.2c-1.1,0.6-1.9,0.9-2.4,0.9c-0.6-0.2-2.2-1.2-4.7-3.1c-2,2.2-4,3.3-5.8,3.3c1.6-0.8,3-1.9,4.2-3.1l0.7-0.7l-1.7-0.7
		c-0.1,0.2-0.3,0.3-0.5,0.3l-0.2-0.1c0-0.6,0.5-1.3,1.6-2c0.8-0.8,1.3-1.3,1.3-1.6L610.4,223.5z M608.1,226.9c0.6,0,1.2,0.1,1.8,0.4
		l1.1-1.4l-0.5-0.2C609.7,225.6,608.9,226,608.1,226.9z M609.6,230h0.2c1.3,0.2,2,0.7,2,1.3c-0.2,0.2-0.9,0.5-2,0.7
		c-0.5,0.4-0.8,0.7-1.1,1.1c0,0.2,0.7,0.5,2.2,0.7c1.1,0.6,1.6,1.1,1.6,1.6c0,0.1-0.1,0.2-0.4,0.2c-0.5,0-1.6-0.5-3.4-1.4l-0.4-0.5
		c0-0.6,0.5-1.4,1.4-2.5v-0.2l-0.7-0.7L609.6,230z"/>
	<path id="path584" inkscape:connector-curvature="0" class="st1" d="M609.5,248.1c-0.5-0.1-1.1-0.2-1.7-0.2c-0.8,0-1.3,0.1-1.5,0.2
		v-0.2v-0.4c-0.1-0.3-0.3-0.4-0.6-0.6c-0.3-0.1-0.4-0.2-0.6-0.2c-0.8-0.1-1.4-0.2-1.9-0.2h-0.5h-0.3c0-0.5,0.1-0.9,0.4-1.1l0.1-0.1
		l0.2-0.2c0.1-0.1,0.1-0.1,0.2-0.1c0.1,0,0.1-0.1,0.1-0.2c0-0.1-0.1-0.2-0.3-0.2c-0.2,0-0.4,0.1-0.7,0.2c-0.3,0.1-0.4,0.3-0.6,0.7
		c-0.1,0.3-0.2,0.5-0.2,0.7v0.4v0.2c-0.6,0-1.1,0.3-1.5,0.8c-0.8-1.1-1.9-1.8-3.4-2.1h-0.3h-0.5c-1.4,0-2.4,0.4-3,1.1
		c-0.3,0.4-0.4,0.8-0.6,1.3c0,0.1,0.1,0.3,0.2,0.4c0.1,0.1,0.2,0.3,0.2,0.4l-0.4,0.2c0,0.3,0.1,0.4,0.4,0.6c0.1,0.1,0.2,0.3,0.2,0.4
		c0.3,0.3,0.7,0.4,1.3,0.4c0.1,0,0.3,0,0.5,0.1c0.2,0.1,0.3,0.1,0.5,0.1c0.8,0,1.1-0.1,1.1-0.4c0-0.3-0.3-0.4-0.9-0.4
		c-0.8-0.3-1.4-0.5-1.8-0.8c-0.1-0.1-0.1-0.3-0.1-0.4v-0.2c0.1,0,0.1-0.1,0.1-0.2v-0.2c0.4-0.6,1-1.1,1.8-1.3h0.8
		c0.9,0,1.7,0.3,2.5,0.8h-0.3h-0.3c-0.6,0-1.3,0.1-2.1,0.4c1.4,0,2.3,0.1,2.8,0.4c0.4,0.1,0.6,0.3,0.6,0.6c0,0.4,0.3,0.6,0.8,0.6
		c0.1,0,0.3-0.1,0.4-0.2c0.1,0.1,0.3,0.2,0.6,0.2c0.1,0,0.2-0.1,0.2-0.4l-0.2-0.2c-0.1-0.1-0.2-0.3-0.2-0.4c0-0.1,0.1-0.2,0.2-0.2
		c0-0.1,0.1-0.2,0.4-0.2c0.1-0.1,0.3-0.2,0.5-0.2h0.5v0.4v0.6c0.1-0.2,0.3-0.3,0.4-0.4c0.3-0.4,0.8-0.6,1.7-0.6h0.2
		c0.1,0,0.3,0.1,0.6,0.4h-0.2v0.2l-0.2,0.4l-0.6,0.2c0,0.3,0.2,0.4,0.6,0.4c0.1,0,0.5-0.1,1.1-0.4
		C607.4,248.4,608.5,248.1,609.5,248.1L609.5,248.1z"/>
	<path id="path586" inkscape:connector-curvature="0" class="st1" d="M598.9,245.2c0,0.1,0.1,0.3,0.3,0.5c0.2,0.2,0.3,0.3,0.5,0.4
		h0.8l-0.2-0.1c-0.1-0.1-0.2-0.3-0.2-0.4c0-0.3,0.1-0.4,0.2-0.6c0.1-0.1,0.6-0.4,1.3-0.8c1.6-0.5,3.1-0.9,4.5-1.3
		c-0.3-0.1-0.9-0.2-1.7-0.2c0,0-1.9-0.1-3.7,0.6S598.9,245.2,598.9,245.2L598.9,245.2z"/>
	<path id="path588" inkscape:connector-curvature="0" class="st1" d="M609.3,244.6c0-0.6-0.6-1-1.7-1.3c-0.1-0.1-0.3-0.2-0.7-0.2
		h-0.7h-0.2c-0.1,0.1-0.2,0.3-0.2,0.4c0,0.1,0.1,0.2,0.4,0.2c0.3,0,0.6,0.1,0.9,0.2l0.8,0.4c0.1,0.1,0.2,0.3,0.2,0.4v0.2v0.2
		c0,0.1-0.1,0.3-0.2,0.6l-0.2,0.1c-0.1,0.1-0.2,0.1-0.3,0.2c-0.1,0.1-0.1,0.1-0.1,0.2c0,0.1,0.1,0.2,0.2,0.2c0.2,0,0.4-0.1,0.6-0.2
		c0.4-0.1,0.6-0.2,0.8-0.3l0.2-0.4v-0.6C609.3,244.8,609.3,244.7,609.3,244.6L609.3,244.6z"/>
	<path id="path590" inkscape:connector-curvature="0" class="st1" d="M614.1,246.5l-0.2-0.2c-0.1-0.1-0.2-0.2-0.2-0.3l-0.1-0.1h-0.2
		l-0.2-0.2c-0.5-0.3-1.2-0.4-2.1-0.4c-0.8,0-1.4,0.1-1.7,0.2c-0.3,0.1-0.5,0.3-0.9,0.6c-0.3,0.3-0.5,0.4-0.7,0.4
		c-0.1,0.3-0.6,0.6-1.5,0.9h0.2c0.6,0,1.6-0.3,3-0.9c0.3-0.1,0.7-0.2,1.1-0.2c0.5,0,0.9,0.1,1.3,0.2c0.4,0.4,0.6,0.6,0.6,0.8
		c0,0.1-0.1,0.3-0.2,0.5c-0.1,0.2-0.2,0.3-0.2,0.5c0,0.4,0.2,0.6,0.6,0.6h0.2c0.5,0,0.9-0.1,1.1-0.4l0.1-0.2
		c0.1-0.1,0.1-0.2,0.1-0.3v-0.2v-0.3C614.3,247.2,614.2,246.9,614.1,246.5z"/>
	<path id="path592" inkscape:connector-curvature="0" class="st3" d="M595.7,252.9c-1.1-0.9-2.1-1.4-3-1.5c-0.3-0.1-0.6-0.2-0.9-0.2
		c-0.6,0-1.1,0.1-1.5,0.2c-0.5,0.4-0.8,0.7-0.9,1.1v0.2c0,0.1-0.1,0.2-0.2,0.2v0.4c0.1,0.5,0.3,0.9,0.6,1.1c0.1,0,0.3,0,0.4,0.1
		c0.1,0.1,0.3,0.1,0.4,0.1c0.1,0,0.2,0.1,0.2,0.3c0,0.2,0.1,0.3,0.2,0.3l0.4,0.2h0.3c0.1,0.1,0.4,0.2,0.8,0.2c0.1,0,0.4,0,0.7-0.1
		c0.4-0.1,0.7-0.1,1-0.1c1,0,1.8,0.1,2.3,0.4c-0.6-0.9-1.7-1.4-3.2-1.5c-0.8,0-1.2-0.1-1.3-0.2v-0.2c0-0.4,0.1-0.6,0.2-0.6
		c0.1-0.1,0.4-0.2,0.8-0.2c0.8,0,1.7,0.3,2.8,0.9c0.8,0.3,1.6,0.7,2.5,1.3C597.5,254.5,596.8,253.7,595.7,252.9L595.7,252.9z
		 M596.7,261.4c-0.5-0.4-1.2-0.6-2.1-0.6c-0.5,0-0.9,0.1-1.3,0.2c-0.1,0-0.4,0.1-0.8,0.4c-0.4,0.1-0.7,0.3-1,0.4l0,0.1l-0.1,0.1
		l-0.1,0.1c-0.1,0.1-0.2,0.1-0.3,0.1s-0.3,0.2-0.4,0.6v0.6v0.2v0.2l0.2,0.4c0,0.1,0.1,0.2,0.2,0.2c0,0.1,0.1,0.2,0.2,0.2h0.2
		l0.4,0.1c0.1,0,0.3,0,0.4-0.1c0.1,0,0.3,0,0.5-0.1c0.2-0.1,0.4-0.2,0.6-0.4c0.2-0.2,0.3-0.3,0.4-0.3l1.2-0.6
		c0.5-0.3,0.9-0.4,1.1-0.6h-0.4h-0.4c-0.1,0-0.6,0.1-1.3,0.2c-0.2,0.1-0.5,0.2-0.8,0.2c-0.1,0-0.2-0.1-0.2-0.2l0.4-0.4
		c0.1,0,0.3,0,0.5-0.1l0.3-0.1C595,261.7,595.9,261.4,596.7,261.4L596.7,261.4z M598,257.7c-0.1-1.3-1.3-1.9-3.4-1.9
		c-0.8,0-1.4,0.1-1.9,0.4c0,0.1-0.1,0.2-0.4,0.2l-0.2,0.2c-0.1,0.1-0.3,0.3-0.4,0.6c-0.1,0.4-0.2,0.6-0.2,0.8v0.2
		c0.1,0.3,0.3,0.4,0.4,0.5c0.2,0.1,0.8,0.2,1.5,0.2c0.3,0,0.8,0,1.3-0.1c0.5-0.1,0.9-0.1,1.2-0.1h0.8l-0.1-0.1l-0.1-0.2
		c-0.4-0.4-0.9-0.6-1.5-0.8h-0.2H594h-0.2c0.4-0.3,1-0.4,1.9-0.4C596.8,257.1,597.5,257.3,598,257.7L598,257.7z M609.3,263.2
		c-1-0.5-2.2-0.7-3.4-0.8h-0.8c-0.6,0-1.3,0.1-2.1,0.4c-0.3,0-0.6,0.1-1,0.2c-0.4,0.1-0.7,0.2-0.9,0.3c-0.1,0.1-0.4,0.1-0.8,0.1
		c-0.3,0-0.4-0.1-0.6-0.2l-0.5-0.2c-0.3-0.1-0.6-0.2-0.9-0.2c-0.8,0-1.1,0.3-1.1,0.8c0,0.1,0,0.3,0.1,0.4c0.3,0.4,0.5,0.6,0.8,0.6
		c0,0.1,0.1,0.2,0.4,0.3l0.4,0.1h0.8h0.6c0.5,0,1-0.1,1.5-0.2c0.5-0.1,1-0.3,1.5-0.5c0.5-0.2,0.9-0.3,1.3-0.3
		c0.9-0.3,1.6-0.4,2.3-0.6l0.7-0.1c0.4-0.1,0.8-0.1,1-0.1h0.2L609.3,263.2L609.3,263.2z M607.6,259.7c-1.6-0.3-3-0.4-4.2-0.4
		c-2.7,0-4.6,0.4-5.9,1.3c3.8-0.1,6.2-0.2,7-0.4C606.4,259.9,607.4,259.7,607.6,259.7L607.6,259.7z M605.9,261.1
		c-0.1,0-0.6,0-1.4-0.1c-0.8-0.1-1.4-0.1-1.8-0.1h-0.5h-0.5c-1.4,0.1-2.6,0.6-3.8,1.3v0.2v-0.2h0.6h0.6c3.1-0.1,5.2-0.4,6.2-0.8
		c0.1,0,0.3-0.1,0.5-0.2s0.3-0.2,0.5-0.2h0.2h-0.2H605.9z M604.6,258.4c-0.1,0-0.3,0-0.7-0.1c-0.3-0.1-0.5-0.1-0.7-0.1
		c-0.1,0-0.3,0-0.7,0.1c-0.3,0.1-0.5,0.1-0.7,0.1c-1.5,0-2.8,0.4-3.8,1.3c1-0.1,2.6-0.3,4.6-0.5s3.6-0.3,4.6-0.5
		C606.8,258.5,605.9,258.4,604.6,258.4L604.6,258.4z M602,256.5c0.1-0.3,0.2-0.6,0.2-0.9c0-0.5-0.1-1.1-0.2-1.7h0.8
		c-0.1,0.4-0.2,0.8-0.2,1.3v0.6c0,0.4,0.1,0.6,0.2,0.8L602,256.5L602,256.5z M607.3,237.4c0-0.3-0.1-0.5-0.3-0.8
		c-0.2-0.2-0.3-0.4-0.3-0.6l-0.2-0.5l-0.2-0.5c-0.3-0.1-0.6-0.2-0.9-0.2c-0.1,0-0.4,0.1-0.8,0.2l-0.2,0.2v0.2c-0.6,1-1,1.8-1.3,2.5
		v1.5v0.8v1.1v0.4c0,0.4-0.1,0.6-0.2,0.6c0,0.1,0,0.2-0.1,0.3l-0.1,0.1c0.5,0,0.8-0.1,0.9-0.4c0.4-0.3,0.6-0.8,0.6-1.7V240v-0.5
		v-0.2c0-0.4,0.1-0.8,0.4-1.1l0.6-0.2l0.1-0.1l0.1-0.1c-0.1,1.1-0.3,1.9-0.6,2.3c-0.3,0.1-0.4,0.2-0.4,0.3v0.2h0.4
		c0.4,0,0.6-0.1,0.8-0.2c0.1,0,0.2-0.1,0.3-0.2c0.1-0.1,0.2-0.2,0.3-0.4c0.5-0.4,0.8-0.6,0.9-0.8
		C607.2,238.7,607.3,238.2,607.3,237.4L607.3,237.4z M603.5,256.5c0.1-0.3,0.1-0.7,0.1-1.3c0-0.5,0-1-0.1-1.5
		c0.3-0.1,0.6-0.2,0.8-0.2v0.2v0.1v0.3v1.1v0.8c0.1,0.4,0.3,0.6,0.4,0.6h-0.8L603.5,256.5L603.5,256.5z M605.7,256.2
		c0,0.3,0.1,0.4,0.4,0.6c-0.3,0-0.4-0.1-0.6-0.2h-0.4v-0.2c0.1,0,0.2-0.1,0.2-0.2v-0.5v-0.5c0-0.4-0.1-0.8-0.2-1.1
		c0-0.1,0-0.3-0.1-0.4c-0.1-0.1-0.1-0.3-0.1-0.4h0.4h0.5c0,0.3,0,0.7-0.1,1.2c-0.1,0.6-0.1,1-0.1,1.2L605.7,256.2L605.7,256.2z
		 M611.2,239.5c-0.1-0.3-0.3-0.4-0.4-0.6c-0.1-0.1-0.4-0.2-0.8-0.2c-0.6,0-1.3,0.3-2.1,0.9c-0.9,0.9-1.3,2-1.3,3.2
		c0.5-0.9,1.3-1.8,2.5-2.6c-0.1,0.1-0.2,0.2-0.3,0.4c-0.1,0.2-0.1,0.4-0.1,0.5l-0.4,0.4L608,242v0.4c0,0.2,0.1,0.3,0.2,0.4l0.9-0.4
		c0.3-0.3,0.9-0.7,1.5-1.3c0-0.1,0-0.2,0.1-0.3l0.3-0.3C611.2,240.2,611.2,239.9,611.2,239.5L611.2,239.5z M618.4,252.4
		c-0.1-0.8-0.3-1.3-0.6-1.5c-0.5-0.2-1-0.3-1.5-0.4h-0.2c-1,0-2,0.2-3,0.6c-0.5,0.1-1.3,0.6-2.3,1.3c-1.8,1-3,2.2-3.6,3.6
		c1.6-1.5,3.4-2.7,5.3-3.5c0.8-0.3,1.5-0.5,2.3-0.5c0.6,0,0.9,0.1,0.9,0.2c0,0.1-0.2,0.2-0.5,0.3c-0.9,0.5-2.1,1-3.6,1.6
		c-0.8,0.3-1.4,0.4-1.7,0.4c1.5,0.1,2.8,0.2,3.8,0.2h0.8h0.7c0.3,0,0.5-0.1,0.6-0.2c0.4,0,0.8-0.1,1.2-0.4
		C617.7,253.7,618.2,253.1,618.4,252.4L618.4,252.4z M616.2,257.5v-0.6c-0.1-0.1-0.3-0.3-0.6-0.4c-0.4-0.4-0.8-0.6-1.2-0.6
		c-0.4,0-0.9,0.2-1.2,0.6l-0.2,0.2c-0.1,0-0.3,0.1-0.5,0.2c-0.2,0.1-0.4,0.3-0.6,0.4c-0.2,0.1-0.4,0.3-0.5,0.4l-0.2,0.2l-0.2,0.2
		c-0.1,0-0.2-0.1-0.2-0.2c-0.4-0.3-0.9-0.4-1.7-0.4c-0.5,0-0.9,0.1-1.3,0.2c0.9,0.4,1.4,0.6,1.5,0.8l0.2,0.1h-0.2l0.3,0.4
		c0.4,0.5,0.8,0.9,1.2,1.1c0.5,0.3,1.2,0.5,2.1,0.6c0.4,0,0.6-0.1,0.8-0.2c0.2,0,0.6-0.1,1.1-0.4c0.5-0.4,0.9-0.7,1.1-0.9
		c0.1-0.4,0.2-0.8,0.2-1.3v-0.2L616.2,257.5L616.2,257.5z M615.2,262.4c-0.1-0.1-0.3-0.3-0.6-0.4c-0.4-0.3-0.9-0.4-1.4-0.5
		c-0.6-0.1-1.3-0.1-2.1-0.2c-0.8-0.1-1.4-0.1-1.6-0.1c0.9,0.3,1.8,0.6,2.8,0.9c0.1,0,0.3,0.1,0.6,0.2l0.4,0.2c0.1,0,0.2,0,0.3,0.1
		c0.1,0.1,0.1,0.1,0.1,0.1h0.1c0,0.3-0.1,0.4-0.4,0.4c-0.1,0-0.4-0.1-0.9-0.4c-0.4-0.1-0.7-0.2-0.9-0.2c-0.1,0.1-0.2,0.2-0.2,0.4
		l0.2,0.2c0.2,0.1,0.6,0.4,1.1,0.8c0.6,0.4,1.2,0.6,1.7,0.6h0.2c0.5,0,0.8-0.3,0.9-0.8l0.1-0.4C615.7,263.1,615.6,262.7,615.2,262.4
		L615.2,262.4z M616.5,240.8c-0.1-0.5-0.3-0.8-0.6-0.9c-0.5-0.3-0.9-0.4-1.1-0.4c-0.4,0-0.8,0.1-1.3,0.4c-0.3,0.3-0.6,0.5-0.9,0.8
		c-1.1,1-1.8,2.2-2.1,3.6c0.3-0.5,0.7-1.1,1.3-1.7c0.9-1,1.7-1.5,2.3-1.5c0.3,0,0.4,0.1,0.6,0.2c0,0.1-0.1,0.3-0.3,0.4l-0.3,0.2
		c0,0.1,0,0.3-0.1,0.4c-0.1,0.1-0.2,0.2-0.3,0.3c-0.1,0.1-0.3,0.2-0.4,0.3l-0.2,0.2c-0.1,0.1-0.2,0.3-0.2,0.4c0,0.4,0.2,0.6,0.6,0.6
		c0.1,0,0.3-0.1,0.4-0.2c0.8-0.3,1.4-0.5,1.8-0.8c0.5-0.5,0.8-1.1,0.8-1.9L616.5,240.8z M614.1,258c-0.1,0.3-0.6,0.5-1.3,0.5
		c-0.4,0-0.7,0-1-0.1C612.2,258.3,612.9,258.2,614.1,258L614.1,258z M599,244.3c0.1-0.1,0.2-0.3,0.2-0.4l0.2-0.1
		c0.1-0.1,0.2-0.2,0.2-0.3l0.1-0.3c0.1-0.2,0.1-0.3,0.1-0.5s0.1-0.2,0.2-0.3c0.1-0.1,0.2-0.2,0.2-0.3c0-0.1,0-0.3,0-0.5l0.1-0.3
		v-0.8c-0.1-0.3-0.2-0.6-0.4-1.1c-0.2-0.5-0.4-0.8-0.5-0.8c-0.1-0.4-0.2-1-0.2-1.9c0-0.1,0.1-0.9,0.2-2.3c0.1-1.6,0.4-2.8,0.8-3.4
		v-0.2h0.2c0.1,0,0.3,0.1,0.4,0.2c0.1,1.1,0.2,2.1,0.2,2.8c0,0.6-0.1,1.2-0.2,1.7l-0.2,0.4v0.3v0.3c-0.1,0.2-0.3,0.3-0.4,0.4
		L600,237l-0.2-0.2v-0.2c-0.4,0.1-0.6,0.4-0.6,0.9v0.2v0.2c0,0.1,0.1,0.2,0.2,0.2c0.1,0.3,0.4,0.4,0.8,0.4c0.5,0,0.8-0.3,0.9-0.8
		l0.2-0.9c0.1-0.1,0.3-0.4,0.5-0.8c0.2-0.4,0.4-0.8,0.6-1.2v-0.1v-1.1c0-1.4-0.3-2.5-0.8-3.4c-0.3-0.4-0.6-0.6-1.1-0.6
		c-1.3,0.3-2.2,1.2-2.8,2.8c-0.3,0.6-0.4,1.6-0.6,3c0,0.3-0.1,0.4-0.2,0.4l-0.2-0.2h-0.4c-0.3,0-0.8,0.2-1.3,0.6
		c-0.5,0.6-0.9,1.2-1.1,1.9c-0.3,0.8-0.4,1.8-0.4,3c0.1,0.5,0.3,1.1,0.6,1.7c0.1,0,0.2,0.1,0.4,0.4c0.1,0.3,0.3,0.4,0.4,0.6
		c0.1,0.1,0.3,0.2,0.4,0.2c0,0.1,0.1,0.2,0.2,0.2h0.2c0.1,0.1,0.2,0.3,0.3,0.4c0.1,0.1,0.1,0.2,0.2,0.2c0.3,0.2,0.6,0.3,1,0.4h0.4
		l-0.2-0.2l-0.2-0.1c-0.1-0.1-0.2-0.3-0.3-0.5c-0.1-0.2-0.2-0.3-0.3-0.5c0-0.1-0.1-0.3-0.2-0.4c-0.1-0.1-0.2-0.3-0.2-0.4
		c-0.1-0.2-0.2-0.7-0.3-1.3c-0.3-0.8-0.4-1.2-0.4-1.3v-0.2c0-0.3,0.1-0.6,0.2-1.1c0.3-0.5,0.5-0.7,0.8-0.8c0.1,0,0.2,0.1,0.2,0.2
		v0.2c0.1,0,0.2,0.1,0.2,0.2l-0.2,0.8l-0.3,0.3c-0.1,0.1-0.1,0.2-0.1,0.3v0.4c0,0.2,0.1,0.4,0.4,0.6c0.1,0,0.3-0.1,0.6-0.2
		c0.1-0.1,0.3-0.5,0.4-1.1c0.1,0.3,0.3,0.5,0.6,0.9c0.3,0.3,0.4,0.6,0.4,0.9c0.1,0.3,0.3,0.7,0.4,1.3v0.6v0.8 M599.4,253
		c-0.3,1.4-0.4,2.7-0.4,2.8c0,0.3,0,0.5,0.1,0.8s0.2,0.4,0.5,0.4h0.3c0.3,0,0.4-0.2,0.4-0.6V256v-1.1c0-0.6-0.1-1-0.2-1.2
		c0.5,0.1,0.9,0.2,1.3,0.2c-0.3,0.5-0.4,1-0.4,1.7c0,0.5,0.1,0.8,0.2,0.9c-0.8,0.2-1.5,0.5-2.1,0.9c0,0.1-0.1,0.2-0.2,0.3
		c-0.1,0.1-0.3,0.2-0.4,0.3l-0.6,0.4c0.6-0.4,1.5-0.6,2.5-0.7c1-0.1,2.4-0.1,4.1-0.2c1.7-0.1,2.7-0.1,3.1-0.1l0.1-0.1
		c0.1-0.1,0.2-0.1,0.3-0.1h-0.2c-0.4-0.2-0.8-0.4-1.1-0.6c0.3,0,0.4-0.4,0.4-1.1v-0.4c-0.1-2-0.6-2.3-0.6-2.6l-1.2-0.2l-3,1
		L599.4,253z"/>
	<path id="path594" inkscape:connector-curvature="0" class="st1" d="M606.5,253c1.4-0.1,2.1-0.7,2.1-1.7v-0.6h1.9h0.9
		c0.3,0,0.6-0.1,0.9-0.4c0.5-0.3,0.8-0.4,0.8-0.6l-0.2-0.2c-0.1-0.3-0.3-0.4-0.6-0.4h-0.2c-0.2,0-0.6,0.1-1.1,0.4
		c-0.4,0.1-1.1,0.3-2.3,0.4h-0.5H608c-0.1,0-0.2,0-0.3-0.1l-0.1-0.1h-0.6c-1,0-1.8,0.1-2.3,0.4c-0.3-0.2-0.5-0.4-0.8-0.4h-0.2
		c-0.1,0.3-0.1,0.4-0.1,0.6v0.2c0,0.1,0,0.3,0.1,0.4c0.1,0.1,0.5,0.2,1,0.2c0.1,0,0.2-0.1,0.2-0.2v-0.3v-0.3c0.4,0,0.8,0.1,1.1,0.2
		c0.8,0.3,1.2,0.4,1.1,0.6l-0.3,0.3l-0.3,0.3c-0.4,0.1-1,0.3-2,0.4c-0.9,0.2-1.6,0.4-2,0.7l-0.2,0.1c-0.1,0.1-0.2,0.1-0.3,0.1
		c-0.1,0-0.3-0.1-0.9-0.2c-0.1,0-0.3-0.1-0.6-0.3c-0.3-0.2-0.4-0.3-0.6-0.3c-0.5-0.4-1.1-0.7-1.9-0.9c-0.3,0-0.5-0.1-0.6-0.2
		l0.2-0.2c0.3-0.3,0.5-0.6,0.8-0.8h0.9c0.2,0,0.5,0,0.9-0.1c0.4-0.1,0.7-0.1,1-0.1c0.5,0,0.9,0.1,1.1,0.2l-0.4,0.2
		c-0.1,0.1-0.2,0.3-0.2,0.8v0.2l0.2,0.2h0.2h0.2c0.1,0,0.3-0.2,0.6-0.6v-0.4v-0.2c0-0.1-0.2-0.3-0.6-0.4c-0.1,0-0.4-0.1-0.8-0.2
		c-1-0.2-1.9-0.4-2.6-0.4h-0.6c-1.1,0.1-1.9,0.5-2.3,1.1c-0.3,0.5-0.4,0.9-0.4,1.1v0.2c0,0.3,0.1,0.4,0.2,0.5c0.1,0,0.2,0,0.3,0.1
		c0.1,0.1,0.2,0.1,0.3,0.1c1,0.4,1.9,0.5,2.5,0.8c3.2,1.5,5,0.1,5,0.3L606.5,253z"/>
</g>
</svg>
