<?xml version="1.0" encoding="utf-8"?>
<!-- Generator: Adobe Illustrator 25.0.1, SVG Export Plug-In . SVG Version: 6.00 Build 0)  -->
<svg version="1.1"
	 id="图层_1" inkscape:version="0.92.3 (2405546, 2018-03-11)" xmlns:cc="http://creativecommons.org/ns#" xmlns:dc="http://purl.org/dc/elements/1.1/" xmlns:inkscape="http://www.inkscape.org/namespaces/inkscape" xmlns:rdf="http://www.w3.org/1999/02/22-rdf-syntax-ns#" xmlns:sodipodi="http://sodipodi.sourceforge.net/DTD/sodipodi-0.dtd" xmlns:svg="http://www.w3.org/2000/svg"
	 xmlns="http://www.w3.org/2000/svg" xmlns:xlink="http://www.w3.org/1999/xlink" x="0px" y="0px" viewBox="0 0 139.8 200"
	 style="enable-background:new 0 0 139.8 200;" xml:space="preserve">
<style type="text/css">
	.st0{fill:#FFFFFF;}
	.st1{fill:#560042;}
	.st2{fill:#870000;}
	.st3{fill:#00082D;}
</style>
<sodipodi:namedview  bordercolor="#666666" borderopacity="1" gridtolerance="10" guidetolerance="10" id="namedview617" inkscape:current-layer="图层_1" inkscape:cx="-223.99666" inkscape:cy="112.60966" inkscape:pageopacity="0" inkscape:pageshadow="2" inkscape:window-height="705" inkscape:window-maximized="1" inkscape:window-width="1366" inkscape:window-x="-8" inkscape:window-y="-8" inkscape:zoom="1" objecttolerance="10" pagecolor="#ffffff" showgrid="false">
	</sodipodi:namedview>
<path class="st0" d="M112,200.5H28c-15.4,0-27.9-12.5-27.9-27.9V28.4C0.1,13,12.6,0.5,28,0.5h84c15.4,0,27.9,12.5,27.9,27.9v144.2
	C139.9,188,127.4,200.5,112,200.5z"/>
<g id="g2111" transform="matrix(4.0331525,0,0,4.0331525,-1209.1633,-881.46968)">
	<path id="path404" inkscape:connector-curvature="0" d="M334.5,222.1v42.4c0,1-0.3,1.8-1,2.5c-0.7,0.7-1.5,1-2.5,1h-27.5
		c-1,0-1.8-0.4-2.5-1c-0.7-0.7-1-1.5-1-2.5v-42.4c0-1,0.3-1.8,1-2.5c0.7-0.7,1.5-1,2.5-1h27.5c1,0,1.8,0.3,2.5,1
		C334.1,220.3,334.5,221.1,334.5,222.1L334.5,222.1z M330.9,220.3h-27.5c-0.5,0-0.9,0.2-1.3,0.5c-0.3,0.3-0.5,0.8-0.5,1.3v42.4
		c0,0.5,0.2,0.9,0.5,1.3c0.3,0.3,0.8,0.5,1.3,0.5h27.5c0.5,0,0.9-0.2,1.3-0.5c0.3-0.3,0.5-0.8,0.5-1.3v-42.4c0-0.5-0.2-0.9-0.5-1.3
		C331.8,220.5,331.4,220.3,330.9,220.3L330.9,220.3z"/>
	<path id="path406" inkscape:connector-curvature="0" class="st1" d="M307.8,261.9c0-0.1-0.3-0.3-0.8-0.4h-0.6h-1
		c-0.6,0.3-1,0.6-1.1,1l-0.1,0.3c-0.1,0.2-0.1,0.4-0.1,0.5v0.2c0.1,0.5,0.6,0.9,1.3,1.1c0.1,0,0.4-0.1,0.8-0.4
		c0.1-0.1,0.5-0.7,1.1-1.7l0.2-0.2C307.7,262.2,307.8,262,307.8,261.9L307.8,261.9z"/>
	<path id="path408" inkscape:connector-curvature="0" class="st1" d="M310.6,257c0-0.5-0.3-0.8-0.9-0.8c-0.9,0.1-1.3,0.4-1.3,0.9
		c0,0.4,0.3,0.7,0.8,0.7h0.2c0.4,0,0.6-0.1,0.8-0.2C310.4,257.4,310.6,257.2,310.6,257L310.6,257z"/>
	<path id="path410" inkscape:connector-curvature="0" class="st1" d="M311,259.6h-0.2c-1.1,0-1.9,0.4-2.3,1.3v0.4
		c0,0.5,0.3,0.7,0.8,0.8c0.3,0,0.4-0.2,0.6-0.6c0.1,0,0.2-0.1,0.2-0.2V261c0-0.3,0.2-0.6,0.5-1.1L311,259.6z"/>
	<path id="path412" inkscape:connector-curvature="0" class="st2" d="M305.1,222.8h0.2c0.9,0.2,1.4,0.4,1.4,0.7l-0.2,2.3h0.7
		c0.4,0,0.5,0.1,0.5,0.4c0,0.1-0.5,0.5-1.5,1.1v1.1l0.8-0.9v0.2l-0.8,2.1v0.2h0.2c1.8,0,2.7-0.4,2.7-1.1c0.2-0.4,0.4-0.9,0.4-1.2
		l-0.2-0.2c0.7-0.4,1.8-0.7,3.2-0.9c1.1,0.1,1.6,0.7,1.6,1.6v0.5H314v0.2h0.2l1.4-0.2c0.4,0.1,0.9,0.4,1.4,0.9v0.2l-0.2,0.2
		l-2.8-0.4l-0.7,3.2l0.4,0.2h0.2v-0.4h0.2c0.6,1.2,0.9,1.9,0.9,2.2v0.2l-0.4,0.2c-0.2,0-0.8-0.4-1.6-1.2c-0.4,0.9-0.7,1.4-0.9,1.4
		c-1.1-0.6-1.6-1.1-1.6-1.6l0.9,0.4c0.2,0,0.5-0.3,0.7-0.9c-1.5-0.7-2.6-1.1-3.2-1.1l-0.9,0.2l-0.2-0.4v-0.2l0.5-1.1l-0.9,0.2
		c-0.6-0.2-0.9-0.4-0.9-0.7h-0.2v0.4l0.2,4.1c-0.1,0.5-0.3,0.7-0.5,0.7c-0.2,0-0.5-0.5-0.7-1.4v-2.7V231l-1.2,1.2h-0.2
		c-0.4-0.2-0.5-0.6-0.5-1.1c1.2-1.5,1.8-2.8,2-3.7l-0.5,0.2h-0.5c-0.7-0.1-1.1-0.3-1.1-0.5c1.4-0.3,2.2-0.6,2.5-0.9
		c0-2.1-0.2-3.2-0.5-3.2L305.1,222.8L305.1,222.8z M309.9,222.8h0.1c0.1,0,0.3,0.3,0.6,0.9v0.4l-0.2,0.9h0.2
		c1.3-0.5,2.2-0.7,2.7-0.7h0.5l0.2,0.4v0.2c0,0.2-1.1,0.6-3.4,1.2l0.2-0.4c-1.1,0.7-1.7,1.1-2,1.1l-0.4-0.9
		C309.4,224.4,309.9,223.4,309.9,222.8L309.9,222.8z M309.2,231.4l0.7,0.2l0.7-1.8C309.7,229.9,309.2,230.4,309.2,231.4L309.2,231.4
		z M310.3,228v0.4l-0.4,1.1c0.8,0,1.2-0.4,1.2-1.2l-0.2-0.5h0.2c0.8,0.1,1.2,0.4,1.2,0.7l-0.2,0.7c0.5,0,0.7-0.1,0.7-0.2v-1.1
		c0-0.4-0.1-0.6-0.4-0.7h-0.2C312.2,227.1,311.4,227.4,310.3,228L310.3,228z M310.6,231.7l1.8,0.5l0.5-2.7H312L310.6,231.7z"/>
	<path id="path414" inkscape:connector-curvature="0" class="st1" d="M314.6,249.1h-0.2h-0.2c-0.1,0-0.2,0-0.3,0.1l-0.1,0.1h-0.2
		c-0.4,0-0.6,0.2-0.6,0.5c0,0.3,0.2,0.5,0.6,0.5c0.4,0,0.6-0.1,0.6-0.4c0-0.2-0.1-0.4-0.4-0.6c0.1,0,0.3,0,0.4,0.1l0.2,0.1
		c0.2,0,0.4-0.1,0.4-0.2L314.6,249.1z"/>
	<path id="path416" inkscape:connector-curvature="0" class="st1" d="M316.4,247.8c0-0.2-0.3-0.5-1-1c-0.3,0-0.4-0.1-0.4-0.2v-0.2
		c0-0.3-0.2-0.4-0.6-0.4c-0.3,0-0.4,0.1-0.4,0.4c0,0.5,0.1,0.8,0.4,0.8c0.1,0,0.3-0.1,0.4-0.2l0.2-0.4c0.1,0.1,0.4,0.4,0.7,0.7
		c0.3,0.3,0.5,0.5,0.7,0.7c0.1,0,0.2,0,0.2-0.1v-0.1L316.4,247.8L316.4,247.8z"/>
	<path id="path418" inkscape:connector-curvature="0" class="st1" d="M316.9,247.6v-0.2c-0.1,0-0.2-0.1-0.2-0.2l-0.1-0.2
		c-0.1-0.1-0.2-0.3-0.2-0.4l-0.4-0.2v-0.2V246c0-0.4-0.1-0.5-0.4-0.6c-0.3,0-0.4,0.2-0.4,0.6c0,0.3,0.1,0.4,0.4,0.4h0.2h0.2l0.4,0.6
		c0,0.3,0.1,0.4,0.2,0.6c0,0.1,0.1,0.2,0.4,0.2V247.6z"/>
	<path id="path420" inkscape:connector-curvature="0" class="st1" d="M316.7,246c0-0.1,0-0.3-0.1-0.4
		C316.6,245.7,316.6,245.9,316.7,246c0,0.1,0,0.3,0,0.4c0.1,0.4,0.3,0.7,0.4,1l0.2,0.2v-0.2C317.3,247,317.1,246.5,316.7,246
		L316.7,246z"/>
	<path id="path422" inkscape:connector-curvature="0" class="st1" d="M318.3,245.3l-0.2-0.2c-0.1-0.1-0.3-0.2-0.4-0.2h-0.2
		c-0.1,0-0.2,0.1-0.2,0.2c-0.1,0.1-0.2,0.3-0.2,0.4c0,0.1,0.1,0.2,0.2,0.4h0.2v0.2v0.2v0.2v0.4c0,0.3,0.1,0.4,0.2,0.4l0.2,0.2V247
		v-0.6v-0.6h0.2v-0.4L318.3,245.3z"/>
	<path id="path424" inkscape:connector-curvature="0" class="st1" d="M319.2,245.2c-0.1-0.1-0.2-0.1-0.5-0.1c-0.1,0-0.2,0.1-0.2,0.2
		c-0.1,0-0.2,0.1-0.2,0.3c0,0.2,0.1,0.3,0.2,0.3v0.2l-0.2,0.4c-0.1,0.4-0.2,0.6-0.2,0.8s0.1,0.2,0.2,0.2v0.2l0.2-0.2v-0.2
		c0-0.1,0-0.4,0.1-0.7l0.1-0.5h0.4l0.2-0.2v-0.3C319.2,245.4,319.2,245.2,319.2,245.2L319.2,245.2z"/>
	<path id="path426" inkscape:connector-curvature="0" class="st1" d="M318.7,247c0,0.1,0,0.2,0.1,0.2c0.1,0,0.3-0.1,0.4-0.2
		c0-0.1,0-0.3,0.1-0.5l0.1-0.3l-0.4,0.4L318.7,247z"/>
	<path id="path428" inkscape:connector-curvature="0" class="st1" d="M327.7,245.8c0-0.6-0.3-1.2-1-1.9c-0.4-0.2-0.9-0.4-1.5-0.6
		h-0.4h-0.6c-0.8,0-1.5,0.1-2.1,0.2c-0.1,0.2-0.3,0.4-0.4,0.4v-0.4v-0.2c0-0.8-0.3-1.3-0.8-1.5c-0.2-0.1-0.7-0.2-1.5-0.2
		c-0.1,0-0.4,0-0.7,0.1c-0.3,0.1-0.5,0.1-0.7,0.1c-1.1,0.4-2,1-2.5,1.9l-0.2,0.2c-0.3-0.1-0.4-0.2-0.6-0.2c-0.4-0.1-0.8-0.2-1.3-0.2
		c-0.9,0-1.6,0.1-2.1,0.4c-0.8,0.5-1.1,1.1-1.1,1.9c0,0.1,0.1,0.4,0.2,0.8c0.2,0.5,0.6,1,1.1,1.3l0.2,0.2c-0.1,0-0.3,0.1-0.4,0.2
		c-0.9,0.3-1.5,0.6-1.7,1.1c-0.3,0.6-0.4,1.2-0.4,1.7c0,0.4,0.1,0.6,0.2,0.8l0.4,0.4c0.4,0.4,0.7,0.6,1,0.6c0.1,0,0.7,0.1,1.7,0.2
		l0.2,0.1c0.1,0.1,0.2,0.1,0.3,0.1c0.3,0,0.6-0.1,1-0.2l0.2-0.1l0.2-0.1c0,0.3,0.2,0.5,0.6,0.8c0.6,0.6,1.5,0.9,2.5,1
		c0.3,0,0.4-0.1,0.6-0.2c1.5-0.3,2.7-1,3.6-2.1c0.4-0.4,0.6-0.6,0.6-0.8c0.1-0.5,0.2-0.8,0.2-1c0-0.3-0.1-0.7-0.2-1.3
		c-0.1,0-0.2-0.1-0.2-0.2c0.5,0.1,0.9,0.2,1.1,0.2c0.4,0,0.9-0.1,1.7-0.4c0.5,0,0.9-0.1,1.2-0.4c0.4-0.3,0.8-0.6,1.1-1
		C327.5,247.1,327.7,246.5,327.7,245.8L327.7,245.8z M320.8,244.5l-0.3,0.2c-0.2,0.1-0.3,0.3-0.3,0.4c-0.5,0.5-0.8,1.1-0.8,1.7
		c0,0.4,0.1,0.6,0.4,0.8v0.2h-0.2c-1.7,0.3-3.1,0.8-4.2,1.7c0,0.1-0.1,0.2-0.2,0.2l-0.2-0.2c-0.4,0-0.5,0.2-0.6,0.6v0.2h0.2v0.2
		l-0.2,0.2v0.4v0.4c-0.1,0.1-0.2,0.2-0.2,0.2v0.1h-0.2h-0.2h-0.4c-0.1,0-0.4,0-0.7,0.1c-0.3,0.1-0.5,0.1-0.7,0.1H312
		c-0.5,0-0.9-0.1-1.1-0.4c-0.4-0.1-0.5-0.4-0.6-1v-0.2c0-0.5,0.3-0.9,0.8-1.3c0-0.1,0.2-0.3,0.6-0.4c0.4-0.1,0.6-0.2,0.8-0.2h0.2
		h0.1l-0.1,0.2c0.1,0.4,0.3,0.6,0.6,0.6c0.3,0,0.4-0.1,0.6-0.2l0.1-0.2l0.1-0.2h0.2h0.4l0.6,0.2h0.2l-0.2-0.4
		c-0.2-0.1-0.4-0.2-0.6-0.2c-0.1,0-0.2,0-0.3,0.1l-0.1,0.1h-0.2c-0.1,0-0.2,0-0.2-0.1v-0.1v-0.2v0.2h0.2c0.1,0,0.3-0.1,0.4-0.4v-0.1
		c0-0.1,0-0.1,0.1-0.1c0.1,0,0.1,0,0.2,0.1c0.1,0.1,0.2,0.1,0.3,0.2l0.2,0.1c0.1,0,0.3,0.1,0.4,0.2l0.2,0.2h0.2h0.2
		c-0.1-0.3-0.3-0.4-0.4-0.6c-0.1-0.1-0.4-0.2-1-0.2c-0.1,0-0.2,0-0.3-0.1c-0.1-0.1-0.1-0.2-0.1-0.3c-0.1-0.1-0.3-0.2-0.4-0.2
		c-0.4,0-0.6,0.2-0.6,0.6c0,0.1,0.1,0.3,0.2,0.4c-0.1-0.1-0.4-0.3-0.9-0.5c-0.4-0.2-0.7-0.4-0.9-0.7c-0.4-0.4-0.6-0.8-0.6-1.1
		c0-0.2,0.2-0.5,0.6-1c0.6-0.3,1.2-0.4,1.9-0.4h0.8c0.5,0.1,0.9,0.4,1.3,0.8l0.6,0.3h0.2c0-0.1,0-0.1,0.1-0.1v-0.2
		c0-0.1-0.1-0.3-0.2-0.5c-0.1-0.2-0.2-0.4-0.2-0.5c0-0.3,0.1-0.5,0.3-0.8c0.8-0.8,1.8-1.2,2.9-1.2h0.2h0.4h0.2h0.2
		c0.2,0.3,0.4,0.6,0.4,1v0.2C320.9,243.9,320.9,244.2,320.8,244.5L320.8,244.5z M321.5,250.4c0,0.6-0.3,1.1-0.8,1.5
		c-0.4,0.4-0.9,0.7-1.5,1c-0.8,0.3-1.4,0.4-1.9,0.4c-1,0-1.7-0.3-1.9-1c-0.1-0.3-0.2-0.5-0.2-0.6c0-0.6,0.3-1.2,0.8-1.7
		c0.3-0.2,0.8-0.5,1.5-1c0.6-0.4,1.2-0.6,1.7-0.6h0.2h0.2c0.1,0.1,0.3,0.2,0.5,0.3c0.2,0.1,0.4,0.1,0.5,0.1c0.4,0.3,0.6,0.4,0.8,0.6
		C321.5,249.7,321.5,250.1,321.5,250.4L321.5,250.4z M326.3,245.8c0,0.6-0.3,1.1-1,1.5c-0.1,0.1-0.7,0.3-1.7,0.4
		c-0.3,0.1-0.6,0.2-1.1,0.2c-0.5,0-0.9-0.1-1.1-0.2l-0.2-0.2c-0.1,0-0.3-0.1-0.5-0.2c-0.2-0.1-0.4-0.3-0.5-0.4v-0.4
		c0-0.4,0.2-0.8,0.6-1.1c0.6-0.6,1.5-1,2.7-1c1.2,0,1.9,0.2,2.3,0.5C326.1,245.3,326.3,245.6,326.3,245.8L326.3,245.8z"/>
	<path id="path430" inkscape:connector-curvature="0" class="st3" d="M317.9,257.1c-0.4-0.3-0.8-0.4-1.2-0.4h-0.1h-0.4
		c-0.3,0-0.4-0.1-0.4-0.2l0.2-0.2c-0.3-0.4-0.7-0.5-1.3-0.6c-0.3,0-0.6,0.1-1,0.4c-0.1,0-0.3,0.1-0.4,0.2l-0.2,0.2
		c-0.3,0.5-0.4,0.8-0.6,0.8h-0.1h-0.3c-1.9,0.5-3.6,1.2-5.2,2.1c-0.8,0.3-1.1,0.6-1.1,1c0,0.4,0.2,0.6,0.6,0.6c0.2,0,0.5-0.1,1-0.4
		c1.8-0.9,3.3-1.5,4.4-1.9c0.3-0.1,0.5-0.2,0.8-0.2l0.1,0.2c0.1,0.8,0.4,1.2,0.8,1.2c0.1,0,0.4-0.1,0.8-0.4l1.1-1.3
		c0.1-0.2,0.2-0.3,0.3-0.4c0.1,0,0.2-0.1,0.3-0.1c0.1-0.1,0.3-0.1,0.4-0.1c0.1,0,0.5-0.1,1.1-0.4H317.9z M315.2,261.9h1
		c0.1,0,0.7-0.1,1.7-0.4c0.9-0.4,1.5-0.6,1.7-0.6c0.5,0,0.8-0.1,0.8-0.4c0-0.1,0-0.2-0.1-0.3l-0.1-0.1l0.4-0.6
		c0.2-0.4,0.4-0.7,0.6-1l0.2-0.6l0.2,0.2h0.4c0.1,0.1,0.9,0.3,2.3,0.6c1.4,0.3,2.4,0.6,2.9,1.1l0.2,0.3c0.1,0.2,0.2,0.3,0.3,0.4
		c0.1,0.1,0.2,0.1,0.3,0.1c0.3,0,0.5-0.1,0.7-0.4c0.2-0.3,0.4-0.4,0.4-0.6c0-0.1,0-0.3-0.1-0.4c0-0.1-0.1-0.2-0.1-0.3
		c0-0.1,0.1-0.2,0.2-0.3c0.1-0.1,0.2-0.2,0.3-0.3l0.1-0.1c0-0.3-0.1-0.5-0.4-0.8c-0.1,0-0.3,0-0.7-0.1c-0.4-0.1-0.6-0.2-0.8-0.3
		c-0.4-0.1-0.6-0.3-0.8-0.6l-0.2-0.2h-0.1c-0.1,0-0.2-0.1-0.3-0.2l-0.8-0.8l-0.8-0.8l0.6-0.2l0.2-0.2c0.1-0.1,0.3-0.2,0.5-0.2
		s0.4,0,0.5-0.1l0.2-0.1l0.2-0.4c0-0.1,0.1-0.3,0.2-0.6c0.1-0.3,0.2-0.4,0.2-0.6l-0.4-0.4c0-0.3-0.1-0.4-0.2-0.4h-0.4h-0.4
		c-0.3,0-0.4,0-0.4-0.1c0,0-0.1-0.1-0.2-0.3c-0.1-0.1-0.2-0.3-0.2-0.4c-0.2-0.3-0.3-0.4-0.3-0.6l0.1-0.1c0.1-0.1,0.1-0.2,0.1-0.3
		s-0.1-0.2-0.2-0.2s-0.3,0.1-0.4,0.2c-0.1,0.1-0.2,0.3-0.2,0.6c-0.1,0.4-0.2,0.6-0.2,0.8s0.1,0.3,0.2,0.6c0,0.1,0,0.2,0.1,0.3
		c0.1,0.1,0.1,0.2,0.1,0.3s-0.1,0.3-0.2,0.4c-1.5,1.1-2.8,2.2-3.8,3.3l-0.6,0.6c0,0.1-0.1,0.2-0.2,0.2l-0.2,0.2l-1.1,1.1
		c-1.1,1.1-2.2,2.4-3.3,3.8h0.2L315.2,261.9z M330.7,222.1c-1.8,3.7-3,6.2-3.6,7.5l-0.2,0.2v-0.2c-0.4-0.4-0.8-0.5-1.1-0.6h-0.6
		c-0.2,0.4-0.4,0.6-0.4,0.8l0.1,0.6c0.3,0.4,0.5,0.6,0.8,0.8c0.1,0,0.3,0.1,0.4,0.2c-0.1,0.1-0.2,0.2-0.2,0.4
		c-0.6,1.1-1.3,2-2.1,2.9c-1,1.1-1.7,1.9-2.1,2.1c-0.3,0.3-0.5,0.4-0.8,0.6c-0.4,0.1-0.5,0.3-0.6,0.4v0.2c0,0.1,0.1,0.3,0.2,0.4
		l0.2,0.2c0.1,0.3,0.2,0.6,0.4,1.1l-0.2-0.1c-0.8-0.4-1.3-0.8-1.5-1.3c-0.3-0.5-0.5-0.7-0.6-0.8h-0.1c-0.4,0-0.6,0.2-0.6,0.6
		c0,0.1,0.1,0.3,0.4,0.6c0.5,0.6,1.2,1,2.1,1.1c0.4,0,0.5,0.1,0.6,0.2c0.1,0,0.2,0.3,0.2,0.8c0,0.3,0.1,0.8,0.2,1.5
		c0.1,0.8,0.4,1.2,0.8,1.2c0.3,0,0.4-0.3,0.4-0.8v-0.8c-0.1-0.6-0.3-1.1-0.4-1.3c-0.1-1.3-0.4-2.1-0.8-2.5h-0.2v-0.2
		c0.3-0.1,0.4-0.2,0.6-0.4c0.9-0.8,1.8-1.7,2.7-2.7C326.9,231.7,329,227.6,330.7,222.1L330.7,222.1z M325.6,257.5h-0.2
		c-0.5,0-0.9-0.1-1.3-0.2c-0.1,0-0.6,0.1-1.3,0.2h-0.6l-0.1,0.1l-0.1,0.1c0-0.1,0.1-0.3,0.2-0.4c0.8-1.1,1.5-1.9,2.1-2.3h0.2
		c0.1,0.6,0.3,1.1,0.5,1.5l0.6,0.6v0.2L325.6,257.5z"/>
	<path id="path432" inkscape:connector-curvature="0" class="st1" d="M327.5,233.3c-0.3-0.1-0.4-0.1-0.6-0.1c-1.2,0-1.8,0.3-1.7,1
		c0,0.1,0.1,0.3,0.2,0.6c0.1,0.3,0.2,0.4,0.2,0.6c0.3,0.2,0.6,0.4,1,0.4c0.5,0,0.9-0.1,1.1-0.4c0.3-0.3,0.4-0.5,0.4-0.8
		C328.1,234,327.9,233.6,327.5,233.3L327.5,233.3z"/>
	<path id="path434" inkscape:connector-curvature="0" class="st1" d="M330.7,227.1c-0.1-0.6-0.4-1-0.8-1s-0.7,0.2-1,0.6v0.4
		c0,0.2,0.1,0.5,0.2,0.8c0.1,0.3,0.3,0.5,0.6,0.5C330.4,228.4,330.7,228,330.7,227.1z"/>
</g>
</svg>
