<?xml version="1.0" encoding="utf-8"?>
<!-- Generator: Adobe Illustrator 25.0.1, SVG Export Plug-In . SVG Version: 6.00 Build 0)  -->
<svg version="1.1"
	 id="图层_1" inkscape:version="0.92.3 (2405546, 2018-03-11)" xmlns:cc="http://creativecommons.org/ns#" xmlns:dc="http://purl.org/dc/elements/1.1/" xmlns:inkscape="http://www.inkscape.org/namespaces/inkscape" xmlns:rdf="http://www.w3.org/1999/02/22-rdf-syntax-ns#" xmlns:sodipodi="http://sodipodi.sourceforge.net/DTD/sodipodi-0.dtd" xmlns:svg="http://www.w3.org/2000/svg"
	 xmlns="http://www.w3.org/2000/svg" xmlns:xlink="http://www.w3.org/1999/xlink" x="0px" y="0px" viewBox="0 0 139.8 200"
	 style="enable-background:new 0 0 139.8 200;" xml:space="preserve">
<style type="text/css">
	.st0{fill:#FFFFFF;}
	.st1{fill:#3B67E2;}
	.st2{fill:#870000;}
	.st3{fill:#00082D;}
</style>
<path class="st0" d="M112,200.5H28c-15.4,0-27.9-12.5-27.9-27.9V28.4C0.1,13,12.6,0.5,28,0.5h84c15.4,0,27.9,12.5,27.9,27.9v144.2
	C139.9,188,127.4,200.5,112,200.5z"/>
<sodipodi:namedview  bordercolor="#666666" borderopacity="1" gridtolerance="10" guidetolerance="10" id="namedview617" inkscape:current-layer="图层_1" inkscape:cx="44.50334" inkscape:cy="112.60966" inkscape:pageopacity="0" inkscape:pageshadow="2" inkscape:window-height="705" inkscape:window-maximized="1" inkscape:window-width="1366" inkscape:window-x="-8" inkscape:window-y="-8" inkscape:zoom="1" objecttolerance="10" pagecolor="#ffffff" showgrid="false">
	</sodipodi:namedview>
<g id="g2151" transform="matrix(4.0331525,0,0,4.0331525,-1362.9273,-881.46968)">
	<path id="path436" inkscape:connector-curvature="0" d="M372.6,222.1v42.4c0,1-0.3,1.8-1,2.5c-0.7,0.7-1.5,1-2.5,1h-27.5
		c-1,0-1.8-0.4-2.5-1c-0.7-0.7-1-1.5-1-2.5v-42.4c0-1,0.3-1.8,1-2.5c0.7-0.7,1.5-1,2.5-1H369c1,0,1.8,0.3,2.5,1
		C372.2,220.3,372.6,221.1,372.6,222.1z M369,220.3h-27.5c-0.5,0-0.9,0.2-1.3,0.5c-0.3,0.3-0.5,0.8-0.5,1.3v42.4
		c0,0.5,0.2,0.9,0.5,1.3c0.3,0.3,0.8,0.5,1.3,0.5H369c0.5,0,0.9-0.2,1.3-0.5c0.3-0.3,0.5-0.8,0.5-1.3v-42.4c0-0.5-0.2-0.9-0.5-1.3
		C369.9,220.5,369.5,220.3,369,220.3L369,220.3z"/>
	<path id="path438" inkscape:connector-curvature="0" class="st1" d="M348.1,258c-0.1-0.2-0.3-0.5-0.5-0.7h-0.2
		c-0.1,0-0.1-0.1-0.2-0.2l0.1-0.1c0-0.1,0.1-0.1,0.3-0.2l0.2-0.1c0.2-0.1,0.4-0.2,0.5-0.4h-0.2c-0.1,0-0.2,0-0.3-0.1
		c-0.1-0.1-0.2-0.1-0.3-0.1s-0.1,0.1-0.3,0.2h-0.3c-0.5,0.1-0.7,0.4-0.7,0.9c0,0.3,0.2,0.6,0.7,0.9h-0.2l0.2,0.2l-0.2,0.1l-0.2,0.1
		c-0.3,0.1-0.5,0.4-0.5,0.8v0.4v0.4v0.2h-0.2h-0.2l-0.2-0.2c-0.3-0.1-0.5-0.4-0.6-0.8c-0.1,0-0.2-0.2-0.2-0.5v-0.2
		c0.1-0.5,0.5-1,1-1.6c0.1,0,0.2-0.1,0.2-0.4l0.9-0.9c0-0.1-0.2-0.2-0.5-0.2c-0.5,0-0.8,0.2-1,0.5c-0.2,0.1-0.3,0.4-0.3,0.7
		c0,0.2,0.1,0.4,0.3,0.4h0.2h-0.2c0,0.1-0.1,0.2-0.3,0.4c-0.3,0.2-0.6,0.4-0.7,0.4H344h-0.2h-0.5c0.1-0.2,0.2-0.4,0.2-0.5
		c0.1-0.1,0.1-0.2,0.1-0.4c0-0.1,0-0.3-0.1-0.5c-0.2-0.4-0.5-0.5-0.7-0.5l-0.2-0.2l0.5-0.2l0.2-0.2c0.2,0,0.4,0.1,0.5,0.2h0.3h0.2
		h0.3h0.6h0.5c0-0.1-0.1-0.1-0.2-0.2c-1.1-0.2-1.9-0.6-2.2-1.1c-0.2-0.2-0.3-0.4-0.3-0.5c0-0.1,0-0.3,0.1-0.5
		c0.1-0.2,0.1-0.4,0.1-0.5v-0.2v-0.2h0.5l0.4,0.2c0.6,0.2,1,0.5,1.4,0.7l0.1,0.2c-0.3-1-0.9-1.6-1.7-1.9c-0.3-0.1-0.6-0.2-0.9-0.2
		c-0.3,0-0.5,0.2-0.6,0.5l0.1,0.2l0.1,0.2c0,0.1-0.1,0.4-0.3,0.7c-0.2,0.4-0.3,0.6-0.3,0.7c0,0.4,0.1,0.7,0.2,0.9
		c0,0.1,0.1,0.2,0.2,0.3c0.1,0.1,0.2,0.1,0.3,0.3h-0.2h-0.3h-0.1c-0.4,0.2-0.7,0.5-0.7,0.7v0.2c0.1,0.2,0.2,0.4,0.2,0.5
		c0.1,0,0.2,0.1,0.3,0.2l0.2,0.2c-0.2,0.6-0.3,1-0.3,1.2c0,0.1,0.1,0.3,0.2,0.5c0.1,0.2,0.4,0.4,0.9,0.5c0.1,0,0.3-0.1,0.6-0.2
		c0.3-0.1,0.5-0.2,0.6-0.2v0.2l-0.2,0.2c0,0.6,0.3,1.1,0.9,1.6l0.3,0.4c0.2,0.1,0.6,0.1,1,0.2c0.5,0,0.7-0.2,0.9-0.5
		c0.2-0.1,0.3-0.4,0.3-0.9l-0.2-0.2v-0.2c0-0.1,0-0.2,0.1-0.2h0.3h0.1c0.1,0,0.2,0,0.2-0.1h0.2c0.3-0.2,0.5-0.5,0.5-0.7
		C348.4,258.4,348.3,258.3,348.1,258L348.1,258z"/>
	<path id="path440" inkscape:connector-curvature="0" class="st1" d="M355.3,248h-0.3h-0.1h-0.1h-0.2c-0.2,0-0.4-0.1-0.5-0.2h-0.7
		c-1.1,0.1-2.2,0.8-3.1,1.9c0.8-0.6,1.8-0.9,2.9-0.9h0.3h0.4c0.4,0,0.7,0.1,0.9,0.4v0.4c-0.1,0.2-0.2,0.4-0.3,0.5
		c-0.5,0.5-0.9,0.8-1.2,1.1c-0.3,0.2-0.9,0.4-1.7,0.4c-0.4,0-0.9-0.1-1.4-0.2l0.2,0.2h0.2h-0.2c-0.1,0.1-0.1,0.3,0,0.5l0.3,0.4v0.2
		v0.2v0.2v0.2h-0.2h-0.7c-0.2,0-0.5,0.2-0.7,0.5l-0.1,0.1c0,0.1-0.1,0.2-0.2,0.2h-0.2c0-0.1-0.1-0.2-0.2-0.2c-0.1,0-0.3,0-0.4,0.1
		c-0.2,0.1-0.4,0.1-0.6,0.1l-0.2-0.2c0.4-0.2,0.7-0.4,0.9-0.7l0.2-0.2c0.1,0.1,0.2,0.2,0.3,0.2c0.2,0,0.4-0.2,0.5-0.7l0.4-0.4v-0.2
		l0.2-0.2l-0.3-0.2c-0.3,0-0.6,0.2-0.9,0.5l-0.2,0.4c-0.1,0-0.2-0.1-0.3-0.2c-0.1,0-0.2-0.1-0.2-0.2c0.2,0,0.4-0.1,0.5-0.2l0.2-0.2
		h0.2l-1.2-0.4c-0.8-0.4-1.3-0.6-1.4-0.7c-0.3-0.2-0.5-0.8-0.6-1.6v-0.7c0-0.3,0.1-0.5,0.2-0.5c0.1,0.1,0.2,0.2,0.3,0.2l0.5,0.1v0.3
		v0.3l0.2,0.5c0.4,0.6,1.3,1.2,2.7,1.9V251c-1-0.7-1.7-1.4-1.9-2.1c-0.1-0.2-0.2-0.5-0.2-0.8c0-0.9,0.5-1.7,1.4-2.2
		c0.1-0.1,0.4-0.3,0.8-0.4c0.4-0.2,0.7-0.3,0.8-0.4c0.2-0.1,0.3-0.2,0.3-0.4l-0.2-0.2c-0.2-0.1-0.5-0.1-0.7-0.2h-0.2
		c-0.3,0.1-0.7,0.3-1.2,0.5c-0.9,0.6-1.5,1.2-1.7,1.9c0,0.1-0.1,0.2-0.2,0.4H346l-0.3,0.2l-0.1,0.2c-0.1,0.1-0.1,0.2-0.3,0.2
		c-0.2,0-0.5,0.1-0.7,0.4c-0.2,0.2-0.3,0.5-0.3,0.9c0,0.4,0.1,0.6,0.2,0.9c0,0.2,0.1,0.5,0.2,0.9l0.3,0.2c0.2,0.4,0.6,0.6,1,0.7
		c0.1,0,0.3,0.1,0.5,0.2c-0.3,0.1-0.5,0.3-0.5,0.5c0,0.2,0.1,0.4,0.3,0.5c0.2,0,0.3,0.1,0.3,0.2c-0.6,0.4-0.9,0.7-0.9,1.1v0.4
		l0.2,0.2c0.2,0.4,0.5,0.5,0.7,0.5c0.1,0,0.3,0,0.6-0.1c0.3-0.1,0.5-0.1,0.6-0.1l0.2,0.2h0.4h0.4c0.3,0,0.6-0.2,0.9-0.5v-0.2
		c0.1-0.1,0.2-0.2,0.3-0.2h0.2h0.6c0,0,0.1-0.1,0.2-0.2l0.1-0.2l0.2-0.1c0.1-0.1,0.2-0.2,0.2-0.4V253v-0.1v-0.2
		c0.1-0.1,0.2-0.2,0.2-0.4l-0.2-0.4c0.1,0,0.3,0,0.6,0.1s0.5,0.1,0.8,0.1c0.6,0,1.1-0.3,1.7-0.9c0.7-0.6,1.1-1.1,1.2-1.6v-0.5
		C355.8,248.6,355.6,248.2,355.3,248L355.3,248z"/>
	<path id="path442" inkscape:connector-curvature="0" class="st2" d="M345.2,225.5c0.4,0.2,0.5,0.4,0.5,0.5l-0.2,1.3h0.2h0.2
		c-1,1.3-1.8,2-2.3,2l-0.2-0.2l-0.2,1.8l0.2,3.1c-0.1,0.3-0.2,0.5-0.4,0.5c-0.4,0-0.7-0.4-0.9-1.3l0.4-3.9v-1.6l-0.2-1.4l0.2-0.2
		c0.4,0,0.7,0.3,0.9,0.9c0.6-0.2,1-0.3,1.4-0.4l-0.2-0.5l-1.3,0.5l-0.2-0.4V226C343.2,225.9,343.9,225.7,345.2,225.5L345.2,225.5z
		 M347.7,222.4h0.2c1.1,0.2,1.6,0.4,1.6,0.5l-0.2,0.4v0.2l1.3-0.2c0.7,0.1,1.1,0.3,1.1,0.5v0.2c0,0.1-0.1,0.2-0.4,0.2h-2.2h-0.4
		c-0.8,0.7-1.5,1.1-2,1.1h-0.2l1.1-1.1V224l-2.2,0.5v0.2c0,0.3-0.1,0.6-0.4,0.7h-0.4l-0.4-0.7c-0.3,0.2-0.7,0.3-1.1,0.4
		c-0.1,0-0.4-0.2-0.9-0.7h0.4l1.4-0.2l-0.1-1.1h0.1l0.9,0.7c0-0.1,0.1-0.2,0.4-0.4v0.4c1.6-0.1,2.5-0.3,2.5-0.5v-0.2h0.2
		L347.7,222.4z M343.8,228.1V228l0.4-0.5h-0.7v0.4v0.5c0.8-0.1,1.3-0.4,1.3-0.9v-0.2L343.8,228.1z M350.6,224.9
		c0.7,0.1,1.1,0.4,1.1,0.7l-0.2,1.8l0.4,7.2c0,0.1-0.2,0.3-0.5,0.5h-0.2c-0.6-0.2-1.2-0.7-1.8-1.3v-0.2l1.1,0.2
		c0.1,0,0.2-0.2,0.2-0.7v-5h-1.3h-0.2l-0.4-0.2c0,0.4-0.1,0.7-0.4,0.7l-0.2-0.5l-1.3,0.5v0.4l1.4-0.2c0.6,0.1,0.9,0.4,0.9,0.7v0.4
		c0,0.4-0.4,1-1.1,1.8l-0.9-0.2H347v0.2c1.6,0.4,2.3,0.9,2.3,1.6l-0.2,0.2c-0.2,0-0.9-0.4-2-1.1H347l0.2,1.7c0,0.3-0.1,0.5-0.4,0.5
		c-0.4,0-1-0.4-1.6-1.3v-0.2h0.2l0.9,0.4v-1.3c-1,0.8-1.9,1.3-2.7,1.3v-0.2v-0.2c0.4,0,0.9-0.4,1.6-1.1c-0.4,0-0.7-0.9-0.9-2.7
		l0.2-0.2l0.5,0.4c0.8-0.1,1.3-0.2,1.3-0.4V229h-0.5l0.2-0.2c-0.6,0-0.9-0.1-0.9-0.2c0.1-0.2,0.5-0.4,1.3-0.5l-0.4-1.3h0.2
		c0.7,0,1.1,0.3,1.1,0.9h0.2h0.5l0.1-2.2l0.2-0.2c0.2,0,0.5,0.2,0.7,0.7l1-0.2c0.4,0,0.6,0.1,0.6,0.2v0.2c-0.4,0.4-0.9,0.7-1.3,0.7
		v-0.4h-0.5v0.8h1.6h0.2V226c0-0.2-0.1-0.4-0.4-0.5H350l-1,0.4h-0.2l-0.4-0.4v-0.2L350.6,224.9z M345.4,229.9h-0.2l0.4,1.3l0.7-0.2
		v-0.4h-0.2c-0.4,0-0.5-0.1-0.5-0.2v-0.2l0.7-0.2v-0.2L345.4,229.9L345.4,229.9z M347,229.6v0.2l0.2-0.2h0.5l0.2,0.4
		c0,0.1-0.2,0.4-0.7,0.9h0.4c0.1,0,0.4-0.5,0.7-1.4C347.4,229.4,347,229.5,347,229.6L347,229.6z"/>
	<path id="path444" inkscape:connector-curvature="0" class="st3" d="M350.4,261.9c-0.4-0.2-0.7-0.4-0.9-0.6
		c-0.2-0.2-0.5-0.4-0.7-0.8c0-0.2-0.1-0.4-0.2-0.4c-0.2,0.4-0.3,0.7-0.3,1.1v0.2c0,0.5,0.2,0.9,0.5,1.2c0.1,0.2,0.3,0.4,0.7,0.5
		c0.5,0.2,1.1,0.3,1.9,0.3s1.5-0.1,2.2-0.3c-0.1,0-0.5-0.1-1-0.3c-0.6-0.2-1-0.3-1.2-0.4C351.1,262.3,350.8,262.2,350.4,261.9
		L350.4,261.9z"/>
	<path id="path446" inkscape:connector-curvature="0" class="st3" d="M351,258.4c0-0.2,0-0.9-0.1-2.1h-0.2c-0.5,0.2-0.7,0.6-0.9,1.2
		v0.2c0,0.6,0.2,1.1,0.7,1.6c0.1,0.1,0.6,0.4,1.5,1.1C351.4,259.4,351.1,258.7,351,258.4L351,258.4z"/>
	<path id="path448" inkscape:connector-curvature="0" class="st1" d="M352.2,246.7c-0.2-0.3-0.5-0.6-0.7-0.7l-0.2-0.1l-0.2-0.1
		c-0.1-0.1-0.2-0.3-0.3-0.5l-0.1-0.4c-0.1,0.2-0.2,0.4-0.2,0.5c0,0.2,0.1,0.5,0.4,0.8c0.3,0.3,0.4,0.7,0.4,1.1v0.4l-0.2,0.2
		c-0.1,0.1-0.2,0.2-0.4,0.4v0.2v0.2c0.1,0,0.2-0.1,0.4-0.2l0.3-0.2c0.3-0.2,0.5-0.6,0.5-1.1L352.2,246.7L352.2,246.7z"/>
	<path id="path450" inkscape:connector-curvature="0" class="st3" d="M353.1,253.6c-0.4,0.2-0.7,0.4-0.9,0.5
		c-0.2,0.4-0.3,0.9-0.3,1.8c0,1,0.3,1.9,1,2.8l0.1,0.1l0.1,0.1c-0.2-0.5-0.3-1.1-0.3-1.9c0-0.9,0.1-1.6,0.2-2.1
		c0.1-0.2,0.2-0.5,0.3-0.8l0.1-0.4L353.1,253.6L353.1,253.6z"/>
	<path id="path452" inkscape:connector-curvature="0" class="st3" d="M357.7,234c-0.7-0.5-1.3-0.7-1.9-0.7h-0.2
		c-0.3,0-0.7,0.1-1.2,0.2c-0.1,0-0.3,0-0.6,0.1l-0.4,0.1l-0.3,0.2h0.2c0.8,0.2,1.5,0.6,1.9,1.1c0.9,0.6,1.4,1.3,1.3,2.1
		c0.1,0.1,0.2,0.2,0.2,0.4c0,0.6-0.3,1.4-0.9,2.3c-0.5,0.6-0.7,1.2-0.7,1.8c-0.2,0.7-0.3,1.6-0.3,2.6c0,0.7,0.1,1.4,0.2,2.1
		c0.5-1.6,0.9-3.1,1.4-4.4c0.3-0.7,0.5-1.1,0.7-1.2c0-0.1,0.1-0.2,0.3-0.4c0.2-0.1,0.3-0.2,0.3-0.4c0.9-0.8,1.4-1.8,1.4-2.8
		C358.9,235.9,358.5,234.9,357.7,234L357.7,234z"/>
	<path id="path454" inkscape:connector-curvature="0" class="st3" d="M367.7,234.4c0.5,1.1,0.7,2.2,0.7,3.5c0,0.5-0.1,0.8-0.2,1.1
		c-0.2,1.6-0.7,2.9-1.4,3.9c-0.6,1-1.4,1.9-2.6,2.8c-0.5,0.6-2.5,2.1-5.8,4.6c-0.4,0.4-0.9,0.8-1.4,1.4c-1.4,1.6-2.1,3.4-2.2,5.5
		c-0.1,0.7-0.2,1.2-0.2,1.4c0,1.1,0.2,2.2,0.5,3.5c0-3.4,0.9-6.3,2.6-8.6c0.5-1,1.1-1.6,1.7-1.9c0.1-0.1,0.3-0.3,0.6-0.5
		c0.3-0.2,0.5-0.4,0.6-0.4l1.4-1.1c2.6-2,4.5-3.8,5.6-5.3c0.6-0.7,0.9-1.1,0.9-1.2c0.4-0.9,0.7-2,0.9-3.2v-0.4
		C369.4,237.8,368.9,236.1,367.7,234.4z"/>
	<path id="path456" inkscape:connector-curvature="0" class="st3" d="M364.3,235.1c-0.1-1.4-0.6-2.7-1.5-4.1
		c-0.8-1.1-1.8-1.9-2.9-2.5c-1.4-0.8-2.7-1.4-3.9-1.6c0.7,0.4,1.1,0.8,1.4,1.1c0.3,0.2,0.8,0.6,1.4,1.1l1.2,1.4c1,0.8,1.7,1.8,2,2.8
		c0.1,0.2,0.2,0.9,0.2,2.1v0.4c0,1.2-0.3,2.4-0.9,3.7c-0.7,0.9-1.5,1.9-2.2,2.8c-0.7,0.8-1.3,1.8-1.9,3c-0.7,1.6-1.4,4.1-2,7.4v0.5
		v-0.2c0.9-1.8,2-4.2,3.4-7.2l1-1.8c0.1-0.2,0.3-0.5,0.7-0.8c0.3-0.3,0.6-0.5,0.7-0.6c1.7-1.7,2.7-3.4,3.1-5.1
		C364.2,237,364.3,236.2,364.3,235.1L364.3,235.1z"/>
	<path id="path458" inkscape:connector-curvature="0" class="st3" d="M369.8,254c0-0.1,0-0.2-0.1-0.4l-0.1-0.1v-0.5
		c0-0.2-0.1-0.5-0.2-0.7c-0.7-0.7-1.5-1.2-2.4-1.4c-0.5-0.1-0.9-0.2-1.2-0.2c-0.5,0-1.2,0.1-2,0.4c-1.3,0.5-2.7,1.5-4.4,3
		c-1.6,1.5-2.6,3.1-2.9,4.8c-0.1,0.6-0.1,1.3-0.1,2.3c0,1.4,0.2,2.9,0.5,4.4c0-1.6,0.2-3.3,0.5-4.9c0.5-1.8,1-3,1.5-3.7l1.4-1.4
		c0.9-1,2-1.7,3.1-2.3c0.9-0.5,1.6-0.7,2.2-0.7h0.2c0.7,0,1.2,0.2,1.5,0.7c0.1,0,0.2,0.1,0.3,0.3l0.1,0.3c0.2,0.3,0.3,0.6,0.3,0.7
		v0.2c0,0.7-0.3,1.3-0.9,1.8c-0.6,0.6-1.5,1.2-2.7,1.9v0.2c0.1,0,0.2-0.1,0.3-0.2c1.8-0.4,3.1-1,3.9-1.9c0.4-0.4,0.8-0.9,1-1.4
		l0.1-0.4l0.1-0.4L369.8,254L369.8,254z"/>
	<path id="path460" inkscape:connector-curvature="0" class="st3" d="M363.1,257.7h-0.9c-0.5,0-1.1,0.1-1.5,0.2
		c-1.7,0.9-2.8,2.8-3.2,5.8c1.3-2,2.7-3.6,4.3-4.8c0.7-0.5,1.3-0.8,1.9-1.1h-0.2l-0.2-0.1L363.1,257.7z"/>
</g>
</svg>
