<?xml version="1.0" encoding="utf-8"?>
<!-- Generator: Adobe Illustrator 25.0.1, SVG Export Plug-In . SVG Version: 6.00 Build 0)  -->
<svg version="1.1"
	 id="图层_1" inkscape:version="0.92.3 (2405546, 2018-03-11)" xmlns:cc="http://creativecommons.org/ns#" xmlns:dc="http://purl.org/dc/elements/1.1/" xmlns:inkscape="http://www.inkscape.org/namespaces/inkscape" xmlns:rdf="http://www.w3.org/1999/02/22-rdf-syntax-ns#" xmlns:sodipodi="http://sodipodi.sourceforge.net/DTD/sodipodi-0.dtd" xmlns:svg="http://www.w3.org/2000/svg"
	 xmlns="http://www.w3.org/2000/svg" xmlns:xlink="http://www.w3.org/1999/xlink" x="0px" y="0px" viewBox="0 0 139.8 200"
	 style="enable-background:new 0 0 139.8 200;" xml:space="preserve">
<style type="text/css">
	.st0{fill:#FFFFFF;}
	.st1{fill:#00082D;}
	.st2{fill:#870000;}
	.st3{fill:#E07F00;}
</style>
<path class="st0" d="M112,200.5H28c-15.4,0-27.9-12.5-27.9-27.9V28.4C0.1,13,12.6,0.5,28,0.5h84c15.4,0,27.9,12.5,27.9,27.9v144.2
	C139.9,188,127.4,200.5,112,200.5z"/>
<sodipodi:namedview  bordercolor="#666666" borderopacity="1" gridtolerance="10" guidetolerance="10" id="namedview617" inkscape:current-layer="图层_1" inkscape:cx="-126.99666" inkscape:cy="112.60966" inkscape:pageopacity="0" inkscape:pageshadow="2" inkscape:window-height="705" inkscape:window-maximized="1" inkscape:window-width="1366" inkscape:window-x="-8" inkscape:window-y="-8" inkscape:zoom="1" objecttolerance="10" pagecolor="#ffffff" showgrid="false">
	</sodipodi:namedview>
<g id="g2194" transform="matrix(4.0331525,0,0,4.0331525,-1719.228,-881.46968)">
	<path id="path508" inkscape:connector-curvature="0" d="M460.9,222.1v42.4c0,1-0.3,1.8-1,2.5c-0.7,0.7-1.5,1-2.5,1h-27.5
		c-1,0-1.8-0.4-2.5-1c-0.7-0.7-1-1.5-1-2.5v-42.4c0-1,0.3-1.8,1-2.5c0.7-0.7,1.5-1,2.5-1h27.5c1,0,1.8,0.3,2.5,1
		C460.6,220.3,460.9,221.1,460.9,222.1z M457.3,220.3h-27.5c-0.5,0-0.9,0.2-1.3,0.5c-0.3,0.3-0.5,0.8-0.5,1.3v42.4
		c0,0.5,0.2,0.9,0.5,1.3c0.3,0.3,0.8,0.5,1.3,0.5h27.5c0.5,0,0.9-0.2,1.3-0.5c0.3-0.3,0.5-0.8,0.5-1.3v-42.4c0-0.5-0.2-0.9-0.5-1.3
		C458.3,220.5,457.9,220.3,457.3,220.3L457.3,220.3z"/>
	<path id="path510" inkscape:connector-curvature="0" class="st1" d="M435.1,249.3c0-0.1-0.1-0.2-0.3-0.3l-0.3-0.1
		c-0.1-0.2-0.3-0.5-0.4-0.7c-0.2-0.2-0.4-0.3-0.5-0.5c-0.2-0.1-0.3-0.2-0.4-0.2H433h-0.1h-0.1c-0.4,0.2-0.5,0.4-0.5,0.6v0.2
		l-0.2,0.2v0.2v0.2c0,0.2,0.2,0.6,0.5,0.9l0.4,0.4c0.1,0.1,0.5,0.2,1.1,0.4h0.3h0.4h0.2h0.2c0.3-0.2,0.5-0.5,0.5-0.7
		C435.6,249.7,435.4,249.5,435.1,249.3L435.1,249.3z"/>
	<path id="path512" inkscape:connector-curvature="0" class="st1" d="M441.6,256.2c-0.1-0.2-0.3-0.6-0.5-0.9
		c-0.3-0.4-0.8-0.6-1.6-0.7l-0.2-0.2h-0.2c0.4-0.2,0.9-0.6,1.6-0.9c0-0.1,0-0.2,0.1-0.2c0.1,0,0.1,0,0.2-0.1
		c0.1-0.1,0.1-0.2,0.1-0.3c-0.2,0-0.4,0.1-0.5,0.2c-1.2,0.9-2.2,1.6-3,2.2l-0.1,0.1c-0.1,0.1-0.2,0.1-0.3,0.1l-0.1,0.2
		c-0.1-0.1-0.2-0.3-0.2-0.6c-0.2-0.2-0.5-0.5-0.9-0.7c-0.2,0-0.4-0.1-0.5-0.2l-0.1-0.2l-0.1-0.3c-0.2-0.6-0.8-0.9-1.8-0.9
		c-0.3,0-0.5,0.1-0.7,0.2l-0.5,0.6c-0.4,0.3-0.5,0.6-0.5,0.6c0,0.1,0,0.1,0.1,0.2c0.1,0.1,0.1,0.2,0.1,0.3v0.1v0.3l0.4,0.4l-0.4,0.2
		h-0.2c-0.1,0-0.2,0.1-0.4,0.3c-0.1,0.2-0.2,0.3-0.4,0.3h-0.5c-0.4,0.1-0.8,0.5-1.2,1.1c-0.1,0-0.2,0.1-0.2,0.2v0.3
		c-0.1,0.1-0.2,0.3-0.4,0.6c0.2,0.6,0.6,0.9,1.2,0.9h0.2c0.1-0.1,0.2-0.2,0.3-0.2c0.1,0,0.1,0.1,0.3,0.3l0.2,0.3
		c0.2,0,0.5-0.2,0.9-0.6c0.1-0.1,0.2-0.2,0.2-0.4v-0.2c0-0.1,0-0.2,0.1-0.4c0.1-0.1,0.2-0.2,0.4-0.3c0.2-0.1,0.4-0.1,0.4-0.1
		s0.1,0,0.2-0.1l0.1-0.2h0.9h0.5h0.4c0,0.1-0.1,0.2-0.4,0.3c-0.5,0.4-0.8,0.6-1.1,0.6h-0.1h-0.2H433c-0.5,0-0.9,0.2-1.2,0.6v0.2
		c-0.2,0.1-0.3,0.3-0.4,0.6l-0.2,0.2h0.2c-0.1,0.1-0.3,0.2-0.5,0.2c-0.2,0.1-0.4,0.4-0.5,0.7c-0.1,0.1-0.2,0.2-0.2,0.4
		c0,0.1,0.1,0.2,0.2,0.4c0.1,0,0.2,0.1,0.2,0.2l-0.2,0.4c-0.1,0-0.2,0.1-0.2,0.4c0,0.5,0.4,0.9,1.1,1.1c0.1,0.1,0.3,0.1,0.5,0.1
		c0.4-0.1,0.5-0.4,0.5-0.9v-0.2v-0.2l0.4-0.2l0.2-0.1c0.1-0.1,0.2-0.2,0.4-0.3c0-0.1,0.1-0.3,0.2-0.7c0.3-1,0.6-1.6,0.9-1.9l0.7-0.7
		l0.1-0.2l0.1-0.2c0.1-0.2,0.2-0.4,0.4-0.4v1.1c0,0.6-0.1,1.1-0.4,1.6c0,0.1-0.1,0.3-0.2,0.6c-0.1,0.2-0.2,0.4-0.2,0.6
		c0,0.1,0.1,0.3,0.3,0.6c0.2,0.2,0.4,0.4,0.6,0.4c0.1,0,0.4-0.1,0.7-0.2c0.1-0.1,0.3-0.4,0.5-0.7c0.2-0.4,0.3-0.6,0.3-0.7
		c0-0.1,0-0.2-0.1-0.4l-0.1-0.1c-0.1-0.1-0.1-0.1-0.1-0.2c0-0.1,0-0.1,0.1-0.2l0.1-0.1l0.1-0.2v-0.2l-0.3-1.1c0-0.2-0.1-0.5-0.4-0.6
		l-0.5-0.5c0-0.1,0.2-0.2,0.5-0.4l0.4-0.4l0.3,0.2l0.4,0.2c0.2,0.2,0.4,0.6,0.4,1.1l-0.2,0.2v0.6v0.7l-0.1,0.1
		c-0.1,0.1-0.1,0.3-0.1,0.4c0,0.2,0.2,0.4,0.5,0.6c0.1,0,0.2,0,0.3-0.1s0.1-0.1,0.2-0.1c0.1,0,0.1,0,0.1,0.1v0.1l0.4-0.4v-0.2
		c0.3-0.3,0.5-0.7,0.5-1.1c0-0.6-0.4-1.2-1.1-1.9c-0.2-0.4-0.5-0.6-0.9-0.7l-0.2-0.2l0.4-0.6c0.5-0.2,0.8-0.4,0.9-0.6l0.4-0.4
		c0.1,0,0.3,0.2,0.5,0.7v0.6v0.2v0.2c0,0.1,0.1,0.2,0.3,0.3c0.2,0.1,0.3,0.2,0.3,0.5l-0.3,0.3c-0.2,0.2-0.3,0.3-0.3,0.4
		c0,0.1,0.1,0.3,0.4,0.5c0.2,0.2,0.5,0.3,0.7,0.3h0.2c0.3-0.2,0.6-0.6,0.7-1.1c0.1-0.2,0.2-0.5,0.2-0.7L441.6,256.2L441.6,256.2z
		 M432.6,255.2c0.1,0,0.2-0.1,0.2-0.2c0.4-0.1,0.9-0.2,1.6-0.2h0.2c0.9,0,1.6,0.2,1.9,0.7h0.2c0,0.1,0,0.1-0.1,0.2
		c-0.1,0-0.1,0.1-0.1,0.1v0.1c0,0.1-0.1,0.2-0.4,0.4c-0.2,0.1-0.4,0.2-0.4,0.4l-0.1-0.2l-0.1-0.2h-0.5c-0.1,0-0.3,0-0.4,0.1
		l-0.3,0.1h-0.2c-0.1,0-0.2-0.1-0.2-0.2v-0.2c-0.1-0.2-0.2-0.4-0.4-0.6c-0.1,0-0.2,0-0.4-0.1l-0.1-0.1c-0.1,0-0.2,0-0.2-0.1
		c0-0.1-0.1-0.1-0.2-0.1L432.6,255.2z"/>
	<path id="path514" inkscape:connector-curvature="0" class="st2" d="M436.4,221.6h0.7c0.4,0,0.6,0.1,0.7,0.4l-0.2,0.5h1.3
		c0.9,0.2,1.3,0.5,1.3,0.9l-0.2,0.2l-2.7-0.4c-0.5,0.8-1.2,1.4-2.3,1.8c0.8-1,1.1-1.6,1.1-1.8c-1.1,0.2-1.6,0.4-1.6,0.5
		c-0.1,0.9-0.2,1.3-0.4,1.3h-0.4c-0.1,0-0.3-0.4-0.5-1.1c-0.5,0.2-0.8,0.4-1.1,0.4h-0.4c-0.4-0.2-0.6-0.5-0.8-0.7l0.2-0.2l0.5,0.2
		l1.4-0.4v-1.1v-0.2c0.6,0.6,0.9,1,0.9,1.1l0.2-0.4h0.2v0.4c1.4-0.2,2.2-0.5,2.2-0.7v-0.4l-0.2-0.2L436.4,221.6z M433,224.4
		c0.2,0.5,0.4,0.8,0.4,0.9v0.5c1.8-0.3,3.1-0.5,4-0.5h1.1c1.3,0.1,2,0.6,2,1.4c-0.5,5.1-1.3,7.6-2.3,7.6c-0.8,0-1.5-0.7-2.2-2h0.2
		c0.5,0.2,0.9,0.4,1.4,0.5c0.8,0,1.4-1.9,1.8-5.6c0-1-0.4-1.5-1.3-1.4h-0.5c-1.7,0-2.5,0.1-2.5,0.4v0.2c0.4,0.1,0.5,0.4,0.5,0.7
		l0.4-0.4v-0.2l-0.2-0.2l0.2-0.2h0.5c0.6,0.1,0.9,0.2,0.9,0.4v0.2c-0.6,0.5-1.2,0.8-1.8,1.1v0.2l1.4-0.2c0.2,0,0.5,0.2,0.7,0.5
		c0,0.1-0.8,0.2-2.3,0.4v0.7c0,0.1,0.5,0.3,1.6,0.5c0.5,0.1,0.9,0.4,1.3,0.9v0.2l-0.2,0.1h-0.5c-0.1,0-0.8-0.3-2.2-0.9v1.3
		c0,1-0.1,1.5-0.4,1.4h-0.2c-0.4-0.2-0.5-0.6-0.5-1.1l0.2-1.8V230c-1.1,1-1.9,1.4-2.3,1.4h-0.9v-0.2c0.9-0.1,1.7-0.7,2.5-1.9
		l-1.6,0.5c-0.2-0.3-0.4-0.6-0.4-0.9v-0.2l0.4,0.2c0.5,0,1.3-0.4,2.3-1.1v-0.5c0-0.5-0.1-0.7-0.2-0.7c-0.8,0.1-1.7,0.6-2.9,1.4
		c-0.1,0-0.3-0.3-0.4-0.9C431.6,226.9,432.2,226,433,224.4L433,224.4z M433,227.2h0.2l0.2,0.4l0.7-0.4v0.2c-0.4,0.8-0.7,1.3-1.1,1.3
		l-0.1-0.5v-0.4L433,227.2z"/>
	<path id="path516" inkscape:connector-curvature="0" class="st1" d="M439.8,249.8c0-0.2-0.2-0.5-0.5-0.7h-0.2c0-0.1,0-0.2-0.1-0.2
		c-0.1-0.1-0.2-0.6-0.2-1.3c0-0.1,0-0.2,0.1-0.4c0.1-0.1,0.1-0.2,0.1-0.4c0-0.1-0.1-0.3-0.2-0.6c-0.2-1-0.9-1.5-2.1-1.5h-0.2
		c-0.6,0.1-1,0.2-1.2,0.4l-0.5,0.4c-0.5,0.5-0.7,0.9-0.7,1.3c0,0.2,0.3,0.7,0.9,1.3c0.2,0.2,0.5,0.5,0.9,0.7l0.1,0.1
		c0.1,0.1,0.2,0.1,0.4,0.2l0.3,0.1l0.5,0.4l1.6,0.6c0.3,0.1,0.6,0.2,0.7,0.2h0.2C439.7,250.3,439.8,250.1,439.8,249.8L439.8,249.8z"
		/>
	<path id="path518" inkscape:connector-curvature="0" class="st1" d="M438.9,252.2c-0.2-0.4-0.4-0.6-0.5-0.6h-0.3
		c-0.2,0-0.3,0-0.4-0.1c-0.1,0-0.1-0.1-0.1-0.2s-0.1-0.2-0.2-0.3c-0.2-0.2-0.5-0.4-0.9-0.4c-0.5,0-0.8,0.2-1.1,0.6v0.1
		c0,0.1-0.1,0.1-0.4,0.2c-0.2,0.4-0.4,0.6-0.4,0.8c0,0.1,0.1,0.3,0.2,0.6c0.2,0.2,0.5,0.4,0.9,0.6h0.2c0.1,0,0.3,0,0.6-0.1
		c0.3-0.1,0.5-0.1,0.6-0.1h0.5c0,0.1,0.1,0.2,0.2,0.4c0.1,0.1,0.2,0.2,0.4,0.2s0.2-0.1,0.4-0.2l0.3-0.3c0.1-0.2,0.2-0.3,0.2-0.5
		C439.2,252.9,439.1,252.6,438.9,252.2L438.9,252.2z"/>
	<path id="path520" inkscape:connector-curvature="0" class="st1" d="M456.5,235.7c0.4-0.2,0.5-0.6,0.5-0.9v-0.6
		c-0.2-0.5-0.5-0.8-0.9-1.1h-0.4c-0.2,0-0.6,0.2-1.1,0.7c-0.6,0.8-0.8,1.4-0.9,1.9v0.4v0.4v0.4c-0.1,0.4-0.4,0.7-0.9,0.9l-0.7,0.4
		l0.2-0.7c0.2-1.1,0.4-2.2,0.4-3.2v-0.4v-0.1v-0.4c0.8-0.4,1.5-0.7,1.9-1.1c0.6-0.5,1-1.1,1.2-1.9v-0.2v-0.3c0-0.1,0.1-0.2,0.2-0.3
		c0.1-0.1,0.3-0.2,0.4-0.2c0.1-0.2,0.2-0.4,0.2-0.6c0-0.1-0.1-0.4-0.4-0.7l-0.2-0.2c-0.1-0.1-0.2-0.2-0.2-0.3
		c-0.1-0.1-0.2-0.3-0.3-0.6s-0.2-0.4-0.4-0.6l-0.3-0.1c-0.2-0.1-0.3-0.1-0.4-0.1c-0.4,0-0.7,0.2-1.1,0.6c-0.4,0.5-0.5,0.9-0.5,1.3
		c0,0.2,0.1,0.4,0.2,0.6l0.1,0.3l0.1,0.3v0.2v0.2v0.2l0.2,0.2c0.1,0.1,0.2,0.2,0.2,0.4l-0.1,0.1l-0.1,0.1c0.1,0.1,0.2,0.3,0.4,0.5
		l0.1,0.3v0.2v0.4c-0.1,0.3-0.5,0.8-1.2,1.3v-0.2c0-0.1-0.1-0.2-0.2-0.2c-0.2-1.4-0.9-2.8-1.9-4.3l-0.2-0.2c0-0.1,0.1-0.2,0.2-0.2
		h0.2c0.4-0.1,0.6-0.4,0.9-0.7c0.2-0.2,0.4-0.6,0.5-0.9c0-0.6-0.1-1.1-0.4-1.5c-0.2-0.5-0.5-0.7-0.7-0.7c-0.2-0.1-0.5-0.2-0.7-0.2
		h-0.4l-0.2,0.2h-0.2l-0.2-0.1l-0.2-0.1h-0.2c-0.2,0-0.4,0.2-0.5,0.6l0.5,0.6c0.1,0.1,0.3,0.3,0.6,0.5c0.3,0.2,0.5,0.4,0.6,0.6
		c0.1,0.2,0.3,0.4,0.4,0.7c0,0.2-0.1,0.6-0.4,1.1c0,0.1-0.1,0.2-0.2,0.2c-0.1-0.2-0.4-0.5-0.8-0.9l-0.4-0.4c0-0.1,0-0.2,0.1-0.3
		l0.1-0.1c0-0.2-0.2-0.6-0.5-0.9l-0.4-0.2c-0.1,0-0.1-0.1-0.1-0.4l-0.3-0.3c-0.1-0.1-0.1-0.1-0.3-0.1c-0.1-0.2-0.2-0.4-0.4-0.6
		c-0.4-0.2-0.8-0.3-1.4-0.4h-0.3h-0.4c0,0.1-0.1,0.2-0.2,0.2c-0.2,0-0.5,0.1-0.7,0.2c-0.2,0.2-0.4,0.4-0.4,0.6s0.2,0.4,0.5,0.7v0.4
		c0.3,0.3,0.7,0.6,1.1,0.7l0.1-0.1c0.1-0.1,0.1-0.1,0.3-0.1c0.1,0,0.3,0.1,0.5,0.2l0.5,0.6c0.1,0.1,0.3,0.2,0.4,0.2h0.3
		c1.1,0,1.8,0.2,2.1,0.6c0.1,0,0.2,0.1,0.3,0.3c0.1,0.2,0.1,0.3,0.2,0.3c1,1.4,1.6,2.7,2,3.9c0.2,0.9,0.4,1.4,0.4,1.6v0.4
		c0,0.2-0.1,0.7-0.2,1.3c-0.7,3-1.8,5.2-3.3,6.9c-0.2,0.2-0.4,0.4-0.4,0.6l0.2,0.2h0.1c0.1,0,0.1-0.1,0.3-0.3
		c0.1-0.2,0.2-0.3,0.4-0.3c1.1-1.1,1.8-2.3,2.3-3.5c0-0.4,0.1-0.6,0.4-0.7h0.4c0.7,0,1.3-0.1,1.8-0.2l0.2-0.1
		c0.1-0.1,0.2-0.1,0.4-0.1h0.2h0.4c0.2-0.1,0.5-0.2,0.7-0.4c0.2-0.1,0.4-0.6,0.4-1.3V236v-0.2L456.5,235.7L456.5,235.7z"/>
	<path id="path522" inkscape:connector-curvature="0" class="st1" d="M450.7,237.3c0-0.5-0.4-0.7-1.1-0.7h-0.5
		c-0.2,0-0.5-0.1-0.7-0.2c-0.3-0.1-0.8-0.2-1.5-0.2h-0.4c-0.4,0-0.6,0.1-0.9,0.2c-0.6,0.4-0.9,0.7-1.1,0.9l-0.2,0.2
		c0,0.1,0.1,0.3,0.2,0.6l0.4,0.2l0.2,0.2l-0.1,0.3c-0.1,0.2-0.1,0.3-0.1,0.5l0.2,0.2v0.2c0.2,0.1,0.4,0.2,0.5,0.4h0.5
		c0.3,0,0.6-0.1,0.9-0.2c0.1-0.1,0.2-0.2,0.3-0.3c0.1-0.1,0.1-0.2,0.3-0.2h0.4c0.3-0.2,0.6-0.6,0.7-0.9v-0.4h0.2
		c0.6-0.2,1-0.3,1.2-0.4h0.2l0.2,0.2l0.1,0.2C450.6,237.7,450.7,237.5,450.7,237.3L450.7,237.3z"/>
	<path id="path524" inkscape:connector-curvature="0" class="st1" d="M450,229.7c0.1,0.1,0.2,0.2,0.3,0.2l-0.1-0.2
		c-0.6-1.4-1.4-2-2.5-2h-0.2c-1.2,0.1-1.9,0.4-2.1,0.9c-0.1,0.2-0.2,0.4-0.2,0.6c0,0.4,0.1,0.7,0.4,0.9c0.2,0.4,0.5,0.7,0.9,0.9
		l0.4,0.2c0.2,0,0.5-0.1,0.7-0.4c0.2-0.1,0.5-0.4,0.7-0.7l0.1-0.6h0.7h0.7L450,229.7z"/>
	<path id="path526" inkscape:connector-curvature="0" class="st1" d="M451.5,233.1c-0.2-0.8-0.6-1.3-1.1-1.5
		c-0.4-0.5-1.2-0.7-2.3-0.7c-0.4,0-0.7,0.1-1.1,0.2c-0.4,0.2-0.7,0.6-0.9,0.9c-0.1,0.2-0.2,0.4-0.2,0.6c0,0.1,0,0.2,0.1,0.4l0.1,0.2
		v0.2v0.2c0,0.6,0.4,1,1.2,1.3c0.2,0.1,0.4,0.2,0.5,0.2c0.4,0,1-0.2,1.6-0.6l0.3-0.2c0.2-0.1,0.3-0.2,0.4-0.3
		c0.1-0.1,0.3-0.1,0.5-0.1c0.4,0,0.8,0.2,1.4,0.6C452.1,234.2,451.9,233.8,451.5,233.1L451.5,233.1z"/>
	<path id="path528" inkscape:connector-curvature="0" class="st1" d="M450,257.1c-0.4-0.5-0.7-0.7-1.1-0.7h-0.2
		c-0.1,0-0.3,0.1-0.4,0.2c-0.2,0.1-0.3,0.2-0.4,0.4h-0.4c-0.1,0-0.3,0-0.4,0.1l-0.3,0.1c-0.1,0-0.2,0.1-0.4,0.4
		c-0.1,0.2-0.2,0.4-0.2,0.5v0.3v0.4c0.1,0.4,0.3,0.6,0.5,0.6l0.2,0.2c0.2,0,0.4-0.1,0.5-0.2c0.4-0.2,0.6-0.4,0.7-0.6v-0.3v-0.1
		c0.2-0.2,0.4-0.4,0.7-0.4c0.5,0,0.8-0.1,1.1-0.4v-0.2c0.1,0.1,0.2,0.2,0.3,0.2c0.4,0.2,0.6,0.3,0.7,0.4c0.1,0,0.2-0.1,0.2-0.2
		c0.4-0.1,0.5-0.3,0.5-0.5l-0.2-0.2c-0.2-0.2-0.5-0.4-0.9-0.4c-0.1,0-0.2,0.1-0.4,0.2l-0.1,0.2L450,257.1z"/>
	<path id="path530" inkscape:connector-curvature="0" class="st1" d="M449.4,258.2c-0.2,0-0.5,0.1-0.7,0.4l-0.5,0.6l-0.1,0.2
		l-0.1,0.3h-0.2h-0.2l-0.2,0.2l-0.2,0.2c-0.1,0.1-0.2,0.4-0.4,0.9c-0.1,0.1-0.2,0.2-0.2,0.4h0.2c0,0.3,0.1,0.6,0.4,0.7
		c0.2,0.1,0.4,0.2,0.5,0.2c0.2-0.1,0.4-0.3,0.5-0.6v-0.4V261h0.2v0.2c0.5-0.1,0.7-0.4,0.7-0.7l-0.1-0.2l-0.1-0.2
		c0-0.1,0.1-0.2,0.2-0.4c0-0.1,0.1-0.2,0.3-0.4s0.3-0.3,0.3-0.4c0.1,0,0.2-0.1,0.2-0.2C450,258.4,449.8,258.2,449.4,258.2
		L449.4,258.2z"/>
	<path id="path532" inkscape:connector-curvature="0" class="st1" d="M452.4,262.1c0-0.1,0-0.2-0.1-0.3c-0.1-0.1-0.1-0.2-0.1-0.3
		v-0.2V261c0-0.1-0.1-0.4-0.4-0.9l-0.2-0.2l-0.2-0.2l-0.2-0.2c-0.1,0-0.2,0-0.3-0.1c-0.1-0.1-0.1-0.2-0.2-0.3
		c-0.1-0.1-0.1-0.2-0.3-0.4h-0.2l-0.2-0.2l-0.1-0.4l-0.2,0.4v0.2l0.1,0.2l0.1,0.2c0.1,0.3,0.1,0.7,0.1,0.9l-0.1,0.4
		c-0.1,0.4-0.2,0.6-0.2,0.7v0.2c0.1,0,0.3,0.1,0.4,0.3c0.2,0.2,0.3,0.3,0.3,0.5s0,0.2-0.1,0.3c-0.1,0.1-0.1,0.2-0.1,0.3v0.2
		c0,0.4,0.2,0.6,0.7,0.7h0.4c0.4-0.2,0.7-0.6,0.9-1.1L452.4,262.1L452.4,262.1z"/>
	<path id="path534" inkscape:connector-curvature="0" class="st1" d="M452.6,243c0-0.1-0.1-0.2-0.2-0.3c-0.1-0.1-0.2-0.2-0.3-0.2
		c-0.1,0-0.1,0.1-0.2,0.2l-0.1,0.2h-0.2l-0.2,0.1l-0.2,0.1v0.4l-0.2,0.2c0,0.1-0.1,0.2-0.2,0.3c-0.1,0.1-0.2,0.1-0.3,0.2
		c-0.1,0.1-0.1,0.1-0.3,0.1c1-0.1,1.5-0.2,1.6-0.2c0.1-0.1,0.2-0.3,0.4-0.6C452.5,243.4,452.6,243.2,452.6,243L452.6,243L452.6,243z
		"/>
	<path id="path536" inkscape:connector-curvature="0" class="st1" d="M454.4,259l-0.2-0.2c-0.1-0.1-0.2-0.2-0.4-0.2
		c-0.1-0.2-0.2-0.4-0.4-0.6c-0.1-0.1-0.2-0.2-0.4-0.2l-0.2,0.2h-0.2h-0.2h-0.2h-0.2c-0.2,0-0.4,0-0.7-0.1c-0.2-0.1-0.4-0.1-0.5-0.1
		c-0.4,0.1-0.5,0.2-0.5,0.4l0.2,0.1c0.1,0.1,0.2,0.1,0.3,0.2c0.1,0.1,0.1,0.2,0.2,0.4l0.1,0.3l0.4,0.4h0.4h0.2h0.3h0.3
		c0.1,0,0.1,0,0.2,0.1c0.1,0.1,0.1,0.2,0.1,0.3c0.2,0.2,0.5,0.4,0.7,0.4c0.6,0,0.8-0.2,0.9-0.7C454.5,259.4,454.5,259.2,454.4,259
		L454.4,259z"/>
	<path id="path538" inkscape:connector-curvature="0" class="st1" d="M448.7,255.2c-0.2-0.2-0.5-0.4-0.7-0.4h-0.3h-0.1h-0.2
		c0,0.1-0.1,0.2-0.3,0.4c-0.2,0.1-0.3,0.2-0.3,0.4c0,0.2,0.2,0.4,0.5,0.6h0.2h0.1c0.1,0,0.1,0,0.2-0.1l0.2-0.2
		c0.1-0.1,0.1-0.2,0.1-0.3C448.6,255.5,448.7,255.4,448.7,255.2L448.7,255.2z"/>
	<path id="path540" inkscape:connector-curvature="0" class="st3" d="M447.5,248.3l-0.4-0.2h-0.4c-0.1,0.1-0.3,0.2-0.5,0.2
		c-0.2,0-0.4,0.1-0.5,0.2l-0.3,0.2l-0.3,0.2h-0.6c-0.2,0-0.3-0.1-0.3-0.4c0-0.1,0-0.2,0.1-0.4c0.1-0.1,0.1-0.2,0.1-0.4
		c0-0.2-0.1-0.3-0.2-0.4L444,247c-0.1,0-0.3,0.1-0.5,0.4l-0.4,0.4c-0.2,0.4-0.4,0.8-0.4,1.3v0.4l-0.1-0.2h-0.2
		c-0.1,0-0.2-0.1-0.2-0.2c-0.1,0-0.2-0.1-0.2-0.3c0-0.2,0.1-0.3,0.2-0.5v-0.2c0-0.6-0.1-1-0.4-1.3l-1.1-0.4
		c-0.5,0.1-0.8,0.5-0.9,1.1l-0.2,0.4l-0.2,0.4v0.2c0,0.2,0.2,0.6,0.5,0.9c0.5,0.3,0.9,0.5,1.2,0.6h0.9l0.2,0.2l0.3-0.2
		c0.1-0.1,0.2-0.2,0.3-0.2h0.1l0.2,0.2c0.4,0.2,0.7,0.4,1.1,0.4c0.2,0,0.5-0.2,0.9-0.6l0.4-0.4c0.6-0.4,0.9-0.6,1.1-0.7h0.4
		C447.3,248.6,447.5,248.5,447.5,248.3L447.5,248.3z M447.5,249.5c0-0.2-0.1-0.4-0.4-0.4v0.2c-0.4,0.2-0.9,0.7-1.8,1.3
		c-0.9,0.5-1.7,0.7-2.3,0.7h-0.4v-0.1v-0.1c-0.1-0.2-0.2-0.4-0.5-0.4c-0.1,0-0.3,0.1-0.5,0.2c-0.4,0.1-0.5,0.3-0.5,0.6
		c0,0.1,0,0.2,0.1,0.3c0.1,0.1,0.1,0.1,0.2,0.1c0.1,0,0.1,0.1,0.1,0.2l0.4,0.6c0.1,0.2,0.4,0.4,0.8,0.6h0.6c0.7,0,1.4-0.4,2.1-1.1
		c0.7-0.5,1.3-1,1.6-1.7C447.3,250,447.5,249.7,447.5,249.5L447.5,249.5z M444,245.5c0-0.2-0.1-0.4-0.3-0.6
		c-0.2-0.1-0.3-0.2-0.4-0.2c-0.4,0.1-0.7,0.3-0.9,0.6v0.2v0.1c-0.1,0.2-0.2,0.5-0.2,0.6c0,0.4,0.1,0.7,0.4,0.9l0.5,0.2
		c0.2,0,0.4-0.1,0.4-0.2l-0.2-0.2v-0.2c0-0.1,0.1-0.3,0.2-0.6c0-0.1,0.1-0.3,0.3-0.4C443.9,245.7,444,245.6,444,245.5L444,245.5z
		 M446.5,247.6c-0.2-0.1-0.4-0.3-0.5-0.6c-0.1-0.2-0.2-0.5-0.2-0.7v-0.2v-0.2v-0.2c0-0.1,0-0.2-0.1-0.2c-0.1-0.1-0.1-0.1-0.3-0.1
		h-0.2h-0.2c-0.1,0.1-0.3,0.4-0.5,0.7v0.4v0.4c0.1,0.2,0.2,0.4,0.4,0.4c0.2,0.5,0.6,0.7,1.1,0.7h0.4h0.2v0.2l0.2-0.4L446.5,247.6
		L446.5,247.6z M446.8,243.3c-0.3-0.2-0.6-0.4-0.7-0.4c-0.6,0-1,0.3-1.2,0.9v0.6c0,0.4,0.1,0.6,0.2,0.6l0.4-0.2
		c0.4-0.4,0.6-0.6,0.9-0.6h0.2h0.2l0.4-0.4C447,243.7,446.9,243.6,446.8,243.3L446.8,243.3z M448,245.2c-0.1-0.2-0.3-0.4-0.5-0.6
		h-0.4H447l-0.5,0.7c-0.1,0.2-0.2,0.5-0.2,0.7c0,0.5,0.1,0.9,0.2,1.1c0.2,0.3,0.4,0.5,0.7,0.6l0.4-0.2c0-0.1-0.1-0.3-0.2-0.5
		l-0.2-0.3c0-0.4,0.1-0.6,0.4-0.7l0.1-0.2l0.1-0.2c0-0.1,0.1-0.2,0.2-0.3L448,245.2z M448.9,249.8c0-0.2-0.1-0.5-0.2-0.7l-0.2-0.2
		c-0.1-0.1-0.2-0.2-0.3-0.2h0c-0.4,0.4-0.6,0.9-0.7,1.7c0,0.5-0.1,1-0.4,1.5c-0.1,0.1-0.2,0.3-0.4,0.5c-0.1,0.2-0.2,0.3-0.4,0.5
		c-0.1,0.1-0.2,0.4-0.2,0.7v0.2c0.1,0.5,0.4,0.7,0.7,0.7l0.7-0.4c0.4-0.2,0.7-0.6,0.9-0.9c0.1-0.1,0.2-0.7,0.4-1.7v-0.3v-0.7v-0.3
		L448.9,249.8L448.9,249.8z M449.8,245.7c-0.1-0.3-0.3-0.5-0.5-0.5c-0.4,0.1-0.7,0.4-1.1,0.7c-0.2,0.5-0.4,0.9-0.4,1.1
		c0,0.1,0.1,0.2,0.2,0.4c0.1,0.2,0.2,0.3,0.3,0.4c0.1,0,0.2-0.1,0.4-0.2c0.7-0.6,1.1-1.2,1.1-1.7V245.7z M450,248.5l-0.2-0.2h0.2
		h-0.2c0.7-0.1,1.2-0.3,1.4-0.6c0.2-0.3,0.4-0.8,0.4-1.3c-0.1-0.4-0.4-0.6-0.7-0.6h-0.2c-0.2,0.1-0.4,0.3-0.5,0.6v0.2v0.4
		c-0.1,0.2-0.4,0.5-0.9,0.7c-0.4,0.1-0.5,0.3-0.5,0.4c0,0.1,0.1,0.2,0.2,0.2h0.2h0.5l-0.2,0.2h0.2v0.2c0.6,0.5,1.2,0.7,1.9,0.7h0.2
		h0.2h0.4v0.2h0.5h0.7h0.2c-0.2,0.2-0.4,0.5-0.4,0.7v0.3v0.3v0.2l-0.2,0.2c0,0.1-0.2,0.2-0.7,0.2c-0.2,0-0.4-0.1-0.7-0.2l-0.1-0.2
		l-0.1-0.2c-0.5-0.6-0.8-0.9-0.9-0.9c-0.2-0.2-0.5-0.3-0.7-0.4l-0.2,0.2c0,0.4,0.1,0.6,0.4,0.6c0,0.1,0,0.3,0.1,0.6
		c0,0.1,0.1,0.4,0.4,0.9c0.1,0.5,0.4,0.8,0.7,0.9c0.1,0,0.4,0.1,0.7,0.2c0.6,0.2,1,0.4,1.4,0.4c0.1,0,0.2,0,0.3-0.1
		c0.1-0.1,0.2-0.2,0.4-0.3c0.1-0.1,0.3-0.2,0.4-0.2l0.2-0.1l0.2-0.1c0.5-0.2,0.7-0.6,0.7-1c0-0.1-0.1-0.2-0.3-0.4
		c-0.2-0.2-0.3-0.3-0.3-0.4s0-0.2-0.1-0.6c-0.1-0.3-0.1-0.5-0.1-0.7c-0.1-0.1-0.3-0.2-0.5-0.2h-0.2H454l0.2-0.2
		c0.2-0.1,0.4-0.2,0.4-0.4c0-0.2-0.1-0.5-0.4-0.7c-0.1-0.1-0.3-0.2-0.5-0.2h-0.2l-0.4,0.4v0.2h0.2l-0.4,0.4c-0.1,0-0.2,0-0.3,0.1
		c-0.1,0.1-0.1,0.1-0.3,0.1c0.1,0,0.2-0.1,0.2-0.4c0-0.5-0.2-0.7-0.5-0.7l-0.2,0.1l-0.2,0.1c-0.4,0.2-0.8,0.4-1.4,0.4
		c-0.1-0.1-0.2-0.2-0.3-0.2L450,248.5L450,248.5z M452.6,253.6c-0.1,0-0.2,0.1-0.4,0.2c-0.1,0.1-0.2,0.2-0.4,0.2
		c-0.5,0-0.8-0.2-1.1-0.6c-0.2-0.4-0.4-0.9-0.6-1.7c-0.1-0.1-0.1-0.2-0.1-0.3v-0.4c-0.1-0.2-0.3-0.4-0.5-0.4c-0.1,0-0.2,0.1-0.4,0.4
		c-0.1,0.1-0.2,0.4-0.2,0.7c0,0.2,0,0.6,0.1,1c0.1,0.4,0.1,0.7,0.1,1c0.1,0.6,0.2,1,0.2,1.1l0.5,0.6l0.5,0.6
		c0.2,0.1,0.5,0.2,0.7,0.2c0.2,0,0.6-0.1,1.1-0.4c0.6-0.4,0.9-0.8,0.9-1.3C453.1,253.8,452.9,253.6,452.6,253.6L452.6,253.6z
		 M450,248.3h-0.2l0.2,0.2V248.3z M453.3,246.7c-0.4-0.2-0.6-0.4-0.7-0.4c-0.3,0-0.5,0.1-0.5,0.4c0,0.1,0,0.2-0.1,0.3
		c-0.1,0.1-0.1,0.1-0.1,0.2s-0.1,0.1-0.2,0.1c-0.1,0-0.2,0-0.3,0.1l-0.1,0.1c0,0.1,0.1,0.2,0.2,0.2c0.1,0.1,0.4,0.2,0.7,0.2
		c0.4,0,0.6-0.1,0.9-0.2c0.2-0.2,0.4-0.4,0.4-0.6C453.5,246.9,453.4,246.8,453.3,246.7L453.3,246.7z"/>
	<path id="path542" inkscape:connector-curvature="0" class="st1" d="M458.4,242.9c-0.1-0.6-0.5-1.1-1.1-1.3h-0.5
		c-0.4,0-0.7,0.1-0.9,0.4l-0.1,0.2c0,0.1,0,0.2,0,0.4l-0.2,0.2h-0.2l-0.4,0.7c0.2-0.4,0.4-0.7,0.4-0.9c0-0.1-0.1-0.3-0.3-0.6
		c-0.2-0.2-0.4-0.4-0.6-0.4c-0.2,0-0.4,0.1-0.6,0.4c-0.2,0-0.3,0.1-0.3,0.2h0.2v0.2c-0.4,0.8-0.8,1.3-1.2,1.7
		c-0.3,0.2-0.6,0.4-0.9,0.4c0,0.1,0.1,0.2,0.2,0.2c0.1,0,0.2,0,0.4-0.1c0.1-0.1,0.2-0.1,0.3-0.1c0.1,0,0.1,0.1,0.3,0.2l0.2,0.2
		c0.5,0.2,1.2,0.4,2.1,0.4h0.4c0.1,0,0.2-0.1,0.3-0.2c0.1-0.1,0.2-0.2,0.4-0.2l0.2-0.2h0.4c0.6-0.1,0.9-0.2,1.1-0.4
		C458,244,458.3,243.5,458.4,242.9L458.4,242.9z"/>
	<path id="path544" inkscape:connector-curvature="0" class="st1" d="M457.5,245.9c-0.4-0.5-0.6-0.7-0.9-0.7c-0.1,0-0.3,0.1-0.4,0.3
		l-0.3,0.2h-0.2c-0.1,0-0.1,0-0.3,0l-0.2-0.1c-0.1,0-0.3,0.1-0.5,0.2c-0.2,0.1-0.4,0.2-0.4,0.4l0.4,0.4l0.4,0.4h0.2l0.4,0.4h0.7
		c0.4,0,0.6-0.1,0.9-0.2c0.4-0.4,0.6-0.6,0.7-0.7L457.5,245.9z"/>
</g>
</svg>
