<?xml version="1.0" encoding="utf-8"?>
<!-- Generator: Adobe Illustrator 25.0.1, SVG Export Plug-In . SVG Version: 6.00 Build 0)  -->
<svg version="1.1"
	 id="图层_1" inkscape:version="0.92.3 (2405546, 2018-03-11)" xmlns:cc="http://creativecommons.org/ns#" xmlns:dc="http://purl.org/dc/elements/1.1/" xmlns:inkscape="http://www.inkscape.org/namespaces/inkscape" xmlns:rdf="http://www.w3.org/1999/02/22-rdf-syntax-ns#" xmlns:sodipodi="http://sodipodi.sourceforge.net/DTD/sodipodi-0.dtd" xmlns:svg="http://www.w3.org/2000/svg"
	 xmlns="http://www.w3.org/2000/svg" xmlns:xlink="http://www.w3.org/1999/xlink" x="0px" y="0px" viewBox="0 0 139.8 200"
	 style="enable-background:new 0 0 139.8 200;" xml:space="preserve">
<style type="text/css">
	.st0{fill:#FFFFFF;}
	.st1{fill:#003A37;}
	.st2{fill:#870000;}
</style>
<path class="st0" d="M112,200.5H28c-15.4,0-27.9-12.5-27.9-27.9V28.4C0.1,13,12.6,0.5,28,0.5h84c15.4,0,27.9,12.5,27.9,27.9v144.2
	C139.9,188,127.4,200.5,112,200.5z"/>
<sodipodi:namedview  bordercolor="#666666" borderopacity="1" gridtolerance="10" guidetolerance="10" id="namedview617" inkscape:current-layer="图层_1" inkscape:cx="-98.49666" inkscape:cy="112.60966" inkscape:pageopacity="0" inkscape:pageshadow="2" inkscape:window-height="705" inkscape:window-maximized="1" inkscape:window-width="1366" inkscape:window-x="-8" inkscape:window-y="-8" inkscape:zoom="1" objecttolerance="10" pagecolor="#ffffff" showgrid="false">
	</sodipodi:namedview>
<g id="g2247" transform="matrix(4.0331525,0,0,4.0331525,-1541.1926,-881.46968)">
	<path id="path462" inkscape:connector-curvature="0" d="M416.8,222.1v42.4c0,1-0.3,1.8-1,2.5c-0.7,0.7-1.5,1-2.5,1h-27.5
		c-1,0-1.8-0.4-2.5-1c-0.7-0.7-1-1.5-1-2.5v-42.4c0-1,0.3-1.8,1-2.5c0.7-0.7,1.5-1,2.5-1h27.5c1,0,1.8,0.3,2.5,1
		C416.4,220.3,416.8,221.1,416.8,222.1z M413.2,220.3h-27.5c-0.5,0-0.9,0.2-1.3,0.5c-0.3,0.3-0.5,0.8-0.5,1.3v42.4
		c0,0.5,0.2,0.9,0.5,1.3c0.3,0.3,0.8,0.5,1.3,0.5h27.5c0.5,0,0.9-0.2,1.3-0.5c0.3-0.3,0.5-0.8,0.5-1.3v-42.4c0-0.5-0.2-0.9-0.5-1.3
		C414.1,220.5,413.7,220.3,413.2,220.3L413.2,220.3z"/>
	<path id="path464" inkscape:connector-curvature="0" class="st1" d="M388,251h-0.6h-0.2c-0.1,0-0.1,0-0.2,0.1l-0.2,0.1
		c-0.7,0.8-1.2,1.3-1.4,1.5c-0.1,0.3-0.3,0.6-0.5,1c-0.2,0.4-0.4,0.6-0.4,0.8l0.5-0.3c0.3-0.3,0.6-0.5,0.9-0.8
		c0.7-0.5,1.2-0.9,1.4-1.2c0.3-0.3,0.5-0.4,0.5-0.6v-0.2L388,251z"/>
	<path id="path466" inkscape:connector-curvature="0" class="st1" d="M391.3,251c-0.1-0.1-0.3-0.2-0.5-0.2h-0.4H390h-0.3h-0.2
		c-0.2,0-0.4,0.1-0.6,0.4c-0.4,0.3-0.8,0.8-1.2,1.7v0.2c0,0.1-0.1,0.2-0.2,0.2l-0.3,0.6c-0.4,1.1-0.7,1.7-0.9,1.9
		c1.3-1.4,2.5-2.6,3.6-3.7c0.2-0.3,0.5-0.4,0.7-0.6C391.1,251.4,391.3,251.2,391.3,251L391.3,251z"/>
	<path id="path468" inkscape:connector-curvature="0" class="st2" d="M388.2,223.3c0.5,0,0.9,0.4,1.2,1.2c-0.1,0.6-0.4,1.4-0.9,2.3
		h0.2c0.4-0.4,0.7-0.5,0.9-0.6h0.7l0.2,0.2v0.2c-0.5,1.8-0.7,2.8-0.7,3v0.4h0.2l0.9-2.3h0.2l-0.7,4.4l-0.5,0.4
		c-0.6-0.4-0.9-1.1-0.9-2.3l0.4-2.6c-1.2,1.2-1.9,1.8-2.2,1.8c-0.1,0-0.2-0.2-0.3-0.7v-0.4c0.9-1.5,1.4-2.9,1.4-4.2v-0.5
		L388.2,223.3L388.2,223.3z"/>
	<path id="path470" inkscape:connector-curvature="0" class="st1" d="M392,241.4c-0.1,0-0.4-0.2-0.9-0.6c-0.2-0.1-0.4-0.3-0.5-0.6
		c-0.1,0-0.2-0.1-0.3-0.2c-0.1-0.1-0.1-0.3-0.1-0.4c-0.6-0.8-1.5-1.7-2.8-2.7c0.2,0.1,0.4,0.4,0.6,0.9c0.2,0.5,0.3,0.8,0.4,1.1
		c0.5,0.9,0.9,1.5,1,1.7c0.1,0.4,0.2,0.6,0.2,0.8l0.2,0.3c0.1,0.2,0.2,0.3,0.2,0.4l-0.1,0.2c-0.1,0.1-0.1,0.3-0.1,0.4
		s0.1,0.3,0.3,0.4c0.1,0.1,0.2,0.2,0.3,0.2c0.2,0,0.5-0.1,0.9-0.2c0.3-0.3,0.5-0.6,0.5-1.2L392,241.4z"/>
	<path id="path472" inkscape:connector-curvature="0" class="st1" d="M396,251.6c0-0.1-0.1-0.4-0.3-0.8c-0.3-0.4-0.7-1.2-1.2-2.3
		c-0.7-1.5-1.1-2.7-1.2-3.5v-0.3v-0.3v-0.2v-0.4v-0.2c0-0.2-0.2-0.4-0.6-0.4c-0.9,0-1.5,0.1-1.7,0.2c-0.4,0.1-0.7,0.3-0.7,0.6
		c0,0.1,0.2,0.5,0.5,1c1.2,2.7,1.9,4.2,1.9,4.4c0.5,1.5,0.7,2.4,0.7,2.5v0.4c0,0.4,0.3,0.6,0.9,0.6h0.2c0.4,0,0.7-0.1,0.9-0.2
		C395.7,252.5,396,252.1,396,251.6z"/>
	<path id="path474" inkscape:connector-curvature="0" class="st1" d="M392,252.4h-0.5c-0.1,0.1-0.2,0.5-0.3,1
		c-0.1,0.5-0.2,1.1-0.2,1.7v1.5v1.5v0.4c0.3-0.9,0.7-2.1,1.2-3.7c0-0.1,0-0.4,0.1-0.7c0.1-0.3,0.1-0.5,0.1-0.7
		C392.3,253,392.2,252.6,392,252.4z"/>
	<path id="path476" inkscape:connector-curvature="0" class="st2" d="M392.5,222.2c0.8,0.3,1.4,0.7,1.8,1.2v0.2c0,0.2-0.3,1-0.9,2.3
		h0.2c1.5-0.5,2.7-0.7,3.5-0.7c0.9,0.2,1.3,0.5,1.2,0.7c0,0.2-0.9,0.3-2.6,0.3l-0.7,0.4l-0.2-0.2l-1.5,0.2H393
		c-0.6,0.9-1.1,1.3-1.8,1.2v-0.2c0.7-0.9,1.3-2.2,1.8-4.1v-0.4L392.5,222.2z"/>
	<path id="path478" inkscape:connector-curvature="0" class="st2" d="M394.6,227c0.7,0.8,1.1,1.8,1.1,2.8c-0.2,3.2-0.8,4.8-1.6,4.8
		h-0.2c-0.1,0-0.2-0.2-0.4-0.7c-1.1-0.6-1.6-1.1-1.6-1.8c0.7,0.4,1.2,0.5,1.6,0.5h0.4c0.4,0,0.6-1.1,0.7-3.2l-0.4-1.9
		C394.3,227.1,394.5,227,394.6,227L394.6,227z"/>
	<path id="path480" inkscape:connector-curvature="0" class="st1" d="M398.9,262c-0.5-1.4-1.1-3.5-1.6-6.4c-0.1-0.9-0.3-1.5-0.5-1.7
		c-0.5-0.5-1.2-0.7-1.9-0.8c-0.3,0-0.5,0.5-0.5,1.5c0,0.4,0,0.8,0.1,1.2c0,0.4,0.2,0.8,0.4,1.2c0.2,0.4,0.4,0.6,0.5,0.8
		c0.7,1.6,1,3.3,1,5v0.8v0.4c0,0.2,0.2,0.4,0.7,0.4c0.7,0,1.3-0.3,1.9-1c0.2-0.3,0.3-0.5,0.3-0.6L398.9,262z"/>
	<path id="path482" inkscape:connector-curvature="0" class="st1" d="M400.8,242.5c-0.1-0.3-0.4-0.4-0.9-0.4l-0.7,0.4
		c-0.9,0.5-1.8,1.9-2.8,4.2c0.3-0.3,0.9-0.7,1.6-1.4c0.7-0.6,1.4-1.1,1.8-1.4c0.5-0.4,0.9-0.7,1-1v-0.2
		C401,242.8,400.9,242.7,400.8,242.5L400.8,242.5z"/>
	<path id="path484" inkscape:connector-curvature="0" class="st1" d="M412.2,237.5c-3.5,0.9-6.6,2.7-9.3,5.4
		c-1.4,1.4-2.5,2.8-3.3,4.2c-1,1.3-1.8,2.7-2.6,4.2c-0.2,0.5-0.3,0.9-0.3,1.2v0.4l0.3,0.2l0.3,0.2l0.3-0.4v-0.2v-0.2V252
		c0.1-0.4,0.3-0.8,0.6-1.4c0.2-0.5,0.9-1.7,1.9-3.7c0.8-1.4,1.9-2.8,3.2-4.1C405.8,240.6,408.7,238.8,412.2,237.5z"/>
	<path id="path486" inkscape:connector-curvature="0" class="st1" d="M402,241.4c0-0.1-0.1-0.3-0.3-0.5c-0.2-0.2-0.3-0.3-0.4-0.3
		c-0.1-0.1-0.3-0.2-0.5-0.2c-1.2,0-2.2,0.4-3.3,1.2h1.5c0.7,0,1.3,0.1,1.6,0.2c0.3,0.1,0.6,0.2,0.9,0.2
		C401.8,241.9,402,241.7,402,241.4L402,241.4z"/>
	<path id="path488" inkscape:connector-curvature="0" class="st1" d="M402.2,256.1c0-0.1-0.1-0.2-0.3-0.2l-0.9,0.4
		c-0.1,0-0.3,0.2-0.7,0.6c-0.2,0.5-0.6,1.4-1.2,2.7l2.1-2.3c0.5-0.4,0.7-0.6,0.9-0.8L402.2,256.1z"/>
	<path id="path490" inkscape:connector-curvature="0" class="st1" d="M404.1,257.6c0-0.1-0.1-0.3-0.3-0.5c-0.2-0.2-0.5-0.3-0.7-0.3
		c-0.6,0.1-1,0.5-1.2,1c-0.7,0.9-1.1,2.3-1,4.2c0,0.6,0.1,1.3,0.2,1.9c0.2-0.8,0.5-1.6,0.9-2.5c0.4-1.2,0.8-1.9,1-2.3
		c0.1-0.1,0.2-0.3,0.3-0.5s0.2-0.4,0.3-0.5C403.9,257.9,404.1,257.7,404.1,257.6L404.1,257.6z"/>
	<path id="path492" inkscape:connector-curvature="0" class="st1" d="M405.8,247.6c-0.2-0.4-0.7-0.6-1.6-0.6c-1.2,0-1.7,0.2-1.7,0.6
		c0,0.1,0.1,0.2,0.3,0.4c0.2,0.1,0.3,0.3,0.3,0.4c0.1,0.3,0.2,0.6,0.2,1v0.8c0,0.1,0,0.3-0.1,0.6s-0.1,0.4-0.1,0.6v0.2v0.2
		c0.1,0.1,0.2,0.3,0.2,0.6c0,0.1,0,0.3-0.1,0.5c-0.1,0.2-0.1,0.4-0.1,0.5v0.8v0.6v0.2v0.2v0.3v0.5v0.4v0.6l0.2-0.2l1-1.2l0.5-0.4
		c0,0.1,0.1,0.2,0.3,0.2s0.3-0.2,0.3-0.6c0-0.3,0-0.6-0.1-1.1c-0.1-0.4-0.1-0.8-0.1-1.1v-0.2l0.1-0.2c0.1-0.1,0.1-0.3,0.1-0.4v-1.5
		c0-0.8,0-1.4,0.1-1.8l0.1-0.2c0.1-0.1,0.1-0.3,0.1-0.4L405.8,247.6L405.8,247.6z"/>
	<path id="path494" inkscape:connector-curvature="0" class="st1" d="M406.2,240.8c-0.7,0.5-1.3,0.9-1.7,1.4
		c-0.3,0.4-0.6,0.6-0.7,0.6v1.2c-0.1,0.1-0.1,0.3-0.1,0.4v0.4v0.4h-0.2c-0.1,0.1-0.2,0.3-0.2,0.4c0,0.1,0.1,0.2,0.2,0.4
		c0.1,0.4,0.3,0.6,0.7,0.6h0.5c0.2,0,0.5-0.1,0.7-0.2l0.5-0.2c0.2-0.3,0.3-0.4,0.3-0.6l-0.2-0.2v-1c0-1,0.1-1.9,0.2-2.7
		c0-0.1,0-0.2,0.1-0.3c0.1-0.1,0.1-0.2,0.1-0.3C406.3,240.9,406.3,240.8,406.2,240.8L406.2,240.8z"/>
	<path id="path496" inkscape:connector-curvature="0" class="st1" d="M406.7,234.4c-0.1,0-0.3,0.1-0.7,0.2h-0.5
		c-0.5,0-0.7,0.1-0.9,0.2l-0.2,1c-0.1,1.1-0.3,2.2-0.5,3.5c0,0.1,0,0.3-0.1,0.6s-0.1,0.5-0.1,0.6v0.5v0.5v0.2h0.4
		c0.3-0.2,0.8-0.7,1.5-1.4l0.4-0.2l0.3-0.2v-1c0.1-0.4,0.2-0.8,0.3-1.3c0.1-0.4,0.1-0.7,0.1-0.9v-0.6c0-0.3,0.1-0.4,0.2-0.6l0.2-0.4
		C407,234.7,406.9,234.4,406.7,234.4L406.7,234.4z"/>
	<path id="path498" inkscape:connector-curvature="0" class="st1" d="M407.9,223.2h-0.2c-0.1,0-0.2-0.1-0.2-0.2
		c-0.5,0.1-1,0.3-1.4,0.5c-0.4,0.2-0.6,0.5-0.6,0.9l0.1,0.2l0.1,0.2v0.2c-0.1,0.4-0.2,1-0.3,1.9c-0.2,1.8-0.4,3.2-0.5,4.2v0.6v0.6
		c-0.1,0.4-0.2,0.7-0.2,0.9v0.2v0.2c0.2,0.1,0.4,0.3,0.5,0.4h0.5c1,0,1.5-0.2,1.6-0.6l-0.2-0.6v-0.2v-0.4c0-0.1,0-0.3-0.1-0.5
		c-0.1-0.2-0.1-0.4-0.1-0.5c0-1,0.2-3,0.7-5.8v-0.3v-0.3v-0.2c0-0.1,0.1-0.2,0.2-0.3l0.3-0.4C408.2,223.9,408.1,223.6,407.9,223.2z"
		/>
	<path id="path500" inkscape:connector-curvature="0" class="st1" d="M407,257.2l-0.3-0.2c-0.2-0.1-0.3-0.3-0.4-0.4h-0.7
		c-0.5,0-0.8,0.1-0.8,0.2l0.2,0.2v0.2l-0.2,0.2v0.2c0,0.5,0.2,0.8,0.5,1c0.1,0.1,0.3,0.3,0.4,0.4c0.2,0.1,0.3,0.3,0.4,0.4l0.3,0.2
		c0.2,0.1,0.4,0.3,0.5,0.4c0.1,0.2,0.3,0.6,0.5,1.2c0.2,0.5,0.4,0.9,0.5,1.2l0.9,2.7h0.2v-1C409.1,260.8,408.4,258.5,407,257.2
		L407,257.2z"/>
	<path id="path502" inkscape:connector-curvature="0" class="st1" d="M412.4,259.7c-0.5-1.2-1-2.2-1.7-2.9c0-0.1-0.3-0.5-0.9-1.2
		c-0.4-0.6-0.8-1-1-1l-0.3,0.1l-0.3,0.1l-0.2-0.2h-0.1c-0.1,0-0.1,0-0.3,0.1l-0.2,0.1c-0.3,0.1-0.5,0.5-0.5,1c0,0.5,0.2,0.7,0.7,0.8
		h0.1h0.2c0.1,0,0.2,0.1,0.4,0.2c0.5,0.1,1.3,0.8,2.4,1.9c0.1,0,0.3,0.2,0.7,0.5c0.3,0.3,0.6,0.6,0.9,0.9l0.3,0.4
		C412.5,260.3,412.5,260.1,412.4,259.7L412.4,259.7z"/>
	<path id="path504" inkscape:connector-curvature="0" class="st1" d="M408.7,242.5c-0.3-0.3-0.6-0.4-0.7-0.4c-0.2-0.1-0.6-0.2-1-0.2
		c0.1,0.3,0.2,0.6,0.3,1c0,0.1,0.1,0.3,0.2,0.4c0.1,0.1,0.2,0.3,0.2,0.4c0.5,0.5,0.8,0.8,1,0.8c0.3,0,0.5-0.2,0.7-0.6
		c0.1-0.1,0.2-0.3,0.2-0.4C409.6,243.2,409.3,242.9,408.7,242.5z"/>
	<path id="path506" inkscape:connector-curvature="0" class="st1" d="M414.1,243.5c-0.1,0-0.3-0.2-0.5-0.5c-0.2-0.3-0.4-0.5-0.5-0.7
		c-0.4-0.4-0.8-0.7-1-1c-0.9-0.8-1.7-1.3-2.4-1.5c-0.3-0.1-0.6-0.2-0.9-0.2c-0.2,0-0.5,0.1-0.7,0.2c-0.3,0.1-0.5,0.4-0.5,0.8
		c0,0.1,0.2,0.3,0.5,0.6c0.2,0.1,0.6,0.3,1,0.4c0.5,0.1,0.7,0.2,0.9,0.2C410.3,241.9,411.7,242.4,414.1,243.5L414.1,243.5z"/>
</g>
</svg>
